<?xml version="1.0" encoding="utf-8"?>
<svg xmlns="http://www.w3.org/2000/svg" xmlns:serif="http://www.serif.com/" xmlns:xlink="http://www.w3.org/1999/xlink" height="100%" style="fill-rule:evenodd;clip-rule:evenodd;stroke-linejoin:bevel;" version="1.1" width="100%" xml:space="preserve" viewBox="0 0 1586 206">
	<g transform="matrix(1,0,0,1,-336.614,-578.281)">
		<g xmlns="" transform="matrix(0.653498,0,0,1,116.637,0)">
			<path d="M336.614,634.252L2763.78,634.252" style="fill:none;fill-rule:nonzero;stroke:black;stroke-width:2.73px;"/>
		</g>
		<g xmlns="" transform="matrix(0.653498,0,0,1,116.637,0)">
			<path d="M336.614,659.055L2763.78,659.055" style="fill:none;fill-rule:nonzero;stroke:black;stroke-width:2.73px;"/>
		</g>
		<g xmlns="" transform="matrix(0.653498,0,0,1,116.637,0)">
			<path d="M336.614,683.858L2763.78,683.858" style="fill:none;fill-rule:nonzero;stroke:black;stroke-width:2.73px;"/>
		</g>
		<g xmlns="" transform="matrix(0.653498,0,0,1,116.637,0)">
			<path d="M336.614,708.661L2763.78,708.661" style="fill:none;fill-rule:nonzero;stroke:black;stroke-width:2.73px;"/>
		</g>
		<g xmlns="" transform="matrix(0.653498,0,0,1,116.637,0)">
			<path d="M336.614,733.465L2763.78,733.465" style="fill:none;fill-rule:nonzero;stroke:black;stroke-width:2.73px;"/>
		</g>
		<g xmlns="" transform="matrix(1,0,0,1,-66.2783,0)">
			<path d="M597.888,611.929C655.086,561.743 819.528,569.184 871.959,624.331C819.214,576.122 654.772,568.681 597.888,611.929" style="stroke:black;stroke-width:1.74px;stroke-linecap:round;stroke-linejoin:round;"/>
		</g>
		<g xmlns="" transform="matrix(1,0,0,1,-66.2783,0)">
			<path d="M978.109,649.134C1037.68,601.523 1202.12,616.405 1252.18,673.937C1201.5,623.322 1037.06,608.44 978.109,649.134" style="stroke:black;stroke-width:1.74px;stroke-linecap:round;stroke-linejoin:round;"/>
		</g>
		<g xmlns="" transform="matrix(1,0,0,1,-66.2783,0)">
			<path d="M1358.33,730.984C1383.09,748.929 1426.61,742.728 1445.37,718.583C1427.59,749.604 1384.07,755.805 1358.33,730.984" style="stroke:black;stroke-width:1.74px;stroke-linecap:round;stroke-linejoin:round;"/>
		</g>
		<g xmlns="" transform="matrix(1,0,0,1,-66.2783,0)">
			<path d="M1565.04,661.535C1570.39,637.232 1597.59,624.831 1619.44,636.732C1600.47,631.15 1573.27,643.551 1565.04,661.535" style="stroke:black;stroke-width:1.74px;stroke-linecap:round;stroke-linejoin:round;"/>
		</g>
		<g xmlns="" transform="matrix(1,0,0,1,-66.2783,0)">
			<path d="M1725.59,649.134C1757.83,618.452 1814.97,624.653 1839.88,661.535C1814.22,631.557 1757.08,625.356 1725.59,649.134" style="stroke:black;stroke-width:1.74px;stroke-linecap:round;stroke-linejoin:round;"/>
		</g>
		<g xmlns="" transform="matrix(1,0,0,1,-66.2783,0)">
			<path d="M927.515,632.888L927.515,734.829" style="fill:none;fill-rule:nonzero;stroke:black;stroke-width:4.46px;"/>
		</g>
		<g xmlns="" transform="matrix(1,0,0,1,-66.2783,0)">
			<path d="M1307.74,632.888L1307.74,734.829" style="fill:none;fill-rule:nonzero;stroke:black;stroke-width:4.46px;"/>
		</g>
		<g xmlns="" transform="matrix(1,0,0,1,-66.2783,0)">
			<path d="M1675,632.888L1675,734.829" style="fill:none;fill-rule:nonzero;stroke:black;stroke-width:4.46px;"/>
		</g>
		<g xmlns="" transform="matrix(1,0,0,1,-66.2783,0)">
			<path d="M583.134,637.586L583.134,721.063" style="fill:none;fill-rule:nonzero;stroke:black;stroke-width:2.73px;"/>
		</g>
		<g xmlns="" transform="matrix(1,0,0,1,-66.2783,0)">
			<path d="M699.087,649.987L699.087,727.264" style="fill:none;fill-rule:nonzero;stroke:black;stroke-width:2.73px;"/>
		</g>
		<g xmlns="" transform="matrix(1,0,0,1,-66.2783,0)">
			<path d="M751.793,637.586L751.793,727.264" style="fill:none;fill-rule:nonzero;stroke:black;stroke-width:2.73px;"/>
		</g>
		<g xmlns="" transform="matrix(1,0,0,1,-66.2783,0)">
			<path d="M804.499,625.184L804.499,727.264" style="fill:none;fill-rule:nonzero;stroke:black;stroke-width:2.73px;"/>
		</g>
		<g xmlns="" transform="matrix(1,0,0,1,-66.2783,0)">
			<path d="M857.205,649.987L857.205,727.264" style="fill:none;fill-rule:nonzero;stroke:black;stroke-width:2.73px;"/>
		</g>
		<g xmlns="" transform="matrix(1,0,0,1,-66.2783,0)">
			<path d="M963.355,674.79L963.355,752.067" style="fill:none;fill-rule:nonzero;stroke:black;stroke-width:2.73px;"/>
		</g>
		<g xmlns="" transform="matrix(1,0,0,1,-66.2783,0)">
			<path d="M1079.31,662.389L1079.31,752.067" style="fill:none;fill-rule:nonzero;stroke:black;stroke-width:2.73px;"/>
		</g>
		<g xmlns="" transform="matrix(1,0,0,1,-66.2783,0)">
			<path d="M1132.01,674.79L1132.01,760.335" style="fill:none;fill-rule:nonzero;stroke:black;stroke-width:2.73px;"/>
		</g>
		<g xmlns="" transform="matrix(1,0,0,1,-66.2783,0)">
			<path d="M1184.72,687.192L1184.72,768.602" style="fill:none;fill-rule:nonzero;stroke:black;stroke-width:2.73px;"/>
		</g>
		<g xmlns="" transform="matrix(1,0,0,1,-66.2783,0)">
			<path d="M1237.43,699.593L1237.43,776.87" style="fill:none;fill-rule:nonzero;stroke:black;stroke-width:2.73px;"/>
		</g>
		<g xmlns="" transform="matrix(1,0,0,1,-66.2783,0)">
			<path d="M1373.08,705.487L1373.08,624.951" style="fill:none;fill-rule:nonzero;stroke:black;stroke-width:2.73px;"/>
		</g>
		<g xmlns="" transform="matrix(1,0,0,1,-66.2783,0)">
			<path d="M1460.12,693.085L1460.12,615.65" style="fill:none;fill-rule:nonzero;stroke:black;stroke-width:2.73px;"/>
		</g>
		<g xmlns="" transform="matrix(1,0,0,1,-66.2783,0)">
			<path d="M1550.29,687.192L1550.29,758.268" style="fill:none;fill-rule:nonzero;stroke:black;stroke-width:2.73px;"/>
		</g>
		<g xmlns="" transform="matrix(1,0,0,1,-66.2783,0)">
			<path d="M1604.69,662.389L1604.69,733.465" style="fill:none;fill-rule:nonzero;stroke:black;stroke-width:2.73px;"/>
		</g>
		<g xmlns="" transform="matrix(1,0,0,1,-66.2783,0)">
			<path d="M1710.84,674.79L1710.84,752.067" style="fill:none;fill-rule:nonzero;stroke:black;stroke-width:2.73px;"/>
		</g>
		<g xmlns="" transform="matrix(1,0,0,1,-66.2783,0)">
			<path d="M1825.13,687.192L1825.13,758.268" style="fill:none;fill-rule:nonzero;stroke:black;stroke-width:2.73px;"/>
		</g>
		<g xmlns="" transform="matrix(1,0,0,1,-66.2783,0)">
			<path d="M1913.21,693.085L1913.21,615.65" style="fill:none;fill-rule:nonzero;stroke:black;stroke-width:2.73px;"/>
		</g>
		<g xmlns="" transform="matrix(0.992126,0,0,0.992126,515.492,634.252)">
			<path d="M31.5,-8.1C29.7,-11.4 25.9,-13.2 21.3,-13.2C17.9,-13.2 14.2,-12.2 10.6,-10.3C4,-6.8 0,-0.9 0,4.2C0,5.6 0.3,7 1,8.3C2.8,11.6 6.6,13.3 11.2,13.3C14.6,13.3 18.3,12.4 21.9,10.5C28.5,7 32.5,1.1 32.5,-4C32.5,-5.4 32.2,-6.8 31.5,-8.1" style="fill-rule:nonzero;"/>
		</g>
		<g xmlns="" transform="matrix(0.992126,0,0,0.992126,631.445,646.654)">
			<path d="M31.5,-8.1C29.7,-11.4 25.9,-13.2 21.3,-13.2C17.9,-13.2 14.2,-12.2 10.6,-10.3C4,-6.8 0,-0.9 0,4.2C0,5.6 0.3,7 1,8.3C2.8,11.6 6.6,13.3 11.2,13.3C14.6,13.3 18.3,12.4 21.9,10.5C28.5,7 32.5,1.1 32.5,-4C32.5,-5.4 32.2,-6.8 31.5,-8.1" style="fill-rule:nonzero;"/>
		</g>
		<g xmlns="" transform="matrix(0.992126,0,0,0.992126,684.151,634.252)">
			<path d="M31.5,-8.1C29.7,-11.4 25.9,-13.2 21.3,-13.2C17.9,-13.2 14.2,-12.2 10.6,-10.3C4,-6.8 0,-0.9 0,4.2C0,5.6 0.3,7 1,8.3C2.8,11.6 6.6,13.3 11.2,13.3C14.6,13.3 18.3,12.4 21.9,10.5C28.5,7 32.5,1.1 32.5,-4C32.5,-5.4 32.2,-6.8 31.5,-8.1" style="fill-rule:nonzero;"/>
		</g>
		<g xmlns="" transform="matrix(0.992126,0,0,0.992126,736.857,621.85)">
			<path d="M31.5,-8.1C29.7,-11.4 25.9,-13.2 21.3,-13.2C17.9,-13.2 14.2,-12.2 10.6,-10.3C4,-6.8 0,-0.9 0,4.2C0,5.6 0.3,7 1,8.3C2.8,11.6 6.6,13.3 11.2,13.3C14.6,13.3 18.3,12.4 21.9,10.5C28.5,7 32.5,1.1 32.5,-4C32.5,-5.4 32.2,-6.8 31.5,-8.1" style="fill-rule:nonzero;"/>
		</g>
		<g xmlns="" transform="matrix(0.992126,0,0,0.992126,789.563,646.654)">
			<path d="M31.5,-8.1C29.7,-11.4 25.9,-13.2 21.3,-13.2C17.9,-13.2 14.2,-12.2 10.6,-10.3C4,-6.8 0,-0.9 0,4.2C0,5.6 0.3,7 1,8.3C2.8,11.6 6.6,13.3 11.2,13.3C14.6,13.3 18.3,12.4 21.9,10.5C28.5,7 32.5,1.1 32.5,-4C32.5,-5.4 32.2,-6.8 31.5,-8.1" style="fill-rule:nonzero;"/>
		</g>
		<g xmlns="" transform="matrix(0.992126,0,0,0.992126,895.713,671.457)">
			<path d="M31.5,-8.1C29.7,-11.4 25.9,-13.2 21.3,-13.2C17.9,-13.2 14.2,-12.2 10.6,-10.3C4,-6.8 0,-0.9 0,4.2C0,5.6 0.3,7 1,8.3C2.8,11.6 6.6,13.3 11.2,13.3C14.6,13.3 18.3,12.4 21.9,10.5C28.5,7 32.5,1.1 32.5,-4C32.5,-5.4 32.2,-6.8 31.5,-8.1" style="fill-rule:nonzero;"/>
		</g>
		<g xmlns="" transform="matrix(0.992126,0,0,0.992126,1011.66,659.055)">
			<path d="M31.5,-8.1C29.7,-11.4 25.9,-13.2 21.3,-13.2C17.9,-13.2 14.2,-12.2 10.6,-10.3C4,-6.8 0,-0.9 0,4.2C0,5.6 0.3,7 1,8.3C2.8,11.6 6.6,13.3 11.2,13.3C14.6,13.3 18.3,12.4 21.9,10.5C28.5,7 32.5,1.1 32.5,-4C32.5,-5.4 32.2,-6.8 31.5,-8.1" style="fill-rule:nonzero;"/>
		</g>
		<g xmlns="" transform="matrix(0.992126,0,0,0.992126,1064.37,671.457)">
			<path d="M31.5,-8.1C29.7,-11.4 25.9,-13.2 21.3,-13.2C17.9,-13.2 14.2,-12.2 10.6,-10.3C4,-6.8 0,-0.9 0,4.2C0,5.6 0.3,7 1,8.3C2.8,11.6 6.6,13.3 11.2,13.3C14.6,13.3 18.3,12.4 21.9,10.5C28.5,7 32.5,1.1 32.5,-4C32.5,-5.4 32.2,-6.8 31.5,-8.1" style="fill-rule:nonzero;"/>
		</g>
		<g xmlns="" transform="matrix(0.992126,0,0,0.992126,1117.08,683.858)">
			<path d="M31.5,-8.1C29.7,-11.4 25.9,-13.2 21.3,-13.2C17.9,-13.2 14.2,-12.2 10.6,-10.3C4,-6.8 0,-0.9 0,4.2C0,5.6 0.3,7 1,8.3C2.8,11.6 6.6,13.3 11.2,13.3C14.6,13.3 18.3,12.4 21.9,10.5C28.5,7 32.5,1.1 32.5,-4C32.5,-5.4 32.2,-6.8 31.5,-8.1" style="fill-rule:nonzero;"/>
		</g>
		<g xmlns="" transform="matrix(0.992126,0,0,0.992126,1169.78,696.26)">
			<path d="M31.5,-8.1C29.7,-11.4 25.9,-13.2 21.3,-13.2C17.9,-13.2 14.2,-12.2 10.6,-10.3C4,-6.8 0,-0.9 0,4.2C0,5.6 0.3,7 1,8.3C2.8,11.6 6.6,13.3 11.2,13.3C14.6,13.3 18.3,12.4 21.9,10.5C28.5,7 32.5,1.1 32.5,-4C32.5,-5.4 32.2,-6.8 31.5,-8.1" style="fill-rule:nonzero;"/>
		</g>
		<g xmlns="" transform="matrix(0.992126,0,0,0.992126,1275.93,708.661)">
			<path d="M31.5,-8.1C29.7,-11.4 25.9,-13.2 21.3,-13.2C17.9,-13.2 14.2,-12.2 10.6,-10.3C4,-6.8 0,-0.9 0,4.2C0,5.6 0.3,7 1,8.3C2.8,11.6 6.6,13.3 11.2,13.3C14.6,13.3 18.3,12.4 21.9,10.5C28.5,7 32.5,1.1 32.5,-4C32.5,-5.4 32.2,-6.8 31.5,-8.1" style="fill-rule:nonzero;"/>
		</g>
		<g xmlns="" transform="matrix(0.992126,0,0,0.992126,1362.97,696.26)">
			<path d="M31.5,-8.1C29.7,-11.4 25.9,-13.2 21.3,-13.2C17.9,-13.2 14.2,-12.2 10.6,-10.3C4,-6.8 0,-0.9 0,4.2C0,5.6 0.3,7 1,8.3C2.8,11.6 6.6,13.3 11.2,13.3C14.6,13.3 18.3,12.4 21.9,10.5C28.5,7 32.5,1.1 32.5,-4C32.5,-5.4 32.2,-6.8 31.5,-8.1" style="fill-rule:nonzero;"/>
		</g>
		<g xmlns="" transform="matrix(0.992126,0,0,0.992126,1482.65,683.858)">
			<path d="M31.5,-8.1C29.7,-11.4 25.9,-13.2 21.3,-13.2C17.9,-13.2 14.2,-12.2 10.6,-10.3C4,-6.8 0,-0.9 0,4.2C0,5.6 0.3,7 1,8.3C2.8,11.6 6.6,13.3 11.2,13.3C14.6,13.3 18.3,12.4 21.9,10.5C28.5,7 32.5,1.1 32.5,-4C32.5,-5.4 32.2,-6.8 31.5,-8.1" style="fill-rule:nonzero;"/>
		</g>
		<g xmlns="" transform="matrix(0.992126,0,0,0.992126,1537.04,659.055)">
			<path d="M31.5,-8.1C29.7,-11.4 25.9,-13.2 21.3,-13.2C17.9,-13.2 14.2,-12.2 10.6,-10.3C4,-6.8 0,-0.9 0,4.2C0,5.6 0.3,7 1,8.3C2.8,11.6 6.6,13.3 11.2,13.3C14.6,13.3 18.3,12.4 21.9,10.5C28.5,7 32.5,1.1 32.5,-4C32.5,-5.4 32.2,-6.8 31.5,-8.1" style="fill-rule:nonzero;"/>
		</g>
		<g xmlns="" transform="matrix(0.992126,0,0,0.992126,1643.19,671.457)">
			<path d="M31.5,-8.1C29.7,-11.4 25.9,-13.2 21.3,-13.2C17.9,-13.2 14.2,-12.2 10.6,-10.3C4,-6.8 0,-0.9 0,4.2C0,5.6 0.3,7 1,8.3C2.8,11.6 6.6,13.3 11.2,13.3C14.6,13.3 18.3,12.4 21.9,10.5C28.5,7 32.5,1.1 32.5,-4C32.5,-5.4 32.2,-6.8 31.5,-8.1" style="fill-rule:nonzero;"/>
		</g>
		<g xmlns="" transform="matrix(0.992126,0,0,0.992126,1757.48,683.858)">
			<path d="M31.5,-8.1C29.7,-11.4 25.9,-13.2 21.3,-13.2C17.9,-13.2 14.2,-12.2 10.6,-10.3C4,-6.8 0,-0.9 0,4.2C0,5.6 0.3,7 1,8.3C2.8,11.6 6.6,13.3 11.2,13.3C14.6,13.3 18.3,12.4 21.9,10.5C28.5,7 32.5,1.1 32.5,-4C32.5,-5.4 32.2,-6.8 31.5,-8.1" style="fill-rule:nonzero;"/>
		</g>
		<g xmlns="" transform="matrix(0.992126,0,0,0.992126,1816.06,696.26)">
			<path d="M31.5,-8.1C29.7,-11.4 25.9,-13.2 21.3,-13.2C17.9,-13.2 14.2,-12.2 10.6,-10.3C4,-6.8 0,-0.9 0,4.2C0,5.6 0.3,7 1,8.3C2.8,11.6 6.6,13.3 11.2,13.3C14.6,13.3 18.3,12.4 21.9,10.5C28.5,7 32.5,1.1 32.5,-4C32.5,-5.4 32.2,-6.8 31.5,-8.1" style="fill-rule:nonzero;"/>
		</g>
		<g xmlns="" transform="matrix(0.992126,0,0,0.992126,356.457,708.661)">
			<path d="M63.35,-5.87C62.12,-11.3 59.48,-15.12 58.7,-16.16C55.51,-20.43 51.5,-23.28 46.81,-24.63C43.7,-25.52 40.7,-25.63 38.28,-25.45C37.24,-31.46 36.24,-37.34 35.33,-42.79C40.78,-48.96 44.4,-54.76 46.68,-59.06C50.15,-65.64 51.3,-70.22 51.35,-70.42C53.07,-75.63 53.43,-83.33 52.33,-91.54C51.32,-99.09 49.23,-105.8 46.88,-109.05C45.85,-110.48 44.8,-111.21 43.76,-111.21C42.54,-111.21 40.03,-109.97 37.14,-107.2C34.84,-105 31.57,-101.11 29.01,-95.1C26.01,-88.04 25.8,-78.55 26.15,-71.83C26.53,-64.56 27.64,-58.87 27.65,-58.82C27.67,-58.73 27.93,-57.23 28.38,-54.66C28.15,-54.43 27.91,-54.21 27.66,-53.97C26.62,-52.97 25.43,-51.83 24.05,-50.45C23.19,-49.59 22.24,-48.68 21.24,-47.71C12.79,-39.57 0,-27.25 0,-8.1C0,-3.4 0.9,1.02 2.68,5.03C4.27,8.63 6.57,11.91 9.5,14.78C17.23,22.33 27.82,25.54 34.88,25.38C37.83,25.31 40.46,25.07 42.85,24.62C44.68,34.22 45.82,41.25 45.86,46.59C45.9,53.1 44.25,57.07 40.35,59.84C37.92,61.57 35.11,62.52 32.01,62.67C29.42,62.79 27.16,62.32 25.73,61.91L25.72,61.91C25.72,61.91 25.43,61.83 25.42,61.63C25.41,61.45 25.76,61.4 25.77,61.4L25.79,61.4C27.71,60.96 31.28,59.73 33.64,56.43C35.44,53.91 36.31,49.29 34.47,45.35C33.36,42.96 30.85,40.01 25.23,39.56C22.74,39.36 20.47,39.87 18.47,41.07C16.66,42.15 15.16,43.79 14.11,45.79C11.65,50.49 12.11,56.22 15.24,60.06C18.2,63.68 22.82,65.99 28.25,66.57C29.1,66.66 29.95,66.7 30.8,66.7C35.23,66.7 39.63,65.5 43.2,63.29C46.86,60.72 48.98,56.74 49.66,51.11C50.22,46.47 49.83,40.56 48.43,32.49C48.07,30.4 47.53,27.37 46.87,23.61C52.62,21.69 56.78,18.12 60.55,12.27C63.84,6.53 64.78,0.43 63.35,-5.87M29.14,20.32C24.5,19.1 20.07,16.6 16.31,13.1C15,11.87 13.13,9.7 11.66,6.31C10.29,3.15 9.63,-0.28 9.68,-3.87C9.75,-8.56 11.06,-13.38 13.57,-18.17C16.49,-23.75 21.05,-29.28 27.11,-34.61C28.56,-35.89 29.93,-37.17 31.22,-38.45C31.98,-34.19 32.81,-29.5 33.69,-24.62C29.84,-23.35 25.09,-20.2 21.98,-14.55C18.44,-7.98 18.58,-2.46 19.31,1.02C20.25,5.48 22.78,9.24 26.24,11.33C27.17,11.89 31.3,14.02 33.14,13.44C33.51,13.32 33.78,13.1 33.92,12.77C34.43,11.6 33.41,10.96 31.85,10C31.25,9.63 30.58,9.21 29.85,8.68C26.53,6.19 25.08,1.74 26.15,-2.64C26.73,-5.04 28.01,-7.2 29.85,-8.9C31.52,-10.45 33.56,-11.55 35.94,-12.19C37.98,-0.95 40.04,10.2 41.68,18.56C41.81,19.25 41.95,19.92 42.08,20.59C37.7,21.52 33.35,21.43 29.14,20.32M40.46,-12.86C50.81,-13.33 55.08,-5.89 55.97,-1.06C56.44,1.47 56.43,5.91 54.89,10.12C53.72,13.3 51.26,17.37 46.13,19.43C46.06,19.01 45.98,18.58 45.9,18.15C44.36,9.38 42.42,-1.61 40.46,-12.86M33.14,-83.8C34.92,-89.54 37.66,-92.79 39.65,-94.52C41.4,-96.04 43.05,-96.75 43.97,-96.75C44.11,-96.75 44.23,-96.73 44.33,-96.7C44.79,-96.56 45.32,-95.99 45.79,-95.12C48.1,-90.83 47.36,-84.12 46.02,-79.68C44.39,-74.28 41.47,-68.66 32.67,-59.05C32.5,-60.16 32.34,-61.21 32.19,-62.19C30.94,-70.48 31.26,-77.75 33.14,-83.8" style="fill-rule:nonzero;"/>
		</g>
		<g xmlns="" transform="matrix(0.992126,0,0,0.992126,444.74,683.858)">
			<path d="M20.1,-7.9C19.5,-11.8 17.1,-15.5 12,-15.5C7,-15.5 4.1,-12.4 3.6,-11.8L4,-43.9C4,-44.7 3.4,-45.3 2.6,-45.3L1.4,-45.3C0.6,-45.3 0,-44.7 0,-43.9L0.5,16.2C0.5,17 1.1,17.6 1.9,17.6C2.1,17.6 2.5,17.5 2.7,17.4C3.1,17.2 9.6,14 15,7.9C18.8,3.6 20.3,-1.3 20.3,-5.4C20.3,-6.3 20.2,-7.1 20.1,-7.9M13.2,-4C13.2,-2.5 12.8,2.1 10.3,5.9C8.6,8.5 5.2,11.2 3.3,12.7L3.6,-6.8C3.8,-7.7 5.3,-10.6 9.3,-10.6C12.9,-10.6 13.2,-7.2 13.2,-5.1L13.2,-4" style="fill-rule:nonzero;"/>
		</g>
		<g xmlns="" transform="matrix(1,0,0,1,-66.2783,0)">
			<path d="M697.723,721.063L858.57,721.063L858.57,733.465L697.723,733.465L697.723,721.063"/>
		</g>
		<g xmlns="" transform="matrix(1,0,0,1,-66.2783,0)">
			<path d="M697.723,702.461L858.57,702.461L858.57,714.862L697.723,714.862L697.723,702.461"/>
		</g>
		<g xmlns="" transform="matrix(1,0,0,1,-66.2783,0)">
			<path d="M1077.94,745.79L1238.79,771.021L1238.79,783.575L1077.94,758.344L1077.94,745.79"/>
		</g>
		<g xmlns="" transform="matrix(1,0,0,1,-66.2783,0)">
			<path d="M1077.94,727.188L1238.79,752.419L1238.79,764.972L1077.94,739.741L1077.94,727.188"/>
		</g>
		<g xmlns="" transform="matrix(1,0,0,1,-66.2783,0)">
			<path d="M1548.93,751.453L1606.05,725.406L1606.05,739.035L1548.93,765.083L1548.93,751.453"/>
		</g>
		<g xmlns="" transform="matrix(1,0,0,1,-66.2783,0)">
			<path d="M1548.93,732.85L1606.05,706.803L1606.05,720.433L1548.93,746.48L1548.93,732.85"/>
		</g>
		<g xmlns="" transform="matrix(1,0,0,1,-66.2783,0)">
			<path d="M1709.47,745.857L1826.49,752.206L1826.49,764.626L1709.47,758.277L1709.47,745.857"/>
		</g>
		<g xmlns="" transform="matrix(1,0,0,1,-66.2783,0)">
			<path d="M1826.49,733.603L1794.25,731.854L1794.25,744.274L1826.49,746.023L1826.49,733.603"/>
		</g>
		<g xmlns="" transform="matrix(0.992126,0,0,0.992126,1305.44,624.951)">
			<path d="M3.5,3.5C3.4,3.2 2.5,-0.3 2.5,-0.5C2.4,-0.9 1.8,-1.2 1.3,-1.2C0.6,-1.2 0,-0.6 0,0.1L0,22.7C0,23.2 0.4,23.6 0.8,23.8C5,25.1 13.7,30.6 20.2,41.7C22,44.8 24.9,49 24.9,57.4C24.9,64.6 23.8,72.2 22,79.2C21.7,80.3 21.4,81.3 22.5,81.7C23.6,82.1 24,81.3 24.4,80.3C28,71.5 28.9,62.3 28.9,56.1L28.9,54.2C28.4,41.3 21,31.8 21,31.8C21.3,31.8 11.8,19.5 9.1,15.3C5.4,9.6 3.6,3.9 3.5,3.5" style="fill-rule:nonzero;"/>
		</g>
		<g xmlns="" transform="matrix(0.992126,0,0,0.992126,1845.57,615.65)">
			<path d="M3.5,3.5C3.4,3.2 2.5,-0.3 2.5,-0.5C2.4,-0.9 1.8,-1.2 1.3,-1.2C0.6,-1.2 0,-0.6 0,0.1L0,22.7C0,23.2 0.4,23.6 0.8,23.8C5,25.1 13.7,30.6 20.2,41.7C22,44.8 24.9,49 24.9,57.4C24.9,64.6 23.8,72.2 22,79.2C21.7,80.3 21.4,81.3 22.5,81.7C23.6,82.1 24,81.3 24.4,80.3C28,71.5 28.9,62.3 28.9,56.1L28.9,54.2C28.4,41.3 21,31.8 21,31.8C21.3,31.8 11.8,19.5 9.1,15.3C5.4,9.6 3.6,3.9 3.5,3.5" style="fill-rule:nonzero;"/>
		</g>
		<g xmlns="" transform="matrix(0.992126,0,0,0.992126,1687.83,671.457)">
			<path d="M0,-0.002C0,2.76 2.239,4.998 5,4.998C7.761,4.998 10,2.76 10,-0.002C10,-2.763 7.761,-5.002 5,-5.002C2.239,-5.002 0,-2.763 0,-0.002" style="fill-rule:nonzero;"/>
		</g>
	</g>
</svg>
