<?xml version="1.0" encoding="UTF-8"?>
<svg clip-rule="evenodd" fill-rule="evenodd" stroke-linejoin="bevel" xmlns:cc="http://creativecommons.org/ns#" xmlns:dc="http://purl.org/dc/elements/1.1/" xmlns:rdf="http://www.w3.org/1999/02/22-rdf-syntax-ns#" space="preserve" version="1.1" viewBox="0 0 1586 206" xmlns="http://www.w3.org/2000/svg">
 <metadata>
  <rdf:RDF>
   <cc:Work rdf:about="">
    <dc:format>image/svg+xml</dc:format>
    <dc:type rdf:resource="http://purl.org/dc/dcmitype/StillImage"/>
    <dc:title/>
   </cc:Work>
  </rdf:RDF>
 </metadata>
 <g transform="translate(-336.61 -578.28)">
  <g transform="matrix(.6535 0 0 1 116.64 0)">
   <path d="m336.61 634.25h2427.2" fill="none" stroke="#000" stroke-width="2.73px"/>
  </g>
  <g transform="matrix(.6535 0 0 1 116.64 0)">
   <path d="m336.61 659.06h2427.2" fill="none" stroke="#000" stroke-width="2.73px"/>
  </g>
  <g transform="matrix(.6535 0 0 1 116.64 0)">
   <path d="m336.61 683.86h2427.2" fill="none" stroke="#000" stroke-width="2.73px"/>
  </g>
  <g transform="matrix(.6535 0 0 1 116.64 0)">
   <path d="m336.61 708.66h2427.2" fill="none" stroke="#000" stroke-width="2.73px"/>
  </g>
  <g transform="matrix(.6535 0 0 1 116.64 0)">
   <path d="m336.61 733.46h2427.2" fill="none" stroke="#000" stroke-width="2.73px"/>
  </g>
  <g transform="translate(-66.278)">
   <path d="m597.89 611.93c57.198-50.186 221.64-42.745 274.07 12.402-52.745-48.209-217.19-55.65-274.07-12.402" stroke="#000" stroke-linecap="round" stroke-linejoin="round" stroke-width="1.74px"/>
  </g>
  <g transform="translate(-66.278)">
   <path d="m978.11 649.13c59.571-47.611 224.01-32.729 274.07 24.803-50.68-50.615-215.12-65.497-274.07-24.803" stroke="#000" stroke-linecap="round" stroke-linejoin="round" stroke-width="1.74px"/>
  </g>
  <g transform="translate(-66.278)">
   <path d="m1358.3 730.98c24.76 17.945 68.28 11.744 87.04-12.401-17.78 31.021-61.3 37.222-87.04 12.401" stroke="#000" stroke-linecap="round" stroke-linejoin="round" stroke-width="1.74px"/>
  </g>
  <g transform="translate(-66.278)">
   <path d="m1565 661.54c5.35-24.303 32.55-36.704 54.4-24.803-18.97-5.582-46.17 6.819-54.4 24.803" stroke="#000" stroke-linecap="round" stroke-linejoin="round" stroke-width="1.74px"/>
  </g>
  <g transform="translate(-66.278)">
   <path d="m1725.6 649.13c32.24-30.682 89.38-24.481 114.29 12.401-25.66-29.978-82.8-36.179-114.29-12.401" stroke="#000" stroke-linecap="round" stroke-linejoin="round" stroke-width="1.74px"/>
  </g>
  <g transform="translate(-66.278)">
   <path d="m927.52 632.89v101.94" fill="none" stroke="#000" stroke-width="4.46px"/>
  </g>
  <g transform="translate(-66.278)">
   <path d="m1307.7 632.89v101.94" fill="none" stroke="#000" stroke-width="4.46px"/>
  </g>
  <g transform="translate(-66.278)">
   <path d="m1675 632.89v101.94" fill="none" stroke="#000" stroke-width="4.46px"/>
  </g>
  <g transform="translate(-66.278)">
   <path d="m583.13 637.59v83.477" fill="none" stroke="#000" stroke-width="2.73px"/>
  </g>
  <g transform="translate(-66.278)">
   <path d="m699.09 649.99v77.277" fill="none" stroke="#000" stroke-width="2.73px"/>
  </g>
  <g transform="translate(-66.278)">
   <path d="m751.79 637.59v89.678" fill="none" stroke="#000" stroke-width="2.73px"/>
  </g>
  <g transform="translate(-66.278)">
   <path d="m804.5 625.18v102.08" fill="none" stroke="#000" stroke-width="2.73px"/>
  </g>
  <g transform="translate(-66.278)">
   <path d="m857.2 649.99v77.277" fill="none" stroke="#000" stroke-width="2.73px"/>
  </g>
  <g transform="translate(-66.278)">
   <path d="m963.36 674.79v77.277" fill="none" stroke="#000" stroke-width="2.73px"/>
  </g>
  <g transform="translate(-66.278)">
   <path d="m1079.3 662.39v89.678" fill="none" stroke="#000" stroke-width="2.73px"/>
  </g>
  <g transform="translate(-66.278)">
   <path d="m1132 674.79v85.545" fill="none" stroke="#000" stroke-width="2.73px"/>
  </g>
  <g transform="translate(-66.278)">
   <path d="m1184.7 687.19v81.41" fill="none" stroke="#000" stroke-width="2.73px"/>
  </g>
  <g transform="translate(-66.278)">
   <path d="m1237.4 699.59v77.277" fill="none" stroke="#000" stroke-width="2.73px"/>
  </g>
  <g transform="translate(-66.278)">
   <path d="m1373.1 705.49v-80.536" fill="none" stroke="#000" stroke-width="2.73px"/>
  </g>
  <g transform="translate(-66.278)">
   <path d="m1460.1 693.08v-77.435" fill="none" stroke="#000" stroke-width="2.73px"/>
  </g>
  <g transform="translate(-66.278)">
   <path d="m1550.3 687.19v71.076" fill="none" stroke="#000" stroke-width="2.73px"/>
  </g>
  <g transform="translate(-66.278)">
   <path d="m1604.7 662.39v71.076" fill="none" stroke="#000" stroke-width="2.73px"/>
  </g>
  <g transform="translate(-66.278)">
   <path d="m1710.8 674.79v77.277" fill="none" stroke="#000" stroke-width="2.73px"/>
  </g>
  <g transform="translate(-66.278)">
   <path d="m1825.1 687.19v71.076" fill="none" stroke="#000" stroke-width="2.73px"/>
  </g>
  <g transform="translate(-66.278)">
   <path d="m1913.2 693.08v-77.435" fill="none" stroke="#000" stroke-width="2.73px"/>
  </g>
  <g transform="matrix(.99213 0 0 .99213 515.49 634.25)">
   <path d="m31.5-8.1c-1.8-3.3-5.6-5.1-10.2-5.1-3.4 0-7.1 1-10.7 2.9-6.6 3.5-10.6 9.4-10.6 14.5 0 1.4 0.3 2.8 1 4.1 1.8 3.3 5.6 5 10.2 5 3.4 0 7.1-0.9 10.7-2.8 6.6-3.5 10.6-9.4 10.6-14.5 0-1.4-0.3-2.8-1-4.1" fill-rule="nonzero"/>
  </g>
  <g transform="matrix(.99213 0 0 .99213 631.44 646.65)">
   <path d="m31.5-8.1c-1.8-3.3-5.6-5.1-10.2-5.1-3.4 0-7.1 1-10.7 2.9-6.6 3.5-10.6 9.4-10.6 14.5 0 1.4 0.3 2.8 1 4.1 1.8 3.3 5.6 5 10.2 5 3.4 0 7.1-0.9 10.7-2.8 6.6-3.5 10.6-9.4 10.6-14.5 0-1.4-0.3-2.8-1-4.1" fill-rule="nonzero"/>
  </g>
  <g transform="matrix(.99213 0 0 .99213 684.15 634.25)">
   <path d="m31.5-8.1c-1.8-3.3-5.6-5.1-10.2-5.1-3.4 0-7.1 1-10.7 2.9-6.6 3.5-10.6 9.4-10.6 14.5 0 1.4 0.3 2.8 1 4.1 1.8 3.3 5.6 5 10.2 5 3.4 0 7.1-0.9 10.7-2.8 6.6-3.5 10.6-9.4 10.6-14.5 0-1.4-0.3-2.8-1-4.1" fill-rule="nonzero"/>
  </g>
  <g transform="matrix(.99213 0 0 .99213 736.86 621.85)">
   <path d="m31.5-8.1c-1.8-3.3-5.6-5.1-10.2-5.1-3.4 0-7.1 1-10.7 2.9-6.6 3.5-10.6 9.4-10.6 14.5 0 1.4 0.3 2.8 1 4.1 1.8 3.3 5.6 5 10.2 5 3.4 0 7.1-0.9 10.7-2.8 6.6-3.5 10.6-9.4 10.6-14.5 0-1.4-0.3-2.8-1-4.1" fill-rule="nonzero"/>
  </g>
  <g transform="matrix(.99213 0 0 .99213 789.56 646.65)">
   <path d="m31.5-8.1c-1.8-3.3-5.6-5.1-10.2-5.1-3.4 0-7.1 1-10.7 2.9-6.6 3.5-10.6 9.4-10.6 14.5 0 1.4 0.3 2.8 1 4.1 1.8 3.3 5.6 5 10.2 5 3.4 0 7.1-0.9 10.7-2.8 6.6-3.5 10.6-9.4 10.6-14.5 0-1.4-0.3-2.8-1-4.1" fill-rule="nonzero"/>
  </g>
  <g transform="matrix(.99213 0 0 .99213 895.71 671.46)">
   <path d="m31.5-8.1c-1.8-3.3-5.6-5.1-10.2-5.1-3.4 0-7.1 1-10.7 2.9-6.6 3.5-10.6 9.4-10.6 14.5 0 1.4 0.3 2.8 1 4.1 1.8 3.3 5.6 5 10.2 5 3.4 0 7.1-0.9 10.7-2.8 6.6-3.5 10.6-9.4 10.6-14.5 0-1.4-0.3-2.8-1-4.1" fill-rule="nonzero"/>
  </g>
  <g transform="matrix(.99213 0 0 .99213 1011.7 659.06)">
   <path d="m31.5-8.1c-1.8-3.3-5.6-5.1-10.2-5.1-3.4 0-7.1 1-10.7 2.9-6.6 3.5-10.6 9.4-10.6 14.5 0 1.4 0.3 2.8 1 4.1 1.8 3.3 5.6 5 10.2 5 3.4 0 7.1-0.9 10.7-2.8 6.6-3.5 10.6-9.4 10.6-14.5 0-1.4-0.3-2.8-1-4.1" fill-rule="nonzero"/>
  </g>
  <g transform="matrix(.99213 0 0 .99213 1064.4 671.46)">
   <path d="m31.5-8.1c-1.8-3.3-5.6-5.1-10.2-5.1-3.4 0-7.1 1-10.7 2.9-6.6 3.5-10.6 9.4-10.6 14.5 0 1.4 0.3 2.8 1 4.1 1.8 3.3 5.6 5 10.2 5 3.4 0 7.1-0.9 10.7-2.8 6.6-3.5 10.6-9.4 10.6-14.5 0-1.4-0.3-2.8-1-4.1" fill-rule="nonzero"/>
  </g>
  <g transform="matrix(.99213 0 0 .99213 1117.1 683.86)">
   <path d="m31.5-8.1c-1.8-3.3-5.6-5.1-10.2-5.1-3.4 0-7.1 1-10.7 2.9-6.6 3.5-10.6 9.4-10.6 14.5 0 1.4 0.3 2.8 1 4.1 1.8 3.3 5.6 5 10.2 5 3.4 0 7.1-0.9 10.7-2.8 6.6-3.5 10.6-9.4 10.6-14.5 0-1.4-0.3-2.8-1-4.1" fill-rule="nonzero"/>
  </g>
  <g transform="matrix(.99213 0 0 .99213 1169.8 696.26)">
   <path d="m31.5-8.1c-1.8-3.3-5.6-5.1-10.2-5.1-3.4 0-7.1 1-10.7 2.9-6.6 3.5-10.6 9.4-10.6 14.5 0 1.4 0.3 2.8 1 4.1 1.8 3.3 5.6 5 10.2 5 3.4 0 7.1-0.9 10.7-2.8 6.6-3.5 10.6-9.4 10.6-14.5 0-1.4-0.3-2.8-1-4.1" fill-rule="nonzero"/>
  </g>
  <g transform="matrix(.99213 0 0 .99213 1275.9 708.66)">
   <path d="m31.5-8.1c-1.8-3.3-5.6-5.1-10.2-5.1-3.4 0-7.1 1-10.7 2.9-6.6 3.5-10.6 9.4-10.6 14.5 0 1.4 0.3 2.8 1 4.1 1.8 3.3 5.6 5 10.2 5 3.4 0 7.1-0.9 10.7-2.8 6.6-3.5 10.6-9.4 10.6-14.5 0-1.4-0.3-2.8-1-4.1" fill-rule="nonzero"/>
  </g>
  <g transform="matrix(.99213 0 0 .99213 1363 696.26)">
   <path d="m31.5-8.1c-1.8-3.3-5.6-5.1-10.2-5.1-3.4 0-7.1 1-10.7 2.9-6.6 3.5-10.6 9.4-10.6 14.5 0 1.4 0.3 2.8 1 4.1 1.8 3.3 5.6 5 10.2 5 3.4 0 7.1-0.9 10.7-2.8 6.6-3.5 10.6-9.4 10.6-14.5 0-1.4-0.3-2.8-1-4.1" fill-rule="nonzero"/>
  </g>
  <g transform="matrix(.99213 0 0 .99213 1482.6 683.86)">
   <path d="m31.5-8.1c-1.8-3.3-5.6-5.1-10.2-5.1-3.4 0-7.1 1-10.7 2.9-6.6 3.5-10.6 9.4-10.6 14.5 0 1.4 0.3 2.8 1 4.1 1.8 3.3 5.6 5 10.2 5 3.4 0 7.1-0.9 10.7-2.8 6.6-3.5 10.6-9.4 10.6-14.5 0-1.4-0.3-2.8-1-4.1" fill-rule="nonzero"/>
  </g>
  <g transform="matrix(.99213 0 0 .99213 1537 659.06)">
   <path d="m31.5-8.1c-1.8-3.3-5.6-5.1-10.2-5.1-3.4 0-7.1 1-10.7 2.9-6.6 3.5-10.6 9.4-10.6 14.5 0 1.4 0.3 2.8 1 4.1 1.8 3.3 5.6 5 10.2 5 3.4 0 7.1-0.9 10.7-2.8 6.6-3.5 10.6-9.4 10.6-14.5 0-1.4-0.3-2.8-1-4.1" fill-rule="nonzero"/>
  </g>
  <g transform="matrix(.99213 0 0 .99213 1643.2 671.46)">
   <path d="m31.5-8.1c-1.8-3.3-5.6-5.1-10.2-5.1-3.4 0-7.1 1-10.7 2.9-6.6 3.5-10.6 9.4-10.6 14.5 0 1.4 0.3 2.8 1 4.1 1.8 3.3 5.6 5 10.2 5 3.4 0 7.1-0.9 10.7-2.8 6.6-3.5 10.6-9.4 10.6-14.5 0-1.4-0.3-2.8-1-4.1" fill-rule="nonzero"/>
  </g>
  <g transform="matrix(.99213 0 0 .99213 1757.5 683.86)">
   <path d="m31.5-8.1c-1.8-3.3-5.6-5.1-10.2-5.1-3.4 0-7.1 1-10.7 2.9-6.6 3.5-10.6 9.4-10.6 14.5 0 1.4 0.3 2.8 1 4.1 1.8 3.3 5.6 5 10.2 5 3.4 0 7.1-0.9 10.7-2.8 6.6-3.5 10.6-9.4 10.6-14.5 0-1.4-0.3-2.8-1-4.1" fill-rule="nonzero"/>
  </g>
  <g transform="matrix(.99213 0 0 .99213 1816.1 696.26)">
   <path d="m31.5-8.1c-1.8-3.3-5.6-5.1-10.2-5.1-3.4 0-7.1 1-10.7 2.9-6.6 3.5-10.6 9.4-10.6 14.5 0 1.4 0.3 2.8 1 4.1 1.8 3.3 5.6 5 10.2 5 3.4 0 7.1-0.9 10.7-2.8 6.6-3.5 10.6-9.4 10.6-14.5 0-1.4-0.3-2.8-1-4.1" fill-rule="nonzero"/>
  </g>
  <g transform="matrix(.99213 0 0 .99213 356.46 708.66)">
   <path d="m63.35-5.87c-1.23-5.43-3.87-9.25-4.65-10.29-3.19-4.27-7.2-7.12-11.89-8.47-3.11-0.89-6.11-1-8.53-0.82-1.04-6.01-2.04-11.89-2.95-17.34 5.45-6.17 9.07-11.97 11.35-16.27 3.47-6.58 4.62-11.16 4.67-11.36 1.72-5.21 2.08-12.91 0.98-21.12-1.01-7.55-3.1-14.26-5.45-17.51-1.03-1.43-2.08-2.16-3.12-2.16-1.22 0-3.73 1.24-6.62 4.01-2.3 2.2-5.57 6.09-8.13 12.1-3 7.06-3.21 16.55-2.86 23.27 0.38 7.27 1.49 12.96 1.5 13.01 0.02 0.09 0.28 1.59 0.73 4.16-0.23 0.23-0.47 0.45-0.72 0.69-1.04 1-2.23 2.14-3.61 3.52-0.86 0.86-1.81 1.77-2.81 2.74-8.45 8.14-21.24 20.46-21.24 39.61 0 4.7 0.9 9.12 2.68 13.13 1.59 3.6 3.89 6.88 6.82 9.75 7.73 7.55 18.32 10.76 25.38 10.6 2.95-0.07 5.58-0.31 7.97-0.76 1.83 9.6 2.97 16.63 3.01 21.97 0.04 6.51-1.61 10.48-5.51 13.25-2.43 1.73-5.24 2.68-8.34 2.83-2.59 0.12-4.85-0.35-6.28-0.76h-0.01s-0.29-0.08-0.3-0.28c-0.01-0.18 0.34-0.23 0.35-0.23h0.02c1.92-0.44 5.49-1.67 7.85-4.97 1.8-2.52 2.67-7.14 0.83-11.08-1.11-2.39-3.62-5.34-9.24-5.79-2.49-0.2-4.76 0.31-6.76 1.51-1.81 1.08-3.31 2.72-4.36 4.72-2.46 4.7-2 10.43 1.13 14.27 2.96 3.62 7.58 5.93 13.01 6.51 0.85 0.09 1.7 0.13 2.55 0.13 4.43 0 8.83-1.2 12.4-3.41 3.66-2.57 5.78-6.55 6.46-12.18 0.56-4.64 0.17-10.55-1.23-18.62-0.36-2.09-0.9-5.12-1.56-8.88 5.75-1.92 9.91-5.49 13.68-11.34 3.29-5.74 4.23-11.84 2.8-18.14m-34.21 26.19c-4.64-1.22-9.07-3.72-12.83-7.22-1.31-1.23-3.18-3.4-4.65-6.79-1.37-3.16-2.03-6.59-1.98-10.18 0.07-4.69 1.38-9.51 3.89-14.3 2.92-5.58 7.48-11.11 13.54-16.44 1.45-1.28 2.82-2.56 4.11-3.84 0.76 4.26 1.59 8.95 2.47 13.83-3.85 1.27-8.6 4.42-11.71 10.07-3.54 6.57-3.4 12.09-2.67 15.57 0.94 4.46 3.47 8.22 6.93 10.31 0.93 0.56 5.06 2.69 6.9 2.11 0.37-0.12 0.64-0.34 0.78-0.67 0.51-1.17-0.51-1.81-2.07-2.77-0.6-0.37-1.27-0.79-2-1.32-3.32-2.49-4.77-6.94-3.7-11.32 0.58-2.4 1.86-4.56 3.7-6.26 1.67-1.55 3.71-2.65 6.09-3.29 2.04 11.24 4.1 22.39 5.74 30.75 0.13 0.69 0.27 1.36 0.4 2.03-4.38 0.93-8.73 0.84-12.94-0.27m11.32-33.18c10.35-0.47 14.62 6.97 15.51 11.8 0.47 2.53 0.46 6.97-1.08 11.18-1.17 3.18-3.63 7.25-8.76 9.31-0.07-0.42-0.15-0.85-0.23-1.28-1.54-8.77-3.48-19.76-5.44-31.01m-7.32-70.94c1.78-5.74 4.52-8.99 6.51-10.72 1.75-1.52 3.4-2.23 4.32-2.23 0.14 0 0.26 0.02 0.36 0.05 0.46 0.14 0.99 0.71 1.46 1.58 2.31 4.29 1.57 11 0.23 15.44-1.63 5.4-4.55 11.02-13.35 20.63-0.17-1.11-0.33-2.16-0.48-3.14-1.25-8.29-0.93-15.56 0.95-21.61" fill-rule="nonzero"/>
  </g>
  <g transform="matrix(.99213 0 0 .99213 444.74 683.86)">
   <path d="m20.1-7.9c-0.6-3.9-3-7.6-8.1-7.6-5 0-7.9 3.1-8.4 3.7l0.4-32.1c0-0.8-0.6-1.4-1.4-1.4h-1.2c-0.8 0-1.4 0.6-1.4 1.4l0.5 60.1c0 0.8 0.6 1.4 1.4 1.4 0.2 0 0.6-0.1 0.8-0.2 0.4-0.2 6.9-3.4 12.3-9.5 3.8-4.3 5.3-9.2 5.3-13.3 0-0.9-0.1-1.7-0.2-2.5m-6.9 3.9c0 1.5-0.4 6.1-2.9 9.9-1.7 2.6-5.1 5.3-7 6.8l0.3-19.5c0.2-0.9 1.7-3.8 5.7-3.8 3.6 0 3.9 3.4 3.9 5.5v1.1" fill-rule="nonzero"/>
  </g>
  <g transform="translate(-66.278)">
   <path d="m697.72 721.06h160.85v12.402h-160.85v-12.402"/>
  </g>
  <g transform="translate(-66.278)">
   <path d="m697.72 702.46h160.85v12.401h-160.85v-12.401"/>
  </g>
  <g transform="translate(-66.278)">
   <path d="m1077.9 745.79 160.85 25.231v12.554l-160.85-25.231v-12.554"/>
  </g>
  <g transform="translate(-66.278)">
   <path d="m1077.9 727.19 160.85 25.231v12.553l-160.85-25.231v-12.553"/>
  </g>
  <g transform="translate(-66.278)">
   <path d="m1548.9 751.45 57.12-26.047v13.629l-57.12 26.048v-13.63"/>
  </g>
  <g transform="translate(-66.278)">
   <path d="m1548.9 732.85 57.12-26.047v13.63l-57.12 26.047v-13.63"/>
  </g>
  <g transform="translate(-66.278)">
   <path d="m1709.5 745.86 117.02 6.349v12.42l-117.02-6.349v-12.42"/>
  </g>
  <g transform="translate(-66.278)">
   <path d="m1826.5 733.6-32.24-1.749v12.42l32.24 1.749v-12.42"/>
  </g>
  <g transform="matrix(.99213 0 0 .99213 1305.4 624.95)">
   <path d="m3.5 3.5c-0.1-0.3-1-3.8-1-4-0.1-0.4-0.7-0.7-1.2-0.7-0.7 0-1.3 0.6-1.3 1.3v22.6c0 0.5 0.4 0.9 0.8 1.1 4.2 1.3 12.9 6.8 19.4 17.9 1.8 3.1 4.7 7.3 4.7 15.7 0 7.2-1.1 14.8-2.9 21.8-0.3 1.1-0.6 2.1 0.5 2.5s1.5-0.4 1.9-1.4c3.6-8.8 4.5-18 4.5-24.2v-1.9c-0.5-12.9-7.9-22.4-7.9-22.4 0.3 0-9.2-12.3-11.9-16.5-3.7-5.7-5.5-11.4-5.6-11.8" fill-rule="nonzero"/>
  </g>
  <g transform="matrix(.99213 0 0 .99213 1845.6 615.65)">
   <path d="m3.5 3.5c-0.1-0.3-1-3.8-1-4-0.1-0.4-0.7-0.7-1.2-0.7-0.7 0-1.3 0.6-1.3 1.3v22.6c0 0.5 0.4 0.9 0.8 1.1 4.2 1.3 12.9 6.8 19.4 17.9 1.8 3.1 4.7 7.3 4.7 15.7 0 7.2-1.1 14.8-2.9 21.8-0.3 1.1-0.6 2.1 0.5 2.5s1.5-0.4 1.9-1.4c3.6-8.8 4.5-18 4.5-24.2v-1.9c-0.5-12.9-7.9-22.4-7.9-22.4 0.3 0-9.2-12.3-11.9-16.5-3.7-5.7-5.5-11.4-5.6-11.8" fill-rule="nonzero"/>
  </g>
  <g transform="matrix(.99213 0 0 .99213 1687.8 671.46)">
   <path d="m0-2e-3c0 2.762 2.239 5 5 5s5-2.238 5-5c0-2.761-2.239-5-5-5s-5 2.239-5 5" fill-rule="nonzero"/>
  </g>
 </g>
 <g transform="translate(.00042423 .8724)" clip-rule="evenodd" fill-rule="evenodd" stroke-linejoin="bevel">
  <g transform="translate(-336.61 -578.28)">
   <g transform="matrix(.6535 0 0 1 116.64 0)">
    <path d="m336.61 634.25h2427.2" fill="none" stroke="#000" stroke-width="2.73px"/>
   </g>
   <g transform="matrix(.6535 0 0 1 116.64 0)">
    <path d="m336.61 659.06h2427.2" fill="none" stroke="#000" stroke-width="2.73px"/>
   </g>
   <g transform="matrix(.6535 0 0 1 116.64 0)">
    <path d="m336.61 683.86h2427.2" fill="none" stroke="#000" stroke-width="2.73px"/>
   </g>
   <g transform="matrix(.6535 0 0 1 116.64 0)">
    <path d="m336.61 708.66h2427.2" fill="none" stroke="#000" stroke-width="2.73px"/>
   </g>
   <g transform="matrix(.6535 0 0 1 116.64 0)">
    <path d="m336.61 733.46h2427.2" fill="none" stroke="#000" stroke-width="2.73px"/>
   </g>
   <g transform="translate(-66.278)">
    <path d="m597.89 611.93c57.198-50.186 221.64-42.745 274.07 12.402-52.745-48.209-217.19-55.65-274.07-12.402" stroke="#000" stroke-linecap="round" stroke-linejoin="round" stroke-width="1.74px"/>
   </g>
   <g transform="translate(-66.278)">
    <path d="m978.11 649.13c59.571-47.611 224.01-32.729 274.07 24.803-50.68-50.615-215.12-65.497-274.07-24.803" stroke="#000" stroke-linecap="round" stroke-linejoin="round" stroke-width="1.74px"/>
   </g>
   <g transform="translate(-66.278)">
    <path d="m1358.3 730.98c24.76 17.945 68.28 11.744 87.04-12.401-17.78 31.021-61.3 37.222-87.04 12.401" stroke="#000" stroke-linecap="round" stroke-linejoin="round" stroke-width="1.74px"/>
   </g>
   <g transform="translate(-66.278)">
    <path d="m1565 661.54c5.35-24.303 32.55-36.704 54.4-24.803-18.97-5.582-46.17 6.819-54.4 24.803" stroke="#000" stroke-linecap="round" stroke-linejoin="round" stroke-width="1.74px"/>
   </g>
   <g transform="translate(-66.278)">
    <path d="m1725.6 649.13c32.24-30.682 89.38-24.481 114.29 12.401-25.66-29.978-82.8-36.179-114.29-12.401" stroke="#000" stroke-linecap="round" stroke-linejoin="round" stroke-width="1.74px"/>
   </g>
   <g transform="translate(-66.278)">
    <path d="m927.52 632.89v101.94" fill="none" stroke="#000" stroke-width="4.46px"/>
   </g>
   <g transform="translate(-66.278)">
    <path d="m1307.7 632.89v101.94" fill="none" stroke="#000" stroke-width="4.46px"/>
   </g>
   <g transform="translate(-66.278)">
    <path d="m1675 632.89v101.94" fill="none" stroke="#000" stroke-width="4.46px"/>
   </g>
   <g transform="translate(-66.278)">
    <path d="m583.13 637.59v83.477" fill="none" stroke="#000" stroke-width="2.73px"/>
   </g>
   <g transform="translate(-66.278)">
    <path d="m699.09 649.99v77.277" fill="none" stroke="#000" stroke-width="2.73px"/>
   </g>
   <g transform="translate(-66.278)">
    <path d="m751.79 637.59v89.678" fill="none" stroke="#000" stroke-width="2.73px"/>
   </g>
   <g transform="translate(-66.278)">
    <path d="m804.5 625.18v102.08" fill="none" stroke="#000" stroke-width="2.73px"/>
   </g>
   <g transform="translate(-66.278)">
    <path d="m857.2 649.99v77.277" fill="none" stroke="#000" stroke-width="2.73px"/>
   </g>
   <g transform="translate(-66.278)">
    <path d="m963.36 674.79v77.277" fill="none" stroke="#000" stroke-width="2.73px"/>
   </g>
   <g transform="translate(-66.278)">
    <path d="m1079.3 662.39v89.678" fill="none" stroke="#000" stroke-width="2.73px"/>
   </g>
   <g transform="translate(-66.278)">
    <path d="m1132 674.79v85.545" fill="none" stroke="#000" stroke-width="2.73px"/>
   </g>
   <g transform="translate(-66.278)">
    <path d="m1184.7 687.19v81.41" fill="none" stroke="#000" stroke-width="2.73px"/>
   </g>
   <g transform="translate(-66.278)">
    <path d="m1237.4 699.59v77.277" fill="none" stroke="#000" stroke-width="2.73px"/>
   </g>
   <g transform="translate(-66.278)">
    <path d="m1373.1 705.49v-80.536" fill="none" stroke="#000" stroke-width="2.73px"/>
   </g>
   <g transform="translate(-66.278)">
    <path d="m1460.1 693.08v-77.435" fill="none" stroke="#000" stroke-width="2.73px"/>
   </g>
   <g transform="translate(-66.278)">
    <path d="m1550.3 687.19v71.076" fill="none" stroke="#000" stroke-width="2.73px"/>
   </g>
   <g transform="translate(-66.278)">
    <path d="m1604.7 662.39v71.076" fill="none" stroke="#000" stroke-width="2.73px"/>
   </g>
   <g transform="translate(-66.278)">
    <path d="m1710.8 674.79v77.277" fill="none" stroke="#000" stroke-width="2.73px"/>
   </g>
   <g transform="translate(-66.278)">
    <path d="m1825.1 687.19v71.076" fill="none" stroke="#000" stroke-width="2.73px"/>
   </g>
   <g transform="translate(-66.278)">
    <path d="m1913.2 693.08v-77.435" fill="none" stroke="#000" stroke-width="2.73px"/>
   </g>
   <g transform="matrix(.99213 0 0 .99213 515.49 634.25)">
    <path d="m31.5-8.1c-1.8-3.3-5.6-5.1-10.2-5.1-3.4 0-7.1 1-10.7 2.9-6.6 3.5-10.6 9.4-10.6 14.5 0 1.4 0.3 2.8 1 4.1 1.8 3.3 5.6 5 10.2 5 3.4 0 7.1-0.9 10.7-2.8 6.6-3.5 10.6-9.4 10.6-14.5 0-1.4-0.3-2.8-1-4.1" fill-rule="nonzero"/>
   </g>
   <g transform="matrix(.99213 0 0 .99213 631.44 646.65)">
    <path d="m31.5-8.1c-1.8-3.3-5.6-5.1-10.2-5.1-3.4 0-7.1 1-10.7 2.9-6.6 3.5-10.6 9.4-10.6 14.5 0 1.4 0.3 2.8 1 4.1 1.8 3.3 5.6 5 10.2 5 3.4 0 7.1-0.9 10.7-2.8 6.6-3.5 10.6-9.4 10.6-14.5 0-1.4-0.3-2.8-1-4.1" fill-rule="nonzero"/>
   </g>
   <g transform="matrix(.99213 0 0 .99213 684.15 634.25)">
    <path d="m31.5-8.1c-1.8-3.3-5.6-5.1-10.2-5.1-3.4 0-7.1 1-10.7 2.9-6.6 3.5-10.6 9.4-10.6 14.5 0 1.4 0.3 2.8 1 4.1 1.8 3.3 5.6 5 10.2 5 3.4 0 7.1-0.9 10.7-2.8 6.6-3.5 10.6-9.4 10.6-14.5 0-1.4-0.3-2.8-1-4.1" fill-rule="nonzero"/>
   </g>
   <g transform="matrix(.99213 0 0 .99213 736.86 621.85)">
    <path d="m31.5-8.1c-1.8-3.3-5.6-5.1-10.2-5.1-3.4 0-7.1 1-10.7 2.9-6.6 3.5-10.6 9.4-10.6 14.5 0 1.4 0.3 2.8 1 4.1 1.8 3.3 5.6 5 10.2 5 3.4 0 7.1-0.9 10.7-2.8 6.6-3.5 10.6-9.4 10.6-14.5 0-1.4-0.3-2.8-1-4.1" fill-rule="nonzero"/>
   </g>
   <g transform="matrix(.99213 0 0 .99213 789.56 646.65)">
    <path d="m31.5-8.1c-1.8-3.3-5.6-5.1-10.2-5.1-3.4 0-7.1 1-10.7 2.9-6.6 3.5-10.6 9.4-10.6 14.5 0 1.4 0.3 2.8 1 4.1 1.8 3.3 5.6 5 10.2 5 3.4 0 7.1-0.9 10.7-2.8 6.6-3.5 10.6-9.4 10.6-14.5 0-1.4-0.3-2.8-1-4.1" fill-rule="nonzero"/>
   </g>
   <g transform="matrix(.99213 0 0 .99213 895.71 671.46)">
    <path d="m31.5-8.1c-1.8-3.3-5.6-5.1-10.2-5.1-3.4 0-7.1 1-10.7 2.9-6.6 3.5-10.6 9.4-10.6 14.5 0 1.4 0.3 2.8 1 4.1 1.8 3.3 5.6 5 10.2 5 3.4 0 7.1-0.9 10.7-2.8 6.6-3.5 10.6-9.4 10.6-14.5 0-1.4-0.3-2.8-1-4.1" fill-rule="nonzero"/>
   </g>
   <g transform="matrix(.99213 0 0 .99213 1011.7 659.06)">
    <path d="m31.5-8.1c-1.8-3.3-5.6-5.1-10.2-5.1-3.4 0-7.1 1-10.7 2.9-6.6 3.5-10.6 9.4-10.6 14.5 0 1.4 0.3 2.8 1 4.1 1.8 3.3 5.6 5 10.2 5 3.4 0 7.1-0.9 10.7-2.8 6.6-3.5 10.6-9.4 10.6-14.5 0-1.4-0.3-2.8-1-4.1" fill-rule="nonzero"/>
   </g>
   <g transform="matrix(.99213 0 0 .99213 1064.4 671.46)">
    <path d="m31.5-8.1c-1.8-3.3-5.6-5.1-10.2-5.1-3.4 0-7.1 1-10.7 2.9-6.6 3.5-10.6 9.4-10.6 14.5 0 1.4 0.3 2.8 1 4.1 1.8 3.3 5.6 5 10.2 5 3.4 0 7.1-0.9 10.7-2.8 6.6-3.5 10.6-9.4 10.6-14.5 0-1.4-0.3-2.8-1-4.1" fill-rule="nonzero"/>
   </g>
   <g transform="matrix(.99213 0 0 .99213 1117.1 683.86)">
    <path d="m31.5-8.1c-1.8-3.3-5.6-5.1-10.2-5.1-3.4 0-7.1 1-10.7 2.9-6.6 3.5-10.6 9.4-10.6 14.5 0 1.4 0.3 2.8 1 4.1 1.8 3.3 5.6 5 10.2 5 3.4 0 7.1-0.9 10.7-2.8 6.6-3.5 10.6-9.4 10.6-14.5 0-1.4-0.3-2.8-1-4.1" fill-rule="nonzero"/>
   </g>
   <g transform="matrix(.99213 0 0 .99213 1169.8 696.26)">
    <path d="m31.5-8.1c-1.8-3.3-5.6-5.1-10.2-5.1-3.4 0-7.1 1-10.7 2.9-6.6 3.5-10.6 9.4-10.6 14.5 0 1.4 0.3 2.8 1 4.1 1.8 3.3 5.6 5 10.2 5 3.4 0 7.1-0.9 10.7-2.8 6.6-3.5 10.6-9.4 10.6-14.5 0-1.4-0.3-2.8-1-4.1" fill-rule="nonzero"/>
   </g>
   <g transform="matrix(.99213 0 0 .99213 1275.9 708.66)">
    <path d="m31.5-8.1c-1.8-3.3-5.6-5.1-10.2-5.1-3.4 0-7.1 1-10.7 2.9-6.6 3.5-10.6 9.4-10.6 14.5 0 1.4 0.3 2.8 1 4.1 1.8 3.3 5.6 5 10.2 5 3.4 0 7.1-0.9 10.7-2.8 6.6-3.5 10.6-9.4 10.6-14.5 0-1.4-0.3-2.8-1-4.1" fill-rule="nonzero"/>
   </g>
   <g transform="matrix(.99213 0 0 .99213 1363 696.26)">
    <path d="m31.5-8.1c-1.8-3.3-5.6-5.1-10.2-5.1-3.4 0-7.1 1-10.7 2.9-6.6 3.5-10.6 9.4-10.6 14.5 0 1.4 0.3 2.8 1 4.1 1.8 3.3 5.6 5 10.2 5 3.4 0 7.1-0.9 10.7-2.8 6.6-3.5 10.6-9.4 10.6-14.5 0-1.4-0.3-2.8-1-4.1" fill-rule="nonzero"/>
   </g>
   <g transform="matrix(.99213 0 0 .99213 1482.6 683.86)">
    <path d="m31.5-8.1c-1.8-3.3-5.6-5.1-10.2-5.1-3.4 0-7.1 1-10.7 2.9-6.6 3.5-10.6 9.4-10.6 14.5 0 1.4 0.3 2.8 1 4.1 1.8 3.3 5.6 5 10.2 5 3.4 0 7.1-0.9 10.7-2.8 6.6-3.5 10.6-9.4 10.6-14.5 0-1.4-0.3-2.8-1-4.1" fill-rule="nonzero"/>
   </g>
   <g transform="matrix(.99213 0 0 .99213 1537 659.06)">
    <path d="m31.5-8.1c-1.8-3.3-5.6-5.1-10.2-5.1-3.4 0-7.1 1-10.7 2.9-6.6 3.5-10.6 9.4-10.6 14.5 0 1.4 0.3 2.8 1 4.1 1.8 3.3 5.6 5 10.2 5 3.4 0 7.1-0.9 10.7-2.8 6.6-3.5 10.6-9.4 10.6-14.5 0-1.4-0.3-2.8-1-4.1" fill-rule="nonzero"/>
   </g>
   <g transform="matrix(.99213 0 0 .99213 1643.2 671.46)">
    <path d="m31.5-8.1c-1.8-3.3-5.6-5.1-10.2-5.1-3.4 0-7.1 1-10.7 2.9-6.6 3.5-10.6 9.4-10.6 14.5 0 1.4 0.3 2.8 1 4.1 1.8 3.3 5.6 5 10.2 5 3.4 0 7.1-0.9 10.7-2.8 6.6-3.5 10.6-9.4 10.6-14.5 0-1.4-0.3-2.8-1-4.1" fill-rule="nonzero"/>
   </g>
   <g transform="matrix(.99213 0 0 .99213 1757.5 683.86)">
    <path d="m31.5-8.1c-1.8-3.3-5.6-5.1-10.2-5.1-3.4 0-7.1 1-10.7 2.9-6.6 3.5-10.6 9.4-10.6 14.5 0 1.4 0.3 2.8 1 4.1 1.8 3.3 5.6 5 10.2 5 3.4 0 7.1-0.9 10.7-2.8 6.6-3.5 10.6-9.4 10.6-14.5 0-1.4-0.3-2.8-1-4.1" fill-rule="nonzero"/>
   </g>
   <g transform="matrix(.99213 0 0 .99213 1816.1 696.26)">
    <path d="m31.5-8.1c-1.8-3.3-5.6-5.1-10.2-5.1-3.4 0-7.1 1-10.7 2.9-6.6 3.5-10.6 9.4-10.6 14.5 0 1.4 0.3 2.8 1 4.1 1.8 3.3 5.6 5 10.2 5 3.4 0 7.1-0.9 10.7-2.8 6.6-3.5 10.6-9.4 10.6-14.5 0-1.4-0.3-2.8-1-4.1" fill-rule="nonzero"/>
   </g>
   <g transform="matrix(.99213 0 0 .99213 356.46 708.66)">
    <path d="m63.35-5.87c-1.23-5.43-3.87-9.25-4.65-10.29-3.19-4.27-7.2-7.12-11.89-8.47-3.11-0.89-6.11-1-8.53-0.82-1.04-6.01-2.04-11.89-2.95-17.34 5.45-6.17 9.07-11.97 11.35-16.27 3.47-6.58 4.62-11.16 4.67-11.36 1.72-5.21 2.08-12.91 0.98-21.12-1.01-7.55-3.1-14.26-5.45-17.51-1.03-1.43-2.08-2.16-3.12-2.16-1.22 0-3.73 1.24-6.62 4.01-2.3 2.2-5.57 6.09-8.13 12.1-3 7.06-3.21 16.55-2.86 23.27 0.38 7.27 1.49 12.96 1.5 13.01 0.02 0.09 0.28 1.59 0.73 4.16-0.23 0.23-0.47 0.45-0.72 0.69-1.04 1-2.23 2.14-3.61 3.52-0.86 0.86-1.81 1.77-2.81 2.74-8.45 8.14-21.24 20.46-21.24 39.61 0 4.7 0.9 9.12 2.68 13.13 1.59 3.6 3.89 6.88 6.82 9.75 7.73 7.55 18.32 10.76 25.38 10.6 2.95-0.07 5.58-0.31 7.97-0.76 1.83 9.6 2.97 16.63 3.01 21.97 0.04 6.51-1.61 10.48-5.51 13.25-2.43 1.73-5.24 2.68-8.34 2.83-2.59 0.12-4.85-0.35-6.28-0.76h-0.01s-0.29-0.08-0.3-0.28c-0.01-0.18 0.34-0.23 0.35-0.23h0.02c1.92-0.44 5.49-1.67 7.85-4.97 1.8-2.52 2.67-7.14 0.83-11.08-1.11-2.39-3.62-5.34-9.24-5.79-2.49-0.2-4.76 0.31-6.76 1.51-1.81 1.08-3.31 2.72-4.36 4.72-2.46 4.7-2 10.43 1.13 14.27 2.96 3.62 7.58 5.93 13.01 6.51 0.85 0.09 1.7 0.13 2.55 0.13 4.43 0 8.83-1.2 12.4-3.41 3.66-2.57 5.78-6.55 6.46-12.18 0.56-4.64 0.17-10.55-1.23-18.62-0.36-2.09-0.9-5.12-1.56-8.88 5.75-1.92 9.91-5.49 13.68-11.34 3.29-5.74 4.23-11.84 2.8-18.14m-34.21 26.19c-4.64-1.22-9.07-3.72-12.83-7.22-1.31-1.23-3.18-3.4-4.65-6.79-1.37-3.16-2.03-6.59-1.98-10.18 0.07-4.69 1.38-9.51 3.89-14.3 2.92-5.58 7.48-11.11 13.54-16.44 1.45-1.28 2.82-2.56 4.11-3.84 0.76 4.26 1.59 8.95 2.47 13.83-3.85 1.27-8.6 4.42-11.71 10.07-3.54 6.57-3.4 12.09-2.67 15.57 0.94 4.46 3.47 8.22 6.93 10.31 0.93 0.56 5.06 2.69 6.9 2.11 0.37-0.12 0.64-0.34 0.78-0.67 0.51-1.17-0.51-1.81-2.07-2.77-0.6-0.37-1.27-0.79-2-1.32-3.32-2.49-4.77-6.94-3.7-11.32 0.58-2.4 1.86-4.56 3.7-6.26 1.67-1.55 3.71-2.65 6.09-3.29 2.04 11.24 4.1 22.39 5.74 30.75 0.13 0.69 0.27 1.36 0.4 2.03-4.38 0.93-8.73 0.84-12.94-0.27m11.32-33.18c10.35-0.47 14.62 6.97 15.51 11.8 0.47 2.53 0.46 6.97-1.08 11.18-1.17 3.18-3.63 7.25-8.76 9.31-0.07-0.42-0.15-0.85-0.23-1.28-1.54-8.77-3.48-19.76-5.44-31.01m-7.32-70.94c1.78-5.74 4.52-8.99 6.51-10.72 1.75-1.52 3.4-2.23 4.32-2.23 0.14 0 0.26 0.02 0.36 0.05 0.46 0.14 0.99 0.71 1.46 1.58 2.31 4.29 1.57 11 0.23 15.44-1.63 5.4-4.55 11.02-13.35 20.63-0.17-1.11-0.33-2.16-0.48-3.14-1.25-8.29-0.93-15.56 0.95-21.61" fill-rule="nonzero"/>
   </g>
   <g transform="matrix(.99213 0 0 .99213 444.74 683.86)">
    <path d="m20.1-7.9c-0.6-3.9-3-7.6-8.1-7.6-5 0-7.9 3.1-8.4 3.7l0.4-32.1c0-0.8-0.6-1.4-1.4-1.4h-1.2c-0.8 0-1.4 0.6-1.4 1.4l0.5 60.1c0 0.8 0.6 1.4 1.4 1.4 0.2 0 0.6-0.1 0.8-0.2 0.4-0.2 6.9-3.4 12.3-9.5 3.8-4.3 5.3-9.2 5.3-13.3 0-0.9-0.1-1.7-0.2-2.5m-6.9 3.9c0 1.5-0.4 6.1-2.9 9.9-1.7 2.6-5.1 5.3-7 6.8l0.3-19.5c0.2-0.9 1.7-3.8 5.7-3.8 3.6 0 3.9 3.4 3.9 5.5v1.1" fill-rule="nonzero"/>
   </g>
   <g transform="translate(-66.278)">
    <path d="m697.72 721.06h160.85v12.402h-160.85v-12.402"/>
   </g>
   <g transform="translate(-66.278)">
    <path d="m697.72 702.46h160.85v12.401h-160.85v-12.401"/>
   </g>
   <g transform="translate(-66.278)">
    <path d="m1077.9 745.79 160.85 25.231v12.554l-160.85-25.231v-12.554"/>
   </g>
   <g transform="translate(-66.278)">
    <path d="m1077.9 727.19 160.85 25.231v12.553l-160.85-25.231v-12.553"/>
   </g>
   <g transform="translate(-66.278)">
    <path d="m1548.9 751.45 57.12-26.047v13.629l-57.12 26.048v-13.63"/>
   </g>
   <g transform="translate(-66.278)">
    <path d="m1548.9 732.85 57.12-26.047v13.63l-57.12 26.047v-13.63"/>
   </g>
   <g transform="translate(-66.278)">
    <path d="m1709.5 745.86 117.02 6.349v12.42l-117.02-6.349v-12.42"/>
   </g>
   <g transform="translate(-66.278)">
    <path d="m1826.5 733.6-32.24-1.749v12.42l32.24 1.749v-12.42"/>
   </g>
   <g transform="matrix(.99213 0 0 .99213 1305.4 624.95)">
    <path d="m3.5 3.5c-0.1-0.3-1-3.8-1-4-0.1-0.4-0.7-0.7-1.2-0.7-0.7 0-1.3 0.6-1.3 1.3v22.6c0 0.5 0.4 0.9 0.8 1.1 4.2 1.3 12.9 6.8 19.4 17.9 1.8 3.1 4.7 7.3 4.7 15.7 0 7.2-1.1 14.8-2.9 21.8-0.3 1.1-0.6 2.1 0.5 2.5s1.5-0.4 1.9-1.4c3.6-8.8 4.5-18 4.5-24.2v-1.9c-0.5-12.9-7.9-22.4-7.9-22.4 0.3 0-9.2-12.3-11.9-16.5-3.7-5.7-5.5-11.4-5.6-11.8" fill-rule="nonzero"/>
   </g>
   <g transform="matrix(.99213 0 0 .99213 1845.6 615.65)">
    <path d="m3.5 3.5c-0.1-0.3-1-3.8-1-4-0.1-0.4-0.7-0.7-1.2-0.7-0.7 0-1.3 0.6-1.3 1.3v22.6c0 0.5 0.4 0.9 0.8 1.1 4.2 1.3 12.9 6.8 19.4 17.9 1.8 3.1 4.7 7.3 4.7 15.7 0 7.2-1.1 14.8-2.9 21.8-0.3 1.1-0.6 2.1 0.5 2.5s1.5-0.4 1.9-1.4c3.6-8.8 4.5-18 4.5-24.2v-1.9c-0.5-12.9-7.9-22.4-7.9-22.4 0.3 0-9.2-12.3-11.9-16.5-3.7-5.7-5.5-11.4-5.6-11.8" fill-rule="nonzero"/>
   </g>
   <g transform="matrix(.99213 0 0 .99213 1687.8 671.46)">
    <path d="m0-2e-3c0 2.762 2.239 5 5 5s5-2.238 5-5c0-2.761-2.239-5-5-5s-5 2.239-5 5" fill-rule="nonzero"/>
   </g>
  </g>
 </g>
</svg>
