<?xml version="1.0" encoding="utf-8"?>
<svg xmlns="http://www.w3.org/2000/svg" version="1.2" viewBox="0 0 1586 206">
	<title>4 2/4 bars of a descending melody.</title>
	<path d="M 0.004635 55.97 L 1586.18 55.97" fill="none" stroke="#000" stroke-width="2.73px"/>
	<path d="M 0.004635 80.78 L 1586.18 80.78" fill="none" stroke="#000" stroke-width="2.73px"/>
	<path d="M 0.004635 105.58 L 1586.18 105.58" fill="none" stroke="#000" stroke-width="2.73px"/>
	<path d="M 0.004635 130.38 L 1586.18 130.38" fill="none" stroke="#000" stroke-width="2.73px"/>
	<path d="M 0.004635 155.18 L 1586.18 155.18" fill="none" stroke="#000" stroke-width="2.73px"/>
	<path d="M 195.002 33.65 C 252.2 -16.536 416.642 -9.095 469.072 46.052 C 416.327 -2.157 251.882 -9.598 195.002 33.65" stroke="#000" stroke-linecap="round" stroke-linejoin="round" stroke-width="1.74px"/>
	<path d="M 575.222 70.85 C 634.793 23.239 799.232 38.121 849.292 95.653 C 798.612 45.038 634.172 30.156 575.222 70.85" stroke="#000" stroke-linecap="round" stroke-linejoin="round" stroke-width="1.74px"/>
	<path d="M 955.412 152.7 C 980.172 170.645 1023.69 164.444 1042.45 140.299 C 1024.67 171.32 981.152 177.521 955.412 152.7" stroke="#000" stroke-linecap="round" stroke-linejoin="round" stroke-width="1.74px"/>
	<path d="M 1162.11 83.26 C 1167.46 58.957 1194.66 46.556 1216.51 58.457 C 1197.54 52.875 1170.34 65.276 1162.11 83.26" stroke="#000" stroke-linecap="round" stroke-linejoin="round" stroke-width="1.74px"/>
	<path d="M 1322.71 70.85 C 1354.95 40.168 1412.09 46.369 1437 83.251 C 1411.34 53.273 1354.2 47.072 1322.71 70.85" stroke="#000" stroke-linecap="round" stroke-linejoin="round" stroke-width="1.74px"/>
	<path d="M 524.632 54.61 L 524.632 156.55" fill="none" stroke="#000" stroke-width="4.46px"/>
	<path d="M 904.812 54.61 L 904.812 156.55" fill="none" stroke="#000" stroke-width="4.46px"/>
	<path d="M 1272.11 54.61 L 1272.11 156.55" fill="none" stroke="#000" stroke-width="4.46px"/>
	<path d="M 180.242 59.31 L 180.242 142.787" fill="none" stroke="#000" stroke-width="2.73px"/>
	<path d="M 296.202 71.71 L 296.202 148.987" fill="none" stroke="#000" stroke-width="2.73px"/>
	<path d="M 348.902 59.31 L 348.902 148.988" fill="none" stroke="#000" stroke-width="2.73px"/>
	<path d="M 401.612 46.9 L 401.612 148.98" fill="none" stroke="#000" stroke-width="2.73px"/>
	<path d="M 454.312 71.71 L 454.312 148.987" fill="none" stroke="#000" stroke-width="2.73px"/>
	<path d="M 560.472 96.51 L 560.472 173.787" fill="none" stroke="#000" stroke-width="2.73px"/>
	<path d="M 676.412 84.11 L 676.412 173.788" fill="none" stroke="#000" stroke-width="2.73px"/>
	<path d="M 729.112 96.51 L 729.112 182.055" fill="none" stroke="#000" stroke-width="2.73px"/>
	<path d="M 781.812 108.91 L 781.812 190.32" fill="none" stroke="#000" stroke-width="2.73px"/>
	<path d="M 834.512 121.31 L 834.512 198.587" fill="none" stroke="#000" stroke-width="2.73px"/>
	<path d="M 970.212 127.21 L 970.212 46.674" fill="none" stroke="#000" stroke-width="2.73px"/>
	<path d="M 1057.21 114.8 L 1057.21 37.365" fill="none" stroke="#000" stroke-width="2.73px"/>
	<path d="M 1147.41 108.91 L 1147.41 179.986" fill="none" stroke="#000" stroke-width="2.73px"/>
	<path d="M 1201.81 84.11 L 1201.81 155.186" fill="none" stroke="#000" stroke-width="2.73px"/>
	<path d="M 1307.91 96.51 L 1307.91 173.787" fill="none" stroke="#000" stroke-width="2.73px"/>
	<path d="M 1422.21 108.91 L 1422.21 179.986" fill="none" stroke="#000" stroke-width="2.73px"/>
	<path d="M 1510.31 114.8 L 1510.31 37.365" fill="none" stroke="#000" stroke-width="2.73px"/>
	<path d="M 210.132 47.9337 C 208.346 44.6597 204.576 42.8739 200.012 42.8739 C 196.639 42.8739 192.968 43.866 189.397 45.7511 C 182.849 49.2235 178.88 55.0771 178.88 60.1369 C 178.88 61.5259 179.178 62.9149 179.872 64.2047 C 181.658 67.4787 185.428 69.1653 189.992 69.1653 C 193.365 69.1653 197.036 68.2724 200.608 66.3874 C 207.156 62.9149 211.124 57.0613 211.124 52.0015 C 211.124 50.6125 210.827 49.2235 210.132 47.9337" fill-rule="nonzero"/>
	<path d="M 326.082 60.3337 C 324.296 57.0597 320.526 55.2739 315.962 55.2739 C 312.589 55.2739 308.918 56.266 305.347 58.1511 C 298.799 61.6235 294.83 67.4771 294.83 72.5369 C 294.83 73.9259 295.128 75.3149 295.822 76.6047 C 297.608 79.8787 301.378 81.5653 305.942 81.5653 C 309.315 81.5653 312.986 80.6724 316.558 78.7874 C 323.106 75.3149 327.074 69.4613 327.074 64.4015 C 327.074 63.0125 326.777 61.6235 326.082 60.3337" fill-rule="nonzero"/>
	<path d="M 378.792 47.9337 C 377.006 44.6597 373.236 42.8739 368.672 42.8739 C 365.299 42.8739 361.628 43.866 358.057 45.7511 C 351.509 49.2235 347.54 55.0771 347.54 60.1369 C 347.54 61.5259 347.838 62.9149 348.532 64.2047 C 350.318 67.4787 354.088 69.1653 358.652 69.1653 C 362.025 69.1653 365.696 68.2724 369.268 66.3874 C 375.816 62.9149 379.784 57.0613 379.784 52.0015 C 379.784 50.6125 379.487 49.2235 378.792 47.9337" fill-rule="nonzero"/>
	<path d="M 431.502 35.5337 C 429.716 32.2597 425.946 30.4739 421.382 30.4739 C 418.009 30.4739 414.338 31.466 410.767 33.3511 C 404.219 36.8235 400.25 42.6771 400.25 47.7369 C 400.25 49.1259 400.548 50.5149 401.242 51.8047 C 403.028 55.0787 406.798 56.7653 411.362 56.7653 C 414.735 56.7653 418.406 55.8724 421.978 53.9874 C 428.526 50.5149 432.494 44.6613 432.494 39.6015 C 432.494 38.2125 432.197 36.8235 431.502 35.5337" fill-rule="nonzero"/>
	<path d="M 484.202 60.3337 C 482.416 57.0597 478.646 55.2739 474.082 55.2739 C 470.709 55.2739 467.038 56.266 463.467 58.1511 C 456.919 61.6235 452.95 67.4771 452.95 72.5369 C 452.95 73.9259 453.248 75.3149 453.942 76.6047 C 455.728 79.8787 459.498 81.5653 464.062 81.5653 C 467.435 81.5653 471.106 80.6724 474.678 78.7874 C 481.226 75.3149 485.194 69.4613 485.194 64.4015 C 485.194 63.0125 484.897 61.6235 484.202 60.3337" fill-rule="nonzero"/>
	<path d="M 590.352 85.1437 C 588.566 81.8697 584.796 80.0839 580.232 80.0839 C 576.859 80.0839 573.188 81.076 569.617 82.9611 C 563.069 86.4335 559.1 92.2871 559.1 97.3469 C 559.1 98.7359 559.398 100.125 560.092 101.415 C 561.878 104.689 565.648 106.375 570.212 106.375 C 573.585 106.375 577.256 105.482 580.828 103.597 C 587.376 100.125 591.344 94.2713 591.344 89.2115 C 591.344 87.8225 591.047 86.4335 590.352 85.1437" fill-rule="nonzero"/>
	<path d="M 706.342 72.7437 C 704.556 69.4697 700.786 67.6839 696.222 67.6839 C 692.849 67.6839 689.178 68.676 685.607 70.5611 C 679.059 74.0335 675.09 79.8871 675.09 84.9469 C 675.09 86.3359 675.388 87.7249 676.082 89.0147 C 677.868 92.2887 681.638 93.9753 686.202 93.9753 C 689.575 93.9753 693.246 93.0824 696.818 91.1974 C 703.366 87.7249 707.334 81.8713 707.334 76.8115 C 707.334 75.4225 707.037 74.0335 706.342 72.7437" fill-rule="nonzero"/>
	<path d="M 759.042 85.1437 C 757.256 81.8697 753.486 80.0839 748.922 80.0839 C 745.549 80.0839 741.878 81.076 738.307 82.9611 C 731.759 86.4335 727.79 92.2871 727.79 97.3469 C 727.79 98.7359 728.088 100.125 728.782 101.415 C 730.568 104.689 734.338 106.375 738.902 106.375 C 742.275 106.375 745.946 105.482 749.518 103.597 C 756.066 100.125 760.034 94.2713 760.034 89.2115 C 760.034 87.8225 759.737 86.4335 759.042 85.1437" fill-rule="nonzero"/>
	<path d="M 811.742 97.5437 C 809.956 94.2697 806.186 92.4839 801.622 92.4839 C 798.249 92.4839 794.578 93.476 791.007 95.3611 C 784.459 98.8335 780.49 104.687 780.49 109.747 C 780.49 111.136 780.788 112.525 781.482 113.815 C 783.268 117.089 787.038 118.775 791.602 118.775 C 794.975 118.775 798.646 117.882 802.218 115.997 C 808.766 112.525 812.734 106.671 812.734 101.611 C 812.734 100.222 812.437 98.8335 811.742 97.5437" fill-rule="nonzero"/>
	<path d="M 864.442 109.944 C 862.656 106.67 858.886 104.884 854.322 104.884 C 850.949 104.884 847.278 105.876 843.707 107.761 C 837.159 111.234 833.19 117.087 833.19 122.147 C 833.19 123.536 833.488 124.925 834.182 126.215 C 835.968 129.489 839.738 131.175 844.302 131.175 C 847.675 131.175 851.346 130.282 854.918 128.397 C 861.466 124.925 865.434 119.071 865.434 114.011 C 865.434 112.622 865.137 111.234 864.442 109.944" fill-rule="nonzero"/>
	<path d="M 970.542 122.344 C 968.756 119.07 964.986 117.284 960.422 117.284 C 957.049 117.284 953.378 118.276 949.807 120.161 C 943.259 123.634 939.29 129.487 939.29 134.547 C 939.29 135.936 939.588 137.325 940.282 138.615 C 942.068 141.889 945.838 143.575 950.402 143.575 C 953.775 143.575 957.446 142.682 961.018 140.797 C 967.566 137.325 971.534 131.471 971.534 126.411 C 971.534 125.022 971.237 123.634 970.542 122.344" fill-rule="nonzero"/>
	<path d="M 1057.64 109.944 C 1055.86 106.67 1052.09 104.884 1047.52 104.884 C 1044.15 104.884 1040.48 105.876 1036.91 107.761 C 1030.36 111.234 1026.39 117.087 1026.39 122.147 C 1026.39 123.536 1026.69 124.925 1027.38 126.215 C 1029.17 129.489 1032.94 131.175 1037.5 131.175 C 1040.88 131.175 1044.55 130.282 1048.12 128.397 C 1054.67 124.925 1058.63 119.071 1058.63 114.011 C 1058.63 112.622 1058.34 111.234 1057.64 109.944" fill-rule="nonzero"/>
	<path d="M 1177.24 97.5437 C 1175.46 94.2697 1171.69 92.4839 1167.12 92.4839 C 1163.75 92.4839 1160.08 93.476 1156.51 95.3611 C 1149.96 98.8335 1145.99 104.687 1145.99 109.747 C 1145.99 111.136 1146.29 112.525 1146.98 113.815 C 1148.77 117.089 1152.54 118.775 1157.1 118.775 C 1160.48 118.775 1164.15 117.882 1167.72 115.997 C 1174.27 112.525 1178.23 106.671 1178.23 101.611 C 1178.23 100.222 1177.94 98.8335 1177.24 97.5437" fill-rule="nonzero"/>
	<path d="M 1231.64 72.7437 C 1229.86 69.4697 1226.09 67.6839 1221.52 67.6839 C 1218.15 67.6839 1214.48 68.676 1210.91 70.5611 C 1204.36 74.0335 1200.39 79.8871 1200.39 84.9469 C 1200.39 86.3359 1200.69 87.7249 1201.38 89.0147 C 1203.17 92.2887 1206.94 93.9753 1211.5 93.9753 C 1214.88 93.9753 1218.55 93.0824 1222.12 91.1974 C 1228.67 87.7249 1232.63 81.8713 1232.63 76.8115 C 1232.63 75.4225 1232.34 74.0335 1231.64 72.7437" fill-rule="nonzero"/>
	<path d="M 1337.84 85.1437 C 1336.06 81.8697 1332.29 80.0839 1327.72 80.0839 C 1324.35 80.0839 1320.68 81.076 1317.11 82.9611 C 1310.56 86.4335 1306.59 92.2871 1306.59 97.3469 C 1306.59 98.7359 1306.89 100.125 1307.58 101.415 C 1309.37 104.689 1313.14 106.375 1317.7 106.375 C 1321.08 106.375 1324.75 105.482 1328.32 103.597 C 1334.87 100.125 1338.83 94.2713 1338.83 89.2115 C 1338.83 87.8225 1338.54 86.4335 1337.84 85.1437" fill-rule="nonzero"/>
	<path d="M 1452.14 97.5437 C 1450.36 94.2697 1446.59 92.4839 1442.02 92.4839 C 1438.65 92.4839 1434.98 93.476 1431.41 95.3611 C 1424.86 98.8335 1420.89 104.687 1420.89 109.747 C 1420.89 111.136 1421.19 112.525 1421.88 113.815 C 1423.67 117.089 1427.44 118.775 1432 118.775 C 1435.38 118.775 1439.05 117.882 1442.62 115.997 C 1449.17 112.525 1453.13 106.671 1453.13 101.611 C 1453.13 100.222 1452.84 98.8335 1452.14 97.5437" fill-rule="nonzero"/>
	<path d="M 1510.74 109.944 C 1508.96 106.67 1505.19 104.884 1500.62 104.884 C 1497.25 104.884 1493.58 105.876 1490.01 107.761 C 1483.46 111.234 1479.49 117.087 1479.49 122.147 C 1479.49 123.536 1479.79 124.925 1480.48 126.215 C 1482.27 129.489 1486.04 131.175 1490.6 131.175 C 1493.98 131.175 1497.65 130.282 1501.22 128.397 C 1507.77 124.925 1511.73 119.071 1511.73 114.011 C 1511.73 112.622 1511.44 111.234 1510.74 109.944" fill-rule="nonzero"/>
	<path d="M 82.7014 124.556 C 81.4811 119.169 78.8619 115.379 78.088 114.347 C 74.9231 110.111 70.9447 107.283 66.2916 105.944 C 63.2061 105.061 60.2297 104.952 57.8287 105.13 C 56.7969 99.1676 55.8048 93.3339 54.902 87.9268 C 60.3091 81.8053 63.9006 76.051 66.1626 71.7848 C 69.6053 65.2566 70.7463 60.7126 70.7959 60.5142 C 72.5023 55.3452 72.8595 47.7058 71.7682 39.5604 C 70.7661 32.0698 68.6926 25.4126 66.3611 22.1882 C 65.3392 20.7695 64.2974 20.0452 63.2656 20.0452 C 62.0552 20.0452 59.565 21.2755 56.6977 24.0237 C 54.4158 26.2064 51.1715 30.0657 48.6317 36.0284 C 45.6553 43.0329 45.447 52.4482 45.7942 59.1153 C 46.1712 66.3281 47.2725 71.9733 47.2824 72.0229 C 47.3022 72.1122 47.5602 73.6004 48.0066 76.1502 C 47.7785 76.3784 47.5403 76.5966 47.2923 76.8347 C 46.2605 77.8269 45.0799 78.9579 43.7107 80.327 C 42.8575 81.1803 41.915 82.0831 40.9228 83.0455 C 32.5393 91.1214 19.85 103.344 19.85 122.344 C 19.85 127.007 20.7429 131.392 22.5089 135.37 C 24.0864 138.942 26.3683 142.196 29.2752 145.044 C 36.9444 152.534 47.4511 155.719 54.4555 155.56 C 57.3823 155.491 59.9916 155.253 62.3628 154.806 C 64.1784 164.331 65.3094 171.305 65.3491 176.603 C 65.3888 183.062 63.7518 187.001 59.8824 189.749 C 57.4716 191.465 54.6837 192.408 51.6081 192.557 C 49.0385 192.676 46.7963 192.21 45.3775 191.803 L 45.3676 191.803 C 45.3676 191.803 45.0799 191.723 45.0699 191.525 C 45.06 191.346 45.4073 191.297 45.4172 191.297 L 45.437 191.297 C 47.3419 190.86 50.8838 189.64 53.2253 186.366 C 55.0111 183.866 55.8742 179.282 54.0487 175.373 C 52.9475 173.002 50.4572 170.075 44.8814 169.629 C 42.411 169.43 40.1589 169.936 38.1746 171.127 C 36.3789 172.198 34.8907 173.825 33.849 175.81 C 31.4083 180.473 31.8647 186.158 34.9701 189.967 C 37.9068 193.559 42.4904 195.851 47.8777 196.426 C 48.721 196.515 49.5643 196.555 50.4076 196.555 C 54.8027 196.555 59.1681 195.365 62.71 193.172 C 66.3412 190.622 68.4445 186.673 69.1192 181.088 C 69.6748 176.484 69.2878 170.621 67.8989 162.614 C 67.5417 160.541 67.0059 157.535 66.3511 153.804 C 72.0559 151.899 76.1831 148.357 79.9235 142.553 C 83.1876 136.859 84.1202 130.807 82.7014 124.556 M 48.7607 150.54 C 44.1572 149.33 39.762 146.849 36.0316 143.377 C 34.7319 142.157 32.8767 140.004 31.4182 136.64 C 30.059 133.505 29.4042 130.102 29.4538 126.54 C 29.5233 121.887 30.823 117.105 33.3132 112.353 C 36.2102 106.817 40.7343 101.33 46.7466 96.0424 C 48.1852 94.7725 49.5445 93.5025 50.8243 92.2326 C 51.5783 96.4591 52.4018 101.112 53.2749 105.954 C 49.4552 107.214 44.7425 110.339 41.657 115.945 C 38.1449 122.463 38.2838 127.939 39.008 131.392 C 39.9406 135.817 42.4507 139.547 45.8835 141.621 C 46.8062 142.176 50.9037 144.29 52.7292 143.714 C 53.0963 143.595 53.3642 143.377 53.503 143.05 C 54.009 141.889 52.9971 141.254 51.4493 140.301 C 50.8541 139.934 50.1893 139.518 49.4651 138.992 C 46.1712 136.521 44.7326 132.106 45.7942 127.761 C 46.3696 125.38 47.6396 123.237 49.4651 121.55 C 51.1219 120.012 53.1459 118.921 55.5072 118.286 C 57.5311 129.437 59.5749 140.5 61.202 148.794 C 61.331 149.479 61.4699 150.143 61.5988 150.808 C 57.2533 151.731 52.9375 151.641 48.7607 150.54 M 59.9916 117.621 C 70.2601 117.155 74.4965 124.536 75.3795 129.328 C 75.8458 131.838 75.8359 136.243 74.308 140.42 C 73.1472 143.575 70.7066 147.613 65.617 149.657 C 65.5475 149.24 65.4681 148.814 65.3888 148.387 C 63.8609 139.686 61.9362 128.783 59.9916 117.621 M 52.7292 47.2395 C 54.4952 41.5447 57.2136 38.3203 59.188 36.6039 C 60.9242 35.0958 62.5612 34.3914 63.474 34.3914 C 63.6129 34.3914 63.7319 34.4113 63.8311 34.441 C 64.2875 34.5799 64.8133 35.1454 65.2796 36.0086 C 67.5715 40.2648 66.8373 46.922 65.5078 51.3271 C 63.8907 56.6846 60.9936 62.2604 52.2629 71.7947 C 52.0942 70.6935 51.9355 69.6517 51.7867 68.6794 C 50.5465 60.4547 50.864 53.2419 52.7292 47.2395" fill-rule="nonzero"/>
	<path d="M 128.072 97.7422 C 127.477 93.8729 125.095 90.202 120.036 90.202 C 115.075 90.202 112.198 93.2776 111.702 93.8729 L 112.099 62.0255 C 112.099 61.2318 111.503 60.6365 110.71 60.6365 L 109.519 60.6365 C 108.725 60.6365 108.13 61.2318 108.13 62.0255 L 108.626 121.653 C 108.626 122.446 109.221 123.041 110.015 123.041 C 110.213 123.041 110.61 122.942 110.809 122.843 C 111.206 122.645 117.654 119.47 123.012 113.418 C 126.782 109.152 128.27 104.29 128.27 100.222 C 128.27 99.3296 128.171 98.5359 128.072 97.7422 M 121.226 101.611 C 121.226 103.1 120.829 107.663 118.349 111.434 C 116.662 114.013 113.289 116.692 111.404 118.18 L 111.702 98.8335 C 111.9 97.9406 113.388 95.0634 117.357 95.0634 C 120.928 95.0634 121.226 98.4367 121.226 100.52 Z" fill-rule="nonzero"/>
	<path d="M 294.832 142.78 L 455.682 142.78 L 455.682 155.182 L 294.832 155.182 Z"/>
	<path d="M 294.832 124.18 L 455.682 124.18 L 455.682 136.581 L 294.832 136.581 Z"/>
	<path d="M 675.012 167.51 L 835.862 192.741 L 835.862 205.295 L 675.012 180.064 Z"/>
	<path d="M 675.012 148.91 L 835.862 174.141 L 835.862 186.694 L 675.012 161.463 Z"/>
	<path d="M 1146.01 173.17 L 1203.13 147.123 L 1203.13 160.752 L 1146.01 186.8 Z"/>
	<path d="M 1146.01 154.57 L 1203.13 128.523 L 1203.13 142.153 L 1146.01 168.2 Z"/>
	<path d="M 1306.61 167.58 L 1423.63 173.929 L 1423.63 186.349 L 1306.61 180 Z"/>
	<path d="M 1423.61 155.32 L 1391.37 153.571 L 1391.37 165.991 L 1423.61 167.74 Z"/>
	<path d="M 972.262 50.1425 C 972.163 49.8448 971.27 46.3724 971.27 46.1739 C 971.171 45.7771 970.576 45.4794 970.08 45.4794 C 969.385 45.4794 968.79 46.0747 968.79 46.7692 L 968.79 69.1914 C 968.79 69.6874 969.187 70.0843 969.584 70.2827 C 973.751 71.5725 982.382 77.0292 988.831 88.0418 C 990.617 91.1174 993.494 95.2844 993.494 103.618 C 993.494 110.762 992.403 118.302 990.617 125.247 C 990.319 126.338 990.022 127.33 991.113 127.727 C 992.204 128.124 992.601 127.33 992.998 126.338 C 996.57 117.607 997.463 108.48 997.463 102.328 L 997.463 100.443 C 996.966 87.645 989.625 78.2197 989.625 78.2197 C 989.922 78.2197 980.497 66.0165 977.818 61.8496 C 974.148 56.1944 972.362 50.5393 972.262 50.1425" fill-rule="nonzero"/>
	<path d="M 1512.46 40.8425 C 1512.36 40.5448 1511.47 37.0724 1511.47 36.8739 C 1511.37 36.4771 1510.78 36.1794 1510.28 36.1794 C 1509.59 36.1794 1508.99 36.7747 1508.99 37.4692 L 1508.99 59.8914 C 1508.99 60.3874 1509.39 60.7843 1509.78 60.9827 C 1513.95 62.2725 1522.58 67.7292 1529.03 78.7418 C 1530.82 81.8174 1533.69 85.9844 1533.69 94.3183 C 1533.69 101.462 1532.6 109.002 1530.82 115.947 C 1530.52 117.038 1530.22 118.03 1531.31 118.427 C 1532.4 118.824 1532.8 118.03 1533.2 117.038 C 1536.77 108.307 1537.66 99.1797 1537.66 93.0285 L 1537.66 91.1434 C 1537.17 78.345 1529.82 68.9197 1529.82 68.9197 C 1530.12 68.9197 1520.7 56.7165 1518.02 52.5496 C 1514.35 46.8944 1512.56 41.2393 1512.46 40.8425" fill-rule="nonzero"/>
	<path d="M 1351.19 93.178 C 1351.19 95.9183 1353.41 98.1387 1356.15 98.1387 C 1358.89 98.1387 1361.11 95.9183 1361.11 93.178 C 1361.11 90.4387 1358.89 88.2174 1356.15 88.2174 C 1353.41 88.2174 1351.19 90.4387 1351.19 93.178" fill-rule="nonzero"/>
	<path d="M 0.00505923 56.8424 L 1586.18 56.8424" fill="none" stroke="#000" stroke-width="2.73px"/>
	<path d="M 0.00505923 81.6524 L 1586.18 81.6524" fill="none" stroke="#000" stroke-width="2.73px"/>
	<path d="M 0.00505923 106.452 L 1586.18 106.452" fill="none" stroke="#000" stroke-width="2.73px"/>
	<path d="M 0.00505923 131.252 L 1586.18 131.252" fill="none" stroke="#000" stroke-width="2.73px"/>
	<path d="M 0.00505923 156.052 L 1586.18 156.052" fill="none" stroke="#000" stroke-width="2.73px"/>
	<path d="M 195.002 34.5224 C 252.2 -15.6636 416.642 -8.2226 469.072 46.9244 C 416.327 -1.2846 251.882 -8.7256 195.002 34.5224" stroke="#000" stroke-linecap="round" stroke-linejoin="round" stroke-width="1.74px"/>
	<path d="M 575.222 71.7224 C 634.793 24.1114 799.232 38.9934 849.292 96.5254 C 798.612 45.9104 634.172 31.0284 575.222 71.7224" stroke="#000" stroke-linecap="round" stroke-linejoin="round" stroke-width="1.74px"/>
	<path d="M 955.412 153.572 C 980.172 171.517 1023.69 165.316 1042.45 141.171 C 1024.67 172.192 981.152 178.393 955.412 153.572" stroke="#000" stroke-linecap="round" stroke-linejoin="round" stroke-width="1.74px"/>
	<path d="M 1162.11 84.1324 C 1167.46 59.8294 1194.66 47.4284 1216.51 59.3294 C 1197.54 53.7474 1170.34 66.1484 1162.11 84.1324" stroke="#000" stroke-linecap="round" stroke-linejoin="round" stroke-width="1.74px"/>
	<path d="M 1322.71 71.7224 C 1354.95 41.0404 1412.09 47.2414 1437 84.1234 C 1411.34 54.1454 1354.2 47.9444 1322.71 71.7224" stroke="#000" stroke-linecap="round" stroke-linejoin="round" stroke-width="1.74px"/>
	<path d="M 524.632 55.4824 L 524.632 157.422" fill="none" stroke="#000" stroke-width="4.46px"/>
	<path d="M 904.812 55.4824 L 904.812 157.422" fill="none" stroke="#000" stroke-width="4.46px"/>
	<path d="M 1272.11 55.4824 L 1272.11 157.422" fill="none" stroke="#000" stroke-width="4.46px"/>
	<path d="M 180.242 60.1824 L 180.242 143.659" fill="none" stroke="#000" stroke-width="2.73px"/>
	<path d="M 296.202 72.5824 L 296.202 149.859" fill="none" stroke="#000" stroke-width="2.73px"/>
	<path d="M 348.902 60.1824 L 348.902 149.86" fill="none" stroke="#000" stroke-width="2.73px"/>
	<path d="M 401.612 47.7724 L 401.612 149.852" fill="none" stroke="#000" stroke-width="2.73px"/>
	<path d="M 454.312 72.5824 L 454.312 149.859" fill="none" stroke="#000" stroke-width="2.73px"/>
	<path d="M 560.472 97.3824 L 560.472 174.659" fill="none" stroke="#000" stroke-width="2.73px"/>
	<path d="M 676.412 84.9824 L 676.412 174.66" fill="none" stroke="#000" stroke-width="2.73px"/>
	<path d="M 729.112 97.3824 L 729.112 182.927" fill="none" stroke="#000" stroke-width="2.73px"/>
	<path d="M 781.812 109.782 L 781.812 191.192" fill="none" stroke="#000" stroke-width="2.73px"/>
	<path d="M 834.512 122.182 L 834.512 199.459" fill="none" stroke="#000" stroke-width="2.73px"/>
	<path d="M 970.212 128.082 L 970.212 47.5464" fill="none" stroke="#000" stroke-width="2.73px"/>
	<path d="M 1057.21 115.672 L 1057.21 38.2374" fill="none" stroke="#000" stroke-width="2.73px"/>
	<path d="M 1147.41 109.782 L 1147.41 180.858" fill="none" stroke="#000" stroke-width="2.73px"/>
	<path d="M 1201.81 84.9824 L 1201.81 156.058" fill="none" stroke="#000" stroke-width="2.73px"/>
	<path d="M 1307.91 97.3824 L 1307.91 174.659" fill="none" stroke="#000" stroke-width="2.73px"/>
	<path d="M 1422.21 109.782 L 1422.21 180.858" fill="none" stroke="#000" stroke-width="2.73px"/>
	<path d="M 1510.31 115.672 L 1510.31 38.2374" fill="none" stroke="#000" stroke-width="2.73px"/>
	<path d="M 210.133 48.8061 C 208.347 45.5321 204.577 43.7463 200.013 43.7463 C 196.64 43.7463 192.969 44.7384 189.397 46.6235 C 182.849 50.0959 178.88 55.9495 178.88 61.0093 C 178.88 62.3983 179.178 63.7873 179.873 65.0771 C 181.658 68.3511 185.428 70.0377 189.992 70.0377 C 193.366 70.0377 197.036 69.1448 200.608 67.2598 C 207.156 63.7873 211.125 57.9337 211.125 52.8739 C 211.125 51.4849 210.827 50.0959 210.133 48.8061" fill-rule="nonzero"/>
	<path d="M 326.083 61.2061 C 324.297 57.9321 320.527 56.1463 315.963 56.1463 C 312.59 56.1463 308.919 57.1384 305.347 59.0235 C 298.799 62.4959 294.83 68.3495 294.83 73.4093 C 294.83 74.7983 295.128 76.1873 295.823 77.4771 C 297.608 80.7511 301.378 82.4377 305.942 82.4377 C 309.316 82.4377 312.986 81.5448 316.558 79.6598 C 323.106 76.1873 327.075 70.3337 327.075 65.2739 C 327.075 63.8849 326.777 62.4959 326.083 61.2061" fill-rule="nonzero"/>
	<path d="M 378.793 48.8061 C 377.007 45.5321 373.237 43.7463 368.673 43.7463 C 365.3 43.7463 361.629 44.7384 358.057 46.6235 C 351.509 50.0959 347.54 55.9495 347.54 61.0093 C 347.54 62.3983 347.838 63.7873 348.533 65.0771 C 350.318 68.3511 354.088 70.0377 358.652 70.0377 C 362.026 70.0377 365.696 69.1448 369.268 67.2598 C 375.816 63.7873 379.785 57.9337 379.785 52.8739 C 379.785 51.4849 379.487 50.0959 378.793 48.8061" fill-rule="nonzero"/>
	<path d="M 431.503 36.4061 C 429.717 33.1321 425.947 31.3463 421.383 31.3463 C 418.01 31.3463 414.339 32.3384 410.767 34.2235 C 404.219 37.6959 400.25 43.5495 400.25 48.6093 C 400.25 49.9983 400.548 51.3873 401.243 52.6771 C 403.028 55.9511 406.798 57.6377 411.362 57.6377 C 414.736 57.6377 418.406 56.7448 421.978 54.8598 C 428.526 51.3873 432.495 45.5337 432.495 40.4739 C 432.495 39.0849 432.197 37.6959 431.503 36.4061" fill-rule="nonzero"/>
	<path d="M 484.203 61.2061 C 482.417 57.9321 478.647 56.1463 474.083 56.1463 C 470.71 56.1463 467.039 57.1384 463.467 59.0235 C 456.919 62.4959 452.95 68.3495 452.95 73.4093 C 452.95 74.7983 453.248 76.1873 453.943 77.4771 C 455.728 80.7511 459.498 82.4377 464.062 82.4377 C 467.436 82.4377 471.106 81.5448 474.678 79.6598 C 481.226 76.1873 485.195 70.3337 485.195 65.2739 C 485.195 63.8849 484.897 62.4959 484.203 61.2061" fill-rule="nonzero"/>
	<path d="M 590.353 86.0161 C 588.567 82.7421 584.797 80.9563 580.233 80.9563 C 576.86 80.9563 573.189 81.9484 569.617 83.8335 C 563.069 87.3059 559.1 93.1595 559.1 98.2193 C 559.1 99.6083 559.398 100.997 560.093 102.287 C 561.878 105.561 565.648 107.248 570.212 107.248 C 573.586 107.248 577.256 106.355 580.828 104.47 C 587.376 100.997 591.345 95.1437 591.345 90.0839 C 591.345 88.6949 591.047 87.3059 590.353 86.0161" fill-rule="nonzero"/>
	<path d="M 706.343 73.6161 C 704.557 70.3421 700.787 68.5563 696.223 68.5563 C 692.85 68.5563 689.179 69.5484 685.607 71.4335 C 679.059 74.9059 675.09 80.7595 675.09 85.8193 C 675.09 87.2083 675.388 88.5973 676.083 89.8871 C 677.868 93.1611 681.638 94.8477 686.202 94.8477 C 689.576 94.8477 693.246 93.9548 696.818 92.0698 C 703.366 88.5973 707.335 82.7437 707.335 77.6839 C 707.335 76.2949 707.037 74.9059 706.343 73.6161" fill-rule="nonzero"/>
	<path d="M 759.043 86.0161 C 757.257 82.7421 753.487 80.9563 748.923 80.9563 C 745.55 80.9563 741.879 81.9484 738.307 83.8335 C 731.759 87.3059 727.79 93.1595 727.79 98.2193 C 727.79 99.6083 728.088 100.997 728.783 102.287 C 730.568 105.561 734.338 107.248 738.902 107.248 C 742.276 107.248 745.946 106.355 749.518 104.47 C 756.066 100.997 760.035 95.1437 760.035 90.0839 C 760.035 88.6949 759.737 87.3059 759.043 86.0161" fill-rule="nonzero"/>
	<path d="M 811.743 98.4161 C 809.957 95.1421 806.187 93.3563 801.623 93.3563 C 798.25 93.3563 794.579 94.3484 791.007 96.2335 C 784.459 99.7059 780.49 105.559 780.49 110.619 C 780.49 112.008 780.788 113.397 781.483 114.687 C 783.268 117.961 787.038 119.648 791.602 119.648 C 794.976 119.648 798.646 118.755 802.218 116.87 C 808.766 113.397 812.735 107.544 812.735 102.484 C 812.735 101.095 812.437 99.7059 811.743 98.4161" fill-rule="nonzero"/>
	<path d="M 864.443 110.816 C 862.657 107.542 858.887 105.756 854.323 105.756 C 850.95 105.756 847.279 106.748 843.707 108.633 C 837.159 112.106 833.19 117.959 833.19 123.019 C 833.19 124.408 833.488 125.797 834.183 127.087 C 835.968 130.361 839.738 132.048 844.302 132.048 C 847.676 132.048 851.346 131.155 854.918 129.27 C 861.466 125.797 865.435 119.944 865.435 114.884 C 865.435 113.495 865.137 112.106 864.443 110.816" fill-rule="nonzero"/>
	<path d="M 970.543 123.216 C 968.757 119.942 964.987 118.156 960.423 118.156 C 957.05 118.156 953.379 119.148 949.807 121.033 C 943.259 124.506 939.29 130.359 939.29 135.419 C 939.29 136.808 939.588 138.197 940.283 139.487 C 942.068 142.761 945.838 144.448 950.402 144.448 C 953.776 144.448 957.446 143.555 961.018 141.67 C 967.566 138.197 971.535 132.344 971.535 127.284 C 971.535 125.895 971.237 124.506 970.543 123.216" fill-rule="nonzero"/>
	<path d="M 1057.64 110.816 C 1055.86 107.542 1052.09 105.756 1047.52 105.756 C 1044.15 105.756 1040.48 106.748 1036.91 108.633 C 1030.36 112.106 1026.39 117.959 1026.39 123.019 C 1026.39 124.408 1026.69 125.797 1027.38 127.087 C 1029.17 130.361 1032.94 132.048 1037.5 132.048 C 1040.88 132.048 1044.55 131.155 1048.12 129.27 C 1054.67 125.797 1058.63 119.944 1058.63 114.884 C 1058.63 113.495 1058.34 112.106 1057.64 110.816" fill-rule="nonzero"/>
	<path d="M 1177.24 98.4161 C 1175.46 95.1421 1171.69 93.3563 1167.12 93.3563 C 1163.75 93.3563 1160.08 94.3484 1156.51 96.2335 C 1149.96 99.7059 1145.99 105.559 1145.99 110.619 C 1145.99 112.008 1146.29 113.397 1146.98 114.687 C 1148.77 117.961 1152.54 119.648 1157.1 119.648 C 1160.48 119.648 1164.15 118.755 1167.72 116.87 C 1174.27 113.397 1178.23 107.544 1178.23 102.484 C 1178.23 101.095 1177.94 99.7059 1177.24 98.4161" fill-rule="nonzero"/>
	<path d="M 1231.64 73.6161 C 1229.86 70.3421 1226.09 68.5563 1221.52 68.5563 C 1218.15 68.5563 1214.48 69.5484 1210.91 71.4335 C 1204.36 74.9059 1200.39 80.7595 1200.39 85.8193 C 1200.39 87.2083 1200.69 88.5973 1201.38 89.8871 C 1203.17 93.1611 1206.94 94.8477 1211.5 94.8477 C 1214.88 94.8477 1218.55 93.9548 1222.12 92.0698 C 1228.67 88.5973 1232.63 82.7437 1232.63 77.6839 C 1232.63 76.2949 1232.34 74.9059 1231.64 73.6161" fill-rule="nonzero"/>
	<path d="M 1337.84 86.0161 C 1336.06 82.7421 1332.29 80.9563 1327.72 80.9563 C 1324.35 80.9563 1320.68 81.9484 1317.11 83.8335 C 1310.56 87.3059 1306.59 93.1595 1306.59 98.2193 C 1306.59 99.6083 1306.89 100.997 1307.58 102.287 C 1309.37 105.561 1313.14 107.248 1317.7 107.248 C 1321.08 107.248 1324.75 106.355 1328.32 104.47 C 1334.87 100.997 1338.83 95.1437 1338.83 90.0839 C 1338.83 88.6949 1338.54 87.3059 1337.84 86.0161" fill-rule="nonzero"/>
	<path d="M 1452.14 98.4161 C 1450.36 95.1421 1446.59 93.3563 1442.02 93.3563 C 1438.65 93.3563 1434.98 94.3484 1431.41 96.2335 C 1424.86 99.7059 1420.89 105.559 1420.89 110.619 C 1420.89 112.008 1421.19 113.397 1421.88 114.687 C 1423.67 117.961 1427.44 119.648 1432 119.648 C 1435.38 119.648 1439.05 118.755 1442.62 116.87 C 1449.17 113.397 1453.13 107.544 1453.13 102.484 C 1453.13 101.095 1452.84 99.7059 1452.14 98.4161" fill-rule="nonzero"/>
	<path d="M 1510.74 110.816 C 1508.96 107.542 1505.19 105.756 1500.62 105.756 C 1497.25 105.756 1493.58 106.748 1490.01 108.633 C 1483.46 112.106 1479.49 117.959 1479.49 123.019 C 1479.49 124.408 1479.79 125.797 1480.48 127.087 C 1482.27 130.361 1486.04 132.048 1490.6 132.048 C 1493.98 132.048 1497.65 131.155 1501.22 129.27 C 1507.77 125.797 1511.73 119.944 1511.73 114.884 C 1511.73 113.495 1511.44 112.106 1510.74 110.816" fill-rule="nonzero"/>
	<path d="M 82.7019 125.429 C 81.4815 120.041 78.8623 116.251 78.0885 115.22 C 74.9236 110.983 70.9451 108.156 66.292 106.816 C 63.2065 105.933 60.2301 105.824 57.8292 106.003 C 56.7973 100.04 55.8052 94.2063 54.9024 88.7992 C 60.3095 82.6777 63.901 76.9234 66.1631 72.6572 C 69.6057 66.129 70.7467 61.585 70.7963 61.3866 C 72.5028 56.2176 72.8599 48.5782 71.7686 40.4328 C 70.7665 32.9422 68.693 26.285 66.3615 23.0606 C 65.3396 21.6419 64.2978 20.9176 63.266 20.9176 C 62.0556 20.9176 59.5654 22.1479 56.6981 24.8961 C 54.4162 27.0787 51.172 30.9381 48.6321 36.9008 C 45.6557 43.9053 45.4474 53.3206 45.7946 59.9877 C 46.1716 67.2005 47.2729 72.8457 47.2828 72.8953 C 47.3027 72.9846 47.5606 74.4728 48.0071 77.0226 C 47.7789 77.2508 47.5408 77.469 47.2927 77.7071 C 46.2609 78.6993 45.0803 79.8303 43.7112 81.1994 C 42.8579 82.0527 41.9154 82.9555 40.9233 83.9179 C 32.5398 91.9938 19.8504 104.217 19.8504 123.216 C 19.8504 127.879 20.7433 132.264 22.5093 136.243 C 24.0868 139.814 26.3687 143.069 29.2757 145.916 C 36.9448 153.407 47.4515 156.591 54.4559 156.433 C 57.3827 156.363 59.992 156.125 62.3632 155.679 C 64.1788 165.203 65.3098 172.178 65.3495 177.476 C 65.3892 183.935 63.7522 187.873 59.8829 190.621 C 57.472 192.338 54.6841 193.28 51.6085 193.429 C 49.0389 193.548 46.7967 193.082 45.3779 192.675 L 45.368 192.675 C 45.368 192.675 45.0803 192.596 45.0704 192.397 C 45.0604 192.219 45.4077 192.169 45.4176 192.169 L 45.4375 192.169 C 47.3423 191.733 50.8843 190.512 53.2257 187.238 C 55.0115 184.738 55.8747 180.154 54.0491 176.245 C 52.9479 173.874 50.4576 170.948 44.8819 170.501 C 42.4115 170.303 40.1593 170.809 38.1751 171.999 C 36.3793 173.071 34.8911 174.698 33.8494 176.682 C 31.4087 181.345 31.8651 187.03 34.9705 190.84 C 37.9072 194.431 42.4908 196.723 47.8781 197.298 C 48.7214 197.388 49.5647 197.427 50.408 197.427 C 54.8032 197.427 59.1685 196.237 62.7104 194.044 C 66.3416 191.495 68.445 187.546 69.1196 181.96 C 69.6752 177.357 69.2883 171.493 67.8993 163.487 C 67.5421 161.413 67.0064 158.407 66.3516 154.677 C 72.0563 152.772 76.1836 149.23 79.9239 143.426 C 83.188 137.731 84.1206 131.679 82.7019 125.429 M 48.7611 151.412 C 44.1576 150.202 39.7625 147.722 36.0321 144.249 C 34.7324 143.029 32.8771 140.876 31.4187 137.513 C 30.0594 134.378 29.4046 130.975 29.4542 127.413 C 29.5237 122.76 30.8234 117.978 33.3136 113.225 C 36.2106 107.689 40.7348 102.203 46.7471 96.9148 C 48.1857 95.6449 49.5449 94.3749 50.8247 93.105 C 51.5787 97.3315 52.4022 101.985 53.2753 106.826 C 49.4556 108.086 44.743 111.211 41.6574 116.817 C 38.1453 123.335 38.2842 128.812 39.0085 132.264 C 39.9411 136.689 42.4511 140.42 45.8839 142.493 C 46.8066 143.049 50.9041 145.162 52.7296 144.587 C 53.0967 144.468 53.3646 144.249 53.5035 143.922 C 54.0095 142.761 52.9975 142.126 51.4498 141.174 C 50.8545 140.807 50.1898 140.39 49.4655 139.864 C 46.1716 137.394 44.733 132.979 45.7946 128.633 C 46.3701 126.252 47.64 124.109 49.4655 122.422 C 51.1224 120.885 53.1463 119.793 55.5076 119.158 C 57.5315 130.31 59.5753 141.372 61.2024 149.666 C 61.3314 150.351 61.4703 151.016 61.5993 151.68 C 57.2537 152.603 52.938 152.514 48.7611 151.412 M 59.992 118.494 C 70.2605 118.027 74.4969 125.409 75.3799 130.201 C 75.8462 132.711 75.8363 137.116 74.3084 141.293 C 73.1476 144.448 70.707 148.486 65.6174 150.529 C 65.5479 150.113 65.4686 149.686 65.3892 149.26 C 63.8613 140.559 61.9366 129.655 59.992 118.494 M 52.7296 48.1119 C 54.4956 42.4171 57.214 39.1927 59.1884 37.4763 C 60.9246 35.9682 62.5616 35.2638 63.4744 35.2638 C 63.6133 35.2638 63.7323 35.2837 63.8315 35.3134 C 64.2879 35.4523 64.8138 36.0178 65.2801 36.881 C 67.5719 41.1372 66.8377 47.7944 65.5082 52.1995 C 63.8911 57.557 60.9941 63.1328 52.2633 72.6671 C 52.0946 71.5659 51.9359 70.5241 51.7871 69.5518 C 50.5469 61.3271 50.8644 54.1143 52.7296 48.1119" fill-rule="nonzero"/>
	<path d="M 128.072 98.6146 C 127.477 94.7453 125.096 91.0744 120.036 91.0744 C 115.075 91.0744 112.198 94.15 111.702 94.7453 L 112.099 62.8979 C 112.099 62.1042 111.504 61.5089 110.71 61.5089 L 109.519 61.5089 C 108.726 61.5089 108.13 62.1042 108.13 62.8979 L 108.626 122.525 C 108.626 123.319 109.222 123.914 110.015 123.914 C 110.214 123.914 110.611 123.815 110.809 123.715 C 111.206 123.517 117.655 120.342 123.012 114.29 C 126.782 110.024 128.271 105.163 128.271 101.095 C 128.271 100.202 128.171 99.4083 128.072 98.6146 M 121.227 102.484 C 121.227 103.972 120.83 108.536 118.349 112.306 C 116.663 114.886 113.29 117.564 111.404 119.052 L 111.702 99.7059 C 111.901 98.813 113.389 95.9358 117.357 95.9358 C 120.929 95.9358 121.227 99.3091 121.227 101.393 Z" fill-rule="nonzero"/>
	<path d="M 294.832 143.652 L 455.682 143.652 L 455.682 156.054 L 294.832 156.054 Z"/>
	<path d="M 294.832 125.052 L 455.682 125.052 L 455.682 137.453 L 294.832 137.453 Z"/>
	<path d="M 675.012 168.382 L 835.862 193.613 L 835.862 206.167 L 675.012 180.936 Z"/>
	<path d="M 675.012 149.782 L 835.862 175.013 L 835.862 187.566 L 675.012 162.335 Z"/>
	<path d="M 1146.01 174.042 L 1203.13 147.995 L 1203.13 161.624 L 1146.01 187.672 Z"/>
	<path d="M 1146.01 155.442 L 1203.13 129.395 L 1203.13 143.025 L 1146.01 169.072 Z"/>
	<path d="M 1306.61 168.452 L 1423.63 174.801 L 1423.63 187.221 L 1306.61 180.872 Z"/>
	<path d="M 1423.61 156.192 L 1391.37 154.443 L 1391.37 166.863 L 1423.61 168.612 Z"/>
	<path d="M 972.263 51.0149 C 972.164 50.7172 971.271 47.2448 971.271 47.0463 C 971.172 46.6495 970.576 46.3518 970.08 46.3518 C 969.386 46.3518 968.79 46.9471 968.79 47.6416 L 968.79 70.0638 C 968.79 70.5598 969.187 70.9567 969.584 71.1551 C 973.751 72.4449 982.383 77.9016 988.831 88.9142 C 990.617 91.9898 993.494 96.1568 993.494 104.491 C 993.494 111.634 992.403 119.174 990.617 126.119 C 990.32 127.21 990.022 128.203 991.113 128.599 C 992.205 128.996 992.602 128.203 992.998 127.21 C 996.57 118.48 997.463 109.352 997.463 103.201 L 997.463 101.316 C 996.967 88.5174 989.625 79.0921 989.625 79.0921 C 989.923 79.0921 980.498 66.8889 977.819 62.722 C 974.148 57.0668 972.362 51.4117 972.263 51.0149" fill-rule="nonzero"/>
	<path d="M 1512.46 41.7149 C 1512.36 41.4172 1511.47 37.9448 1511.47 37.7463 C 1511.37 37.3495 1510.78 37.0518 1510.28 37.0518 C 1509.59 37.0518 1508.99 37.6471 1508.99 38.3416 L 1508.99 60.7638 C 1508.99 61.2598 1509.39 61.6567 1509.78 61.8551 C 1513.95 63.1449 1522.58 68.6016 1529.03 79.6142 C 1530.82 82.6898 1533.69 86.8568 1533.69 95.1907 C 1533.69 102.334 1532.6 109.874 1530.82 116.819 C 1530.52 117.91 1530.22 118.903 1531.31 119.299 C 1532.4 119.696 1532.8 118.903 1533.2 117.91 C 1536.77 109.18 1537.66 100.052 1537.66 93.9009 L 1537.66 92.0158 C 1537.17 79.2174 1529.83 69.7921 1529.83 69.7921 C 1530.12 69.7921 1520.7 57.5889 1518.02 53.422 C 1514.35 47.7668 1512.56 42.1117 1512.46 41.7149" fill-rule="nonzero"/>
	<path d="M 1351.19 94.0504 C 1351.19 96.7907 1353.41 99.0111 1356.15 99.0111 C 1358.89 99.0111 1361.11 96.7907 1361.11 94.0504 C 1361.11 91.3111 1358.89 89.0898 1356.15 89.0898 C 1353.41 89.0898 1351.19 91.3111 1351.19 94.0504" fill-rule="nonzero"/>
</svg> 