<?xml version="1.0" encoding="utf-8"?>
<svg xmlns="http://www.w3.org/2000/svg" xmlns:serif="http://www.serif.com/" xmlns:xlink="http://www.w3.org/1999/xlink" height="100%" style="fill-rule:evenodd;clip-rule:evenodd;stroke-linejoin:bevel;" version="1.1" width="100%" xml:space="preserve" viewBox="0 0 2100 320">
	<g transform="matrix(0.860979,0,0,1,-289.804,-511.548)">
		<path xmlns="" d="M336.598,634.198L2775.68,634.198" style="fill:none;fill-rule:nonzero;stroke:black;stroke-width:2.73px;"/>
	</g>
	<g transform="matrix(0.967345,0,0,1,-325.607,-511.548)">
		<path xmlns="" d="M336.598,658.998L611.54,658.998" style="fill:none;fill-rule:nonzero;stroke:black;stroke-width:2.73px;"/>
	</g>
	<g transform="matrix(0.860979,0,0,1,-289.804,-511.548)">
		<path xmlns="" d="M746.647,658.998L2775.68,658.998" style="fill:none;fill-rule:nonzero;stroke:black;stroke-width:2.73px;"/>
	</g>
	<g transform="matrix(0.967345,0,0,1,-325.607,-511.548)">
		<path xmlns="" d="M336.598,683.798L611.519,683.798" style="fill:none;fill-rule:nonzero;stroke:black;stroke-width:2.73px;"/>
	</g>
	<g transform="matrix(0.967345,0,0,1,-325.607,-511.548)">
		<path xmlns="" d="M701.559,683.798L1442.75,683.798" style="fill:none;fill-rule:nonzero;stroke:black;stroke-width:2.73px;"/>
	</g>
	<g transform="matrix(0.860979,0,0,1,-289.804,-511.548)">
		<path xmlns="" d="M1543.62,683.798L1589.51,683.798" style="fill:none;fill-rule:nonzero;stroke:black;stroke-width:2.73px;"/>
	</g>
	<g transform="matrix(0.860979,0,0,1,-289.804,-511.548)">
		<path xmlns="" d="M1691.56,683.798L2775.68,683.798" style="fill:none;fill-rule:nonzero;stroke:black;stroke-width:2.73px;"/>
	</g>
	<g transform="matrix(0.860979,0,0,1,-289.804,-511.548)">
		<path xmlns="" d="M336.598,708.598L2775.68,708.598" style="fill:none;fill-rule:nonzero;stroke:black;stroke-width:2.73px;"/>
	</g>
	<g transform="matrix(0.860979,0,0,1,-289.804,-511.548)">
		<path xmlns="" d="M336.598,733.398L2775.68,733.398" style="fill:none;fill-rule:nonzero;stroke:black;stroke-width:2.73px;"/>
	</g>
	<g transform="matrix(1,0,0,1,-415.857,-511.548)">
		<path xmlns="" d="M1671.05,698.502C1700.14,732.525 1765.87,740.853 1802.53,715.157C1765,747.742 1699.26,739.414 1671.05,698.502" style="stroke:black;stroke-width:1.74px;stroke-linecap:round;stroke-linejoin:round;"/>
	</g>
	<g transform="matrix(1,0,0,1,-415.857,-511.548)">
		<path xmlns="" d="M2077.58,807.785C2116.24,833.646 2195.78,831.472 2236.68,803.438C2195.97,838.414 2116.42,840.587 2077.58,807.785" style="stroke:black;stroke-width:1.74px;stroke-linecap:round;stroke-linejoin:round;"/>
	</g>
	<g transform="matrix(1,0,0,1,-415.857,-511.548)">
		<path xmlns="" d="M850.636,636.678C895.401,593.153 984.932,593.153 1029.7,636.678C984.932,600.097 895.401,600.097 850.636,636.678" style="stroke:black;stroke-width:1.74px;stroke-linecap:round;stroke-linejoin:round;"/>
	</g>
	<g transform="matrix(1,0,0,1,-415.857,-511.548)">
		<path xmlns="" d="M1216.32,562.085C1243.14,529.054 1297.46,528.51 1324.94,560.995C1297.53,535.453 1243.21,535.998 1216.32,562.085" style="stroke:black;stroke-width:1.74px;stroke-linecap:round;stroke-linejoin:round;"/>
	</g>
	<g transform="matrix(1,0,0,1,-415.857,-511.548)">
		<path xmlns="" d="M1437.75,552.079C1467.76,511.885 1534.55,505.793 1571.33,539.894C1535.18,512.708 1468.39,518.8 1437.75,552.079" style="stroke:black;stroke-width:1.74px;stroke-linecap:round;stroke-linejoin:round;"/>
	</g>
	<g transform="matrix(1,0,0,1,-415.857,-500.548)">
		<path xmlns="" d="M1679.01,510.645C1688.93,496.168 1716.46,497.544 1724.88,512.938C1716.11,504.479 1688.59,503.103 1679.01,510.645" style="stroke:black;stroke-width:1.74px;stroke-linecap:round;stroke-linejoin:round;"/>
	</g>
	<g transform="matrix(1,0,0,1,-415.857,-500.548)">
		<path xmlns="" d="M1842.07,529.245C1850.49,518.159 1873.93,519.399 1881.14,531.311C1873.75,522.866 1850.31,521.626 1842.07,529.245" style="stroke:black;stroke-width:1.74px;stroke-linecap:round;stroke-linejoin:round;"/>
	</g>
	<g transform="matrix(1,0,0,1,-415.857,-500.548)">
		<path xmlns="" d="M2075.57,535.445C2085.79,520.602 2114.21,521.998 2122.93,537.771C2113.87,528.933 2085.45,527.538 2075.57,535.445" style="stroke:black;stroke-width:1.74px;stroke-linecap:round;stroke-linejoin:round;"/>
	</g>
	<g transform="matrix(1,0,0,1,-415.857,-500.548)">
		<path xmlns="" d="M2251.41,560.245C2284.74,525.818 2347.85,528.918 2377.64,566.445C2347.51,535.853 2284.39,532.753 2251.41,560.245" style="stroke:black;stroke-width:1.74px;stroke-linecap:round;stroke-linejoin:round;"/>
	</g>
	<g transform="matrix(1,0,0,1,-415.857,-511.548)">
		<path xmlns="" d="M795.282,632.834L795.282,734.762" style="fill:none;fill-rule:nonzero;stroke:black;stroke-width:4.46px;"/>
	</g>
	<g transform="matrix(1,0,0,1,-794.285,-511.548)">
		<path xmlns="" d="M795.282,632.834L795.282,734.762" style="fill:none;fill-rule:nonzero;stroke:black;stroke-width:4.46px;"/>
	</g>
	<g transform="matrix(1,0,0,1,-415.857,-511.548)">
		<path xmlns="" d="M959.37,632.834L959.37,734.762" style="fill:none;fill-rule:nonzero;stroke:black;stroke-width:4.46px;"/>
	</g>
	<g transform="matrix(1,0,0,1,-415.857,-511.548)">
		<path xmlns="" d="M1138.43,632.834L1138.43,734.762" style="fill:none;fill-rule:nonzero;stroke:black;stroke-width:4.46px;"/>
	</g>
	<g transform="matrix(1,0,0,1,-415.857,-511.548)">
		<path xmlns="" d="M1367.37,632.834L1367.37,734.762" style="fill:none;fill-rule:nonzero;stroke:black;stroke-width:4.46px;"/>
	</g>
	<g transform="matrix(1,0,0,1,-415.857,-511.548)">
		<path xmlns="" d="M1604.99,632.834L1604.99,734.762" style="fill:none;fill-rule:nonzero;stroke:black;stroke-width:4.46px;"/>
	</g>
	<g transform="matrix(1,0,0,1,-415.857,-511.548)">
		<path xmlns="" d="M2000.06,632.834L2000.06,734.762" style="fill:none;fill-rule:nonzero;stroke:black;stroke-width:4.46px;"/>
	</g>
	<g transform="matrix(1,0,0,1,-415.857,-511.548)">
		<path xmlns="" d="M2418.44,632.834L2418.44,734.762" style="fill:none;fill-rule:nonzero;stroke:black;stroke-width:4.46px;"/>
	</g>
	<g transform="matrix(0.992,0,0,0.992,564.938,147.45)">
		<path xmlns="" d="M23.3,-10.6C23.9,-10.7 24.4,-11.4 24.4,-12L24.4,-17.9C24.4,-18.7 23.8,-19.3 23,-19.3L22.8,-19.3L19.5,-18.6L19.5,-33.5L16.7,-33.5L16.7,-18L7.8,-16.2L7.8,-30.3L5,-30.3L5,-15.6L1.1,-14.8C0.5,-14.7 0,-14 0,-13.4L0,-7.4L0,-7.6C0,-6.8 0.6,-6.2 1.4,-6.2L1.7,-6.2L5,-6.9L5,9.6L1.1,10.4C0.5,10.5 0,11.2 0,11.8L0,17.6C0,18.4 0.6,19 1.4,19L1.7,19L5,18.3L5,33.2L7.8,33.2L7.8,17.7L16.7,15.9L16.7,30L19.5,30L19.5,15.3L23.3,14.6C23.9,14.5 24.4,13.8 24.4,13.2L24.4,7.3C24.4,6.5 23.8,5.9 23,5.9L22.8,5.9L19.5,6.6L19.5,-9.9L23.3,-10.6M7.8,9.1L7.8,-7.5L16.7,-9.3L16.7,7.2L7.8,9.1" style="fill-rule:nonzero;"/>
	</g>
	<g transform="matrix(1,0,0,1,-415.857,-511.548)">
		<path xmlns="" d="M1439.04,609.398L1488.63,609.398" style="fill:none;fill-rule:nonzero;stroke:black;stroke-width:3.97px;"/>
	</g>
	<g transform="matrix(1,0,0,1,-415.857,-511.548)">
		<path xmlns="" d="M1524.65,609.398L1574.24,609.398" style="fill:none;fill-rule:nonzero;stroke:black;stroke-width:3.97px;"/>
	</g>
	<g transform="matrix(1,0,0,1,-415.857,-511.548)">
		<path xmlns="" d="M1639.46,609.398L1689.06,609.398" style="fill:none;fill-rule:nonzero;stroke:black;stroke-width:3.97px;"/>
	</g>
	<g transform="matrix(1,0,0,1,-415.857,-511.548)">
		<path xmlns="" d="M2036.02,782.998L2085.61,782.998" style="fill:none;fill-rule:nonzero;stroke:black;stroke-width:3.97px;"/>
	</g>
	<g transform="matrix(1,0,0,1,-415.857,-511.548)">
		<path xmlns="" d="M2036.02,758.198L2085.61,758.198" style="fill:none;fill-rule:nonzero;stroke:black;stroke-width:3.97px;"/>
	</g>
	<g transform="matrix(1,0,0,1,-415.857,-511.548)">
		<path xmlns="" d="M2211.86,782.998L2261.45,782.998" style="fill:none;fill-rule:nonzero;stroke:black;stroke-width:3.97px;"/>
	</g>
	<g transform="matrix(1,0,0,1,-415.857,-511.548)">
		<path xmlns="" d="M2211.86,758.198L2261.45,758.198" style="fill:none;fill-rule:nonzero;stroke:black;stroke-width:3.97px;"/>
	</g>
	<g transform="matrix(1,0,0,1,-415.857,-511.548)">
		<path xmlns="" d="M2075.57,792.224L2075.57,718.573" style="fill:none;fill-rule:nonzero;stroke:black;stroke-width:2.73px;"/>
	</g>
	<g transform="matrix(1,0,0,1,-415.857,-511.548)">
		<path xmlns="" d="M2251.41,779.824L2251.41,709.759" style="fill:none;fill-rule:nonzero;stroke:black;stroke-width:2.73px;"/>
	</g>
	<g transform="matrix(1,0,0,0.785179,-415.857,-350.618)">
		<path xmlns="" d="M676.562,749.132L676.562,832.598" style="fill:none;fill-rule:nonzero;stroke:black;stroke-width:2.73px;"/>
	</g>
	<g transform="matrix(1,0,0,0.785179,-415.857,-350.618)">
		<path xmlns="" d="M724.982,749.132L724.982,832.598" style="fill:none;fill-rule:nonzero;stroke:black;stroke-width:2.73px;"/>
	</g>
	<g transform="matrix(1,0,0,0.785179,-415.857,-350.618)">
		<path xmlns="" d="M833.501,749.132L833.501,832.598" style="fill:none;fill-rule:nonzero;stroke:black;stroke-width:2.73px;"/>
	</g>
	<g transform="matrix(1,0,0,0.785179,-415.857,-350.618)">
		<path xmlns="" d="M889.07,749.132L889.07,832.598" style="fill:none;fill-rule:nonzero;stroke:black;stroke-width:2.73px;"/>
	</g>
	<g transform="matrix(1,0,0,0.785179,-415.857,-350.618)">
		<path xmlns="" d="M1012.56,749.132L1012.56,832.598" style="fill:none;fill-rule:nonzero;stroke:black;stroke-width:2.73px;"/>
	</g>
	<g transform="matrix(1,0,0,0.785179,-415.857,-350.618)">
		<path xmlns="" d="M1068.13,749.132L1068.13,832.598" style="fill:none;fill-rule:nonzero;stroke:black;stroke-width:2.73px;"/>
	</g>
	<g transform="matrix(1,0,0,0.785179,-415.857,-350.618)">
		<path xmlns="" d="M1174.27,749.132L1174.27,832.598" style="fill:none;fill-rule:nonzero;stroke:black;stroke-width:2.73px;"/>
	</g>
	<g transform="matrix(1,0,0,0.785179,-415.857,-350.618)">
		<path xmlns="" d="M1256.14,749.132L1256.14,832.598" style="fill:none;fill-rule:nonzero;stroke:black;stroke-width:2.73px;"/>
	</g>
	<g transform="matrix(1,0,0,0.785179,-415.857,-350.618)">
		<path xmlns="" d="M1403.21,749.132L1403.21,832.598" style="fill:none;fill-rule:nonzero;stroke:black;stroke-width:2.73px;"/>
	</g>
	<g transform="matrix(1,0,0,0.785179,-415.857,-350.618)">
		<path xmlns="" d="M1491.88,749.132L1491.88,832.598" style="fill:none;fill-rule:nonzero;stroke:black;stroke-width:2.73px;"/>
	</g>
	<g transform="matrix(1,0,0,1,-415.857,-511.548)">
		<path xmlns="" d="M1647.12,687.132L1647.12,761.298" style="fill:none;fill-rule:nonzero;stroke:black;stroke-width:2.73px;"/>
	</g>
	<g transform="matrix(1,0,0,1,-415.857,-511.548)">
		<path xmlns="" d="M1812.57,699.532L1812.57,770.598" style="fill:none;fill-rule:nonzero;stroke:black;stroke-width:2.73px;"/>
	</g>
	<g transform="matrix(1,0,0,1,-415.857,-511.548)">
		<path xmlns="" d="M2035.9,711.932L2035.9,763.809" style="fill:none;fill-rule:nonzero;stroke:black;stroke-width:2.73px;"/>
	</g>
	<g transform="matrix(1,0,0,1,-415.857,-511.548)">
		<path xmlns="" d="M2211.74,736.732L2211.74,777.999" style="fill:none;fill-rule:nonzero;stroke:black;stroke-width:2.73px;"/>
	</g>
	<g transform="matrix(1,0,0,1,-415.857,-511.548)">
		<path xmlns="" d="M2454.28,749.132L2454.28,807.798" style="fill:none;fill-rule:nonzero;stroke:black;stroke-width:2.73px;"/>
	</g>
	<g transform="matrix(1,0,0,1,-415.857,-511.548)">
		<path xmlns="" d="M1203.77,705.424L1203.77,624.898" style="fill:none;fill-rule:nonzero;stroke:black;stroke-width:2.73px;"/>
	</g>
	<g transform="matrix(1,0,0,1,-415.857,-511.548)">
		<path xmlns="" d="M1244.71,680.624L1244.71,606.298" style="fill:none;fill-rule:nonzero;stroke:black;stroke-width:2.73px;"/>
	</g>
	<g transform="matrix(1,0,0,1,-415.857,-511.548)">
		<path xmlns="" d="M1326.57,693.024L1326.57,615.598" style="fill:none;fill-rule:nonzero;stroke:black;stroke-width:2.73px;"/>
	</g>
	<g transform="matrix(1,0,0,1,-415.857,-511.548)">
		<path xmlns="" d="M1432.71,705.424L1432.71,624.898" style="fill:none;fill-rule:nonzero;stroke:black;stroke-width:2.73px;"/>
	</g>
	<g transform="matrix(1,0,0,1,-415.857,-511.548)">
		<path xmlns="" d="M1478.58,618.624L1478.58,559.798" style="fill:none;fill-rule:nonzero;stroke:black;stroke-width:2.73px;"/>
	</g>
	<g transform="matrix(1,0,0,1,-415.857,-511.548)">
		<path xmlns="" d="M1564.19,631.024L1564.19,569.098" style="fill:none;fill-rule:nonzero;stroke:black;stroke-width:2.73px;"/>
	</g>
	<g transform="matrix(1,0,0,1,-415.857,-511.548)">
		<path xmlns="" d="M2035.9,687.132L2035.9,761.298" style="fill:none;fill-rule:nonzero;stroke:black;stroke-width:2.73px;"/>
	</g>
	<g transform="matrix(1,0,0,1,-415.857,-511.548)">
		<path xmlns="" d="M2211.74,711.932L2211.74,779.898" style="fill:none;fill-rule:nonzero;stroke:black;stroke-width:2.73px;"/>
	</g>
	<g transform="matrix(1,0,0,1,-415.857,-511.548)">
		<path xmlns="" d="M2454.28,724.332L2454.28,789.198" style="fill:none;fill-rule:nonzero;stroke:black;stroke-width:2.73px;"/>
	</g>
	<g transform="matrix(1,0,0,1,-415.857,-511.548)">
		<path xmlns="" d="M1203.77,643.424L1203.77,578.398" style="fill:none;fill-rule:nonzero;stroke:black;stroke-width:2.73px;"/>
	</g>
	<g transform="matrix(1,0,0,1,-415.857,-511.548)">
		<path xmlns="" d="M1244.71,618.624L1244.71,559.798" style="fill:none;fill-rule:nonzero;stroke:black;stroke-width:2.73px;"/>
	</g>
	<g transform="matrix(1,0,0,1,-415.857,-511.548)">
		<path xmlns="" d="M1326.57,631.024L1326.57,569.098" style="fill:none;fill-rule:nonzero;stroke:black;stroke-width:2.73px;"/>
	</g>
	<g transform="matrix(1,0,0,1,-415.857,-511.548)">
		<path xmlns="" d="M1432.71,643.424L1432.71,578.398" style="fill:none;fill-rule:nonzero;stroke:black;stroke-width:2.73px;"/>
	</g>
	<g transform="matrix(1,0,0,1,-415.857,-511.548)">
		<path xmlns="" d="M1478.58,593.824L1478.58,541.198" style="fill:none;fill-rule:nonzero;stroke:black;stroke-width:2.73px;"/>
	</g>
	<g transform="matrix(1,0,0,1,-415.857,-511.548)">
		<path xmlns="" d="M1564.19,606.224L1564.19,550.498" style="fill:none;fill-rule:nonzero;stroke:black;stroke-width:2.73px;"/>
	</g>
	<g transform="matrix(0.844814,0,0,0.844814,-155.298,-417.47)">
		<path xmlns="" d="M1679.01,606.224L1679.01,534.998" style="fill:none;fill-rule:nonzero;stroke:black;stroke-width:2.73px;"/>
	</g>
	<g transform="matrix(0.862106,0,0,0.862106,-178.006,-426.243)">
		<path xmlns="" d="M1724.88,618.624L1724.88,537.292" style="fill:none;fill-rule:nonzero;stroke:black;stroke-width:2.73px;"/>
	</g>
	<g transform="matrix(0.860052,0,0,0.860052,-168.994,-424.972)">
		<path xmlns="" d="M1763.95,618.624L1763.95,539.245" style="fill:none;fill-rule:nonzero;stroke:black;stroke-width:2.73px;"/>
	</g>
	<g transform="matrix(0.860035,0,0,0.860035,-163.498,-424.962)">
		<path xmlns="" d="M1803.01,618.624L1803.01,541.198" style="fill:none;fill-rule:nonzero;stroke:black;stroke-width:2.73px;"/>
	</g>
	<g transform="matrix(0.821591,0,0,0.821591,-87.2152,-401.18)">
		<path xmlns="" d="M1842.07,618.624L1842.07,553.598" style="fill:none;fill-rule:nonzero;stroke:black;stroke-width:2.73px;"/>
	</g>
	<g transform="matrix(0.871013,0,0,0.871013,-173.213,-430.154)">
		<path xmlns="" d="M1881.14,631.024L1881.14,555.665" style="fill:none;fill-rule:nonzero;stroke:black;stroke-width:2.73px;"/>
	</g>
	<g transform="matrix(0.844576,0,0,0.844576,-117.411,-413.471)">
		<path xmlns="" d="M1920.2,631.024L1920.2,557.732" style="fill:none;fill-rule:nonzero;stroke:black;stroke-width:2.73px;"/>
	</g>
	<g transform="matrix(0.846233,0,0,0.846233,-114.586,-414.517)">
		<path xmlns="" d="M1959.26,631.024L1959.26,559.798" style="fill:none;fill-rule:nonzero;stroke:black;stroke-width:2.73px;"/>
	</g>
	<g transform="matrix(0.845508,0,0,0.845508,-95.1968,-414.059)">
		<path xmlns="" d="M2075.57,631.024L2075.57,559.798" style="fill:none;fill-rule:nonzero;stroke:black;stroke-width:2.73px;"/>
	</g>
	<g transform="matrix(0.868123,0,0,0.868123,-135.89,-426.695)">
		<path xmlns="" d="M2122.93,643.424L2122.93,562.125" style="fill:none;fill-rule:nonzero;stroke:black;stroke-width:2.73px;"/>
	</g>
	<g transform="matrix(0.874187,0,0,0.874187,-143.803,-430.597)">
		<path xmlns="" d="M2162.37,643.424L2162.37,564.061" style="fill:none;fill-rule:nonzero;stroke:black;stroke-width:2.73px;"/>
	</g>
	<g transform="matrix(0.859433,0,0,0.859433,-106.356,-421.103)">
		<path xmlns="" d="M2201.8,643.424L2201.8,565.998" style="fill:none;fill-rule:nonzero;stroke:black;stroke-width:2.73px;"/>
	</g>
	<g transform="matrix(1,0,0,0.847762,-415.857,-411.707)">
		<path xmlns="" d="M2251.41,655.824L2251.41,584.598" style="fill:none;fill-rule:nonzero;stroke:black;stroke-width:2.73px;"/>
	</g>
	<g transform="matrix(1,0,0,0.871846,-415.857,-425.912)">
		<path xmlns="" d="M2298.77,668.224L2298.77,586.925" style="fill:none;fill-rule:nonzero;stroke:black;stroke-width:2.73px;"/>
	</g>
	<g transform="matrix(1,0,0,0.889104,-415.857,-436.07)">
		<path xmlns="" d="M2338.21,680.624L2338.21,588.861" style="fill:none;fill-rule:nonzero;stroke:black;stroke-width:2.73px;"/>
	</g>
	<g transform="matrix(1,0,0,0.859166,-415.857,-417.439)">
		<path xmlns="" d="M2377.64,668.224L2377.64,590.798" style="fill:none;fill-rule:nonzero;stroke:black;stroke-width:2.73px;"/>
	</g>
	<g transform="matrix(1,0,0,1,-415.857,-511.548)">
		<path xmlns="" d="M2483.78,655.824L2483.78,587.698" style="fill:none;fill-rule:nonzero;stroke:black;stroke-width:2.73px;"/>
	</g>
	<g transform="matrix(0.992,0,0,0.992,1234.9,234.25)">
		<path xmlns="" d="M18.7,-13.6C4.9,-13.6 0,-6.6 0,-0.1C0,6.4 4.9,13.4 18.7,13.4C32.5,13.4 37.3,6.4 37.3,-0.1C37.3,-6.6 32.5,-13.6 18.7,-13.6M10.4,-4.5C10.3,-4.9 10.3,-5.3 10.3,-5.7C10.3,-6.5 10.5,-7.3 10.9,-8C11.6,-9 12.8,-9.7 14.3,-10C15.6,-10.3 16.3,-10.5 18.9,-10.5L19,-10.5C23,-10.5 24.3,-6.8 25.4,-3L25.7,-2C26.5,0.6 26.9,2.8 26.9,4.5C26.9,5.7 26.7,6.8 26.3,7.6C25.7,8.7 24.7,9.4 23,9.8C22.1,10 20.6,10.1 20.6,10.1C20.1,10.1 19.7,10.2 19.3,10.2C16.1,10.2 14.1,9 12.7,4.7C11.5,1 11.3,-0.1 10.4,-4.5" style="fill-rule:nonzero;"/>
	</g>
	<g transform="matrix(0.992,0,0,0.992,1628.84,283.85)">
		<path xmlns="" d="M31.5,-8.1C29.7,-11.4 25.9,-13.2 21.3,-13.2C17.9,-13.2 14.2,-12.2 10.6,-10.3C4,-6.8 0,-0.9 0,4.2C0,5.6 0.3,7 1,8.3C2.8,11.6 6.6,13.3 11.2,13.3C14.6,13.3 18.3,12.4 21.9,10.5C28.5,7 32.5,1.1 32.5,-4C32.5,-5.4 32.2,-6.8 31.5,-8.1M27.2,-1.3C25.5,0.4 22.1,2.5 18.5,4.5C14.9,6.5 11.3,8 8.9,8.5C8.4,8.6 7.9,8.7 7.4,8.7C5.8,8.7 4.6,8.1 3.9,6.8C3.6,6.3 3.4,5.7 3.4,5.1C3.4,4 4.1,2.7 5.2,1.6C6.9,-0.1 10.2,-2.2 13.8,-4.2C17.4,-6.2 21,-7.7 23.4,-8.2C23.9,-8.3 24.4,-8.4 24.9,-8.4C26.5,-8.4 27.8,-7.8 28.5,-6.5C28.8,-6 28.9,-5.4 28.9,-4.8C28.9,-3.7 28.3,-2.5 27.2,-1.3" style="fill-rule:nonzero;"/>
	</g>
	<g transform="matrix(0.992,0,0,0.992,1804.68,271.45)">
		<path xmlns="" d="M31.5,-8.1C29.7,-11.4 25.9,-13.2 21.3,-13.2C17.9,-13.2 14.2,-12.2 10.6,-10.3C4,-6.8 0,-0.9 0,4.2C0,5.6 0.3,7 1,8.3C2.8,11.6 6.6,13.3 11.2,13.3C14.6,13.3 18.3,12.4 21.9,10.5C28.5,7 32.5,1.1 32.5,-4C32.5,-5.4 32.2,-6.8 31.5,-8.1M27.2,-1.3C25.5,0.4 22.1,2.5 18.5,4.5C14.9,6.5 11.3,8 8.9,8.5C8.4,8.6 7.9,8.7 7.4,8.7C5.8,8.7 4.6,8.1 3.9,6.8C3.6,6.3 3.4,5.7 3.4,5.1C3.4,4 4.1,2.7 5.2,1.6C6.9,-0.1 10.2,-2.2 13.8,-4.2C17.4,-6.2 21,-7.7 23.4,-8.2C23.9,-8.3 24.4,-8.4 24.9,-8.4C26.5,-8.4 27.8,-7.8 28.5,-6.5C28.8,-6 28.9,-5.4 28.9,-4.8C28.9,-3.7 28.3,-2.5 27.2,-1.3" style="fill-rule:nonzero;"/>
	</g>
	<g transform="matrix(0.992,0,0,0.992,259.341,234.25)">
		<path xmlns="" d="M31.5,-8.1C29.7,-11.4 25.9,-13.2 21.3,-13.2C17.9,-13.2 14.2,-12.2 10.6,-10.3C4,-6.8 0,-0.9 0,4.2C0,5.6 0.3,7 1,8.3C2.8,11.6 6.6,13.3 11.2,13.3C14.6,13.3 18.3,12.4 21.9,10.5C28.5,7 32.5,1.1 32.5,-4C32.5,-5.4 32.2,-6.8 31.5,-8.1M27.2,-1.3C25.5,0.4 22.1,2.5 18.5,4.5C14.9,6.5 11.3,8 8.9,8.5C8.4,8.6 7.9,8.7 7.4,8.7C5.8,8.7 4.6,8.1 3.9,6.8C3.6,6.3 3.4,5.7 3.4,5.1C3.4,4 4.1,2.7 5.2,1.6C6.9,-0.1 10.2,-2.2 13.8,-4.2C17.4,-6.2 21,-7.7 23.4,-8.2C23.9,-8.3 24.4,-8.4 24.9,-8.4C26.5,-8.4 27.8,-7.8 28.5,-6.5C28.8,-6 28.9,-5.4 28.9,-4.8C28.9,-3.7 28.3,-2.5 27.2,-1.3" style="fill-rule:nonzero;"/>
	</g>
	<g transform="matrix(0.992,0,0,0.992,307.761,234.25)">
		<path xmlns="" d="M31.5,-8.1C29.7,-11.4 25.9,-13.2 21.3,-13.2C17.9,-13.2 14.2,-12.2 10.6,-10.3C4,-6.8 0,-0.9 0,4.2C0,5.6 0.3,7 1,8.3C2.8,11.6 6.6,13.3 11.2,13.3C14.6,13.3 18.3,12.4 21.9,10.5C28.5,7 32.5,1.1 32.5,-4C32.5,-5.4 32.2,-6.8 31.5,-8.1M27.2,-1.3C25.5,0.4 22.1,2.5 18.5,4.5C14.9,6.5 11.3,8 8.9,8.5C8.4,8.6 7.9,8.7 7.4,8.7C5.8,8.7 4.6,8.1 3.9,6.8C3.6,6.3 3.4,5.7 3.4,5.1C3.4,4 4.1,2.7 5.2,1.6C6.9,-0.1 10.2,-2.2 13.8,-4.2C17.4,-6.2 21,-7.7 23.4,-8.2C23.9,-8.3 24.4,-8.4 24.9,-8.4C26.5,-8.4 27.8,-7.8 28.5,-6.5C28.8,-6 28.9,-5.4 28.9,-4.8C28.9,-3.7 28.3,-2.5 27.2,-1.3" style="fill-rule:nonzero;"/>
	</g>
	<g transform="matrix(0.992,0,0,0.992,416.28,234.25)">
		<path xmlns="" d="M31.5,-8.1C29.7,-11.4 25.9,-13.2 21.3,-13.2C17.9,-13.2 14.2,-12.2 10.6,-10.3C4,-6.8 0,-0.9 0,4.2C0,5.6 0.3,7 1,8.3C2.8,11.6 6.6,13.3 11.2,13.3C14.6,13.3 18.3,12.4 21.9,10.5C28.5,7 32.5,1.1 32.5,-4C32.5,-5.4 32.2,-6.8 31.5,-8.1M27.2,-1.3C25.5,0.4 22.1,2.5 18.5,4.5C14.9,6.5 11.3,8 8.9,8.5C8.4,8.6 7.9,8.7 7.4,8.7C5.8,8.7 4.6,8.1 3.9,6.8C3.6,6.3 3.4,5.7 3.4,5.1C3.4,4 4.1,2.7 5.2,1.6C6.9,-0.1 10.2,-2.2 13.8,-4.2C17.4,-6.2 21,-7.7 23.4,-8.2C23.9,-8.3 24.4,-8.4 24.9,-8.4C26.5,-8.4 27.8,-7.8 28.5,-6.5C28.8,-6 28.9,-5.4 28.9,-4.8C28.9,-3.7 28.3,-2.5 27.2,-1.3" style="fill-rule:nonzero;"/>
	</g>
	<g transform="matrix(0.992,0,0,0.992,471.849,234.25)">
		<path xmlns="" d="M31.5,-8.1C29.7,-11.4 25.9,-13.2 21.3,-13.2C17.9,-13.2 14.2,-12.2 10.6,-10.3C4,-6.8 0,-0.9 0,4.2C0,5.6 0.3,7 1,8.3C2.8,11.6 6.6,13.3 11.2,13.3C14.6,13.3 18.3,12.4 21.9,10.5C28.5,7 32.5,1.1 32.5,-4C32.5,-5.4 32.2,-6.8 31.5,-8.1M27.2,-1.3C25.5,0.4 22.1,2.5 18.5,4.5C14.9,6.5 11.3,8 8.9,8.5C8.4,8.6 7.9,8.7 7.4,8.7C5.8,8.7 4.6,8.1 3.9,6.8C3.6,6.3 3.4,5.7 3.4,5.1C3.4,4 4.1,2.7 5.2,1.6C6.9,-0.1 10.2,-2.2 13.8,-4.2C17.4,-6.2 21,-7.7 23.4,-8.2C23.9,-8.3 24.4,-8.4 24.9,-8.4C26.5,-8.4 27.8,-7.8 28.5,-6.5C28.8,-6 28.9,-5.4 28.9,-4.8C28.9,-3.7 28.3,-2.5 27.2,-1.3" style="fill-rule:nonzero;"/>
	</g>
	<g transform="matrix(0.992,0,0,0.992,595.343,234.25)">
		<path xmlns="" d="M31.5,-8.1C29.7,-11.4 25.9,-13.2 21.3,-13.2C17.9,-13.2 14.2,-12.2 10.6,-10.3C4,-6.8 0,-0.9 0,4.2C0,5.6 0.3,7 1,8.3C2.8,11.6 6.6,13.3 11.2,13.3C14.6,13.3 18.3,12.4 21.9,10.5C28.5,7 32.5,1.1 32.5,-4C32.5,-5.4 32.2,-6.8 31.5,-8.1M27.2,-1.3C25.5,0.4 22.1,2.5 18.5,4.5C14.9,6.5 11.3,8 8.9,8.5C8.4,8.6 7.9,8.7 7.4,8.7C5.8,8.7 4.6,8.1 3.9,6.8C3.6,6.3 3.4,5.7 3.4,5.1C3.4,4 4.1,2.7 5.2,1.6C6.9,-0.1 10.2,-2.2 13.8,-4.2C17.4,-6.2 21,-7.7 23.4,-8.2C23.9,-8.3 24.4,-8.4 24.9,-8.4C26.5,-8.4 27.8,-7.8 28.5,-6.5C28.8,-6 28.9,-5.4 28.9,-4.8C28.9,-3.7 28.3,-2.5 27.2,-1.3" style="fill-rule:nonzero;"/>
	</g>
	<g transform="matrix(0.992,0,0,0.992,650.913,234.25)">
		<path xmlns="" d="M31.5,-8.1C29.7,-11.4 25.9,-13.2 21.3,-13.2C17.9,-13.2 14.2,-12.2 10.6,-10.3C4,-6.8 0,-0.9 0,4.2C0,5.6 0.3,7 1,8.3C2.8,11.6 6.6,13.3 11.2,13.3C14.6,13.3 18.3,12.4 21.9,10.5C28.5,7 32.5,1.1 32.5,-4C32.5,-5.4 32.2,-6.8 31.5,-8.1M27.2,-1.3C25.5,0.4 22.1,2.5 18.5,4.5C14.9,6.5 11.3,8 8.9,8.5C8.4,8.6 7.9,8.7 7.4,8.7C5.8,8.7 4.6,8.1 3.9,6.8C3.6,6.3 3.4,5.7 3.4,5.1C3.4,4 4.1,2.7 5.2,1.6C6.9,-0.1 10.2,-2.2 13.8,-4.2C17.4,-6.2 21,-7.7 23.4,-8.2C23.9,-8.3 24.4,-8.4 24.9,-8.4C26.5,-8.4 27.8,-7.8 28.5,-6.5C28.8,-6 28.9,-5.4 28.9,-4.8C28.9,-3.7 28.3,-2.5 27.2,-1.3" style="fill-rule:nonzero;"/>
	</g>
	<g transform="matrix(0.992,0,0,0.992,757.043,234.25)">
		<path xmlns="" d="M31.5,-8.1C29.7,-11.4 25.9,-13.2 21.3,-13.2C17.9,-13.2 14.2,-12.2 10.6,-10.3C4,-6.8 0,-0.9 0,4.2C0,5.6 0.3,7 1,8.3C2.8,11.6 6.6,13.3 11.2,13.3C14.6,13.3 18.3,12.4 21.9,10.5C28.5,7 32.5,1.1 32.5,-4C32.5,-5.4 32.2,-6.8 31.5,-8.1M27.2,-1.3C25.5,0.4 22.1,2.5 18.5,4.5C14.9,6.5 11.3,8 8.9,8.5C8.4,8.6 7.9,8.7 7.4,8.7C5.8,8.7 4.6,8.1 3.9,6.8C3.6,6.3 3.4,5.7 3.4,5.1C3.4,4 4.1,2.7 5.2,1.6C6.9,-0.1 10.2,-2.2 13.8,-4.2C17.4,-6.2 21,-7.7 23.4,-8.2C23.9,-8.3 24.4,-8.4 24.9,-8.4C26.5,-8.4 27.8,-7.8 28.5,-6.5C28.8,-6 28.9,-5.4 28.9,-4.8C28.9,-3.7 28.3,-2.5 27.2,-1.3" style="fill-rule:nonzero;"/>
	</g>
	<g transform="matrix(0.992,0,0,0.992,838.913,234.25)">
		<path xmlns="" d="M31.5,-8.1C29.7,-11.4 25.9,-13.2 21.3,-13.2C17.9,-13.2 14.2,-12.2 10.6,-10.3C4,-6.8 0,-0.9 0,4.2C0,5.6 0.3,7 1,8.3C2.8,11.6 6.6,13.3 11.2,13.3C14.6,13.3 18.3,12.4 21.9,10.5C28.5,7 32.5,1.1 32.5,-4C32.5,-5.4 32.2,-6.8 31.5,-8.1M27.2,-1.3C25.5,0.4 22.1,2.5 18.5,4.5C14.9,6.5 11.3,8 8.9,8.5C8.4,8.6 7.9,8.7 7.4,8.7C5.8,8.7 4.6,8.1 3.9,6.8C3.6,6.3 3.4,5.7 3.4,5.1C3.4,4 4.1,2.7 5.2,1.6C6.9,-0.1 10.2,-2.2 13.8,-4.2C17.4,-6.2 21,-7.7 23.4,-8.2C23.9,-8.3 24.4,-8.4 24.9,-8.4C26.5,-8.4 27.8,-7.8 28.5,-6.5C28.8,-6 28.9,-5.4 28.9,-4.8C28.9,-3.7 28.3,-2.5 27.2,-1.3" style="fill-rule:nonzero;"/>
	</g>
	<g transform="matrix(0.992,0,0,0.992,985.983,234.25)">
		<path xmlns="" d="M31.5,-8.1C29.7,-11.4 25.9,-13.2 21.3,-13.2C17.9,-13.2 14.2,-12.2 10.6,-10.3C4,-6.8 0,-0.9 0,4.2C0,5.6 0.3,7 1,8.3C2.8,11.6 6.6,13.3 11.2,13.3C14.6,13.3 18.3,12.4 21.9,10.5C28.5,7 32.5,1.1 32.5,-4C32.5,-5.4 32.2,-6.8 31.5,-8.1M27.2,-1.3C25.5,0.4 22.1,2.5 18.5,4.5C14.9,6.5 11.3,8 8.9,8.5C8.4,8.6 7.9,8.7 7.4,8.7C5.8,8.7 4.6,8.1 3.9,6.8C3.6,6.3 3.4,5.7 3.4,5.1C3.4,4 4.1,2.7 5.2,1.6C6.9,-0.1 10.2,-2.2 13.8,-4.2C17.4,-6.2 21,-7.7 23.4,-8.2C23.9,-8.3 24.4,-8.4 24.9,-8.4C26.5,-8.4 27.8,-7.8 28.5,-6.5C28.8,-6 28.9,-5.4 28.9,-4.8C28.9,-3.7 28.3,-2.5 27.2,-1.3" style="fill-rule:nonzero;"/>
	</g>
	<g transform="matrix(0.992,0,0,0.992,1074.66,234.25)">
		<path xmlns="" d="M31.5,-8.1C29.7,-11.4 25.9,-13.2 21.3,-13.2C17.9,-13.2 14.2,-12.2 10.6,-10.3C4,-6.8 0,-0.9 0,4.2C0,5.6 0.3,7 1,8.3C2.8,11.6 6.6,13.3 11.2,13.3C14.6,13.3 18.3,12.4 21.9,10.5C28.5,7 32.5,1.1 32.5,-4C32.5,-5.4 32.2,-6.8 31.5,-8.1M27.2,-1.3C25.5,0.4 22.1,2.5 18.5,4.5C14.9,6.5 11.3,8 8.9,8.5C8.4,8.6 7.9,8.7 7.4,8.7C5.8,8.7 4.6,8.1 3.9,6.8C3.6,6.3 3.4,5.7 3.4,5.1C3.4,4 4.1,2.7 5.2,1.6C6.9,-0.1 10.2,-2.2 13.8,-4.2C17.4,-6.2 21,-7.7 23.4,-8.2C23.9,-8.3 24.4,-8.4 24.9,-8.4C26.5,-8.4 27.8,-7.8 28.5,-6.5C28.8,-6 28.9,-5.4 28.9,-4.8C28.9,-3.7 28.3,-2.5 27.2,-1.3" style="fill-rule:nonzero;"/>
	</g>
	<g transform="matrix(0.992,0,0,0.992,1229.9,172.25)">
		<path xmlns="" d="M31.5,-8.1C29.7,-11.4 25.9,-13.2 21.3,-13.2C17.9,-13.2 14.2,-12.2 10.6,-10.3C4,-6.8 0,-0.9 0,4.2C0,5.6 0.3,7 1,8.3C2.8,11.6 6.6,13.3 11.2,13.3C14.6,13.3 18.3,12.4 21.9,10.5C28.5,7 32.5,1.1 32.5,-4C32.5,-5.4 32.2,-6.8 31.5,-8.1M27.2,-1.3C25.5,0.4 22.1,2.5 18.5,4.5C14.9,6.5 11.3,8 8.9,8.5C8.4,8.6 7.9,8.7 7.4,8.7C5.8,8.7 4.6,8.1 3.9,6.8C3.6,6.3 3.4,5.7 3.4,5.1C3.4,4 4.1,2.7 5.2,1.6C6.9,-0.1 10.2,-2.2 13.8,-4.2C17.4,-6.2 21,-7.7 23.4,-8.2C23.9,-8.3 24.4,-8.4 24.9,-8.4C26.5,-8.4 27.8,-7.8 28.5,-6.5C28.8,-6 28.9,-5.4 28.9,-4.8C28.9,-3.7 28.3,-2.5 27.2,-1.3" style="fill-rule:nonzero;"/>
	</g>
	<g transform="matrix(0.992,0,0,0.992,1395.35,184.65)">
		<path xmlns="" d="M31.5,-8.1C29.7,-11.4 25.9,-13.2 21.3,-13.2C17.9,-13.2 14.2,-12.2 10.6,-10.3C4,-6.8 0,-0.9 0,4.2C0,5.6 0.3,7 1,8.3C2.8,11.6 6.6,13.3 11.2,13.3C14.6,13.3 18.3,12.4 21.9,10.5C28.5,7 32.5,1.1 32.5,-4C32.5,-5.4 32.2,-6.8 31.5,-8.1M27.2,-1.3C25.5,0.4 22.1,2.5 18.5,4.5C14.9,6.5 11.3,8 8.9,8.5C8.4,8.6 7.9,8.7 7.4,8.7C5.8,8.7 4.6,8.1 3.9,6.8C3.6,6.3 3.4,5.7 3.4,5.1C3.4,4 4.1,2.7 5.2,1.6C6.9,-0.1 10.2,-2.2 13.8,-4.2C17.4,-6.2 21,-7.7 23.4,-8.2C23.9,-8.3 24.4,-8.4 24.9,-8.4C26.5,-8.4 27.8,-7.8 28.5,-6.5C28.8,-6 28.9,-5.4 28.9,-4.8C28.9,-3.7 28.3,-2.5 27.2,-1.3" style="fill-rule:nonzero;"/>
	</g>
	<g transform="matrix(0.992,0,0,0.992,1618.67,197.05)">
		<path xmlns="" d="M31.5,-8.1C29.7,-11.4 25.9,-13.2 21.3,-13.2C17.9,-13.2 14.2,-12.2 10.6,-10.3C4,-6.8 0,-0.9 0,4.2C0,5.6 0.3,7 1,8.3C2.8,11.6 6.6,13.3 11.2,13.3C14.6,13.3 18.3,12.4 21.9,10.5C28.5,7 32.5,1.1 32.5,-4C32.5,-5.4 32.2,-6.8 31.5,-8.1M27.2,-1.3C25.5,0.4 22.1,2.5 18.5,4.5C14.9,6.5 11.3,8 8.9,8.5C8.4,8.6 7.9,8.7 7.4,8.7C5.8,8.7 4.6,8.1 3.9,6.8C3.6,6.3 3.4,5.7 3.4,5.1C3.4,4 4.1,2.7 5.2,1.6C6.9,-0.1 10.2,-2.2 13.8,-4.2C17.4,-6.2 21,-7.7 23.4,-8.2C23.9,-8.3 24.4,-8.4 24.9,-8.4C26.5,-8.4 27.8,-7.8 28.5,-6.5C28.8,-6 28.9,-5.4 28.9,-4.8C28.9,-3.7 28.3,-2.5 27.2,-1.3" style="fill-rule:nonzero;"/>
	</g>
	<g transform="matrix(0.992,0,0,0.992,1794.51,221.85)">
		<path xmlns="" d="M31.5,-8.1C29.7,-11.4 25.9,-13.2 21.3,-13.2C17.9,-13.2 14.2,-12.2 10.6,-10.3C4,-6.8 0,-0.9 0,4.2C0,5.6 0.3,7 1,8.3C2.8,11.6 6.6,13.3 11.2,13.3C14.6,13.3 18.3,12.4 21.9,10.5C28.5,7 32.5,1.1 32.5,-4C32.5,-5.4 32.2,-6.8 31.5,-8.1M27.2,-1.3C25.5,0.4 22.1,2.5 18.5,4.5C14.9,6.5 11.3,8 8.9,8.5C8.4,8.6 7.9,8.7 7.4,8.7C5.8,8.7 4.6,8.1 3.9,6.8C3.6,6.3 3.4,5.7 3.4,5.1C3.4,4 4.1,2.7 5.2,1.6C6.9,-0.1 10.2,-2.2 13.8,-4.2C17.4,-6.2 21,-7.7 23.4,-8.2C23.9,-8.3 24.4,-8.4 24.9,-8.4C26.5,-8.4 27.8,-7.8 28.5,-6.5C28.8,-6 28.9,-5.4 28.9,-4.8C28.9,-3.7 28.3,-2.5 27.2,-1.3" style="fill-rule:nonzero;"/>
	</g>
	<g transform="matrix(0.992,0,0,0.992,2037.05,234.25)">
		<path xmlns="" d="M31.5,-8.1C29.7,-11.4 25.9,-13.2 21.3,-13.2C17.9,-13.2 14.2,-12.2 10.6,-10.3C4,-6.8 0,-0.9 0,4.2C0,5.6 0.3,7 1,8.3C2.8,11.6 6.6,13.3 11.2,13.3C14.6,13.3 18.3,12.4 21.9,10.5C28.5,7 32.5,1.1 32.5,-4C32.5,-5.4 32.2,-6.8 31.5,-8.1" style="fill-rule:nonzero;"/>
	</g>
	<g transform="matrix(0.992,0,0,0.992,416.28,209.45)">
		<path xmlns="" d="M18.7,-13.6C4.9,-13.6 0,-6.6 0,-0.1C0,6.4 4.9,13.4 18.7,13.4C32.5,13.4 37.3,6.4 37.3,-0.1C37.3,-6.6 32.5,-13.6 18.7,-13.6M10.4,-4.5C10.3,-4.9 10.3,-5.3 10.3,-5.7C10.3,-6.5 10.5,-7.3 10.9,-8C11.6,-9 12.8,-9.7 14.3,-10C15.6,-10.3 16.3,-10.5 18.9,-10.5L19,-10.5C23,-10.5 24.3,-6.8 25.4,-3L25.7,-2C26.5,0.6 26.9,2.8 26.9,4.5C26.9,5.7 26.7,6.8 26.3,7.6C25.7,8.7 24.7,9.4 23,9.8C22.1,10 20.6,10.1 20.6,10.1C20.1,10.1 19.7,10.2 19.3,10.2C16.1,10.2 14.1,9 12.7,4.7C11.5,1 11.3,-0.1 10.4,-4.5" style="fill-rule:nonzero;"/>
	</g>
	<g transform="matrix(0.992,0,0,0.992,595.343,209.45)">
		<path xmlns="" d="M18.7,-13.6C4.9,-13.6 0,-6.6 0,-0.1C0,6.4 4.9,13.4 18.7,13.4C32.5,13.4 37.3,6.4 37.3,-0.1C37.3,-6.6 32.5,-13.6 18.7,-13.6M10.4,-4.5C10.3,-4.9 10.3,-5.3 10.3,-5.7C10.3,-6.5 10.5,-7.3 10.9,-8C11.6,-9 12.8,-9.7 14.3,-10C15.6,-10.3 16.3,-10.5 18.9,-10.5L19,-10.5C23,-10.5 24.3,-6.8 25.4,-3L25.7,-2C26.5,0.6 26.9,2.8 26.9,4.5C26.9,5.7 26.7,6.8 26.3,7.6C25.7,8.7 24.7,9.4 23,9.8C22.1,10 20.6,10.1 20.6,10.1C20.1,10.1 19.7,10.2 19.3,10.2C16.1,10.2 14.1,9 12.7,4.7C11.5,1 11.3,-0.1 10.4,-4.5" style="fill-rule:nonzero;"/>
	</g>
	<g transform="matrix(0.992,0,0,0.992,757.043,197.05)">
		<path xmlns="" d="M31.5,-8.1C29.7,-11.4 25.9,-13.2 21.3,-13.2C17.9,-13.2 14.2,-12.2 10.6,-10.3C4,-6.8 0,-0.9 0,4.2C0,5.6 0.3,7 1,8.3C2.8,11.6 6.6,13.3 11.2,13.3C14.6,13.3 18.3,12.4 21.9,10.5C28.5,7 32.5,1.1 32.5,-4C32.5,-5.4 32.2,-6.8 31.5,-8.1" style="fill-rule:nonzero;"/>
	</g>
	<g transform="matrix(0.992,0,0,0.992,797.983,172.25)">
		<path xmlns="" d="M31.5,-8.1C29.7,-11.4 25.9,-13.2 21.3,-13.2C17.9,-13.2 14.2,-12.2 10.6,-10.3C4,-6.8 0,-0.9 0,4.2C0,5.6 0.3,7 1,8.3C2.8,11.6 6.6,13.3 11.2,13.3C14.6,13.3 18.3,12.4 21.9,10.5C28.5,7 32.5,1.1 32.5,-4C32.5,-5.4 32.2,-6.8 31.5,-8.1M27.2,-1.3C25.5,0.4 22.1,2.5 18.5,4.5C14.9,6.5 11.3,8 8.9,8.5C8.4,8.6 7.9,8.7 7.4,8.7C5.8,8.7 4.6,8.1 3.9,6.8C3.6,6.3 3.4,5.7 3.4,5.1C3.4,4 4.1,2.7 5.2,1.6C6.9,-0.1 10.2,-2.2 13.8,-4.2C17.4,-6.2 21,-7.7 23.4,-8.2C23.9,-8.3 24.4,-8.4 24.9,-8.4C26.5,-8.4 27.8,-7.8 28.5,-6.5C28.8,-6 28.9,-5.4 28.9,-4.8C28.9,-3.7 28.3,-2.5 27.2,-1.3" style="fill-rule:nonzero;"/>
	</g>
	<g transform="matrix(0.992,0,0,0.992,879.853,184.65)">
		<path xmlns="" d="M31.5,-8.1C29.7,-11.4 25.9,-13.2 21.3,-13.2C17.9,-13.2 14.2,-12.2 10.6,-10.3C4,-6.8 0,-0.9 0,4.2C0,5.6 0.3,7 1,8.3C2.8,11.6 6.6,13.3 11.2,13.3C14.6,13.3 18.3,12.4 21.9,10.5C28.5,7 32.5,1.1 32.5,-4C32.5,-5.4 32.2,-6.8 31.5,-8.1" style="fill-rule:nonzero;"/>
	</g>
	<g transform="matrix(0.992,0,0,0.992,985.983,197.05)">
		<path xmlns="" d="M31.5,-8.1C29.7,-11.4 25.9,-13.2 21.3,-13.2C17.9,-13.2 14.2,-12.2 10.6,-10.3C4,-6.8 0,-0.9 0,4.2C0,5.6 0.3,7 1,8.3C2.8,11.6 6.6,13.3 11.2,13.3C14.6,13.3 18.3,12.4 21.9,10.5C28.5,7 32.5,1.1 32.5,-4C32.5,-5.4 32.2,-6.8 31.5,-8.1" style="fill-rule:nonzero;"/>
	</g>
	<g transform="matrix(0.992,0,0,0.992,1031.86,110.25)">
		<path xmlns="" d="M31.5,-8.1C29.7,-11.4 25.9,-13.2 21.3,-13.2C17.9,-13.2 14.2,-12.2 10.6,-10.3C4,-6.8 0,-0.9 0,4.2C0,5.6 0.3,7 1,8.3C2.8,11.6 6.6,13.3 11.2,13.3C14.6,13.3 18.3,12.4 21.9,10.5C28.5,7 32.5,1.1 32.5,-4C32.5,-5.4 32.2,-6.8 31.5,-8.1M27.2,-1.3C25.5,0.4 22.1,2.5 18.5,4.5C14.9,6.5 11.3,8 8.9,8.5C8.4,8.6 7.9,8.7 7.4,8.7C5.8,8.7 4.6,8.1 3.9,6.8C3.6,6.3 3.4,5.7 3.4,5.1C3.4,4 4.1,2.7 5.2,1.6C6.9,-0.1 10.2,-2.2 13.8,-4.2C17.4,-6.2 21,-7.7 23.4,-8.2C23.9,-8.3 24.4,-8.4 24.9,-8.4C26.5,-8.4 27.8,-7.8 28.5,-6.5C28.8,-6 28.9,-5.4 28.9,-4.8C28.9,-3.7 28.3,-2.5 27.2,-1.3" style="fill-rule:nonzero;"/>
	</g>
	<g transform="matrix(0.992,0,0,0.992,1117.47,122.65)">
		<path xmlns="" d="M31.5,-8.1C29.7,-11.4 25.9,-13.2 21.3,-13.2C17.9,-13.2 14.2,-12.2 10.6,-10.3C4,-6.8 0,-0.9 0,4.2C0,5.6 0.3,7 1,8.3C2.8,11.6 6.6,13.3 11.2,13.3C14.6,13.3 18.3,12.4 21.9,10.5C28.5,7 32.5,1.1 32.5,-4C32.5,-5.4 32.2,-6.8 31.5,-8.1" style="fill-rule:nonzero;"/>
	</g>
	<g transform="matrix(0.992,0,0,0.992,1229.9,147.45)">
		<path xmlns="" d="M18.7,-13.6C4.9,-13.6 0,-6.6 0,-0.1C0,6.4 4.9,13.4 18.7,13.4C32.5,13.4 37.3,6.4 37.3,-0.1C37.3,-6.6 32.5,-13.6 18.7,-13.6M10.4,-4.5C10.3,-4.9 10.3,-5.3 10.3,-5.7C10.3,-6.5 10.5,-7.3 10.9,-8C11.6,-9 12.8,-9.7 14.3,-10C15.6,-10.3 16.3,-10.5 18.9,-10.5L19,-10.5C23,-10.5 24.3,-6.8 25.4,-3L25.7,-2C26.5,0.6 26.9,2.8 26.9,4.5C26.9,5.7 26.7,6.8 26.3,7.6C25.7,8.7 24.7,9.4 23,9.8C22.1,10 20.6,10.1 20.6,10.1C20.1,10.1 19.7,10.2 19.3,10.2C16.1,10.2 14.1,9 12.7,4.7C11.5,1 11.3,-0.1 10.4,-4.5" style="fill-rule:nonzero;"/>
	</g>
	<g transform="matrix(0.992,0,0,0.992,1618.67,172.25)">
		<path xmlns="" d="M31.5,-8.1C29.7,-11.4 25.9,-13.2 21.3,-13.2C17.9,-13.2 14.2,-12.2 10.6,-10.3C4,-6.8 0,-0.9 0,4.2C0,5.6 0.3,7 1,8.3C2.8,11.6 6.6,13.3 11.2,13.3C14.6,13.3 18.3,12.4 21.9,10.5C28.5,7 32.5,1.1 32.5,-4C32.5,-5.4 32.2,-6.8 31.5,-8.1M27.2,-1.3C25.5,0.4 22.1,2.5 18.5,4.5C14.9,6.5 11.3,8 8.9,8.5C8.4,8.6 7.9,8.7 7.4,8.7C5.8,8.7 4.6,8.1 3.9,6.8C3.6,6.3 3.4,5.7 3.4,5.1C3.4,4 4.1,2.7 5.2,1.6C6.9,-0.1 10.2,-2.2 13.8,-4.2C17.4,-6.2 21,-7.7 23.4,-8.2C23.9,-8.3 24.4,-8.4 24.9,-8.4C26.5,-8.4 27.8,-7.8 28.5,-6.5C28.8,-6 28.9,-5.4 28.9,-4.8C28.9,-3.7 28.3,-2.5 27.2,-1.3" style="fill-rule:nonzero;"/>
	</g>
	<g transform="matrix(0.992,0,0,0.992,1794.51,197.05)">
		<path xmlns="" d="M31.5,-8.1C29.7,-11.4 25.9,-13.2 21.3,-13.2C17.9,-13.2 14.2,-12.2 10.6,-10.3C4,-6.8 0,-0.9 0,4.2C0,5.6 0.3,7 1,8.3C2.8,11.6 6.6,13.3 11.2,13.3C14.6,13.3 18.3,12.4 21.9,10.5C28.5,7 32.5,1.1 32.5,-4C32.5,-5.4 32.2,-6.8 31.5,-8.1M27.2,-1.3C25.5,0.4 22.1,2.5 18.5,4.5C14.9,6.5 11.3,8 8.9,8.5C8.4,8.6 7.9,8.7 7.4,8.7C5.8,8.7 4.6,8.1 3.9,6.8C3.6,6.3 3.4,5.7 3.4,5.1C3.4,4 4.1,2.7 5.2,1.6C6.9,-0.1 10.2,-2.2 13.8,-4.2C17.4,-6.2 21,-7.7 23.4,-8.2C23.9,-8.3 24.4,-8.4 24.9,-8.4C26.5,-8.4 27.8,-7.8 28.5,-6.5C28.8,-6 28.9,-5.4 28.9,-4.8C28.9,-3.7 28.3,-2.5 27.2,-1.3" style="fill-rule:nonzero;"/>
	</g>
	<g transform="matrix(0.992,0,0,0.992,2037.05,209.45)">
		<path xmlns="" d="M31.5,-8.1C29.7,-11.4 25.9,-13.2 21.3,-13.2C17.9,-13.2 14.2,-12.2 10.6,-10.3C4,-6.8 0,-0.9 0,4.2C0,5.6 0.3,7 1,8.3C2.8,11.6 6.6,13.3 11.2,13.3C14.6,13.3 18.3,12.4 21.9,10.5C28.5,7 32.5,1.1 32.5,-4C32.5,-5.4 32.2,-6.8 31.5,-8.1" style="fill-rule:nonzero;"/>
	</g>
	<g transform="matrix(0.992,0,0,0.992,416.28,147.45)">
		<path xmlns="" d="M18.7,-13.6C4.9,-13.6 0,-6.6 0,-0.1C0,6.4 4.9,13.4 18.7,13.4C32.5,13.4 37.3,6.4 37.3,-0.1C37.3,-6.6 32.5,-13.6 18.7,-13.6M10.4,-4.5C10.3,-4.9 10.3,-5.3 10.3,-5.7C10.3,-6.5 10.5,-7.3 10.9,-8C11.6,-9 12.8,-9.7 14.3,-10C15.6,-10.3 16.3,-10.5 18.9,-10.5L19,-10.5C23,-10.5 24.3,-6.8 25.4,-3L25.7,-2C26.5,0.6 26.9,2.8 26.9,4.5C26.9,5.7 26.7,6.8 26.3,7.6C25.7,8.7 24.7,9.4 23,9.8C22.1,10 20.6,10.1 20.6,10.1C20.1,10.1 19.7,10.2 19.3,10.2C16.1,10.2 14.1,9 12.7,4.7C11.5,1 11.3,-0.1 10.4,-4.5" style="fill-rule:nonzero;"/>
	</g>
	<g transform="matrix(0.992,0,0,0.992,595.343,147.45)">
		<path xmlns="" d="M18.7,-13.6C4.9,-13.6 0,-6.6 0,-0.1C0,6.4 4.9,13.4 18.7,13.4C32.5,13.4 37.3,6.4 37.3,-0.1C37.3,-6.6 32.5,-13.6 18.7,-13.6M10.4,-4.5C10.3,-4.9 10.3,-5.3 10.3,-5.7C10.3,-6.5 10.5,-7.3 10.9,-8C11.6,-9 12.8,-9.7 14.3,-10C15.6,-10.3 16.3,-10.5 18.9,-10.5L19,-10.5C23,-10.5 24.3,-6.8 25.4,-3L25.7,-2C26.5,0.6 26.9,2.8 26.9,4.5C26.9,5.7 26.7,6.8 26.3,7.6C25.7,8.7 24.7,9.4 23,9.8C22.1,10 20.6,10.1 20.6,10.1C20.1,10.1 19.7,10.2 19.3,10.2C16.1,10.2 14.1,9 12.7,4.7C11.5,1 11.3,-0.1 10.4,-4.5" style="fill-rule:nonzero;"/>
	</g>
	<g transform="matrix(0.992,0,0,0.992,757.043,135.05)">
		<path xmlns="" d="M31.5,-8.1C29.7,-11.4 25.9,-13.2 21.3,-13.2C17.9,-13.2 14.2,-12.2 10.6,-10.3C4,-6.8 0,-0.9 0,4.2C0,5.6 0.3,7 1,8.3C2.8,11.6 6.6,13.3 11.2,13.3C14.6,13.3 18.3,12.4 21.9,10.5C28.5,7 32.5,1.1 32.5,-4C32.5,-5.4 32.2,-6.8 31.5,-8.1" style="fill-rule:nonzero;"/>
	</g>
	<g transform="matrix(0.992,0,0,0.992,797.983,110.25)">
		<path xmlns="" d="M31.5,-8.1C29.7,-11.4 25.9,-13.2 21.3,-13.2C17.9,-13.2 14.2,-12.2 10.6,-10.3C4,-6.8 0,-0.9 0,4.2C0,5.6 0.3,7 1,8.3C2.8,11.6 6.6,13.3 11.2,13.3C14.6,13.3 18.3,12.4 21.9,10.5C28.5,7 32.5,1.1 32.5,-4C32.5,-5.4 32.2,-6.8 31.5,-8.1M27.2,-1.3C25.5,0.4 22.1,2.5 18.5,4.5C14.9,6.5 11.3,8 8.9,8.5C8.4,8.6 7.9,8.7 7.4,8.7C5.8,8.7 4.6,8.1 3.9,6.8C3.6,6.3 3.4,5.7 3.4,5.1C3.4,4 4.1,2.7 5.2,1.6C6.9,-0.1 10.2,-2.2 13.8,-4.2C17.4,-6.2 21,-7.7 23.4,-8.2C23.9,-8.3 24.4,-8.4 24.9,-8.4C26.5,-8.4 27.8,-7.8 28.5,-6.5C28.8,-6 28.9,-5.4 28.9,-4.8C28.9,-3.7 28.3,-2.5 27.2,-1.3" style="fill-rule:nonzero;"/>
	</g>
	<g transform="matrix(0.992,0,0,0.992,879.853,122.65)">
		<path xmlns="" d="M31.5,-8.1C29.7,-11.4 25.9,-13.2 21.3,-13.2C17.9,-13.2 14.2,-12.2 10.6,-10.3C4,-6.8 0,-0.9 0,4.2C0,5.6 0.3,7 1,8.3C2.8,11.6 6.6,13.3 11.2,13.3C14.6,13.3 18.3,12.4 21.9,10.5C28.5,7 32.5,1.1 32.5,-4C32.5,-5.4 32.2,-6.8 31.5,-8.1" style="fill-rule:nonzero;"/>
	</g>
	<g transform="matrix(0.992,0,0,0.992,985.983,135.05)">
		<path xmlns="" d="M31.5,-8.1C29.7,-11.4 25.9,-13.2 21.3,-13.2C17.9,-13.2 14.2,-12.2 10.6,-10.3C4,-6.8 0,-0.9 0,4.2C0,5.6 0.3,7 1,8.3C2.8,11.6 6.6,13.3 11.2,13.3C14.6,13.3 18.3,12.4 21.9,10.5C28.5,7 32.5,1.1 32.5,-4C32.5,-5.4 32.2,-6.8 31.5,-8.1" style="fill-rule:nonzero;"/>
	</g>
	<g transform="matrix(0.992,0,0,0.992,1031.86,85.4503)">
		<path xmlns="" d="M31.5,-8.1C29.7,-11.4 25.9,-13.2 21.3,-13.2C17.9,-13.2 14.2,-12.2 10.6,-10.3C4,-6.8 0,-0.9 0,4.2C0,5.6 0.3,7 1,8.3C2.8,11.6 6.6,13.3 11.2,13.3C14.6,13.3 18.3,12.4 21.9,10.5C28.5,7 32.5,1.1 32.5,-4C32.5,-5.4 32.2,-6.8 31.5,-8.1M27.2,-1.3C25.5,0.4 22.1,2.5 18.5,4.5C14.9,6.5 11.3,8 8.9,8.5C8.4,8.6 7.9,8.7 7.4,8.7C5.8,8.7 4.6,8.1 3.9,6.8C3.6,6.3 3.4,5.7 3.4,5.1C3.4,4 4.1,2.7 5.2,1.6C6.9,-0.1 10.2,-2.2 13.8,-4.2C17.4,-6.2 21,-7.7 23.4,-8.2C23.9,-8.3 24.4,-8.4 24.9,-8.4C26.5,-8.4 27.8,-7.8 28.5,-6.5C28.8,-6 28.9,-5.4 28.9,-4.8C28.9,-3.7 28.3,-2.5 27.2,-1.3" style="fill-rule:nonzero;"/>
	</g>
	<g transform="matrix(0.992,0,0,0.992,1117.47,97.8503)">
		<path xmlns="" d="M31.5,-8.1C29.7,-11.4 25.9,-13.2 21.3,-13.2C17.9,-13.2 14.2,-12.2 10.6,-10.3C4,-6.8 0,-0.9 0,4.2C0,5.6 0.3,7 1,8.3C2.8,11.6 6.6,13.3 11.2,13.3C14.6,13.3 18.3,12.4 21.9,10.5C28.5,7 32.5,1.1 32.5,-4C32.5,-5.4 32.2,-6.8 31.5,-8.1" style="fill-rule:nonzero;"/>
	</g>
	<g transform="matrix(0.992,0,0,0.992,1232.28,97.8503)">
		<path xmlns="" d="M31.5,-8.1C29.7,-11.4 25.9,-13.2 21.3,-13.2C17.9,-13.2 14.2,-12.2 10.6,-10.3C4,-6.8 0,-0.9 0,4.2C0,5.6 0.3,7 1,8.3C2.8,11.6 6.6,13.3 11.2,13.3C14.6,13.3 18.3,12.4 21.9,10.5C28.5,7 32.5,1.1 32.5,-4C32.5,-5.4 32.2,-6.8 31.5,-8.1" style="fill-rule:nonzero;"/>
	</g>
	<g transform="matrix(0.992,0,0,0.992,1278.16,110.25)">
		<path xmlns="" d="M31.5,-8.1C29.7,-11.4 25.9,-13.2 21.3,-13.2C17.9,-13.2 14.2,-12.2 10.6,-10.3C4,-6.8 0,-0.9 0,4.2C0,5.6 0.3,7 1,8.3C2.8,11.6 6.6,13.3 11.2,13.3C14.6,13.3 18.3,12.4 21.9,10.5C28.5,7 32.5,1.1 32.5,-4C32.5,-5.4 32.2,-6.8 31.5,-8.1" style="fill-rule:nonzero;"/>
	</g>
	<g transform="matrix(0.992,0,0,0.992,1317.22,110.25)">
		<path xmlns="" d="M31.5,-8.1C29.7,-11.4 25.9,-13.2 21.3,-13.2C17.9,-13.2 14.2,-12.2 10.6,-10.3C4,-6.8 0,-0.9 0,4.2C0,5.6 0.3,7 1,8.3C2.8,11.6 6.6,13.3 11.2,13.3C14.6,13.3 18.3,12.4 21.9,10.5C28.5,7 32.5,1.1 32.5,-4C32.5,-5.4 32.2,-6.8 31.5,-8.1" style="fill-rule:nonzero;"/>
	</g>
	<g transform="matrix(0.992,0,0,0.992,1356.28,110.25)">
		<path xmlns="" d="M31.5,-8.1C29.7,-11.4 25.9,-13.2 21.3,-13.2C17.9,-13.2 14.2,-12.2 10.6,-10.3C4,-6.8 0,-0.9 0,4.2C0,5.6 0.3,7 1,8.3C2.8,11.6 6.6,13.3 11.2,13.3C14.6,13.3 18.3,12.4 21.9,10.5C28.5,7 32.5,1.1 32.5,-4C32.5,-5.4 32.2,-6.8 31.5,-8.1" style="fill-rule:nonzero;"/>
	</g>
	<g transform="matrix(0.992,0,0,0.992,1395.35,110.25)">
		<path xmlns="" d="M31.5,-8.1C29.7,-11.4 25.9,-13.2 21.3,-13.2C17.9,-13.2 14.2,-12.2 10.6,-10.3C4,-6.8 0,-0.9 0,4.2C0,5.6 0.3,7 1,8.3C2.8,11.6 6.6,13.3 11.2,13.3C14.6,13.3 18.3,12.4 21.9,10.5C28.5,7 32.5,1.1 32.5,-4C32.5,-5.4 32.2,-6.8 31.5,-8.1" style="fill-rule:nonzero;"/>
	</g>
	<g transform="matrix(0.992,0,0,0.992,1434.41,122.65)">
		<path xmlns="" d="M31.5,-8.1C29.7,-11.4 25.9,-13.2 21.3,-13.2C17.9,-13.2 14.2,-12.2 10.6,-10.3C4,-6.8 0,-0.9 0,4.2C0,5.6 0.3,7 1,8.3C2.8,11.6 6.6,13.3 11.2,13.3C14.6,13.3 18.3,12.4 21.9,10.5C28.5,7 32.5,1.1 32.5,-4C32.5,-5.4 32.2,-6.8 31.5,-8.1" style="fill-rule:nonzero;"/>
	</g>
	<g transform="matrix(0.992,0,0,0.992,1473.47,122.65)">
		<path xmlns="" d="M31.5,-8.1C29.7,-11.4 25.9,-13.2 21.3,-13.2C17.9,-13.2 14.2,-12.2 10.6,-10.3C4,-6.8 0,-0.9 0,4.2C0,5.6 0.3,7 1,8.3C2.8,11.6 6.6,13.3 11.2,13.3C14.6,13.3 18.3,12.4 21.9,10.5C28.5,7 32.5,1.1 32.5,-4C32.5,-5.4 32.2,-6.8 31.5,-8.1" style="fill-rule:nonzero;"/>
	</g>
	<g transform="matrix(0.992,0,0,0.992,1512.54,122.65)">
		<path xmlns="" d="M31.5,-8.1C29.7,-11.4 25.9,-13.2 21.3,-13.2C17.9,-13.2 14.2,-12.2 10.6,-10.3C4,-6.8 0,-0.9 0,4.2C0,5.6 0.3,7 1,8.3C2.8,11.6 6.6,13.3 11.2,13.3C14.6,13.3 18.3,12.4 21.9,10.5C28.5,7 32.5,1.1 32.5,-4C32.5,-5.4 32.2,-6.8 31.5,-8.1" style="fill-rule:nonzero;"/>
	</g>
	<g transform="matrix(0.992,0,0,0.992,1628.84,122.65)">
		<path xmlns="" d="M31.5,-8.1C29.7,-11.4 25.9,-13.2 21.3,-13.2C17.9,-13.2 14.2,-12.2 10.6,-10.3C4,-6.8 0,-0.9 0,4.2C0,5.6 0.3,7 1,8.3C2.8,11.6 6.6,13.3 11.2,13.3C14.6,13.3 18.3,12.4 21.9,10.5C28.5,7 32.5,1.1 32.5,-4C32.5,-5.4 32.2,-6.8 31.5,-8.1" style="fill-rule:nonzero;"/>
	</g>
	<g transform="matrix(0.992,0,0,0.992,1676.2,135.05)">
		<path xmlns="" d="M31.5,-8.1C29.7,-11.4 25.9,-13.2 21.3,-13.2C17.9,-13.2 14.2,-12.2 10.6,-10.3C4,-6.8 0,-0.9 0,4.2C0,5.6 0.3,7 1,8.3C2.8,11.6 6.6,13.3 11.2,13.3C14.6,13.3 18.3,12.4 21.9,10.5C28.5,7 32.5,1.1 32.5,-4C32.5,-5.4 32.2,-6.8 31.5,-8.1" style="fill-rule:nonzero;"/>
	</g>
	<g transform="matrix(0.992,0,0,0.992,1715.64,135.05)">
		<path xmlns="" d="M31.5,-8.1C29.7,-11.4 25.9,-13.2 21.3,-13.2C17.9,-13.2 14.2,-12.2 10.6,-10.3C4,-6.8 0,-0.9 0,4.2C0,5.6 0.3,7 1,8.3C2.8,11.6 6.6,13.3 11.2,13.3C14.6,13.3 18.3,12.4 21.9,10.5C28.5,7 32.5,1.1 32.5,-4C32.5,-5.4 32.2,-6.8 31.5,-8.1" style="fill-rule:nonzero;"/>
	</g>
	<g transform="matrix(0.992,0,0,0.992,1755.08,135.05)">
		<path xmlns="" d="M31.5,-8.1C29.7,-11.4 25.9,-13.2 21.3,-13.2C17.9,-13.2 14.2,-12.2 10.6,-10.3C4,-6.8 0,-0.9 0,4.2C0,5.6 0.3,7 1,8.3C2.8,11.6 6.6,13.3 11.2,13.3C14.6,13.3 18.3,12.4 21.9,10.5C28.5,7 32.5,1.1 32.5,-4C32.5,-5.4 32.2,-6.8 31.5,-8.1" style="fill-rule:nonzero;"/>
	</g>
	<g transform="matrix(0.992,0,0,0.992,1804.68,147.45)">
		<path xmlns="" d="M31.5,-8.1C29.7,-11.4 25.9,-13.2 21.3,-13.2C17.9,-13.2 14.2,-12.2 10.6,-10.3C4,-6.8 0,-0.9 0,4.2C0,5.6 0.3,7 1,8.3C2.8,11.6 6.6,13.3 11.2,13.3C14.6,13.3 18.3,12.4 21.9,10.5C28.5,7 32.5,1.1 32.5,-4C32.5,-5.4 32.2,-6.8 31.5,-8.1" style="fill-rule:nonzero;"/>
	</g>
	<g transform="matrix(0.992,0,0,0.992,1852.04,159.85)">
		<path xmlns="" d="M31.5,-8.1C29.7,-11.4 25.9,-13.2 21.3,-13.2C17.9,-13.2 14.2,-12.2 10.6,-10.3C4,-6.8 0,-0.9 0,4.2C0,5.6 0.3,7 1,8.3C2.8,11.6 6.6,13.3 11.2,13.3C14.6,13.3 18.3,12.4 21.9,10.5C28.5,7 32.5,1.1 32.5,-4C32.5,-5.4 32.2,-6.8 31.5,-8.1" style="fill-rule:nonzero;"/>
	</g>
	<g transform="matrix(0.992,0,0,0.992,1891.48,172.25)">
		<path xmlns="" d="M31.5,-8.1C29.7,-11.4 25.9,-13.2 21.3,-13.2C17.9,-13.2 14.2,-12.2 10.6,-10.3C4,-6.8 0,-0.9 0,4.2C0,5.6 0.3,7 1,8.3C2.8,11.6 6.6,13.3 11.2,13.3C14.6,13.3 18.3,12.4 21.9,10.5C28.5,7 32.5,1.1 32.5,-4C32.5,-5.4 32.2,-6.8 31.5,-8.1" style="fill-rule:nonzero;"/>
	</g>
	<g transform="matrix(0.992,0,0,0.992,1930.92,159.85)">
		<path xmlns="" d="M31.5,-8.1C29.7,-11.4 25.9,-13.2 21.3,-13.2C17.9,-13.2 14.2,-12.2 10.6,-10.3C4,-6.8 0,-0.9 0,4.2C0,5.6 0.3,7 1,8.3C2.8,11.6 6.6,13.3 11.2,13.3C14.6,13.3 18.3,12.4 21.9,10.5C28.5,7 32.5,1.1 32.5,-4C32.5,-5.4 32.2,-6.8 31.5,-8.1" style="fill-rule:nonzero;"/>
	</g>
	<g transform="matrix(0.992,0,0,0.992,2037.05,147.45)">
		<path xmlns="" d="M31.5,-8.1C29.7,-11.4 25.9,-13.2 21.3,-13.2C17.9,-13.2 14.2,-12.2 10.6,-10.3C4,-6.8 0,-0.9 0,4.2C0,5.6 0.3,7 1,8.3C2.8,11.6 6.6,13.3 11.2,13.3C14.6,13.3 18.3,12.4 21.9,10.5C28.5,7 32.5,1.1 32.5,-4C32.5,-5.4 32.2,-6.8 31.5,-8.1" style="fill-rule:nonzero;"/>
	</g>
	<g transform="matrix(0.992,0,0,0.992,17.8992,197.05)">
		<path xmlns="" d="M63.35,-5.87C62.12,-11.3 59.48,-15.12 58.7,-16.16C55.51,-20.43 51.5,-23.28 46.81,-24.63C43.7,-25.52 40.7,-25.63 38.28,-25.45C37.24,-31.46 36.24,-37.34 35.33,-42.79C40.78,-48.96 44.4,-54.76 46.68,-59.06C50.15,-65.64 51.3,-70.22 51.35,-70.42C53.07,-75.63 53.43,-83.33 52.33,-91.54C51.32,-99.09 49.23,-105.8 46.88,-109.05C45.85,-110.48 44.8,-111.21 43.76,-111.21C42.54,-111.21 40.03,-109.97 37.14,-107.2C34.84,-105 31.57,-101.11 29.01,-95.1C26.01,-88.04 25.8,-78.55 26.15,-71.83C26.53,-64.56 27.64,-58.87 27.65,-58.82C27.67,-58.73 27.93,-57.23 28.38,-54.66C28.15,-54.43 27.91,-54.21 27.66,-53.97C26.62,-52.97 25.43,-51.83 24.05,-50.45C23.19,-49.59 22.24,-48.68 21.24,-47.71C12.79,-39.57 0,-27.25 0,-8.1C0,-3.4 0.9,1.02 2.68,5.03C4.27,8.63 6.57,11.91 9.5,14.78C17.23,22.33 27.82,25.54 34.88,25.38C37.83,25.31 40.46,25.07 42.85,24.62C44.68,34.22 45.82,41.25 45.86,46.59C45.9,53.1 44.25,57.07 40.35,59.84C37.92,61.57 35.11,62.52 32.01,62.67C29.42,62.79 27.16,62.32 25.73,61.91L25.72,61.91C25.72,61.91 25.43,61.83 25.42,61.63C25.41,61.45 25.76,61.4 25.77,61.4L25.79,61.4C27.71,60.96 31.28,59.73 33.64,56.43C35.44,53.91 36.31,49.29 34.47,45.35C33.36,42.96 30.85,40.01 25.23,39.56C22.74,39.36 20.47,39.87 18.47,41.07C16.66,42.15 15.16,43.79 14.11,45.79C11.65,50.49 12.11,56.22 15.24,60.06C18.2,63.68 22.82,65.99 28.25,66.57C29.1,66.66 29.95,66.7 30.8,66.7C35.23,66.7 39.63,65.5 43.2,63.29C46.86,60.72 48.98,56.74 49.66,51.11C50.22,46.47 49.83,40.56 48.43,32.49C48.07,30.4 47.53,27.37 46.87,23.61C52.62,21.69 56.78,18.12 60.55,12.27C63.84,6.53 64.78,0.43 63.35,-5.87M29.14,20.32C24.5,19.1 20.07,16.6 16.31,13.1C15,11.87 13.13,9.7 11.66,6.31C10.29,3.15 9.63,-0.28 9.68,-3.87C9.75,-8.56 11.06,-13.38 13.57,-18.17C16.49,-23.75 21.05,-29.28 27.11,-34.61C28.56,-35.89 29.93,-37.17 31.22,-38.45C31.98,-34.19 32.81,-29.5 33.69,-24.62C29.84,-23.35 25.09,-20.2 21.98,-14.55C18.44,-7.98 18.58,-2.46 19.31,1.02C20.25,5.48 22.78,9.24 26.24,11.33C27.17,11.89 31.3,14.02 33.14,13.44C33.51,13.32 33.78,13.1 33.92,12.77C34.43,11.6 33.41,10.96 31.85,10C31.25,9.63 30.58,9.21 29.85,8.68C26.53,6.19 25.08,1.74 26.15,-2.64C26.73,-5.04 28.01,-7.2 29.85,-8.9C31.52,-10.45 33.56,-11.55 35.94,-12.19C37.98,-0.95 40.04,10.2 41.68,18.56C41.81,19.25 41.95,19.92 42.08,20.59C37.7,21.52 33.35,21.43 29.14,20.32M40.46,-12.86C50.81,-13.33 55.08,-5.89 55.97,-1.06C56.44,1.47 56.43,5.91 54.89,10.12C53.72,13.3 51.26,17.37 46.13,19.43C46.06,19.01 45.98,18.58 45.9,18.15C44.36,9.38 42.42,-1.61 40.46,-12.86M33.14,-83.8C34.92,-89.54 37.66,-92.79 39.65,-94.52C41.4,-96.04 43.05,-96.75 43.97,-96.75C44.11,-96.75 44.23,-96.73 44.33,-96.7C44.79,-96.56 45.32,-95.99 45.79,-95.12C48.1,-90.83 47.36,-84.12 46.02,-79.68C44.39,-74.28 41.47,-68.66 32.67,-59.05C32.5,-60.16 32.34,-61.21 32.19,-62.19C30.94,-70.48 31.26,-77.75 33.14,-83.8" style="fill-rule:nonzero;"/>
	</g>
	<g transform="matrix(0.992,0,0,0.992,130.972,159.85)">
		<path xmlns="" d="M23.3,-10.6C23.9,-10.7 24.4,-11.4 24.4,-12L24.4,-17.9C24.4,-18.7 23.8,-19.3 23,-19.3L22.8,-19.3L19.5,-18.6L19.5,-33.5L16.7,-33.5L16.7,-18L7.8,-16.2L7.8,-30.3L5,-30.3L5,-15.6L1.1,-14.8C0.5,-14.7 0,-14 0,-13.4L0,-7.4L0,-7.6C0,-6.8 0.6,-6.2 1.4,-6.2L1.7,-6.2L5,-6.9L5,9.6L1.1,10.4C0.5,10.5 0,11.2 0,11.8L0,17.6C0,18.4 0.6,19 1.4,19L1.7,19L5,18.3L5,33.2L7.8,33.2L7.8,17.7L16.7,15.9L16.7,30L19.5,30L19.5,15.3L23.3,14.6C23.9,14.5 24.4,13.8 24.4,13.2L24.4,7.3C24.4,6.5 23.8,5.9 23,5.9L22.8,5.9L19.5,6.6L19.5,-9.9L23.3,-10.6M7.8,9.1L7.8,-7.5L16.7,-9.3L16.7,7.2L7.8,9.1" style="fill-rule:nonzero;"/>
	</g>
	<g transform="matrix(0.992,0,0,0.992,106.172,122.65)">
		<path xmlns="" d="M23.3,-10.6C23.9,-10.7 24.4,-11.4 24.4,-12L24.4,-17.9C24.4,-18.7 23.8,-19.3 23,-19.3L22.8,-19.3L19.5,-18.6L19.5,-33.5L16.7,-33.5L16.7,-18L7.8,-16.2L7.8,-30.3L5,-30.3L5,-15.6L1.1,-14.8C0.5,-14.7 0,-14 0,-13.4L0,-7.4L0,-7.6C0,-6.8 0.6,-6.2 1.4,-6.2L1.7,-6.2L5,-6.9L5,9.6L1.1,10.4C0.5,10.5 0,11.2 0,11.8L0,17.6C0,18.4 0.6,19 1.4,19L1.7,19L5,18.3L5,33.2L7.8,33.2L7.8,17.7L16.7,15.9L16.7,30L19.5,30L19.5,15.3L23.3,14.6C23.9,14.5 24.4,13.8 24.4,13.2L24.4,7.3C24.4,6.5 23.8,5.9 23,5.9L22.8,5.9L19.5,6.6L19.5,-9.9L23.3,-10.6M7.8,9.1L7.8,-7.5L16.7,-9.3L16.7,7.2L7.8,9.1" style="fill-rule:nonzero;"/>
	</g>
	<g transform="matrix(0.992,0,0,0.992,179.975,177.886)">
		<path xmlns="" d="M43.7,8.3L42.4,8.3C42,8.3 41.6,8.7 41.6,9.1C41.2,17.4 35.3,22.4 26.5,22.4L25.6,22.4L25.6,-22.2C29.7,-22 31.6,-20.3 32.6,-18.7C32.8,-18.3 32.8,-18.1 32.5,-17.9C30,-16.3 28.2,-13.4 28.2,-10.2C28.2,-9.8 28.2,-9.4 28.3,-9C28.8,-4.9 32.2,-1.7 36.3,-1.2L37.3,-1.2C42.3,-1.2 46.3,-5.2 46.3,-10.2L46.3,-10.8C46.3,-11.2 46.2,-11.9 46.1,-12.3C45.2,-16.4 41.5,-25.3 25.6,-25.7L25.6,-37.7C25.6,-38.3 25.1,-38.8 24.5,-38.8L21.8,-38.8C21.2,-38.8 20.7,-38.3 20.7,-37.7L20.7,-25.6C2.2,-23.7 0,-7.3 0,-1.2C0,9.7 1.2,23.2 20.7,25.3L20.7,36.5C20.7,37.1 21.2,37.6 21.8,37.6L24.5,37.6C25.1,37.6 25.6,37.1 25.6,36.5L25.6,25.6L26.5,25.6C36.4,25.6 44.1,19.8 44.5,9.1C44.5,8.6 44.2,8.3 43.7,8.3M13.6,8.9L13.6,-10.2C13.6,-14.9 15,-20.1 20.7,-21.7L20.7,21.5C15.9,19.8 13.6,15.5 13.6,8.9" style="fill-rule:nonzero;"/>
	</g>
	<g transform="matrix(0.992,0,0,0.992,283.007,97.7208)">
		<path xmlns="" d="M46.4,-1.4L31.2,-1.4L1.3,-1.4L-13.9,-1.4L-13.9,1.4L0,1.4L0,10.8C0,11.6 0.5,12.2 1.3,12.2L31.2,12.2C32,12.2 32.5,11.6 32.5,10.8L32.5,1.4L46.4,1.4L46.4,-1.4" style="fill-rule:nonzero;"/>
	</g>
	<g transform="matrix(0.992,0,0,0.992,1344.23,11.5643)">
		<path xmlns="" d="M1.142,-1.134C2.665,0.389 5.135,0.389 6.658,-1.134C8.181,-2.657 8.181,-5.126 6.658,-6.649C5.135,-8.172 2.665,-8.172 1.142,-6.649C-0.381,-5.126 -0.381,-2.657 1.142,-1.134" style="fill-rule:nonzero;"/>
	</g>
	<g transform="matrix(0.992,0,0,0.992,1383.29,13.5183)">
		<path xmlns="" d="M1.142,-1.134C2.665,0.389 5.135,0.389 6.658,-1.134C8.181,-2.657 8.181,-5.126 6.658,-6.649C5.135,-8.172 2.665,-8.172 1.142,-6.649C-0.381,-5.126 -0.381,-2.657 1.142,-1.134" style="fill-rule:nonzero;"/>
	</g>
	<g transform="matrix(0.992,0,0,0.992,1500.48,30.0513)">
		<path xmlns="" d="M1.142,-1.134C2.665,0.389 5.135,0.389 6.658,-1.134C8.181,-2.657 8.181,-5.126 6.658,-6.649C5.135,-8.172 2.665,-8.172 1.142,-6.649C-0.381,-5.126 -0.381,-2.657 1.142,-1.134" style="fill-rule:nonzero;"/>
	</g>
	<g transform="matrix(0.992,0,0,0.992,1539.54,32.1183)">
		<path xmlns="" d="M1.142,-1.134C2.665,0.389 5.135,0.389 6.658,-1.134C8.181,-2.657 8.181,-5.126 6.658,-6.649C5.135,-8.172 2.665,-8.172 1.142,-6.649C-0.381,-5.126 -0.381,-2.657 1.142,-1.134" style="fill-rule:nonzero;"/>
	</g>
	<g transform="matrix(0.992,0,0,0.992,1742.65,36.3813)">
		<path xmlns="" d="M1.142,-1.134C2.665,0.389 5.135,0.389 6.658,-1.134C8.181,-2.657 8.181,-5.126 6.658,-6.649C5.135,-8.172 2.665,-8.172 1.142,-6.649C-0.381,-5.126 -0.381,-2.657 1.142,-1.134" style="fill-rule:nonzero;"/>
	</g>
	<g transform="matrix(0.992,0,0,0.992,1782.08,38.3183)">
		<path xmlns="" d="M1.142,-1.134C2.665,0.389 5.135,0.389 6.658,-1.134C8.181,-2.657 8.181,-5.126 6.658,-6.649C5.135,-8.172 2.665,-8.172 1.142,-6.649C-0.381,-5.126 -0.381,-2.657 1.142,-1.134" style="fill-rule:nonzero;"/>
	</g>
	<g transform="matrix(1,0,0,1,-415.857,-500.548)">
		<path xmlns="" d="M1677.65,528.654L1804.37,534.991L1804.37,547.406L1677.65,541.07L1677.65,528.654"/>
	</g>
	<g transform="matrix(1,0,0,1,-415.857,-500.548)">
		<path xmlns="" d="M1840.71,547.245L1960.63,553.59L1960.63,566.007L1840.71,559.663L1840.71,547.245"/>
	</g>
	<g transform="matrix(1,0,0,1,-415.857,-500.548)">
		<path xmlns="" d="M2074.2,553.457L2203.17,559.791L2203.17,572.206L2074.2,565.872L2074.2,553.457"/>
	</g>
	<g transform="matrix(1,0,0,1,-415.857,-500.548)">
		<path xmlns="" d="M2250.05,578.257L2379.01,584.591L2379.01,597.006L2250.05,590.672L2250.05,578.257"/>
	</g>
	<g transform="matrix(1,0,0,1,-2564.22,-278.868)">
		<path xmlns="" d="M2709.56,541.304C2707.85,539.309 2706.1,538.504 2703.44,538.504C2699.59,538.504 2696.09,540.324 2693.25,543.824C2690.7,546.974 2689.37,550.614 2689.37,554.499C2689.37,560.764 2693.43,564.824 2699.66,564.824C2702.74,564.824 2705.36,563.774 2707.36,561.674C2708.44,560.589 2709.21,559.294 2710.16,557.124L2708.72,556.494C2707.85,558.349 2707.36,559.189 2706.73,559.959C2705.01,562.094 2702.88,563.109 2700.25,563.109C2696.16,563.109 2693.74,560.414 2693.74,555.899C2693.74,551.874 2695.14,547.254 2697.35,543.894C2698.96,541.409 2701.27,540.009 2703.72,540.009C2706.03,540.009 2707.67,541.199 2708.62,543.544C2709.18,544.839 2709.42,546.379 2709.53,549.074L2710.96,549.074L2712.92,539.274L2711.66,539.274L2709.56,541.304M2724.93,560.239C2722.86,562.374 2721.36,563.179 2719.5,563.179C2717.4,563.179 2716.11,561.779 2716.11,559.539C2716.11,559.294 2716.14,558.804 2716.18,558.349C2720.31,557.369 2720.94,557.159 2722.55,556.459C2725.28,555.269 2726.75,553.484 2726.75,551.454C2726.75,549.319 2725.07,547.849 2722.58,547.849C2717.47,547.849 2712.85,553.029 2712.85,558.769C2712.85,562.549 2715.13,564.824 2718.91,564.824C2721.6,564.824 2723.88,563.634 2725.77,561.184L2724.93,560.239M2716.35,556.984C2717.16,552.259 2719.29,549.249 2721.88,549.249C2723.04,549.249 2723.81,550.054 2723.81,551.244C2723.81,552.924 2722.72,554.429 2720.8,555.479C2719.54,556.214 2718.66,556.494 2716.35,556.984M2738.07,538.504L2731.11,539.029L2730.97,540.289L2732.05,540.289C2733.49,540.289 2734.05,540.604 2734.05,541.374C2734.05,541.724 2733.94,542.179 2733.73,542.914L2729.29,557.929C2728.45,560.799 2728.34,561.254 2728.34,562.374C2728.34,563.879 2729.22,564.824 2730.62,564.824C2732.82,564.824 2735.06,562.969 2737.16,559.399L2736.08,558.804C2734.26,561.569 2732.75,563.039 2731.77,563.039C2731.39,563.039 2731.14,562.759 2731.14,562.304C2731.14,561.884 2731.14,561.849 2731.6,560.379L2738.07,538.504M2749.71,538.504L2742.75,539.029L2742.61,540.289L2743.69,540.289C2745.13,540.289 2745.69,540.604 2745.69,541.374C2745.69,541.724 2745.58,542.179 2745.37,542.914L2740.93,557.929C2740.09,560.799 2739.98,561.254 2739.98,562.374C2739.98,563.879 2740.86,564.824 2742.26,564.824C2744.46,564.824 2746.7,562.969 2748.8,559.399L2747.72,558.804C2745.9,561.569 2744.39,563.039 2743.41,563.039C2743.03,563.039 2742.78,562.759 2742.78,562.304C2742.78,561.884 2742.78,561.849 2743.24,560.379L2749.71,538.504M2760.62,547.849C2758.31,547.849 2756.1,548.899 2754.18,550.859C2752.22,552.854 2751.24,555.339 2751.24,558.279C2751.24,562.304 2753.65,564.824 2757.47,564.824C2760.02,564.824 2762.12,563.879 2763.84,561.954C2765.73,559.854 2766.81,557.089 2766.81,554.464C2766.81,550.824 2764.01,547.849 2760.62,547.849M2760.44,549.179C2762.37,549.179 2763.49,550.789 2763.49,553.484C2763.49,555.304 2762.79,558.104 2761.84,560.029C2760.65,562.444 2759.36,563.494 2757.5,563.494C2755.47,563.494 2754.39,562.199 2754.39,559.819C2754.39,556.879 2755.58,552.994 2757.01,551.069C2757.99,549.809 2759.11,549.179 2760.44,549.179" style="fill-rule:nonzero;"/>
	</g>
	<g transform="matrix(1,0,0,1,-1514.52,-381.922)">
		<path xmlns="" d="M2604.94,558.874L2601.9,543.614C2601.72,542.739 2601.62,542.144 2601.62,541.794C2601.62,540.884 2602,540.674 2603.72,540.674L2604.91,540.674L2605.08,539.029L2594.76,539.029L2594.51,540.674L2595.49,540.674C2597.28,540.744 2597.56,541.094 2598.22,544.104L2602.32,564.824L2603.61,564.824L2614.01,546.344C2616.74,541.724 2617.61,540.919 2620.1,540.674L2620.27,539.029L2610.75,539.029L2610.58,540.674L2611.21,540.674C2613.03,540.674 2613.8,541.094 2613.8,542.109C2613.8,542.704 2613.45,543.614 2612.75,544.839L2604.94,558.874M2625.48,547.849L2618.76,548.374L2618.62,549.634L2619.46,549.634C2620.89,549.634 2621.45,549.949 2621.45,550.719C2621.45,551.069 2621.38,551.454 2621.14,552.259L2619.11,559.084C2618.44,561.324 2618.34,561.814 2618.34,562.619C2618.34,563.844 2619.39,564.789 2620.72,564.789C2622.26,564.789 2623.69,563.984 2625.09,562.374C2625.72,561.674 2626.28,560.904 2627.26,559.399L2626.18,558.804C2624.36,561.569 2622.89,563.039 2621.94,563.039C2621.59,563.039 2621.35,562.724 2621.35,562.304C2621.35,561.954 2621.49,561.324 2621.77,560.344L2625.48,547.849M2624.85,539.309C2623.8,539.309 2622.96,540.149 2622.96,541.199C2622.96,542.214 2623.8,543.089 2624.81,543.089C2625.9,543.089 2626.74,542.249 2626.74,541.199C2626.74,540.149 2625.9,539.309 2624.85,539.309M2638.59,547.849C2636.28,547.849 2634.07,548.899 2632.15,550.859C2630.19,552.854 2629.21,555.339 2629.21,558.279C2629.21,562.304 2631.62,564.824 2635.44,564.824C2637.99,564.824 2640.09,563.879 2641.81,561.954C2643.7,559.854 2644.78,557.089 2644.78,554.464C2644.78,550.824 2641.98,547.849 2638.59,547.849M2638.41,549.179C2640.34,549.179 2641.46,550.789 2641.46,553.484C2641.46,555.304 2640.76,558.104 2639.81,560.029C2638.62,562.444 2637.33,563.494 2635.47,563.494C2633.44,563.494 2632.36,562.199 2632.36,559.819C2632.36,556.879 2633.55,552.994 2634.98,551.069C2635.96,549.809 2637.08,549.179 2638.41,549.179M2656.82,538.504L2649.86,539.029L2649.72,540.289L2650.8,540.289C2652.24,540.289 2652.8,540.604 2652.8,541.374C2652.8,541.724 2652.69,542.179 2652.48,542.914L2648.04,557.929C2647.2,560.799 2647.09,561.254 2647.09,562.374C2647.09,563.879 2647.97,564.824 2649.37,564.824C2651.57,564.824 2653.81,562.969 2655.91,559.399L2654.83,558.804C2653.01,561.569 2651.5,563.039 2650.52,563.039C2650.14,563.039 2649.89,562.759 2649.89,562.304C2649.89,561.884 2649.89,561.849 2650.35,560.379L2656.82,538.504M2672.03,548.374L2671.09,551.524C2670.84,549.354 2669.09,547.849 2666.82,547.849C2664.65,547.849 2662.69,548.934 2661.04,551.069C2659.26,553.379 2658.21,556.319 2658.21,559.119C2658.21,562.549 2660.27,564.824 2663.39,564.824C2665.59,564.824 2666.96,563.949 2668.71,561.429C2668.57,561.954 2668.53,562.199 2668.53,562.549C2668.53,563.914 2669.41,564.824 2670.67,564.824C2672.21,564.824 2673.54,563.984 2674.76,562.269C2675.5,561.254 2676.06,560.274 2676.48,559.364L2675.39,558.769C2674.06,561.464 2672.84,562.899 2671.93,562.899C2671.51,562.899 2671.19,562.514 2671.19,562.024C2671.19,561.639 2671.33,561.044 2671.58,560.134L2675.08,548.374L2672.03,548.374M2667.41,549.774C2669.06,549.774 2670.07,550.929 2670.07,552.889C2670.07,554.919 2669.37,557.684 2668.29,559.889C2667.2,562.059 2665.94,563.039 2664.19,563.039C2662.44,563.039 2661.39,561.744 2661.39,559.609C2661.39,556.529 2662.76,552.924 2664.61,550.999C2665.38,550.194 2666.36,549.774 2667.41,549.774" style="fill-rule:nonzero;"/>
	</g>
	<g transform="matrix(1,0,0,1,-2233.09,-405.877)">
		<path xmlns="" d="M2520.64,558.874L2517.6,543.614C2517.42,542.739 2517.32,542.144 2517.32,541.794C2517.32,540.884 2517.7,540.674 2519.42,540.674L2520.61,540.674L2520.78,539.029L2510.46,539.029L2510.21,540.674L2511.19,540.674C2512.98,540.744 2513.26,541.094 2513.92,544.104L2518.02,564.824L2519.31,564.824L2529.71,546.344C2532.44,541.724 2533.31,540.919 2535.8,540.674L2535.97,539.029L2526.45,539.029L2526.28,540.674L2526.91,540.674C2528.73,540.674 2529.5,541.094 2529.5,542.109C2529.5,542.704 2529.15,543.614 2528.45,544.839L2520.64,558.874M2541.18,547.849L2534.46,548.374L2534.32,549.634L2535.16,549.634C2536.59,549.634 2537.15,549.949 2537.15,550.719C2537.15,551.069 2537.08,551.454 2536.84,552.259L2534.81,559.084C2534.14,561.324 2534.04,561.814 2534.04,562.619C2534.04,563.844 2535.09,564.789 2536.42,564.789C2537.96,564.789 2539.39,563.984 2540.79,562.374C2541.42,561.674 2541.98,560.904 2542.96,559.399L2541.88,558.804C2540.06,561.569 2538.59,563.039 2537.64,563.039C2537.29,563.039 2537.05,562.724 2537.05,562.304C2537.05,561.954 2537.19,561.324 2537.47,560.344L2541.18,547.849M2540.55,539.309C2539.5,539.309 2538.66,540.149 2538.66,541.199C2538.66,542.214 2539.5,543.089 2540.51,543.089C2541.6,543.089 2542.44,542.249 2542.44,541.199C2542.44,540.149 2541.6,539.309 2540.55,539.309M2554.29,547.849C2551.98,547.849 2549.77,548.899 2547.85,550.859C2545.89,552.854 2544.91,555.339 2544.91,558.279C2544.91,562.304 2547.32,564.824 2551.14,564.824C2553.69,564.824 2555.79,563.879 2557.51,561.954C2559.4,559.854 2560.48,557.089 2560.48,554.464C2560.48,550.824 2557.68,547.849 2554.29,547.849M2554.11,549.179C2556.04,549.179 2557.16,550.789 2557.16,553.484C2557.16,555.304 2556.46,558.104 2555.51,560.029C2554.32,562.444 2553.03,563.494 2551.17,563.494C2549.14,563.494 2548.06,562.199 2548.06,559.819C2548.06,556.879 2549.25,552.994 2550.68,551.069C2551.66,549.809 2552.78,549.179 2554.11,549.179M2572.52,538.504L2565.56,539.029L2565.42,540.289L2566.5,540.289C2567.94,540.289 2568.5,540.604 2568.5,541.374C2568.5,541.724 2568.39,542.179 2568.18,542.914L2563.74,557.929C2562.9,560.799 2562.79,561.254 2562.79,562.374C2562.79,563.879 2563.67,564.824 2565.07,564.824C2567.27,564.824 2569.51,562.969 2571.61,559.399L2570.53,558.804C2568.71,561.569 2567.2,563.039 2566.22,563.039C2565.84,563.039 2565.59,562.759 2565.59,562.304C2565.59,561.884 2565.59,561.849 2566.05,560.379L2572.52,538.504M2576.58,560.484C2575.39,560.484 2574.41,561.464 2574.41,562.654C2574.41,563.844 2575.39,564.824 2576.54,564.824C2577.8,564.824 2578.75,563.879 2578.75,562.654C2578.75,561.464 2577.77,560.484 2576.58,560.484" style="fill-rule:nonzero;"/>
	</g>
	<g transform="matrix(1,0,0,1,-2233.09,-375.095)">
		<path xmlns="" d="M2520.64,558.874L2517.6,543.614C2517.42,542.739 2517.32,542.144 2517.32,541.794C2517.32,540.884 2517.7,540.674 2519.42,540.674L2520.61,540.674L2520.78,539.029L2510.46,539.029L2510.21,540.674L2511.19,540.674C2512.98,540.744 2513.26,541.094 2513.92,544.104L2518.02,564.824L2519.31,564.824L2529.71,546.344C2532.44,541.724 2533.31,540.919 2535.8,540.674L2535.97,539.029L2526.45,539.029L2526.28,540.674L2526.91,540.674C2528.73,540.674 2529.5,541.094 2529.5,542.109C2529.5,542.704 2529.15,543.614 2528.45,544.839L2520.64,558.874M2541.18,547.849L2534.46,548.374L2534.32,549.634L2535.16,549.634C2536.59,549.634 2537.15,549.949 2537.15,550.719C2537.15,551.069 2537.08,551.454 2536.84,552.259L2534.81,559.084C2534.14,561.324 2534.04,561.814 2534.04,562.619C2534.04,563.844 2535.09,564.789 2536.42,564.789C2537.96,564.789 2539.39,563.984 2540.79,562.374C2541.42,561.674 2541.98,560.904 2542.96,559.399L2541.88,558.804C2540.06,561.569 2538.59,563.039 2537.64,563.039C2537.29,563.039 2537.05,562.724 2537.05,562.304C2537.05,561.954 2537.19,561.324 2537.47,560.344L2541.18,547.849M2540.55,539.309C2539.5,539.309 2538.66,540.149 2538.66,541.199C2538.66,542.214 2539.5,543.089 2540.51,543.089C2541.6,543.089 2542.44,542.249 2542.44,541.199C2542.44,540.149 2541.6,539.309 2540.55,539.309M2554.29,547.849C2551.98,547.849 2549.77,548.899 2547.85,550.859C2545.89,552.854 2544.91,555.339 2544.91,558.279C2544.91,562.304 2547.32,564.824 2551.14,564.824C2553.69,564.824 2555.79,563.879 2557.51,561.954C2559.4,559.854 2560.48,557.089 2560.48,554.464C2560.48,550.824 2557.68,547.849 2554.29,547.849M2554.11,549.179C2556.04,549.179 2557.16,550.789 2557.16,553.484C2557.16,555.304 2556.46,558.104 2555.51,560.029C2554.32,562.444 2553.03,563.494 2551.17,563.494C2549.14,563.494 2548.06,562.199 2548.06,559.819C2548.06,556.879 2549.25,552.994 2550.68,551.069C2551.66,549.809 2552.78,549.179 2554.11,549.179M2572.52,538.504L2565.56,539.029L2565.42,540.289L2566.5,540.289C2567.94,540.289 2568.5,540.604 2568.5,541.374C2568.5,541.724 2568.39,542.179 2568.18,542.914L2563.74,557.929C2562.9,560.799 2562.79,561.254 2562.79,562.374C2562.79,563.879 2563.67,564.824 2565.07,564.824C2567.27,564.824 2569.51,562.969 2571.61,559.399L2570.53,558.804C2568.71,561.569 2567.2,563.039 2566.22,563.039C2565.84,563.039 2565.59,562.759 2565.59,562.304C2565.59,561.884 2565.59,561.849 2566.05,560.379L2572.52,538.504M2576.58,560.484C2575.39,560.484 2574.41,561.464 2574.41,562.654C2574.41,563.844 2575.39,564.824 2576.54,564.824C2577.8,564.824 2578.75,563.879 2578.75,562.654C2578.75,561.464 2577.77,560.484 2576.58,560.484" style="fill-rule:nonzero;"/>
	</g>
	<g transform="matrix(1,0,0,1,-415.857,-531.487)">
		<path xmlns="" d="M661.682,801.598L691.442,789.198L691.442,801.598L661.682,813.998L661.682,801.598"/>
	</g>
	<g transform="matrix(1,0,0,1,-415.857,-531.487)">
		<path xmlns="" d="M710.102,801.598L739.862,789.198L739.862,801.598L710.102,813.998L710.102,801.598"/>
	</g>
	<g transform="matrix(1,0,0,1,-415.857,-531.487)">
		<path xmlns="" d="M818.621,801.598L848.381,789.198L848.381,801.598L818.621,813.998L818.621,801.598"/>
	</g>
	<g transform="matrix(1,0,0,1,-415.857,-531.487)">
		<path xmlns="" d="M874.19,801.598L903.95,789.198L903.95,801.598L874.19,813.998L874.19,801.598"/>
	</g>
	<g transform="matrix(1,0,0,1,-415.857,-531.487)">
		<path xmlns="" d="M997.682,801.598L1027.44,789.198L1027.44,801.598L997.682,813.998L997.682,801.598"/>
	</g>
	<g transform="matrix(1,0,0,1,-415.857,-531.487)">
		<path xmlns="" d="M1053.25,801.598L1083.01,789.198L1083.01,801.598L1053.25,813.998L1053.25,801.598"/>
	</g>
	<g transform="matrix(1,0,0,1,-415.857,-531.487)">
		<path xmlns="" d="M1159.39,801.598L1189.15,789.198L1189.15,801.598L1159.39,813.998L1159.39,801.598"/>
	</g>
	<g transform="matrix(1,0,0,1,-415.857,-531.487)">
		<path xmlns="" d="M1241.26,801.598L1271.02,789.198L1271.02,801.598L1241.26,813.998L1241.26,801.598"/>
	</g>
	<g transform="matrix(1,0,0,1,-415.857,-531.487)">
		<path xmlns="" d="M1388.33,801.598L1418.09,789.198L1418.09,801.598L1388.33,813.998L1388.33,801.598"/>
	</g>
	<g transform="matrix(1,0,0,1,-415.857,-531.487)">
		<path xmlns="" d="M1477,801.598L1506.76,789.198L1506.76,801.598L1477,813.998L1477,801.598"/>
	</g>
</svg>
