<?xml version="1.0" encoding="UTF-8"?>
<svg clip-rule="evenodd" fill-rule="evenodd" stroke-linejoin="bevel" xmlns:cc="http://creativecommons.org/ns#" xmlns:dc="http://purl.org/dc/elements/1.1/" xmlns:rdf="http://www.w3.org/1999/02/22-rdf-syntax-ns#" space="preserve" version="1.1" viewBox="0 0 1623 529" xmlns="http://www.w3.org/2000/svg">
 <metadata>
  <rdf:RDF>
   <cc:Work rdf:about="">
    <dc:format>image/svg+xml</dc:format>
    <dc:type rdf:resource="http://purl.org/dc/dcmitype/StillImage"/>
    <dc:title/>
   </cc:Work>
  </rdf:RDF>
 </metadata>
 <g>
  <g transform="matrix(.67672 0 0 1 -248.2 -516.44)">
   <path d="m366.78 634.25h2397" fill="none" stroke="#000" stroke-width="2.73px"/>
  </g>
  <g transform="matrix(.67672 0 0 1 -248.2 -516.44)">
   <path d="m366.78 659.06h2397" fill="none" stroke="#000" stroke-width="2.73px"/>
  </g>
  <g transform="matrix(.67672 0 0 1 -248.2 -516.44)">
   <path d="m366.78 683.86h2397" fill="none" stroke="#000" stroke-width="2.73px"/>
  </g>
  <g transform="matrix(.67672 0 0 1 -248.2 -516.44)">
   <path d="m366.78 708.66h2397" fill="none" stroke="#000" stroke-width="2.73px"/>
  </g>
  <g transform="matrix(.67672 0 0 1 -248.2 -516.44)">
   <path d="m366.78 733.46h2397" fill="none" stroke="#000" stroke-width="2.73px"/>
  </g>
  <g transform="matrix(.67672 0 0 1 -248.2 -686.19)">
   <path d="m366.78 1073.9h2397" fill="none" stroke="#000" stroke-width="2.73px"/>
  </g>
  <g transform="matrix(.67672 0 0 1 -248.2 -686.19)">
   <path d="m366.78 1098.7h2397" fill="none" stroke="#000" stroke-width="2.73px"/>
  </g>
  <g transform="matrix(.67672 0 0 1 -248.2 -686.19)">
   <path d="m366.78 1123.5h2397" fill="none" stroke="#000" stroke-width="2.73px"/>
  </g>
  <g transform="matrix(.67672 0 0 1 -248.2 -686.19)">
   <path d="m366.78 1148.3h2397" fill="none" stroke="#000" stroke-width="2.73px"/>
  </g>
  <g transform="matrix(.67672 0 0 1 -248.2 -686.19)">
   <path d="m366.78 1173.1h2397" fill="none" stroke="#000" stroke-width="2.73px"/>
  </g>
  <g transform="translate(-422.6 -686.19)">
   <path d="m665.64 1142.1c39.163 26.29 156.65 26.29 195.82 0-39.163 33.24-156.65 33.24-195.82 0" stroke="#000" stroke-linecap="round" stroke-linejoin="round" stroke-width="1.74px"/>
  </g>
  <g transform="translate(-422.6 -686.19)">
   <path d="m872.56 1142.1c76.391 28.77 305.57 28.77 381.96 0-76.39 35.72-305.57 35.72-381.96 0" stroke="#000" stroke-linecap="round" stroke-linejoin="round" stroke-width="1.74px"/>
  </g>
  <g transform="translate(-422.6 -686.19)">
   <path d="m1265.6 1142.1c93.83 28.77 375.33 28.77 469.16 0-93.83 35.72-375.33 35.72-469.16 0" stroke="#000" stroke-linecap="round" stroke-linejoin="round" stroke-width="1.74px"/>
  </g>
  <g transform="translate(-422.6 -516.44)">
   <path d="m665.64 764.47c39.163 26.291 156.65 26.291 195.82 0-39.163 33.236-156.65 33.236-195.82 0" stroke="#000" stroke-linecap="round" stroke-linejoin="round" stroke-width="1.74px"/>
  </g>
  <g transform="translate(-422.6 -516.44)">
   <path d="m872.56 764.47c76.391 28.771 305.57 28.771 381.96 0-76.39 35.716-305.57 35.716-381.96 0" stroke="#000" stroke-linecap="round" stroke-linejoin="round" stroke-width="1.74px"/>
  </g>
  <g transform="translate(-422.6 -516.44)">
   <path d="m1265.6 764.47c93.83 28.771 375.33 28.771 469.16 0-93.83 35.716-375.33 35.716-469.16 0" stroke="#000" stroke-linecap="round" stroke-linejoin="round" stroke-width="1.74px"/>
  </g>
  <g transform="translate(-366.78 -686.19)">
   <path d="m369.01 1072.6v101.94" fill="none" stroke="#000" stroke-width="4.46px"/>
  </g>
  <g transform="translate(-422.6 -686.19)">
   <path d="m792.86 1072.6v101.94" fill="none" stroke="#000" stroke-width="4.46px"/>
  </g>
  <g transform="translate(-422.6 -686.19)">
   <path d="m1204.7 1072.6v101.94" fill="none" stroke="#000" stroke-width="4.46px"/>
  </g>
  <g transform="translate(-422.6 -686.19)">
   <path d="m1675.9 1072.6v101.94" fill="none" stroke="#000" stroke-width="4.46px"/>
  </g>
  <g transform="translate(-422.6 -686.19)">
   <path d="m2044.7 1072.6v101.94" fill="none" stroke="#000" stroke-width="4.46px"/>
  </g>
  <g transform="translate(-366.78 -516.44)">
   <path d="m369.01 632.89v371.7" fill="none" stroke="#000" stroke-width="4.46px"/>
  </g>
  <g transform="translate(-422.6 -516.44)">
   <path d="m792.86 632.89v101.94" fill="none" stroke="#000" stroke-width="4.46px"/>
  </g>
  <g transform="translate(-422.6 -516.44)">
   <path d="m1204.7 632.89v101.94" fill="none" stroke="#000" stroke-width="4.46px"/>
  </g>
  <g transform="translate(-422.6 -516.44)">
   <path d="m1675.9 632.89v101.94" fill="none" stroke="#000" stroke-width="4.46px"/>
  </g>
  <g transform="translate(-422.6 -516.44)">
   <path d="m2044.7 632.89v101.94" fill="none" stroke="#000" stroke-width="4.46px"/>
  </g>
  <g transform="matrix(.99213 0 0 .99213 394.06 362.93)">
   <path d="m16.6-18.3c-0.2-0.2-0.5-0.3-0.8-0.3-0.1 0-0.3 0.1-0.4 0.1l-12.6 3.5v-17.5h-2.8v49.5c0 0.8 0.6 1.3 1.4 1.3h0.4l12.6-3.5v17.5h2.7v-49.5c0-0.4-0.2-0.9-0.5-1.1m-2.2 24.8-11.6 3.2v-16.4l11.6-3.3v16.5" fill-rule="nonzero"/>
  </g>
  <g transform="matrix(.99213 0 0 .99213 939.14 449.74)">
   <path d="m23.3-10.6c0.6-0.1 1.1-0.8 1.1-1.4v-5.9c0-0.8-0.6-1.4-1.4-1.4h-0.2l-3.3 0.7v-14.9h-2.8v15.5l-8.9 1.8v-14.1h-2.8v14.7l-3.9 0.8c-0.6 0.1-1.1 0.8-1.1 1.4v6-0.2c0 0.8 0.6 1.4 1.4 1.4h0.3l3.3-0.7v16.5l-3.9 0.8c-0.6 0.1-1.1 0.8-1.1 1.4v5.8c0 0.8 0.6 1.4 1.4 1.4h0.3l3.3-0.7v14.9h2.8v-15.5l8.9-1.8v14.1h2.8v-14.7l3.8-0.7c0.6-0.1 1.1-0.8 1.1-1.4v-5.9c0-0.8-0.6-1.4-1.4-1.4h-0.2l-3.3 0.7v-16.5l3.8-0.7m-15.5 19.7v-16.6l8.9-1.8v16.5l-8.9 1.9" fill-rule="nonzero"/>
  </g>
  <g transform="matrix(.99213 0 0 .99213 394.06 68.209)">
   <path d="m16.6-18.3c-0.2-0.2-0.5-0.3-0.8-0.3-0.1 0-0.3 0.1-0.4 0.1l-12.6 3.5v-17.5h-2.8v49.5c0 0.8 0.6 1.3 1.4 1.3h0.4l12.6-3.5v17.5h2.7v-49.5c0-0.4-0.2-0.9-0.5-1.1m-2.2 24.8-11.6 3.2v-16.4l11.6-3.3v16.5" fill-rule="nonzero"/>
  </g>
  <g transform="matrix(.99213 0 0 .99213 939.14 155.02)">
   <path d="m23.3-10.6c0.6-0.1 1.1-0.8 1.1-1.4v-5.9c0-0.8-0.6-1.4-1.4-1.4h-0.2l-3.3 0.7v-14.9h-2.8v15.5l-8.9 1.8v-14.1h-2.8v14.7l-3.9 0.8c-0.6 0.1-1.1 0.8-1.1 1.4v6-0.2c0 0.8 0.6 1.4 1.4 1.4h0.3l3.3-0.7v16.5l-3.9 0.8c-0.6 0.1-1.1 0.8-1.1 1.4v5.8c0 0.8 0.6 1.4 1.4 1.4h0.3l3.3-0.7v14.9h2.8v-15.5l8.9-1.8v14.1h2.8v-14.7l3.8-0.7c0.6-0.1 1.1-0.8 1.1-1.4v-5.9c0-0.8-0.6-1.4-1.4-1.4h-0.2l-3.3 0.7v-16.5l3.8-0.7m-15.5 19.7v-16.6l8.9-1.8v16.5l-8.9 1.9" fill-rule="nonzero"/>
  </g>
  <g transform="translate(-422.6 -686.19)">
   <path d="m842.21 1049.1h49.599" fill="none" stroke="#000" stroke-width="3.97px"/>
  </g>
  <g transform="translate(-422.6 -516.44)">
   <path d="m842.21 609.45h49.599" fill="none" stroke="#000" stroke-width="3.97px"/>
  </g>
  <g transform="translate(-422.6 -516.44)">
   <path d="m842.21 584.65h49.599" fill="none" stroke="#000" stroke-width="3.97px"/>
  </g>
  <g transform="translate(-422.6 -516.44)">
   <path d="m998.47 609.45h49.601" fill="none" stroke="#000" stroke-width="3.97px"/>
  </g>
  <g transform="translate(-422.6 -516.44)">
   <path d="m1096.1 609.45h49.6" fill="none" stroke="#000" stroke-width="3.97px"/>
  </g>
  <g transform="translate(-422.6 -516.44)">
   <path d="m1803.9 609.45h49.6" fill="none" stroke="#000" stroke-width="3.97px"/>
  </g>
  <g transform="translate(-422.6 -516.44)">
   <path d="m1803.9 584.65h49.6" fill="none" stroke="#000" stroke-width="3.97px"/>
  </g>
  <g transform="translate(-422.6 -516.44)">
   <path d="m1945.4 609.45h49.6" fill="none" stroke="#000" stroke-width="3.97px"/>
  </g>
  <g transform="translate(-422.6 -516.44)">
   <path d="m1945.4 584.65h49.6" fill="none" stroke="#000" stroke-width="3.97px"/>
  </g>
  <g transform="translate(-422.6 -686.19)">
   <path d="m881.76 1045.9v-55.73" fill="none" stroke="#000" stroke-width="2.73px"/>
  </g>
  <g transform="translate(-422.6 -686.19)">
   <path d="m1038 1058.3v-58.829" fill="none" stroke="#000" stroke-width="2.73px"/>
  </g>
  <g transform="translate(-422.6 -686.19)">
   <path d="m1135.7 1070.8v-61.94" fill="none" stroke="#000" stroke-width="2.73px"/>
  </g>
  <g transform="translate(-422.6 -686.19)">
   <path d="m1274.8 1083.2v-65.04" fill="none" stroke="#000" stroke-width="2.73px"/>
  </g>
  <g transform="translate(-422.6 -686.19)">
   <path d="m1348.9 1108v-65.03" fill="none" stroke="#000" stroke-width="2.73px"/>
  </g>
  <g transform="translate(-422.6 -686.19)">
   <path d="m1423 1132.8v-77.43" fill="none" stroke="#000" stroke-width="2.73px"/>
  </g>
  <g transform="translate(-422.6 -686.19)">
   <path d="m1586 1120.4v-74.33" fill="none" stroke="#000" stroke-width="2.73px"/>
  </g>
  <g transform="translate(-422.6 -516.44)">
   <path d="m881.76 581.47v-52.632" fill="none" stroke="#000" stroke-width="2.73px"/>
  </g>
  <g transform="translate(-422.6 -516.44)">
   <path d="m1038 593.87v-52.632" fill="none" stroke="#000" stroke-width="2.73px"/>
  </g>
  <g transform="translate(-422.6 -516.44)">
   <path d="m1135.7 606.27v-55.733" fill="none" stroke="#000" stroke-width="2.73px"/>
  </g>
  <g transform="translate(-422.6 -516.44)">
   <path d="m1274.8 618.68v-65.034" fill="none" stroke="#000" stroke-width="2.73px"/>
  </g>
  <g transform="translate(-422.6 -516.44)">
   <path d="m1348.9 643.48v-65.034" fill="none" stroke="#000" stroke-width="2.73px"/>
  </g>
  <g transform="translate(-422.6 -516.44)">
   <path d="m1423 668.28v-71.235" fill="none" stroke="#000" stroke-width="2.73px"/>
  </g>
  <g transform="translate(-422.6 -516.44)">
   <path d="m1586 655.88v-68.134" fill="none" stroke="#000" stroke-width="2.73px"/>
  </g>
  <g transform="translate(-422.6 -516.44)">
   <path d="m1843.5 643.48v-114.64" fill="none" stroke="#000" stroke-width="2.73px"/>
  </g>
  <g transform="translate(-422.6 -516.44)">
   <path d="m1984.9 631.08v-114.64" fill="none" stroke="#000" stroke-width="2.73px"/>
  </g>
  <g transform="matrix(.99213 0 0 .99213 218.99 437.34)">
   <path d="m18.7-13.6c-13.8 0-18.7 7-18.7 13.5s4.9 13.5 18.7 13.5 18.6-7 18.6-13.5-4.8-13.5-18.6-13.5m-8.3 9.1c-0.1-0.4-0.1-0.8-0.1-1.2 0-0.8 0.2-1.6 0.6-2.3 0.7-1 1.9-1.7 3.4-2 1.3-0.3 2-0.5 4.6-0.5h0.1c4 0 5.3 3.7 6.4 7.5l0.3 1c0.8 2.6 1.2 4.8 1.2 6.5 0 1.2-0.2 2.3-0.6 3.1-0.6 1.1-1.6 1.8-3.3 2.2-0.9 0.2-2.4 0.3-2.4 0.3-0.5 0-0.9 0.1-1.3 0.1-3.2 0-5.2-1.2-6.6-5.5-1.2-3.7-1.4-4.8-2.3-9.2" fill-rule="nonzero"/>
  </g>
  <g transform="matrix(.99213 0 0 .99213 425.9 437.34)">
   <path d="m18.7-13.6c-13.8 0-18.7 7-18.7 13.5s4.9 13.5 18.7 13.5 18.6-7 18.6-13.5-4.8-13.5-18.6-13.5m-8.3 9.1c-0.1-0.4-0.1-0.8-0.1-1.2 0-0.8 0.2-1.6 0.6-2.3 0.7-1 1.9-1.7 3.4-2 1.3-0.3 2-0.5 4.6-0.5h0.1c4 0 5.3 3.7 6.4 7.5l0.3 1c0.8 2.6 1.2 4.8 1.2 6.5 0 1.2-0.2 2.3-0.6 3.1-0.6 1.1-1.6 1.8-3.3 2.2-0.9 0.2-2.4 0.3-2.4 0.3-0.5 0-0.9 0.1-1.3 0.1-3.2 0-5.2-1.2-6.6-5.5-1.2-3.7-1.4-4.8-2.3-9.2" fill-rule="nonzero"/>
  </g>
  <g transform="matrix(.99213 0 0 .99213 818.96 437.34)">
   <path d="m18.7-13.6c-13.8 0-18.7 7-18.7 13.5s4.9 13.5 18.7 13.5 18.6-7 18.6-13.5-4.8-13.5-18.6-13.5m-8.3 9.1c-0.1-0.4-0.1-0.8-0.1-1.2 0-0.8 0.2-1.6 0.6-2.3 0.7-1 1.9-1.7 3.4-2 1.3-0.3 2-0.5 4.6-0.5h0.1c4 0 5.3 3.7 6.4 7.5l0.3 1c0.8 2.6 1.2 4.8 1.2 6.5 0 1.2-0.2 2.3-0.6 3.1-0.6 1.1-1.6 1.8-3.3 2.2-0.9 0.2-2.4 0.3-2.4 0.3-0.5 0-0.9 0.1-1.3 0.1-3.2 0-5.2-1.2-6.6-5.5-1.2-3.7-1.4-4.8-2.3-9.2" fill-rule="nonzero"/>
  </g>
  <g transform="matrix(.99213 0 0 .99213 1299.2 437.34)">
   <path d="m18.7-13.6c-13.8 0-18.7 7-18.7 13.5s4.9 13.5 18.7 13.5 18.6-7 18.6-13.5-4.8-13.5-18.6-13.5m-8.3 9.1c-0.1-0.4-0.1-0.8-0.1-1.2 0-0.8 0.2-1.6 0.6-2.3 0.7-1 1.9-1.7 3.4-2 1.3-0.3 2-0.5 4.6-0.5h0.1c4 0 5.3 3.7 6.4 7.5l0.3 1c0.8 2.6 1.2 4.8 1.2 6.5 0 1.2-0.2 2.3-0.6 3.1-0.6 1.1-1.6 1.8-3.3 2.2-0.9 0.2-2.4 0.3-2.4 0.3-0.5 0-0.9 0.1-1.3 0.1-3.2 0-5.2-1.2-6.6-5.5-1.2-3.7-1.4-4.8-2.3-9.2" fill-rule="nonzero"/>
  </g>
  <g transform="matrix(.99213 0 0 .99213 428.29 362.93)">
   <path d="m31.5-8.1c-1.8-3.3-5.6-5.1-10.2-5.1-3.4 0-7.1 1-10.7 2.9-6.6 3.5-10.6 9.4-10.6 14.5 0 1.4 0.3 2.8 1 4.1 1.8 3.3 5.6 5 10.2 5 3.4 0 7.1-0.9 10.7-2.8 6.6-3.5 10.6-9.4 10.6-14.5 0-1.4-0.3-2.8-1-4.1m-4.3 6.8c-1.7 1.7-5.1 3.8-8.7 5.8s-7.2 3.5-9.6 4c-0.5 0.1-1 0.2-1.5 0.2-1.6 0-2.8-0.6-3.5-1.9-0.3-0.5-0.5-1.1-0.5-1.7 0-1.1 0.7-2.4 1.8-3.5 1.7-1.7 5-3.8 8.6-5.8s7.2-3.5 9.6-4c0.5-0.1 1-0.2 1.5-0.2 1.6 0 2.9 0.6 3.6 1.9 0.3 0.5 0.4 1.1 0.4 1.7 0 1.1-0.6 2.3-1.7 3.5" fill-rule="nonzero"/>
  </g>
  <g transform="matrix(.99213 0 0 .99213 584.54 375.33)">
   <path d="m31.5-8.1c-1.8-3.3-5.6-5.1-10.2-5.1-3.4 0-7.1 1-10.7 2.9-6.6 3.5-10.6 9.4-10.6 14.5 0 1.4 0.3 2.8 1 4.1 1.8 3.3 5.6 5 10.2 5 3.4 0 7.1-0.9 10.7-2.8 6.6-3.5 10.6-9.4 10.6-14.5 0-1.4-0.3-2.8-1-4.1" fill-rule="nonzero"/>
  </g>
  <g transform="matrix(.99213 0 0 .99213 682.2 387.73)">
   <path d="m31.5-8.1c-1.8-3.3-5.6-5.1-10.2-5.1-3.4 0-7.1 1-10.7 2.9-6.6 3.5-10.6 9.4-10.6 14.5 0 1.4 0.3 2.8 1 4.1 1.8 3.3 5.6 5 10.2 5 3.4 0 7.1-0.9 10.7-2.8 6.6-3.5 10.6-9.4 10.6-14.5 0-1.4-0.3-2.8-1-4.1" fill-rule="nonzero"/>
  </g>
  <g transform="matrix(.99213 0 0 .99213 821.34 400.13)">
   <path d="m31.5-8.1c-1.8-3.3-5.6-5.1-10.2-5.1-3.4 0-7.1 1-10.7 2.9-6.6 3.5-10.6 9.4-10.6 14.5 0 1.4 0.3 2.8 1 4.1 1.8 3.3 5.6 5 10.2 5 3.4 0 7.1-0.9 10.7-2.8 6.6-3.5 10.6-9.4 10.6-14.5 0-1.4-0.3-2.8-1-4.1" fill-rule="nonzero"/>
  </g>
  <g transform="matrix(.99213 0 0 .99213 895.44 424.94)">
   <path d="m31.5-8.1c-1.8-3.3-5.6-5.1-10.2-5.1-3.4 0-7.1 1-10.7 2.9-6.6 3.5-10.6 9.4-10.6 14.5 0 1.4 0.3 2.8 1 4.1 1.8 3.3 5.6 5 10.2 5 3.4 0 7.1-0.9 10.7-2.8 6.6-3.5 10.6-9.4 10.6-14.5 0-1.4-0.3-2.8-1-4.1" fill-rule="nonzero"/>
  </g>
  <g transform="matrix(.99213 0 0 .99213 969.54 449.74)">
   <path d="m31.5-8.1c-1.8-3.3-5.6-5.1-10.2-5.1-3.4 0-7.1 1-10.7 2.9-6.6 3.5-10.6 9.4-10.6 14.5 0 1.4 0.3 2.8 1 4.1 1.8 3.3 5.6 5 10.2 5 3.4 0 7.1-0.9 10.7-2.8 6.6-3.5 10.6-9.4 10.6-14.5 0-1.4-0.3-2.8-1-4.1m-4.3 6.8c-1.7 1.7-5.1 3.8-8.7 5.8s-7.2 3.5-9.6 4c-0.5 0.1-1 0.2-1.5 0.2-1.6 0-2.8-0.6-3.5-1.9-0.3-0.5-0.5-1.1-0.5-1.7 0-1.1 0.7-2.4 1.8-3.5 1.7-1.7 5-3.8 8.6-5.8s7.2-3.5 9.6-4c0.5-0.1 1-0.2 1.5-0.2 1.6 0 2.9 0.6 3.6 1.9 0.3 0.5 0.4 1.1 0.4 1.7 0 1.1-0.6 2.3-1.7 3.5" fill-rule="nonzero"/>
  </g>
  <g transform="matrix(.99213 0 0 .99213 1132.6 437.34)">
   <path d="m31.5-8.1c-1.8-3.3-5.6-5.1-10.2-5.1-3.4 0-7.1 1-10.7 2.9-6.6 3.5-10.6 9.4-10.6 14.5 0 1.4 0.3 2.8 1 4.1 1.8 3.3 5.6 5 10.2 5 3.4 0 7.1-0.9 10.7-2.8 6.6-3.5 10.6-9.4 10.6-14.5 0-1.4-0.3-2.8-1-4.1" fill-rule="nonzero"/>
  </g>
  <g transform="matrix(.99213 0 0 .99213 218.99 229.43)">
   <path d="m18.7-13.6c-13.8 0-18.7 7-18.7 13.5s4.9 13.5 18.7 13.5 18.6-7 18.6-13.5-4.8-13.5-18.6-13.5m-8.3 9.1c-0.1-0.4-0.1-0.8-0.1-1.2 0-0.8 0.2-1.6 0.6-2.3 0.7-1 1.9-1.7 3.4-2 1.3-0.3 2-0.5 4.6-0.5h0.1c4 0 5.3 3.7 6.4 7.5l0.3 1c0.8 2.6 1.2 4.8 1.2 6.5 0 1.2-0.2 2.3-0.6 3.1-0.6 1.1-1.6 1.8-3.3 2.2-0.9 0.2-2.4 0.3-2.4 0.3-0.5 0-0.9 0.1-1.3 0.1-3.2 0-5.2-1.2-6.6-5.5-1.2-3.7-1.4-4.8-2.3-9.2" fill-rule="nonzero"/>
  </g>
  <g transform="matrix(.99213 0 0 .99213 425.9 229.43)">
   <path d="m18.7-13.6c-13.8 0-18.7 7-18.7 13.5s4.9 13.5 18.7 13.5 18.6-7 18.6-13.5-4.8-13.5-18.6-13.5m-8.3 9.1c-0.1-0.4-0.1-0.8-0.1-1.2 0-0.8 0.2-1.6 0.6-2.3 0.7-1 1.9-1.7 3.4-2 1.3-0.3 2-0.5 4.6-0.5h0.1c4 0 5.3 3.7 6.4 7.5l0.3 1c0.8 2.6 1.2 4.8 1.2 6.5 0 1.2-0.2 2.3-0.6 3.1-0.6 1.1-1.6 1.8-3.3 2.2-0.9 0.2-2.4 0.3-2.4 0.3-0.5 0-0.9 0.1-1.3 0.1-3.2 0-5.2-1.2-6.6-5.5-1.2-3.7-1.4-4.8-2.3-9.2" fill-rule="nonzero"/>
  </g>
  <g transform="matrix(.99213 0 0 .99213 818.96 229.43)">
   <path d="m18.7-13.6c-13.8 0-18.7 7-18.7 13.5s4.9 13.5 18.7 13.5 18.6-7 18.6-13.5-4.8-13.5-18.6-13.5m-8.3 9.1c-0.1-0.4-0.1-0.8-0.1-1.2 0-0.8 0.2-1.6 0.6-2.3 0.7-1 1.9-1.7 3.4-2 1.3-0.3 2-0.5 4.6-0.5h0.1c4 0 5.3 3.7 6.4 7.5l0.3 1c0.8 2.6 1.2 4.8 1.2 6.5 0 1.2-0.2 2.3-0.6 3.1-0.6 1.1-1.6 1.8-3.3 2.2-0.9 0.2-2.4 0.3-2.4 0.3-0.5 0-0.9 0.1-1.3 0.1-3.2 0-5.2-1.2-6.6-5.5-1.2-3.7-1.4-4.8-2.3-9.2" fill-rule="nonzero"/>
  </g>
  <g transform="matrix(.99213 0 0 .99213 1299.2 229.43)">
   <path d="m18.7-13.6c-13.8 0-18.7 7-18.7 13.5s4.9 13.5 18.7 13.5 18.6-7 18.6-13.5-4.8-13.5-18.6-13.5m-8.3 9.1c-0.1-0.4-0.1-0.8-0.1-1.2 0-0.8 0.2-1.6 0.6-2.3 0.7-1 1.9-1.7 3.4-2 1.3-0.3 2-0.5 4.6-0.5h0.1c4 0 5.3 3.7 6.4 7.5l0.3 1c0.8 2.6 1.2 4.8 1.2 6.5 0 1.2-0.2 2.3-0.6 3.1-0.6 1.1-1.6 1.8-3.3 2.2-0.9 0.2-2.4 0.3-2.4 0.3-0.5 0-0.9 0.1-1.3 0.1-3.2 0-5.2-1.2-6.6-5.5-1.2-3.7-1.4-4.8-2.3-9.2" fill-rule="nonzero"/>
  </g>
  <g transform="matrix(.99213 0 0 .99213 428.29 68.209)">
   <path d="m31.5-8.1c-1.8-3.3-5.6-5.1-10.2-5.1-3.4 0-7.1 1-10.7 2.9-6.6 3.5-10.6 9.4-10.6 14.5 0 1.4 0.3 2.8 1 4.1 1.8 3.3 5.6 5 10.2 5 3.4 0 7.1-0.9 10.7-2.8 6.6-3.5 10.6-9.4 10.6-14.5 0-1.4-0.3-2.8-1-4.1m-4.3 6.8c-1.7 1.7-5.1 3.8-8.7 5.8s-7.2 3.5-9.6 4c-0.5 0.1-1 0.2-1.5 0.2-1.6 0-2.8-0.6-3.5-1.9-0.3-0.5-0.5-1.1-0.5-1.7 0-1.1 0.7-2.4 1.8-3.5 1.7-1.7 5-3.8 8.6-5.8s7.2-3.5 9.6-4c0.5-0.1 1-0.2 1.5-0.2 1.6 0 2.9 0.6 3.6 1.9 0.3 0.5 0.4 1.1 0.4 1.7 0 1.1-0.6 2.3-1.7 3.5" fill-rule="nonzero"/>
  </g>
  <g transform="matrix(.99213 0 0 .99213 584.54 80.61)">
   <path d="m31.5-8.1c-1.8-3.3-5.6-5.1-10.2-5.1-3.4 0-7.1 1-10.7 2.9-6.6 3.5-10.6 9.4-10.6 14.5 0 1.4 0.3 2.8 1 4.1 1.8 3.3 5.6 5 10.2 5 3.4 0 7.1-0.9 10.7-2.8 6.6-3.5 10.6-9.4 10.6-14.5 0-1.4-0.3-2.8-1-4.1" fill-rule="nonzero"/>
  </g>
  <g transform="matrix(.99213 0 0 .99213 682.2 93.012)">
   <path d="m31.5-8.1c-1.8-3.3-5.6-5.1-10.2-5.1-3.4 0-7.1 1-10.7 2.9-6.6 3.5-10.6 9.4-10.6 14.5 0 1.4 0.3 2.8 1 4.1 1.8 3.3 5.6 5 10.2 5 3.4 0 7.1-0.9 10.7-2.8 6.6-3.5 10.6-9.4 10.6-14.5 0-1.4-0.3-2.8-1-4.1" fill-rule="nonzero"/>
  </g>
  <g transform="matrix(.99213 0 0 .99213 821.34 105.41)">
   <path d="m31.5-8.1c-1.8-3.3-5.6-5.1-10.2-5.1-3.4 0-7.1 1-10.7 2.9-6.6 3.5-10.6 9.4-10.6 14.5 0 1.4 0.3 2.8 1 4.1 1.8 3.3 5.6 5 10.2 5 3.4 0 7.1-0.9 10.7-2.8 6.6-3.5 10.6-9.4 10.6-14.5 0-1.4-0.3-2.8-1-4.1" fill-rule="nonzero"/>
  </g>
  <g transform="matrix(.99213 0 0 .99213 895.44 130.22)">
   <path d="m31.5-8.1c-1.8-3.3-5.6-5.1-10.2-5.1-3.4 0-7.1 1-10.7 2.9-6.6 3.5-10.6 9.4-10.6 14.5 0 1.4 0.3 2.8 1 4.1 1.8 3.3 5.6 5 10.2 5 3.4 0 7.1-0.9 10.7-2.8 6.6-3.5 10.6-9.4 10.6-14.5 0-1.4-0.3-2.8-1-4.1" fill-rule="nonzero"/>
  </g>
  <g transform="matrix(.99213 0 0 .99213 969.54 155.02)">
   <path d="m31.5-8.1c-1.8-3.3-5.6-5.1-10.2-5.1-3.4 0-7.1 1-10.7 2.9-6.6 3.5-10.6 9.4-10.6 14.5 0 1.4 0.3 2.8 1 4.1 1.8 3.3 5.6 5 10.2 5 3.4 0 7.1-0.9 10.7-2.8 6.6-3.5 10.6-9.4 10.6-14.5 0-1.4-0.3-2.8-1-4.1m-4.3 6.8c-1.7 1.7-5.1 3.8-8.7 5.8s-7.2 3.5-9.6 4c-0.5 0.1-1 0.2-1.5 0.2-1.6 0-2.8-0.6-3.5-1.9-0.3-0.5-0.5-1.1-0.5-1.7 0-1.1 0.7-2.4 1.8-3.5 1.7-1.7 5-3.8 8.6-5.8s7.2-3.5 9.6-4c0.5-0.1 1-0.2 1.5-0.2 1.6 0 2.9 0.6 3.6 1.9 0.3 0.5 0.4 1.1 0.4 1.7 0 1.1-0.6 2.3-1.7 3.5" fill-rule="nonzero"/>
  </g>
  <g transform="matrix(.99213 0 0 .99213 1132.6 142.62)">
   <path d="m31.5-8.1c-1.8-3.3-5.6-5.1-10.2-5.1-3.4 0-7.1 1-10.7 2.9-6.6 3.5-10.6 9.4-10.6 14.5 0 1.4 0.3 2.8 1 4.1 1.8 3.3 5.6 5 10.2 5 3.4 0 7.1-0.9 10.7-2.8 6.6-3.5 10.6-9.4 10.6-14.5 0-1.4-0.3-2.8-1-4.1" fill-rule="nonzero"/>
  </g>
  <g transform="matrix(.99213 0 0 .99213 1390 130.22)">
   <path d="m31.5-8.1c-1.8-3.3-5.6-5.1-10.2-5.1-3.4 0-7.1 1-10.7 2.9-6.6 3.5-10.6 9.4-10.6 14.5 0 1.4 0.3 2.8 1 4.1 1.8 3.3 5.6 5 10.2 5 3.4 0 7.1-0.9 10.7-2.8 6.6-3.5 10.6-9.4 10.6-14.5 0-1.4-0.3-2.8-1-4.1m-4.3 6.8c-1.7 1.7-5.1 3.8-8.7 5.8s-7.2 3.5-9.6 4c-0.5 0.1-1 0.2-1.5 0.2-1.6 0-2.8-0.6-3.5-1.9-0.3-0.5-0.5-1.1-0.5-1.7 0-1.1 0.7-2.4 1.8-3.5 1.7-1.7 5-3.8 8.6-5.8s7.2-3.5 9.6-4c0.5-0.1 1-0.2 1.5-0.2 1.6 0 2.9 0.6 3.6 1.9 0.3 0.5 0.4 1.1 0.4 1.7 0 1.1-0.6 2.3-1.7 3.5" fill-rule="nonzero"/>
  </g>
  <g transform="matrix(.99213 0 0 .99213 1390 68.209)">
   <path d="m31.5-8.1c-1.8-3.3-5.6-5.1-10.2-5.1-3.4 0-7.1 1-10.7 2.9-6.6 3.5-10.6 9.4-10.6 14.5 0 1.4 0.3 2.8 1 4.1 1.8 3.3 5.6 5 10.2 5 3.4 0 7.1-0.9 10.7-2.8 6.6-3.5 10.6-9.4 10.6-14.5 0-1.4-0.3-2.8-1-4.1m-4.3 6.8c-1.7 1.7-5.1 3.8-8.7 5.8s-7.2 3.5-9.6 4c-0.5 0.1-1 0.2-1.5 0.2-1.6 0-2.8-0.6-3.5-1.9-0.3-0.5-0.5-1.1-0.5-1.7 0-1.1 0.7-2.4 1.8-3.5 1.7-1.7 5-3.8 8.6-5.8s7.2-3.5 9.6-4c0.5-0.1 1-0.2 1.5-0.2 1.6 0 2.9 0.6 3.6 1.9 0.3 0.5 0.4 1.1 0.4 1.7 0 1.1-0.6 2.3-1.7 3.5" fill-rule="nonzero"/>
  </g>
  <g transform="matrix(.99213 0 0 .99213 1531.4 117.82)">
   <path d="m31.5-8.1c-1.8-3.3-5.6-5.1-10.2-5.1-3.4 0-7.1 1-10.7 2.9-6.6 3.5-10.6 9.4-10.6 14.5 0 1.4 0.3 2.8 1 4.1 1.8 3.3 5.6 5 10.2 5 3.4 0 7.1-0.9 10.7-2.8 6.6-3.5 10.6-9.4 10.6-14.5 0-1.4-0.3-2.8-1-4.1" fill-rule="nonzero"/>
  </g>
  <g transform="matrix(.99213 0 0 .99213 1531.4 55.807)">
   <path d="m31.5-8.1c-1.8-3.3-5.6-5.1-10.2-5.1-3.4 0-7.1 1-10.7 2.9-6.6 3.5-10.6 9.4-10.6 14.5 0 1.4 0.3 2.8 1 4.1 1.8 3.3 5.6 5 10.2 5 3.4 0 7.1-0.9 10.7-2.8 6.6-3.5 10.6-9.4 10.6-14.5 0-1.4-0.3-2.8-1-4.1" fill-rule="nonzero"/>
  </g>
  <g transform="matrix(.99213 0 0 .99213 24.307 412.53)">
   <path d="m0 15.4c0 23.7 19.1 42.8 42.8 42.8 23.6 0 43.6-19.1 43.6-42.8 0-8.7-0.1-17.6-1.1-20-0.4-0.9-0.8-1.2-1.1-1.2-1.4 0-2.4 5.9-2.5 6.7-0.7 4.5-0.7 9.1-1.5 13.6-2.9 15.9-17.6 27.9-33.6 27.9-18 0-32.5-14.6-32.5-32.5 0-18 12.5-31.4 30.5-31.4 0 0 24.1 0.6 24.1 21.6 0 0 0.2 23.8-19.6 23.8-14.9 0-15.7-8.2-15.7-9.9v-0.3c0-4.6 5.8-7.4 8.2-7.4s3.6 2.6 7.2 2.6 9.2-1.6 9.2-9.4-5.2-10.1-12.9-10.1c-11.4 0-20.7 9.3-20.7 20.8 0 11.4 9.3 20.7 20.7 20.7 19.3 0 29.7-11.9 29.7-30.7 0-18.7-14-27.5-32-27.5-23.2 0-42.8 19.1-42.8 42.7m93-3.1c0 3 2.5 5.6 5.5 5.6 3.1 0 5.6-2.6 5.6-5.6 0-3.1-2.5-5.6-5.6-5.6-3 0-5.5 2.5-5.5 5.6m5.5-18.9c3.1 0 5.6-2.5 5.6-5.6 0-3-2.5-5.5-5.6-5.5-3 0-5.5 2.5-5.5 5.5 0 3.1 2.5 5.6 5.5 5.6" fill-rule="nonzero"/>
  </g>
  <g transform="matrix(.99213 0 0 .99213 24.307 192.22)">
   <path d="m63.35-5.87c-1.23-5.43-3.87-9.25-4.65-10.29-3.19-4.27-7.2-7.12-11.89-8.47-3.11-0.89-6.11-1-8.53-0.82-1.04-6.01-2.04-11.89-2.95-17.34 5.45-6.17 9.07-11.97 11.35-16.27 3.47-6.58 4.62-11.16 4.67-11.36 1.72-5.21 2.08-12.91 0.98-21.12-1.01-7.55-3.1-14.26-5.45-17.51-1.03-1.43-2.08-2.16-3.12-2.16-1.22 0-3.73 1.24-6.62 4.01-2.3 2.2-5.57 6.09-8.13 12.1-3 7.06-3.21 16.55-2.86 23.27 0.38 7.27 1.49 12.96 1.5 13.01 0.02 0.09 0.28 1.59 0.73 4.16-0.23 0.23-0.47 0.45-0.72 0.69-1.04 1-2.23 2.14-3.61 3.52-0.86 0.86-1.81 1.77-2.81 2.74-8.45 8.14-21.24 20.46-21.24 39.61 0 4.7 0.9 9.12 2.68 13.13 1.59 3.6 3.89 6.88 6.82 9.75 7.73 7.55 18.32 10.76 25.38 10.6 2.95-0.07 5.58-0.31 7.97-0.76 1.83 9.6 2.97 16.63 3.01 21.97 0.04 6.51-1.61 10.48-5.51 13.25-2.43 1.73-5.24 2.68-8.34 2.83-2.59 0.12-4.85-0.35-6.28-0.76h-0.01s-0.29-0.08-0.3-0.28c-0.01-0.18 0.34-0.23 0.35-0.23h0.02c1.92-0.44 5.49-1.67 7.85-4.97 1.8-2.52 2.67-7.14 0.83-11.08-1.11-2.39-3.62-5.34-9.24-5.79-2.49-0.2-4.76 0.31-6.76 1.51-1.81 1.08-3.31 2.72-4.36 4.72-2.46 4.7-2 10.43 1.13 14.27 2.96 3.62 7.58 5.93 13.01 6.51 0.85 0.09 1.7 0.13 2.55 0.13 4.43 0 8.83-1.2 12.4-3.41 3.66-2.57 5.78-6.55 6.46-12.18 0.56-4.64 0.17-10.55-1.23-18.62-0.36-2.09-0.9-5.12-1.56-8.88 5.75-1.92 9.91-5.49 13.68-11.34 3.29-5.74 4.23-11.84 2.8-18.14m-34.21 26.19c-4.64-1.22-9.07-3.72-12.83-7.22-1.31-1.23-3.18-3.4-4.65-6.79-1.37-3.16-2.03-6.59-1.98-10.18 0.07-4.69 1.38-9.51 3.89-14.3 2.92-5.58 7.48-11.11 13.54-16.44 1.45-1.28 2.82-2.56 4.11-3.84 0.76 4.26 1.59 8.95 2.47 13.83-3.85 1.27-8.6 4.42-11.71 10.07-3.54 6.57-3.4 12.09-2.67 15.57 0.94 4.46 3.47 8.22 6.93 10.31 0.93 0.56 5.06 2.69 6.9 2.11 0.37-0.12 0.64-0.34 0.78-0.67 0.51-1.17-0.51-1.81-2.07-2.77-0.6-0.37-1.27-0.79-2-1.32-3.32-2.49-4.77-6.94-3.7-11.32 0.58-2.4 1.86-4.56 3.7-6.26 1.67-1.55 3.71-2.65 6.09-3.29 2.04 11.24 4.1 22.39 5.74 30.75 0.13 0.69 0.27 1.36 0.4 2.03-4.38 0.93-8.73 0.84-12.94-0.27m11.32-33.18c10.35-0.47 14.62 6.97 15.51 11.8 0.47 2.53 0.46 6.97-1.08 11.18-1.17 3.18-3.63 7.25-8.76 9.31-0.07-0.42-0.15-0.85-0.23-1.28-1.54-8.77-3.48-19.76-5.44-31.01m-7.32-70.94c1.78-5.74 4.52-8.99 6.51-10.72 1.75-1.52 3.4-2.23 4.32-2.23 0.14 0 0.26 0.02 0.36 0.05 0.46 0.14 0.99 0.71 1.46 1.58 2.31 4.29 1.57 11 0.23 15.44-1.63 5.4-4.55 11.02-13.35 20.63-0.17-1.11-0.33-2.16-0.48-3.14-1.25-8.29-0.93-15.56 0.95-21.61" fill-rule="nonzero"/>
  </g>
  <g transform="matrix(.99213 0 0 .99213 161.04 449.74)">
   <path d="m23.3-10.6c0.6-0.1 1.1-0.8 1.1-1.4v-5.9c0-0.8-0.6-1.4-1.4-1.4h-0.2l-3.3 0.7v-14.9h-2.8v15.5l-8.9 1.8v-14.1h-2.8v14.7l-3.9 0.8c-0.6 0.1-1.1 0.8-1.1 1.4v6-0.2c0 0.8 0.6 1.4 1.4 1.4h0.3l3.3-0.7v16.5l-3.9 0.8c-0.6 0.1-1.1 0.8-1.1 1.4v5.8c0 0.8 0.6 1.4 1.4 1.4h0.3l3.3-0.7v14.9h2.8v-15.5l8.9-1.8v14.1h2.8v-14.7l3.8-0.7c0.6-0.1 1.1-0.8 1.1-1.4v-5.9c0-0.8-0.6-1.4-1.4-1.4h-0.2l-3.3 0.7v-16.5l3.8-0.7m-15.5 19.7v-16.6l8.9-1.8v16.5l-8.9 1.9" fill-rule="nonzero"/>
  </g>
  <g transform="matrix(.99213 0 0 .99213 136.24 412.53)">
   <path d="m23.3-10.6c0.6-0.1 1.1-0.8 1.1-1.4v-5.9c0-0.8-0.6-1.4-1.4-1.4h-0.2l-3.3 0.7v-14.9h-2.8v15.5l-8.9 1.8v-14.1h-2.8v14.7l-3.9 0.8c-0.6 0.1-1.1 0.8-1.1 1.4v6-0.2c0 0.8 0.6 1.4 1.4 1.4h0.3l3.3-0.7v16.5l-3.9 0.8c-0.6 0.1-1.1 0.8-1.1 1.4v5.8c0 0.8 0.6 1.4 1.4 1.4h0.3l3.3-0.7v14.9h2.8v-15.5l8.9-1.8v14.1h2.8v-14.7l3.8-0.7c0.6-0.1 1.1-0.8 1.1-1.4v-5.9c0-0.8-0.6-1.4-1.4-1.4h-0.2l-3.3 0.7v-16.5l3.8-0.7m-15.5 19.7v-16.6l8.9-1.8v16.5l-8.9 1.9" fill-rule="nonzero"/>
  </g>
  <g transform="matrix(.99213 0 0 .99213 161.04 155.02)">
   <path d="m23.3-10.6c0.6-0.1 1.1-0.8 1.1-1.4v-5.9c0-0.8-0.6-1.4-1.4-1.4h-0.2l-3.3 0.7v-14.9h-2.8v15.5l-8.9 1.8v-14.1h-2.8v14.7l-3.9 0.8c-0.6 0.1-1.1 0.8-1.1 1.4v6-0.2c0 0.8 0.6 1.4 1.4 1.4h0.3l3.3-0.7v16.5l-3.9 0.8c-0.6 0.1-1.1 0.8-1.1 1.4v5.8c0 0.8 0.6 1.4 1.4 1.4h0.3l3.3-0.7v14.9h2.8v-15.5l8.9-1.8v14.1h2.8v-14.7l3.8-0.7c0.6-0.1 1.1-0.8 1.1-1.4v-5.9c0-0.8-0.6-1.4-1.4-1.4h-0.2l-3.3 0.7v-16.5l3.8-0.7m-15.5 19.7v-16.6l8.9-1.8v16.5l-8.9 1.9" fill-rule="nonzero"/>
  </g>
  <g transform="matrix(.99213 0 0 .99213 136.24 117.82)">
   <path d="m23.3-10.6c0.6-0.1 1.1-0.8 1.1-1.4v-5.9c0-0.8-0.6-1.4-1.4-1.4h-0.2l-3.3 0.7v-14.9h-2.8v15.5l-8.9 1.8v-14.1h-2.8v14.7l-3.9 0.8c-0.6 0.1-1.1 0.8-1.1 1.4v6-0.2c0 0.8 0.6 1.4 1.4 1.4h0.3l3.3-0.7v16.5l-3.9 0.8c-0.6 0.1-1.1 0.8-1.1 1.4v5.8c0 0.8 0.6 1.4 1.4 1.4h0.3l3.3-0.7v14.9h2.8v-15.5l8.9-1.8v14.1h2.8v-14.7l3.8-0.7c0.6-0.1 1.1-0.8 1.1-1.4v-5.9c0-0.8-0.6-1.4-1.4-1.4h-0.2l-3.3 0.7v-16.5l3.8-0.7m-15.5 19.7v-16.6l8.9-1.8v16.5l-8.9 1.9" fill-rule="nonzero"/>
  </g>
  <g transform="matrix(.99213 0 0 .99213 1301.6 117.82)">
   <path d="m23.2 16.9-0.2-0.3c-0.1-0.1-0.3-0.3-0.6-0.7l-11.5-14.2c-0.3-0.3-0.2-1.1 0-1.5l10.2-15.4c0.1-0.2 0.2-0.5 0.2-0.7v-0.9c0-0.3-0.1-0.6-0.3-0.8l-16.2-21.9s-0.8-1.2-1.8-0.3c-1 0.8-0.2 2.1-0.2 2.1l7.6 10.4c0.4 0.6 0.4 1.8 0 2.4l-10.1 15.4c-0.1 0.2-0.2 0.6-0.2 0.8v0.9c0 0.3 0.1 0.6 0.3 0.8l11.2 13.9c-0.4-0.1-1.3-0.3-2.5-0.3-1.7 0-3.9 0.4-5.7 2-2.2 2-3.4 4.8-3.4 7.3 0 1.4 0.3 2.8 1.1 3.9 2.1 3.2 9.6 12.7 9.6 12.7s0.9 1.1 1.8 0.4 0.7-1.6 0.4-2.1-3.5-6.3-3.5-6.3-0.7-1.4-0.7-3.2c0-1.3 0.4-2.9 1.7-4.2 1.2-1.2 2.6-1.6 3.9-1.6s2.4 0.4 3.2 0.9l3.9 2.5s1.2 0.6 1.8-0.3c0.5-0.8 0.3-1.2 0-1.7" fill-rule="nonzero"/>
  </g>
  <g transform="translate(-422.6 -686.19)">
   <path d="m1273.5 1010.7 76.82 25.72v13.08l-76.82-25.72v-13.08"/>
  </g>
  <g transform="translate(-422.6 -516.44)">
   <path d="m1273.5 546.19 76.82 25.717v13.078l-76.82-25.717v-13.078"/>
  </g>
  <g transform="translate(-676.67 -463.77)">
   <path d="m864.1 805.04-0.24 1.88h1.04c2.6 0 3.16 0.2 3.16 1.08 0 0.32-0.16 1.12-0.36 1.96l-5.12 19.04c-0.52 2.04-0.56 2.12-0.92 2.48-0.32 0.36-1.16 0.52-2.92 0.56h-0.6l-0.2 1.88h14.52c2.92 0 5.36-0.36 6.96-1.08 3.08-1.32 4.96-4.04 4.96-7.16 0-1.76-0.64-3.16-2.04-4.44-1-0.92-2.12-1.52-4.24-2.16 1.96-0.36 3.16-0.76 4.48-1.56 2.12-1.28 3.32-3.36 3.32-5.8 0-2.32-1.2-4.32-3.24-5.44-1.64-0.88-3.44-1.24-6.52-1.24h-12.04m5.84 13.12 2.32-8.52c0.68-2.48 0.92-2.68 3-2.72h1.16c3.28 0 4.72 1.28 4.72 4.2 0 2.24-0.96 4.4-2.52 5.6-1.28 1-3 1.44-5.36 1.44h-3.32m-0.48 1.88h2.52c1.92 0 3.76 0.24 4.64 0.6 1.84 0.76 2.88 2.32 2.88 4.28 0 2.08-0.96 4.2-2.48 5.52-1.2 1.04-3.16 1.6-5.56 1.6h-2c-2.2 0-2.8-0.24-2.8-1.08 0-0.32 0.08-0.8 0.24-1.4l2.56-9.52m34.435-4.32-1.08 3.6c-0.28-2.48-2.28-4.2-4.88-4.2-2.48 0-4.72 1.24-6.6 3.68-2.04 2.64-3.24 6-3.24 9.2 0 3.92 2.36 6.52 5.92 6.52 2.52 0 4.08-1 6.08-3.88-0.16 0.6-0.2 0.88-0.2 1.28 0 1.56 1 2.6 2.44 2.6 1.76 0 3.28-0.96 4.68-2.92 0.84-1.16 1.48-2.28 1.96-3.32l-1.24-0.68c-1.52 3.08-2.92 4.72-3.96 4.72-0.48 0-0.84-0.44-0.84-1 0-0.44 0.16-1.12 0.44-2.16l4-13.44h-3.48m-5.28 1.6c1.88 0 3.04 1.32 3.04 3.56 0 2.32-0.8 5.48-2.04 8-1.24 2.48-2.68 3.6-4.68 3.6s-3.2-1.48-3.2-3.92c0-3.52 1.56-7.64 3.68-9.84 0.88-0.92 2-1.4 3.2-1.4m22.106-2.2c-4.2 0-7.24 2.56-7.24 6.04 0 1.72 1 3.16 2.76 4.08 0.64 0.32 1.44 0.68 3.12 1.36 2.28 0.92 2.84 1.48 2.84 2.88 0 2.16-1.8 3.52-4.56 3.52-2.04 0-3.48-0.56-3.48-1.36 0-0.2 0.12-0.44 0.28-0.6 0.76-0.8 0.84-1 0.84-1.72 0-1.12-0.88-2-2.04-2-1.32 0-2.32 1.12-2.32 2.68 0 2.8 2.48 4.52 6.52 4.52 4.6 0 7.76-2.52 7.76-6.16 0-1.6-0.72-2.96-2-3.84-0.88-0.6-1.28-0.76-3.48-1.56-2.6-0.92-3.28-1.56-3.28-3.12 0-1.84 1.76-3.2 4.08-3.2 1.56 0 2.6 0.44 2.6 1.08 0 0.16-0.08 0.36-0.2 0.56-0.56 0.8-0.64 1-0.64 1.6 0 1.08 0.84 1.84 2.08 1.84 1.36 0 2.28-1 2.28-2.44 0-2.44-2.44-4.16-5.92-4.16m17.188 0c-4.2 0-7.24 2.56-7.24 6.04 0 1.72 1 3.16 2.76 4.08 0.64 0.32 1.44 0.68 3.12 1.36 2.28 0.92 2.84 1.48 2.84 2.88 0 2.16-1.8 3.52-4.56 3.52-2.04 0-3.48-0.56-3.48-1.36 0-0.2 0.12-0.44 0.28-0.6 0.76-0.8 0.84-1 0.84-1.72 0-1.12-0.88-2-2.04-2-1.32 0-2.32 1.12-2.32 2.68 0 2.8 2.48 4.52 6.52 4.52 4.6 0 7.76-2.52 7.76-6.16 0-1.6-0.72-2.96-2-3.84-0.88-0.6-1.28-0.76-3.48-1.56-2.6-0.92-3.28-1.56-3.28-3.12 0-1.84 1.76-3.2 4.08-3.2 1.56 0 2.6 0.44 2.6 1.08 0 0.16-0.08 0.36-0.2 0.56-0.56 0.8-0.64 1-0.64 1.6 0 1.08 0.84 1.84 2.08 1.84 1.36 0 2.28-1 2.28-2.44 0-2.44-2.44-4.16-5.92-4.16m18.91 0c-2.64 0-5.16 1.2-7.36 3.44-2.24 2.28-3.36 5.12-3.36 8.48 0 4.6 2.76 7.48 7.12 7.48 2.92 0 5.32-1.08 7.28-3.28 2.16-2.4 3.4-5.56 3.4-8.56 0-4.16-3.2-7.56-7.08-7.56m-0.2 1.52c2.2 0 3.48 1.84 3.48 4.92 0 2.08-0.8 5.28-1.88 7.48-1.36 2.76-2.84 3.96-4.96 3.96-2.32 0-3.56-1.48-3.56-4.2 0-3.36 1.36-7.8 3-10 1.12-1.44 2.4-2.16 3.92-2.16m20.2-1.52c-2.64 0-5.16 1.2-7.36 3.44-2.24 2.28-3.36 5.12-3.36 8.48 0 4.6 2.76 7.48 7.12 7.48 2.92 0 5.32-1.08 7.28-3.28 2.16-2.4 3.4-5.56 3.4-8.56 0-4.16-3.2-7.56-7.08-7.56m-0.2 1.52c2.2 0 3.48 1.84 3.48 4.92 0 2.08-0.8 5.28-1.88 7.48-1.36 2.76-2.84 3.96-4.96 3.96-2.32 0-3.56-1.48-3.56-4.2 0-3.36 1.36-7.8 3-10 1.12-1.44 2.4-2.16 3.92-2.16m18.44-1.52-7.24 0.6-0.16 1.44h0.96c1.64 0 2.28 0.36 2.28 1.24 0 0.4-0.08 0.84-0.36 1.76l-4.08 13.76h3.48l1.64-5.56c1.04-3.48 1.52-4.6 2.96-6.72 1.72-2.56 3.84-4.12 5.563-4.12 0.92 0 1.6 0.72 1.6 1.64 0 0.72-0.16 1.52-0.6 2.8l-2.123 6.24c-0.52 1.6-0.72 2.48-0.72 3.32 0 1.72 1.2 3 2.763 3 2.56 0 5.2-2.16 7.36-6l-1.16-0.84c-2.04 3.2-3.72 4.8-5 4.8-0.36 0-0.68-0.32-0.68-0.76s0.12-0.92 0.76-2.68l1.88-5.52c0.64-1.84 0.96-3.36 0.96-4.52 0-2.12-1.72-3.88-3.84-3.88-2.363 0-4.723 1.72-7.403 5.4l1.16-5.4" fill-rule="nonzero"/>
  </g>
  <g transform="translate(-569.83 -306.24)">
   <path d="m775.54 819.76-2.44 9.24c-0.56 2-0.6 2.12-0.92 2.48-0.4 0.4-1.24 0.56-3.36 0.56h-0.16l-0.2 1.88h12.68l0.24-1.88h-1.04c-2.6 0-3.16-0.2-3.16-1.08 0-0.32 0.16-1.16 0.36-1.96l5.12-19.04c0.56-2.12 0.56-2.12 0.92-2.48 0.4-0.4 1.2-0.52 3.32-0.56h0.2l0.2-1.88h-12.72l-0.2 1.88h1.04c2.6 0 3.16 0.2 3.16 1.08 0 0.32-0.12 0.96-0.4 1.96l-2.12 7.92h-12.88l2.16-7.92c0.52-2.08 0.56-2.12 0.92-2.48 0.36-0.4 1.2-0.52 3.32-0.56h0.16l0.2-1.88h-12.68l-0.24 1.88h1.04c2.6 0 3.16 0.2 3.16 1.08 0 0.32-0.16 1.12-0.36 1.96l-5.12 19.04c-0.52 2-0.56 2.12-0.92 2.48-0.4 0.4-1.24 0.52-3.32 0.56h-0.2l-0.2 1.88h12.72l0.2-1.88h-1.04c-2.6 0-3.16-0.2-3.16-1.08 0-0.32 0.16-1 0.4-1.96l2.48-9.24h12.84m21.312-4.64c-2.64 0-5.16 1.2-7.36 3.44-2.24 2.28-3.36 5.12-3.36 8.48 0 4.6 2.76 7.48 7.12 7.48 2.92 0 5.32-1.08 7.28-3.28 2.16-2.4 3.4-5.56 3.4-8.56 0-4.16-3.2-7.56-7.08-7.56m-0.2 1.52c2.2 0 3.48 1.84 3.48 4.92 0 2.08-0.8 5.28-1.88 7.48-1.36 2.76-2.84 3.96-4.96 3.96-2.32 0-3.56-1.48-3.56-4.2 0-3.36 1.36-7.8 3-10 1.12-1.44 2.4-2.16 3.92-2.16m18.24-1.52-7.24 0.6-0.16 1.44h0.96c1.6 0 2.32 0.36 2.32 1.12 0 0.28-0.16 1.12-0.4 1.88l-4.08 13.76h3.48l1.88-6.32c1.48-5 4.8-10.04 6.64-10.04 0.56 0 0.72 0.28 0.72 1.36s0.68 1.72 1.88 1.72c1.36 0 2.36-1.08 2.36-2.56 0-1.72-1.32-2.96-3.16-2.96-2.24 0-4 1.32-6.12 4.64l0.92-4.64m17.903 0-7.24 0.6-0.16 1.44h0.96c1.64 0 2.28 0.36 2.28 1.24 0 0.4-0.08 0.84-0.36 1.76l-4.08 13.76h3.48l1.64-5.56c1.04-3.48 1.52-4.6 2.96-6.72 1.72-2.56 3.84-4.12 5.56-4.12 0.92 0 1.6 0.72 1.6 1.64 0 0.72-0.16 1.52-0.6 2.8l-2.12 6.24c-0.52 1.6-0.72 2.48-0.72 3.32 0 1.72 1.2 3 2.76 3 2.56 0 5.2-2.16 7.36-6l-1.16-0.84c-2.04 3.2-3.72 4.8-5 4.8-0.36 0-0.68-0.32-0.68-0.76s0.12-0.92 0.76-2.68l1.88-5.52c0.64-1.84 0.96-3.36 0.96-4.52 0-2.12-1.72-3.88-3.84-3.88-2.36 0-4.72 1.72-7.4 5.4l1.16-5.4" fill-rule="nonzero"/>
  </g>
  <g transform="translate(-569.83 -526.22)">
   <path d="m775.54 819.76-2.44 9.24c-0.56 2-0.6 2.12-0.92 2.48-0.4 0.4-1.24 0.56-3.36 0.56h-0.16l-0.2 1.88h12.68l0.24-1.88h-1.04c-2.6 0-3.16-0.2-3.16-1.08 0-0.32 0.16-1.16 0.36-1.96l5.12-19.04c0.56-2.12 0.56-2.12 0.92-2.48 0.4-0.4 1.2-0.52 3.32-0.56h0.2l0.2-1.88h-12.72l-0.2 1.88h1.04c2.6 0 3.16 0.2 3.16 1.08 0 0.32-0.12 0.96-0.4 1.96l-2.12 7.92h-12.88l2.16-7.92c0.52-2.08 0.56-2.12 0.92-2.48 0.36-0.4 1.2-0.52 3.32-0.56h0.16l0.2-1.88h-12.68l-0.24 1.88h1.04c2.6 0 3.16 0.2 3.16 1.08 0 0.32-0.16 1.12-0.36 1.96l-5.12 19.04c-0.52 2-0.56 2.12-0.92 2.48-0.4 0.4-1.24 0.52-3.32 0.56h-0.2l-0.2 1.88h12.72l0.2-1.88h-1.04c-2.6 0-3.16-0.2-3.16-1.08 0-0.32 0.16-1 0.4-1.96l2.48-9.24h12.84m21.312-4.64c-2.64 0-5.16 1.2-7.36 3.44-2.24 2.28-3.36 5.12-3.36 8.48 0 4.6 2.76 7.48 7.12 7.48 2.92 0 5.32-1.08 7.28-3.28 2.16-2.4 3.4-5.56 3.4-8.56 0-4.16-3.2-7.56-7.08-7.56m-0.2 1.52c2.2 0 3.48 1.84 3.48 4.92 0 2.08-0.8 5.28-1.88 7.48-1.36 2.76-2.84 3.96-4.96 3.96-2.32 0-3.56-1.48-3.56-4.2 0-3.36 1.36-7.8 3-10 1.12-1.44 2.4-2.16 3.92-2.16m18.24-1.52-7.24 0.6-0.16 1.44h0.96c1.6 0 2.32 0.36 2.32 1.12 0 0.28-0.16 1.12-0.4 1.88l-4.08 13.76h3.48l1.88-6.32c1.48-5 4.8-10.04 6.64-10.04 0.56 0 0.72 0.28 0.72 1.36s0.68 1.72 1.88 1.72c1.36 0 2.36-1.08 2.36-2.56 0-1.72-1.32-2.96-3.16-2.96-2.24 0-4 1.32-6.12 4.64l0.92-4.64m17.903 0-7.24 0.6-0.16 1.44h0.96c1.64 0 2.28 0.36 2.28 1.24 0 0.4-0.08 0.84-0.36 1.76l-4.08 13.76h3.48l1.64-5.56c1.04-3.48 1.52-4.6 2.96-6.72 1.72-2.56 3.84-4.12 5.56-4.12 0.92 0 1.6 0.72 1.6 1.64 0 0.72-0.16 1.52-0.6 2.8l-2.12 6.24c-0.52 1.6-0.72 2.48-0.72 3.32 0 1.72 1.2 3 2.76 3 2.56 0 5.2-2.16 7.36-6l-1.16-0.84c-2.04 3.2-3.72 4.8-5 4.8-0.36 0-0.68-0.32-0.68-0.76s0.12-0.92 0.76-2.68l1.88-5.52c0.64-1.84 0.96-3.36 0.96-4.52 0-2.12-1.72-3.88-3.84-3.88-2.36 0-4.72 1.72-7.4 5.4l1.16-5.4" fill-rule="nonzero"/>
  </g>
  <g transform="translate(-462.7 -752.53)">
   <path d="m673.25 805.04h-23.12l-0.24 1.88h1.04c2.6 0 3.16 0.2 3.16 1.08 0 0.32-0.16 1.12-0.36 1.96l-5.12 19.04c-0.52 1.96-0.56 2.12-0.92 2.48-0.4 0.4-1.24 0.56-3.32 0.56h-0.2l-0.2 1.88h12.72l0.2-1.88h-1.04c-2.6 0-3.16-0.2-3.16-1.08 0-0.32 0.16-1 0.4-1.96l2.48-9.24h0.88c3 0.04 4.44 1.2 4.44 3.68 0 0.84-0.08 1.44-0.36 2.72l1.8 0.32 3.56-13.36-1.8-0.24c-1.24 3.64-3.12 4.92-7.12 5h-0.92l2.2-8.2c0.64-2.52 0.96-2.72 4-2.76h2.08c1.72 0 3.08 0.44 4.08 1.32 1.12 1 1.48 2.28 1.48 5.04v1.4h1.8l1.56-9.64m10.59-0.6-7.96 0.6-0.16 1.44h1.24c1.64 0 2.28 0.36 2.28 1.24 0 0.4-0.12 0.92-0.36 1.76l-5.08 17.16c-0.96 3.28-1.08 3.8-1.08 5.08 0 1.72 1 2.8 2.6 2.8 2.52 0 5.08-2.12 7.48-6.2l-1.24-0.68c-2.08 3.16-3.8 4.84-4.92 4.84-0.44 0-0.72-0.32-0.72-0.84 0-0.48 0-0.52 0.52-2.2l7.4-25m21.913 11.28h-3.48l-1.88 6.4c-1.64 5.56-5.32 10.12-8.16 10.12-0.96 0-1.72-0.76-1.72-1.72 0-0.52 0.12-1.16 0.44-2.28l3.92-13.12-7.72 0.6-0.12 1.44h0.96c1.64 0 2.24 0.36 2.24 1.28 0 0.4-0.12 0.96-0.32 1.72l-1.6 5.4c-1.24 4-1.24 4-1.24 5.24 0 2.2 1.52 3.68 3.8 3.68 2.8 0 5.08-1.64 7.44-5.32-0.4 1.4-0.48 1.96-0.48 2.72 0 1.56 1.08 2.64 2.56 2.64 2.44 0 4.4-1.64 7.24-6l-1.2-0.72c-1.96 2.92-3.52 4.52-4.4 4.52-0.36 0-0.72-0.44-0.72-0.96 0-0.44 0.16-1.2 0.48-2.36l3.96-13.28m14.837-6.64h-3.48l-1.96 6.64h-3.76l-0.56 1.88h3.76l-3 10.08c-0.6 2.04-0.76 2.88-0.76 3.8 0 1.72 1.24 3.04 2.88 3.04 1.88 0 4.12-1.24 5.52-3.12 0.56-0.76 0.96-1.4 2-3.08l-1.2-0.8c-2.52 3.8-3.64 4.88-4.96 4.88-0.56 0-0.92-0.44-0.92-1.12 0-0.32 0.04-0.6 0.12-0.92l3.8-12.76h4.36l0.56-1.88h-4.36l1.96-6.64m16.722 20.2c-2.36 2.44-4.08 3.36-6.2 3.36-2.4 0-3.88-1.6-3.88-4.16 0-0.28 0.04-0.84 0.08-1.36 4.72-1.12 5.44-1.36 7.28-2.16 3.12-1.36 4.8-3.4 4.8-5.72 0-2.44-1.92-4.12-4.76-4.12-5.84 0-11.12 5.92-11.12 12.48 0 4.32 2.6 6.92 6.92 6.92 3.08 0 5.68-1.36 7.84-4.16l-0.96-1.08m-9.8-3.72c0.92-5.4 3.36-8.84 6.32-8.84 1.32 0 2.2 0.92 2.2 2.28 0 1.92-1.24 3.64-3.44 4.84-1.44 0.84-2.44 1.16-5.08 1.72" fill-rule="nonzero"/>
  </g>
 </g>
 <g transform="translate(-3.3144e-4)" clip-rule="evenodd" fill-rule="evenodd" stroke-linejoin="bevel">
  <g>
   <g transform="matrix(.67672 0 0 1 -248.2 -516.44)">
    <path d="m366.78 634.25h2397" fill="none" stroke="#000" stroke-width="2.73px"/>
   </g>
   <g transform="matrix(.67672 0 0 1 -248.2 -516.44)">
    <path d="m366.78 659.06h2397" fill="none" stroke="#000" stroke-width="2.73px"/>
   </g>
   <g transform="matrix(.67672 0 0 1 -248.2 -516.44)">
    <path d="m366.78 683.86h2397" fill="none" stroke="#000" stroke-width="2.73px"/>
   </g>
   <g transform="matrix(.67672 0 0 1 -248.2 -516.44)">
    <path d="m366.78 708.66h2397" fill="none" stroke="#000" stroke-width="2.73px"/>
   </g>
   <g transform="matrix(.67672 0 0 1 -248.2 -516.44)">
    <path d="m366.78 733.46h2397" fill="none" stroke="#000" stroke-width="2.73px"/>
   </g>
   <g transform="matrix(.67672 0 0 1 -248.2 -686.19)">
    <path d="m366.78 1073.9h2397" fill="none" stroke="#000" stroke-width="2.73px"/>
   </g>
   <g transform="matrix(.67672 0 0 1 -248.2 -686.19)">
    <path d="m366.78 1098.7h2397" fill="none" stroke="#000" stroke-width="2.73px"/>
   </g>
   <g transform="matrix(.67672 0 0 1 -248.2 -686.19)">
    <path d="m366.78 1123.5h2397" fill="none" stroke="#000" stroke-width="2.73px"/>
   </g>
   <g transform="matrix(.67672 0 0 1 -248.2 -686.19)">
    <path d="m366.78 1148.3h2397" fill="none" stroke="#000" stroke-width="2.73px"/>
   </g>
   <g transform="matrix(.67672 0 0 1 -248.2 -686.19)">
    <path d="m366.78 1173.1h2397" fill="none" stroke="#000" stroke-width="2.73px"/>
   </g>
   <g transform="translate(-422.6 -686.19)">
    <path d="m665.64 1142.1c39.163 26.29 156.65 26.29 195.82 0-39.163 33.24-156.65 33.24-195.82 0" stroke="#000" stroke-linecap="round" stroke-linejoin="round" stroke-width="1.74px"/>
   </g>
   <g transform="translate(-422.6 -686.19)">
    <path d="m872.56 1142.1c76.391 28.77 305.57 28.77 381.96 0-76.39 35.72-305.57 35.72-381.96 0" stroke="#000" stroke-linecap="round" stroke-linejoin="round" stroke-width="1.74px"/>
   </g>
   <g transform="translate(-422.6 -686.19)">
    <path d="m1265.6 1142.1c93.83 28.77 375.33 28.77 469.16 0-93.83 35.72-375.33 35.72-469.16 0" stroke="#000" stroke-linecap="round" stroke-linejoin="round" stroke-width="1.74px"/>
   </g>
   <g transform="translate(-422.6 -516.44)">
    <path d="m665.64 764.47c39.163 26.291 156.65 26.291 195.82 0-39.163 33.236-156.65 33.236-195.82 0" stroke="#000" stroke-linecap="round" stroke-linejoin="round" stroke-width="1.74px"/>
   </g>
   <g transform="translate(-422.6 -516.44)">
    <path d="m872.56 764.47c76.391 28.771 305.57 28.771 381.96 0-76.39 35.716-305.57 35.716-381.96 0" stroke="#000" stroke-linecap="round" stroke-linejoin="round" stroke-width="1.74px"/>
   </g>
   <g transform="translate(-422.6 -516.44)">
    <path d="m1265.6 764.47c93.83 28.771 375.33 28.771 469.16 0-93.83 35.716-375.33 35.716-469.16 0" stroke="#000" stroke-linecap="round" stroke-linejoin="round" stroke-width="1.74px"/>
   </g>
   <g transform="translate(-366.78 -686.19)">
    <path d="m369.01 1072.6v101.94" fill="none" stroke="#000" stroke-width="4.46px"/>
   </g>
   <g transform="translate(-422.6 -686.19)">
    <path d="m792.86 1072.6v101.94" fill="none" stroke="#000" stroke-width="4.46px"/>
   </g>
   <g transform="translate(-422.6 -686.19)">
    <path d="m1204.7 1072.6v101.94" fill="none" stroke="#000" stroke-width="4.46px"/>
   </g>
   <g transform="translate(-422.6 -686.19)">
    <path d="m1675.9 1072.6v101.94" fill="none" stroke="#000" stroke-width="4.46px"/>
   </g>
   <g transform="translate(-422.6 -686.19)">
    <path d="m2044.7 1072.6v101.94" fill="none" stroke="#000" stroke-width="4.46px"/>
   </g>
   <g transform="translate(-366.78 -516.44)">
    <path d="m369.01 632.89v371.7" fill="none" stroke="#000" stroke-width="4.46px"/>
   </g>
   <g transform="translate(-422.6 -516.44)">
    <path d="m792.86 632.89v101.94" fill="none" stroke="#000" stroke-width="4.46px"/>
   </g>
   <g transform="translate(-422.6 -516.44)">
    <path d="m1204.7 632.89v101.94" fill="none" stroke="#000" stroke-width="4.46px"/>
   </g>
   <g transform="translate(-422.6 -516.44)">
    <path d="m1675.9 632.89v101.94" fill="none" stroke="#000" stroke-width="4.46px"/>
   </g>
   <g transform="translate(-422.6 -516.44)">
    <path d="m2044.7 632.89v101.94" fill="none" stroke="#000" stroke-width="4.46px"/>
   </g>
   <g transform="matrix(.99213 0 0 .99213 394.06 362.93)">
    <path d="m16.6-18.3c-0.2-0.2-0.5-0.3-0.8-0.3-0.1 0-0.3 0.1-0.4 0.1l-12.6 3.5v-17.5h-2.8v49.5c0 0.8 0.6 1.3 1.4 1.3h0.4l12.6-3.5v17.5h2.7v-49.5c0-0.4-0.2-0.9-0.5-1.1m-2.2 24.8-11.6 3.2v-16.4l11.6-3.3v16.5" fill-rule="nonzero"/>
   </g>
   <g transform="matrix(.99213 0 0 .99213 939.14 449.74)">
    <path d="m23.3-10.6c0.6-0.1 1.1-0.8 1.1-1.4v-5.9c0-0.8-0.6-1.4-1.4-1.4h-0.2l-3.3 0.7v-14.9h-2.8v15.5l-8.9 1.8v-14.1h-2.8v14.7l-3.9 0.8c-0.6 0.1-1.1 0.8-1.1 1.4v6-0.2c0 0.8 0.6 1.4 1.4 1.4h0.3l3.3-0.7v16.5l-3.9 0.8c-0.6 0.1-1.1 0.8-1.1 1.4v5.8c0 0.8 0.6 1.4 1.4 1.4h0.3l3.3-0.7v14.9h2.8v-15.5l8.9-1.8v14.1h2.8v-14.7l3.8-0.7c0.6-0.1 1.1-0.8 1.1-1.4v-5.9c0-0.8-0.6-1.4-1.4-1.4h-0.2l-3.3 0.7v-16.5l3.8-0.7m-15.5 19.7v-16.6l8.9-1.8v16.5l-8.9 1.9" fill-rule="nonzero"/>
   </g>
   <g transform="matrix(.99213 0 0 .99213 394.06 68.209)">
    <path d="m16.6-18.3c-0.2-0.2-0.5-0.3-0.8-0.3-0.1 0-0.3 0.1-0.4 0.1l-12.6 3.5v-17.5h-2.8v49.5c0 0.8 0.6 1.3 1.4 1.3h0.4l12.6-3.5v17.5h2.7v-49.5c0-0.4-0.2-0.9-0.5-1.1m-2.2 24.8-11.6 3.2v-16.4l11.6-3.3v16.5" fill-rule="nonzero"/>
   </g>
   <g transform="matrix(.99213 0 0 .99213 939.14 155.02)">
    <path d="m23.3-10.6c0.6-0.1 1.1-0.8 1.1-1.4v-5.9c0-0.8-0.6-1.4-1.4-1.4h-0.2l-3.3 0.7v-14.9h-2.8v15.5l-8.9 1.8v-14.1h-2.8v14.7l-3.9 0.8c-0.6 0.1-1.1 0.8-1.1 1.4v6-0.2c0 0.8 0.6 1.4 1.4 1.4h0.3l3.3-0.7v16.5l-3.9 0.8c-0.6 0.1-1.1 0.8-1.1 1.4v5.8c0 0.8 0.6 1.4 1.4 1.4h0.3l3.3-0.7v14.9h2.8v-15.5l8.9-1.8v14.1h2.8v-14.7l3.8-0.7c0.6-0.1 1.1-0.8 1.1-1.4v-5.9c0-0.8-0.6-1.4-1.4-1.4h-0.2l-3.3 0.7v-16.5l3.8-0.7m-15.5 19.7v-16.6l8.9-1.8v16.5l-8.9 1.9" fill-rule="nonzero"/>
   </g>
   <g transform="translate(-422.6 -686.19)">
    <path d="m842.21 1049.1h49.599" fill="none" stroke="#000" stroke-width="3.97px"/>
   </g>
   <g transform="translate(-422.6 -516.44)">
    <path d="m842.21 609.45h49.599" fill="none" stroke="#000" stroke-width="3.97px"/>
   </g>
   <g transform="translate(-422.6 -516.44)">
    <path d="m842.21 584.65h49.599" fill="none" stroke="#000" stroke-width="3.97px"/>
   </g>
   <g transform="translate(-422.6 -516.44)">
    <path d="m998.47 609.45h49.601" fill="none" stroke="#000" stroke-width="3.97px"/>
   </g>
   <g transform="translate(-422.6 -516.44)">
    <path d="m1096.1 609.45h49.6" fill="none" stroke="#000" stroke-width="3.97px"/>
   </g>
   <g transform="translate(-422.6 -516.44)">
    <path d="m1803.9 609.45h49.6" fill="none" stroke="#000" stroke-width="3.97px"/>
   </g>
   <g transform="translate(-422.6 -516.44)">
    <path d="m1803.9 584.65h49.6" fill="none" stroke="#000" stroke-width="3.97px"/>
   </g>
   <g transform="translate(-422.6 -516.44)">
    <path d="m1945.4 609.45h49.6" fill="none" stroke="#000" stroke-width="3.97px"/>
   </g>
   <g transform="translate(-422.6 -516.44)">
    <path d="m1945.4 584.65h49.6" fill="none" stroke="#000" stroke-width="3.97px"/>
   </g>
   <g transform="translate(-422.6 -686.19)">
    <path d="m881.76 1045.9v-55.73" fill="none" stroke="#000" stroke-width="2.73px"/>
   </g>
   <g transform="translate(-422.6 -686.19)">
    <path d="m1038 1058.3v-58.829" fill="none" stroke="#000" stroke-width="2.73px"/>
   </g>
   <g transform="translate(-422.6 -686.19)">
    <path d="m1135.7 1070.8v-61.94" fill="none" stroke="#000" stroke-width="2.73px"/>
   </g>
   <g transform="translate(-422.6 -686.19)">
    <path d="m1274.8 1083.2v-65.04" fill="none" stroke="#000" stroke-width="2.73px"/>
   </g>
   <g transform="translate(-422.6 -686.19)">
    <path d="m1348.9 1108v-65.03" fill="none" stroke="#000" stroke-width="2.73px"/>
   </g>
   <g transform="translate(-422.6 -686.19)">
    <path d="m1423 1132.8v-77.43" fill="none" stroke="#000" stroke-width="2.73px"/>
   </g>
   <g transform="translate(-422.6 -686.19)">
    <path d="m1586 1120.4v-74.33" fill="none" stroke="#000" stroke-width="2.73px"/>
   </g>
   <g transform="translate(-422.6 -516.44)">
    <path d="m881.76 581.47v-52.632" fill="none" stroke="#000" stroke-width="2.73px"/>
   </g>
   <g transform="translate(-422.6 -516.44)">
    <path d="m1038 593.87v-52.632" fill="none" stroke="#000" stroke-width="2.73px"/>
   </g>
   <g transform="translate(-422.6 -516.44)">
    <path d="m1135.7 606.27v-55.733" fill="none" stroke="#000" stroke-width="2.73px"/>
   </g>
   <g transform="translate(-422.6 -516.44)">
    <path d="m1274.8 618.68v-65.034" fill="none" stroke="#000" stroke-width="2.73px"/>
   </g>
   <g transform="translate(-422.6 -516.44)">
    <path d="m1348.9 643.48v-65.034" fill="none" stroke="#000" stroke-width="2.73px"/>
   </g>
   <g transform="translate(-422.6 -516.44)">
    <path d="m1423 668.28v-71.235" fill="none" stroke="#000" stroke-width="2.73px"/>
   </g>
   <g transform="translate(-422.6 -516.44)">
    <path d="m1586 655.88v-68.134" fill="none" stroke="#000" stroke-width="2.73px"/>
   </g>
   <g transform="translate(-422.6 -516.44)">
    <path d="m1843.5 643.48v-114.64" fill="none" stroke="#000" stroke-width="2.73px"/>
   </g>
   <g transform="translate(-422.6 -516.44)">
    <path d="m1984.9 631.08v-114.64" fill="none" stroke="#000" stroke-width="2.73px"/>
   </g>
   <g transform="matrix(.99213 0 0 .99213 218.99 437.34)">
    <path d="m18.7-13.6c-13.8 0-18.7 7-18.7 13.5s4.9 13.5 18.7 13.5 18.6-7 18.6-13.5-4.8-13.5-18.6-13.5m-8.3 9.1c-0.1-0.4-0.1-0.8-0.1-1.2 0-0.8 0.2-1.6 0.6-2.3 0.7-1 1.9-1.7 3.4-2 1.3-0.3 2-0.5 4.6-0.5h0.1c4 0 5.3 3.7 6.4 7.5l0.3 1c0.8 2.6 1.2 4.8 1.2 6.5 0 1.2-0.2 2.3-0.6 3.1-0.6 1.1-1.6 1.8-3.3 2.2-0.9 0.2-2.4 0.3-2.4 0.3-0.5 0-0.9 0.1-1.3 0.1-3.2 0-5.2-1.2-6.6-5.5-1.2-3.7-1.4-4.8-2.3-9.2" fill-rule="nonzero"/>
   </g>
   <g transform="matrix(.99213 0 0 .99213 425.9 437.34)">
    <path d="m18.7-13.6c-13.8 0-18.7 7-18.7 13.5s4.9 13.5 18.7 13.5 18.6-7 18.6-13.5-4.8-13.5-18.6-13.5m-8.3 9.1c-0.1-0.4-0.1-0.8-0.1-1.2 0-0.8 0.2-1.6 0.6-2.3 0.7-1 1.9-1.7 3.4-2 1.3-0.3 2-0.5 4.6-0.5h0.1c4 0 5.3 3.7 6.4 7.5l0.3 1c0.8 2.6 1.2 4.8 1.2 6.5 0 1.2-0.2 2.3-0.6 3.1-0.6 1.1-1.6 1.8-3.3 2.2-0.9 0.2-2.4 0.3-2.4 0.3-0.5 0-0.9 0.1-1.3 0.1-3.2 0-5.2-1.2-6.6-5.5-1.2-3.7-1.4-4.8-2.3-9.2" fill-rule="nonzero"/>
   </g>
   <g transform="matrix(.99213 0 0 .99213 818.96 437.34)">
    <path d="m18.7-13.6c-13.8 0-18.7 7-18.7 13.5s4.9 13.5 18.7 13.5 18.6-7 18.6-13.5-4.8-13.5-18.6-13.5m-8.3 9.1c-0.1-0.4-0.1-0.8-0.1-1.2 0-0.8 0.2-1.6 0.6-2.3 0.7-1 1.9-1.7 3.4-2 1.3-0.3 2-0.5 4.6-0.5h0.1c4 0 5.3 3.7 6.4 7.5l0.3 1c0.8 2.6 1.2 4.8 1.2 6.5 0 1.2-0.2 2.3-0.6 3.1-0.6 1.1-1.6 1.8-3.3 2.2-0.9 0.2-2.4 0.3-2.4 0.3-0.5 0-0.9 0.1-1.3 0.1-3.2 0-5.2-1.2-6.6-5.5-1.2-3.7-1.4-4.8-2.3-9.2" fill-rule="nonzero"/>
   </g>
   <g transform="matrix(.99213 0 0 .99213 1299.2 437.34)">
    <path d="m18.7-13.6c-13.8 0-18.7 7-18.7 13.5s4.9 13.5 18.7 13.5 18.6-7 18.6-13.5-4.8-13.5-18.6-13.5m-8.3 9.1c-0.1-0.4-0.1-0.8-0.1-1.2 0-0.8 0.2-1.6 0.6-2.3 0.7-1 1.9-1.7 3.4-2 1.3-0.3 2-0.5 4.6-0.5h0.1c4 0 5.3 3.7 6.4 7.5l0.3 1c0.8 2.6 1.2 4.8 1.2 6.5 0 1.2-0.2 2.3-0.6 3.1-0.6 1.1-1.6 1.8-3.3 2.2-0.9 0.2-2.4 0.3-2.4 0.3-0.5 0-0.9 0.1-1.3 0.1-3.2 0-5.2-1.2-6.6-5.5-1.2-3.7-1.4-4.8-2.3-9.2" fill-rule="nonzero"/>
   </g>
   <g transform="matrix(.99213 0 0 .99213 428.29 362.93)">
    <path d="m31.5-8.1c-1.8-3.3-5.6-5.1-10.2-5.1-3.4 0-7.1 1-10.7 2.9-6.6 3.5-10.6 9.4-10.6 14.5 0 1.4 0.3 2.8 1 4.1 1.8 3.3 5.6 5 10.2 5 3.4 0 7.1-0.9 10.7-2.8 6.6-3.5 10.6-9.4 10.6-14.5 0-1.4-0.3-2.8-1-4.1m-4.3 6.8c-1.7 1.7-5.1 3.8-8.7 5.8s-7.2 3.5-9.6 4c-0.5 0.1-1 0.2-1.5 0.2-1.6 0-2.8-0.6-3.5-1.9-0.3-0.5-0.5-1.1-0.5-1.7 0-1.1 0.7-2.4 1.8-3.5 1.7-1.7 5-3.8 8.6-5.8s7.2-3.5 9.6-4c0.5-0.1 1-0.2 1.5-0.2 1.6 0 2.9 0.6 3.6 1.9 0.3 0.5 0.4 1.1 0.4 1.7 0 1.1-0.6 2.3-1.7 3.5" fill-rule="nonzero"/>
   </g>
   <g transform="matrix(.99213 0 0 .99213 584.54 375.33)">
    <path d="m31.5-8.1c-1.8-3.3-5.6-5.1-10.2-5.1-3.4 0-7.1 1-10.7 2.9-6.6 3.5-10.6 9.4-10.6 14.5 0 1.4 0.3 2.8 1 4.1 1.8 3.3 5.6 5 10.2 5 3.4 0 7.1-0.9 10.7-2.8 6.6-3.5 10.6-9.4 10.6-14.5 0-1.4-0.3-2.8-1-4.1" fill-rule="nonzero"/>
   </g>
   <g transform="matrix(.99213 0 0 .99213 682.2 387.73)">
    <path d="m31.5-8.1c-1.8-3.3-5.6-5.1-10.2-5.1-3.4 0-7.1 1-10.7 2.9-6.6 3.5-10.6 9.4-10.6 14.5 0 1.4 0.3 2.8 1 4.1 1.8 3.3 5.6 5 10.2 5 3.4 0 7.1-0.9 10.7-2.8 6.6-3.5 10.6-9.4 10.6-14.5 0-1.4-0.3-2.8-1-4.1" fill-rule="nonzero"/>
   </g>
   <g transform="matrix(.99213 0 0 .99213 821.34 400.13)">
    <path d="m31.5-8.1c-1.8-3.3-5.6-5.1-10.2-5.1-3.4 0-7.1 1-10.7 2.9-6.6 3.5-10.6 9.4-10.6 14.5 0 1.4 0.3 2.8 1 4.1 1.8 3.3 5.6 5 10.2 5 3.4 0 7.1-0.9 10.7-2.8 6.6-3.5 10.6-9.4 10.6-14.5 0-1.4-0.3-2.8-1-4.1" fill-rule="nonzero"/>
   </g>
   <g transform="matrix(.99213 0 0 .99213 895.44 424.94)">
    <path d="m31.5-8.1c-1.8-3.3-5.6-5.1-10.2-5.1-3.4 0-7.1 1-10.7 2.9-6.6 3.5-10.6 9.4-10.6 14.5 0 1.4 0.3 2.8 1 4.1 1.8 3.3 5.6 5 10.2 5 3.4 0 7.1-0.9 10.7-2.8 6.6-3.5 10.6-9.4 10.6-14.5 0-1.4-0.3-2.8-1-4.1" fill-rule="nonzero"/>
   </g>
   <g transform="matrix(.99213 0 0 .99213 969.54 449.74)">
    <path d="m31.5-8.1c-1.8-3.3-5.6-5.1-10.2-5.1-3.4 0-7.1 1-10.7 2.9-6.6 3.5-10.6 9.4-10.6 14.5 0 1.4 0.3 2.8 1 4.1 1.8 3.3 5.6 5 10.2 5 3.4 0 7.1-0.9 10.7-2.8 6.6-3.5 10.6-9.4 10.6-14.5 0-1.4-0.3-2.8-1-4.1m-4.3 6.8c-1.7 1.7-5.1 3.8-8.7 5.8s-7.2 3.5-9.6 4c-0.5 0.1-1 0.2-1.5 0.2-1.6 0-2.8-0.6-3.5-1.9-0.3-0.5-0.5-1.1-0.5-1.7 0-1.1 0.7-2.4 1.8-3.5 1.7-1.7 5-3.8 8.6-5.8s7.2-3.5 9.6-4c0.5-0.1 1-0.2 1.5-0.2 1.6 0 2.9 0.6 3.6 1.9 0.3 0.5 0.4 1.1 0.4 1.7 0 1.1-0.6 2.3-1.7 3.5" fill-rule="nonzero"/>
   </g>
   <g transform="matrix(.99213 0 0 .99213 1132.6 437.34)">
    <path d="m31.5-8.1c-1.8-3.3-5.6-5.1-10.2-5.1-3.4 0-7.1 1-10.7 2.9-6.6 3.5-10.6 9.4-10.6 14.5 0 1.4 0.3 2.8 1 4.1 1.8 3.3 5.6 5 10.2 5 3.4 0 7.1-0.9 10.7-2.8 6.6-3.5 10.6-9.4 10.6-14.5 0-1.4-0.3-2.8-1-4.1" fill-rule="nonzero"/>
   </g>
   <g transform="matrix(.99213 0 0 .99213 218.99 229.43)">
    <path d="m18.7-13.6c-13.8 0-18.7 7-18.7 13.5s4.9 13.5 18.7 13.5 18.6-7 18.6-13.5-4.8-13.5-18.6-13.5m-8.3 9.1c-0.1-0.4-0.1-0.8-0.1-1.2 0-0.8 0.2-1.6 0.6-2.3 0.7-1 1.9-1.7 3.4-2 1.3-0.3 2-0.5 4.6-0.5h0.1c4 0 5.3 3.7 6.4 7.5l0.3 1c0.8 2.6 1.2 4.8 1.2 6.5 0 1.2-0.2 2.3-0.6 3.1-0.6 1.1-1.6 1.8-3.3 2.2-0.9 0.2-2.4 0.3-2.4 0.3-0.5 0-0.9 0.1-1.3 0.1-3.2 0-5.2-1.2-6.6-5.5-1.2-3.7-1.4-4.8-2.3-9.2" fill-rule="nonzero"/>
   </g>
   <g transform="matrix(.99213 0 0 .99213 425.9 229.43)">
    <path d="m18.7-13.6c-13.8 0-18.7 7-18.7 13.5s4.9 13.5 18.7 13.5 18.6-7 18.6-13.5-4.8-13.5-18.6-13.5m-8.3 9.1c-0.1-0.4-0.1-0.8-0.1-1.2 0-0.8 0.2-1.6 0.6-2.3 0.7-1 1.9-1.7 3.4-2 1.3-0.3 2-0.5 4.6-0.5h0.1c4 0 5.3 3.7 6.4 7.5l0.3 1c0.8 2.6 1.2 4.8 1.2 6.5 0 1.2-0.2 2.3-0.6 3.1-0.6 1.1-1.6 1.8-3.3 2.2-0.9 0.2-2.4 0.3-2.4 0.3-0.5 0-0.9 0.1-1.3 0.1-3.2 0-5.2-1.2-6.6-5.5-1.2-3.7-1.4-4.8-2.3-9.2" fill-rule="nonzero"/>
   </g>
   <g transform="matrix(.99213 0 0 .99213 818.96 229.43)">
    <path d="m18.7-13.6c-13.8 0-18.7 7-18.7 13.5s4.9 13.5 18.7 13.5 18.6-7 18.6-13.5-4.8-13.5-18.6-13.5m-8.3 9.1c-0.1-0.4-0.1-0.8-0.1-1.2 0-0.8 0.2-1.6 0.6-2.3 0.7-1 1.9-1.7 3.4-2 1.3-0.3 2-0.5 4.6-0.5h0.1c4 0 5.3 3.7 6.4 7.5l0.3 1c0.8 2.6 1.2 4.8 1.2 6.5 0 1.2-0.2 2.3-0.6 3.1-0.6 1.1-1.6 1.8-3.3 2.2-0.9 0.2-2.4 0.3-2.4 0.3-0.5 0-0.9 0.1-1.3 0.1-3.2 0-5.2-1.2-6.6-5.5-1.2-3.7-1.4-4.8-2.3-9.2" fill-rule="nonzero"/>
   </g>
   <g transform="matrix(.99213 0 0 .99213 1299.2 229.43)">
    <path d="m18.7-13.6c-13.8 0-18.7 7-18.7 13.5s4.9 13.5 18.7 13.5 18.6-7 18.6-13.5-4.8-13.5-18.6-13.5m-8.3 9.1c-0.1-0.4-0.1-0.8-0.1-1.2 0-0.8 0.2-1.6 0.6-2.3 0.7-1 1.9-1.7 3.4-2 1.3-0.3 2-0.5 4.6-0.5h0.1c4 0 5.3 3.7 6.4 7.5l0.3 1c0.8 2.6 1.2 4.8 1.2 6.5 0 1.2-0.2 2.3-0.6 3.1-0.6 1.1-1.6 1.8-3.3 2.2-0.9 0.2-2.4 0.3-2.4 0.3-0.5 0-0.9 0.1-1.3 0.1-3.2 0-5.2-1.2-6.6-5.5-1.2-3.7-1.4-4.8-2.3-9.2" fill-rule="nonzero"/>
   </g>
   <g transform="matrix(.99213 0 0 .99213 428.29 68.209)">
    <path d="m31.5-8.1c-1.8-3.3-5.6-5.1-10.2-5.1-3.4 0-7.1 1-10.7 2.9-6.6 3.5-10.6 9.4-10.6 14.5 0 1.4 0.3 2.8 1 4.1 1.8 3.3 5.6 5 10.2 5 3.4 0 7.1-0.9 10.7-2.8 6.6-3.5 10.6-9.4 10.6-14.5 0-1.4-0.3-2.8-1-4.1m-4.3 6.8c-1.7 1.7-5.1 3.8-8.7 5.8s-7.2 3.5-9.6 4c-0.5 0.1-1 0.2-1.5 0.2-1.6 0-2.8-0.6-3.5-1.9-0.3-0.5-0.5-1.1-0.5-1.7 0-1.1 0.7-2.4 1.8-3.5 1.7-1.7 5-3.8 8.6-5.8s7.2-3.5 9.6-4c0.5-0.1 1-0.2 1.5-0.2 1.6 0 2.9 0.6 3.6 1.9 0.3 0.5 0.4 1.1 0.4 1.7 0 1.1-0.6 2.3-1.7 3.5" fill-rule="nonzero"/>
   </g>
   <g transform="matrix(.99213 0 0 .99213 584.54 80.61)">
    <path d="m31.5-8.1c-1.8-3.3-5.6-5.1-10.2-5.1-3.4 0-7.1 1-10.7 2.9-6.6 3.5-10.6 9.4-10.6 14.5 0 1.4 0.3 2.8 1 4.1 1.8 3.3 5.6 5 10.2 5 3.4 0 7.1-0.9 10.7-2.8 6.6-3.5 10.6-9.4 10.6-14.5 0-1.4-0.3-2.8-1-4.1" fill-rule="nonzero"/>
   </g>
   <g transform="matrix(.99213 0 0 .99213 682.2 93.012)">
    <path d="m31.5-8.1c-1.8-3.3-5.6-5.1-10.2-5.1-3.4 0-7.1 1-10.7 2.9-6.6 3.5-10.6 9.4-10.6 14.5 0 1.4 0.3 2.8 1 4.1 1.8 3.3 5.6 5 10.2 5 3.4 0 7.1-0.9 10.7-2.8 6.6-3.5 10.6-9.4 10.6-14.5 0-1.4-0.3-2.8-1-4.1" fill-rule="nonzero"/>
   </g>
   <g transform="matrix(.99213 0 0 .99213 821.34 105.41)">
    <path d="m31.5-8.1c-1.8-3.3-5.6-5.1-10.2-5.1-3.4 0-7.1 1-10.7 2.9-6.6 3.5-10.6 9.4-10.6 14.5 0 1.4 0.3 2.8 1 4.1 1.8 3.3 5.6 5 10.2 5 3.4 0 7.1-0.9 10.7-2.8 6.6-3.5 10.6-9.4 10.6-14.5 0-1.4-0.3-2.8-1-4.1" fill-rule="nonzero"/>
   </g>
   <g transform="matrix(.99213 0 0 .99213 895.44 130.22)">
    <path d="m31.5-8.1c-1.8-3.3-5.6-5.1-10.2-5.1-3.4 0-7.1 1-10.7 2.9-6.6 3.5-10.6 9.4-10.6 14.5 0 1.4 0.3 2.8 1 4.1 1.8 3.3 5.6 5 10.2 5 3.4 0 7.1-0.9 10.7-2.8 6.6-3.5 10.6-9.4 10.6-14.5 0-1.4-0.3-2.8-1-4.1" fill-rule="nonzero"/>
   </g>
   <g transform="matrix(.99213 0 0 .99213 969.54 155.02)">
    <path d="m31.5-8.1c-1.8-3.3-5.6-5.1-10.2-5.1-3.4 0-7.1 1-10.7 2.9-6.6 3.5-10.6 9.4-10.6 14.5 0 1.4 0.3 2.8 1 4.1 1.8 3.3 5.6 5 10.2 5 3.4 0 7.1-0.9 10.7-2.8 6.6-3.5 10.6-9.4 10.6-14.5 0-1.4-0.3-2.8-1-4.1m-4.3 6.8c-1.7 1.7-5.1 3.8-8.7 5.8s-7.2 3.5-9.6 4c-0.5 0.1-1 0.2-1.5 0.2-1.6 0-2.8-0.6-3.5-1.9-0.3-0.5-0.5-1.1-0.5-1.7 0-1.1 0.7-2.4 1.8-3.5 1.7-1.7 5-3.8 8.6-5.8s7.2-3.5 9.6-4c0.5-0.1 1-0.2 1.5-0.2 1.6 0 2.9 0.6 3.6 1.9 0.3 0.5 0.4 1.1 0.4 1.7 0 1.1-0.6 2.3-1.7 3.5" fill-rule="nonzero"/>
   </g>
   <g transform="matrix(.99213 0 0 .99213 1132.6 142.62)">
    <path d="m31.5-8.1c-1.8-3.3-5.6-5.1-10.2-5.1-3.4 0-7.1 1-10.7 2.9-6.6 3.5-10.6 9.4-10.6 14.5 0 1.4 0.3 2.8 1 4.1 1.8 3.3 5.6 5 10.2 5 3.4 0 7.1-0.9 10.7-2.8 6.6-3.5 10.6-9.4 10.6-14.5 0-1.4-0.3-2.8-1-4.1" fill-rule="nonzero"/>
   </g>
   <g transform="matrix(.99213 0 0 .99213 1390 130.22)">
    <path d="m31.5-8.1c-1.8-3.3-5.6-5.1-10.2-5.1-3.4 0-7.1 1-10.7 2.9-6.6 3.5-10.6 9.4-10.6 14.5 0 1.4 0.3 2.8 1 4.1 1.8 3.3 5.6 5 10.2 5 3.4 0 7.1-0.9 10.7-2.8 6.6-3.5 10.6-9.4 10.6-14.5 0-1.4-0.3-2.8-1-4.1m-4.3 6.8c-1.7 1.7-5.1 3.8-8.7 5.8s-7.2 3.5-9.6 4c-0.5 0.1-1 0.2-1.5 0.2-1.6 0-2.8-0.6-3.5-1.9-0.3-0.5-0.5-1.1-0.5-1.7 0-1.1 0.7-2.4 1.8-3.5 1.7-1.7 5-3.8 8.6-5.8s7.2-3.5 9.6-4c0.5-0.1 1-0.2 1.5-0.2 1.6 0 2.9 0.6 3.6 1.9 0.3 0.5 0.4 1.1 0.4 1.7 0 1.1-0.6 2.3-1.7 3.5" fill-rule="nonzero"/>
   </g>
   <g transform="matrix(.99213 0 0 .99213 1390 68.209)">
    <path d="m31.5-8.1c-1.8-3.3-5.6-5.1-10.2-5.1-3.4 0-7.1 1-10.7 2.9-6.6 3.5-10.6 9.4-10.6 14.5 0 1.4 0.3 2.8 1 4.1 1.8 3.3 5.6 5 10.2 5 3.4 0 7.1-0.9 10.7-2.8 6.6-3.5 10.6-9.4 10.6-14.5 0-1.4-0.3-2.8-1-4.1m-4.3 6.8c-1.7 1.7-5.1 3.8-8.7 5.8s-7.2 3.5-9.6 4c-0.5 0.1-1 0.2-1.5 0.2-1.6 0-2.8-0.6-3.5-1.9-0.3-0.5-0.5-1.1-0.5-1.7 0-1.1 0.7-2.4 1.8-3.5 1.7-1.7 5-3.8 8.6-5.8s7.2-3.5 9.6-4c0.5-0.1 1-0.2 1.5-0.2 1.6 0 2.9 0.6 3.6 1.9 0.3 0.5 0.4 1.1 0.4 1.7 0 1.1-0.6 2.3-1.7 3.5" fill-rule="nonzero"/>
   </g>
   <g transform="matrix(.99213 0 0 .99213 1531.4 117.82)">
    <path d="m31.5-8.1c-1.8-3.3-5.6-5.1-10.2-5.1-3.4 0-7.1 1-10.7 2.9-6.6 3.5-10.6 9.4-10.6 14.5 0 1.4 0.3 2.8 1 4.1 1.8 3.3 5.6 5 10.2 5 3.4 0 7.1-0.9 10.7-2.8 6.6-3.5 10.6-9.4 10.6-14.5 0-1.4-0.3-2.8-1-4.1" fill-rule="nonzero"/>
   </g>
   <g transform="matrix(.99213 0 0 .99213 1531.4 55.807)">
    <path d="m31.5-8.1c-1.8-3.3-5.6-5.1-10.2-5.1-3.4 0-7.1 1-10.7 2.9-6.6 3.5-10.6 9.4-10.6 14.5 0 1.4 0.3 2.8 1 4.1 1.8 3.3 5.6 5 10.2 5 3.4 0 7.1-0.9 10.7-2.8 6.6-3.5 10.6-9.4 10.6-14.5 0-1.4-0.3-2.8-1-4.1" fill-rule="nonzero"/>
   </g>
   <g transform="matrix(.99213 0 0 .99213 24.307 412.53)">
    <path d="m0 15.4c0 23.7 19.1 42.8 42.8 42.8 23.6 0 43.6-19.1 43.6-42.8 0-8.7-0.1-17.6-1.1-20-0.4-0.9-0.8-1.2-1.1-1.2-1.4 0-2.4 5.9-2.5 6.7-0.7 4.5-0.7 9.1-1.5 13.6-2.9 15.9-17.6 27.9-33.6 27.9-18 0-32.5-14.6-32.5-32.5 0-18 12.5-31.4 30.5-31.4 0 0 24.1 0.6 24.1 21.6 0 0 0.2 23.8-19.6 23.8-14.9 0-15.7-8.2-15.7-9.9v-0.3c0-4.6 5.8-7.4 8.2-7.4s3.6 2.6 7.2 2.6 9.2-1.6 9.2-9.4-5.2-10.1-12.9-10.1c-11.4 0-20.7 9.3-20.7 20.8 0 11.4 9.3 20.7 20.7 20.7 19.3 0 29.7-11.9 29.7-30.7 0-18.7-14-27.5-32-27.5-23.2 0-42.8 19.1-42.8 42.7m93-3.1c0 3 2.5 5.6 5.5 5.6 3.1 0 5.6-2.6 5.6-5.6 0-3.1-2.5-5.6-5.6-5.6-3 0-5.5 2.5-5.5 5.6m5.5-18.9c3.1 0 5.6-2.5 5.6-5.6 0-3-2.5-5.5-5.6-5.5-3 0-5.5 2.5-5.5 5.5 0 3.1 2.5 5.6 5.5 5.6" fill-rule="nonzero"/>
   </g>
   <g transform="matrix(.99213 0 0 .99213 24.307 192.22)">
    <path d="m63.35-5.87c-1.23-5.43-3.87-9.25-4.65-10.29-3.19-4.27-7.2-7.12-11.89-8.47-3.11-0.89-6.11-1-8.53-0.82-1.04-6.01-2.04-11.89-2.95-17.34 5.45-6.17 9.07-11.97 11.35-16.27 3.47-6.58 4.62-11.16 4.67-11.36 1.72-5.21 2.08-12.91 0.98-21.12-1.01-7.55-3.1-14.26-5.45-17.51-1.03-1.43-2.08-2.16-3.12-2.16-1.22 0-3.73 1.24-6.62 4.01-2.3 2.2-5.57 6.09-8.13 12.1-3 7.06-3.21 16.55-2.86 23.27 0.38 7.27 1.49 12.96 1.5 13.01 0.02 0.09 0.28 1.59 0.73 4.16-0.23 0.23-0.47 0.45-0.72 0.69-1.04 1-2.23 2.14-3.61 3.52-0.86 0.86-1.81 1.77-2.81 2.74-8.45 8.14-21.24 20.46-21.24 39.61 0 4.7 0.9 9.12 2.68 13.13 1.59 3.6 3.89 6.88 6.82 9.75 7.73 7.55 18.32 10.76 25.38 10.6 2.95-0.07 5.58-0.31 7.97-0.76 1.83 9.6 2.97 16.63 3.01 21.97 0.04 6.51-1.61 10.48-5.51 13.25-2.43 1.73-5.24 2.68-8.34 2.83-2.59 0.12-4.85-0.35-6.28-0.76h-0.01s-0.29-0.08-0.3-0.28c-0.01-0.18 0.34-0.23 0.35-0.23h0.02c1.92-0.44 5.49-1.67 7.85-4.97 1.8-2.52 2.67-7.14 0.83-11.08-1.11-2.39-3.62-5.34-9.24-5.79-2.49-0.2-4.76 0.31-6.76 1.51-1.81 1.08-3.31 2.72-4.36 4.72-2.46 4.7-2 10.43 1.13 14.27 2.96 3.62 7.58 5.93 13.01 6.51 0.85 0.09 1.7 0.13 2.55 0.13 4.43 0 8.83-1.2 12.4-3.41 3.66-2.57 5.78-6.55 6.46-12.18 0.56-4.64 0.17-10.55-1.23-18.62-0.36-2.09-0.9-5.12-1.56-8.88 5.75-1.92 9.91-5.49 13.68-11.34 3.29-5.74 4.23-11.84 2.8-18.14m-34.21 26.19c-4.64-1.22-9.07-3.72-12.83-7.22-1.31-1.23-3.18-3.4-4.65-6.79-1.37-3.16-2.03-6.59-1.98-10.18 0.07-4.69 1.38-9.51 3.89-14.3 2.92-5.58 7.48-11.11 13.54-16.44 1.45-1.28 2.82-2.56 4.11-3.84 0.76 4.26 1.59 8.95 2.47 13.83-3.85 1.27-8.6 4.42-11.71 10.07-3.54 6.57-3.4 12.09-2.67 15.57 0.94 4.46 3.47 8.22 6.93 10.31 0.93 0.56 5.06 2.69 6.9 2.11 0.37-0.12 0.64-0.34 0.78-0.67 0.51-1.17-0.51-1.81-2.07-2.77-0.6-0.37-1.27-0.79-2-1.32-3.32-2.49-4.77-6.94-3.7-11.32 0.58-2.4 1.86-4.56 3.7-6.26 1.67-1.55 3.71-2.65 6.09-3.29 2.04 11.24 4.1 22.39 5.74 30.75 0.13 0.69 0.27 1.36 0.4 2.03-4.38 0.93-8.73 0.84-12.94-0.27m11.32-33.18c10.35-0.47 14.62 6.97 15.51 11.8 0.47 2.53 0.46 6.97-1.08 11.18-1.17 3.18-3.63 7.25-8.76 9.31-0.07-0.42-0.15-0.85-0.23-1.28-1.54-8.77-3.48-19.76-5.44-31.01m-7.32-70.94c1.78-5.74 4.52-8.99 6.51-10.72 1.75-1.52 3.4-2.23 4.32-2.23 0.14 0 0.26 0.02 0.36 0.05 0.46 0.14 0.99 0.71 1.46 1.58 2.31 4.29 1.57 11 0.23 15.44-1.63 5.4-4.55 11.02-13.35 20.63-0.17-1.11-0.33-2.16-0.48-3.14-1.25-8.29-0.93-15.56 0.95-21.61" fill-rule="nonzero"/>
   </g>
   <g transform="matrix(.99213 0 0 .99213 161.04 449.74)">
    <path d="m23.3-10.6c0.6-0.1 1.1-0.8 1.1-1.4v-5.9c0-0.8-0.6-1.4-1.4-1.4h-0.2l-3.3 0.7v-14.9h-2.8v15.5l-8.9 1.8v-14.1h-2.8v14.7l-3.9 0.8c-0.6 0.1-1.1 0.8-1.1 1.4v6-0.2c0 0.8 0.6 1.4 1.4 1.4h0.3l3.3-0.7v16.5l-3.9 0.8c-0.6 0.1-1.1 0.8-1.1 1.4v5.8c0 0.8 0.6 1.4 1.4 1.4h0.3l3.3-0.7v14.9h2.8v-15.5l8.9-1.8v14.1h2.8v-14.7l3.8-0.7c0.6-0.1 1.1-0.8 1.1-1.4v-5.9c0-0.8-0.6-1.4-1.4-1.4h-0.2l-3.3 0.7v-16.5l3.8-0.7m-15.5 19.7v-16.6l8.9-1.8v16.5l-8.9 1.9" fill-rule="nonzero"/>
   </g>
   <g transform="matrix(.99213 0 0 .99213 136.24 412.53)">
    <path d="m23.3-10.6c0.6-0.1 1.1-0.8 1.1-1.4v-5.9c0-0.8-0.6-1.4-1.4-1.4h-0.2l-3.3 0.7v-14.9h-2.8v15.5l-8.9 1.8v-14.1h-2.8v14.7l-3.9 0.8c-0.6 0.1-1.1 0.8-1.1 1.4v6-0.2c0 0.8 0.6 1.4 1.4 1.4h0.3l3.3-0.7v16.5l-3.9 0.8c-0.6 0.1-1.1 0.8-1.1 1.4v5.8c0 0.8 0.6 1.4 1.4 1.4h0.3l3.3-0.7v14.9h2.8v-15.5l8.9-1.8v14.1h2.8v-14.7l3.8-0.7c0.6-0.1 1.1-0.8 1.1-1.4v-5.9c0-0.8-0.6-1.4-1.4-1.4h-0.2l-3.3 0.7v-16.5l3.8-0.7m-15.5 19.7v-16.6l8.9-1.8v16.5l-8.9 1.9" fill-rule="nonzero"/>
   </g>
   <g transform="matrix(.99213 0 0 .99213 161.04 155.02)">
    <path d="m23.3-10.6c0.6-0.1 1.1-0.8 1.1-1.4v-5.9c0-0.8-0.6-1.4-1.4-1.4h-0.2l-3.3 0.7v-14.9h-2.8v15.5l-8.9 1.8v-14.1h-2.8v14.7l-3.9 0.8c-0.6 0.1-1.1 0.8-1.1 1.4v6-0.2c0 0.8 0.6 1.4 1.4 1.4h0.3l3.3-0.7v16.5l-3.9 0.8c-0.6 0.1-1.1 0.8-1.1 1.4v5.8c0 0.8 0.6 1.4 1.4 1.4h0.3l3.3-0.7v14.9h2.8v-15.5l8.9-1.8v14.1h2.8v-14.7l3.8-0.7c0.6-0.1 1.1-0.8 1.1-1.4v-5.9c0-0.8-0.6-1.4-1.4-1.4h-0.2l-3.3 0.7v-16.5l3.8-0.7m-15.5 19.7v-16.6l8.9-1.8v16.5l-8.9 1.9" fill-rule="nonzero"/>
   </g>
   <g transform="matrix(.99213 0 0 .99213 136.24 117.82)">
    <path d="m23.3-10.6c0.6-0.1 1.1-0.8 1.1-1.4v-5.9c0-0.8-0.6-1.4-1.4-1.4h-0.2l-3.3 0.7v-14.9h-2.8v15.5l-8.9 1.8v-14.1h-2.8v14.7l-3.9 0.8c-0.6 0.1-1.1 0.8-1.1 1.4v6-0.2c0 0.8 0.6 1.4 1.4 1.4h0.3l3.3-0.7v16.5l-3.9 0.8c-0.6 0.1-1.1 0.8-1.1 1.4v5.8c0 0.8 0.6 1.4 1.4 1.4h0.3l3.3-0.7v14.9h2.8v-15.5l8.9-1.8v14.1h2.8v-14.7l3.8-0.7c0.6-0.1 1.1-0.8 1.1-1.4v-5.9c0-0.8-0.6-1.4-1.4-1.4h-0.2l-3.3 0.7v-16.5l3.8-0.7m-15.5 19.7v-16.6l8.9-1.8v16.5l-8.9 1.9" fill-rule="nonzero"/>
   </g>
   <g transform="matrix(.99213 0 0 .99213 1301.6 117.82)">
    <path d="m23.2 16.9-0.2-0.3c-0.1-0.1-0.3-0.3-0.6-0.7l-11.5-14.2c-0.3-0.3-0.2-1.1 0-1.5l10.2-15.4c0.1-0.2 0.2-0.5 0.2-0.7v-0.9c0-0.3-0.1-0.6-0.3-0.8l-16.2-21.9s-0.8-1.2-1.8-0.3c-1 0.8-0.2 2.1-0.2 2.1l7.6 10.4c0.4 0.6 0.4 1.8 0 2.4l-10.1 15.4c-0.1 0.2-0.2 0.6-0.2 0.8v0.9c0 0.3 0.1 0.6 0.3 0.8l11.2 13.9c-0.4-0.1-1.3-0.3-2.5-0.3-1.7 0-3.9 0.4-5.7 2-2.2 2-3.4 4.8-3.4 7.3 0 1.4 0.3 2.8 1.1 3.9 2.1 3.2 9.6 12.7 9.6 12.7s0.9 1.1 1.8 0.4 0.7-1.6 0.4-2.1-3.5-6.3-3.5-6.3-0.7-1.4-0.7-3.2c0-1.3 0.4-2.9 1.7-4.2 1.2-1.2 2.6-1.6 3.9-1.6s2.4 0.4 3.2 0.9l3.9 2.5s1.2 0.6 1.8-0.3c0.5-0.8 0.3-1.2 0-1.7" fill-rule="nonzero"/>
   </g>
   <g transform="translate(-422.6 -686.19)">
    <path d="m1273.5 1010.7 76.82 25.72v13.08l-76.82-25.72v-13.08"/>
   </g>
   <g transform="translate(-422.6 -516.44)">
    <path d="m1273.5 546.19 76.82 25.717v13.078l-76.82-25.717v-13.078"/>
   </g>
   <g transform="translate(-676.67 -463.77)">
    <path d="m864.1 805.04-0.24 1.88h1.04c2.6 0 3.16 0.2 3.16 1.08 0 0.32-0.16 1.12-0.36 1.96l-5.12 19.04c-0.52 2.04-0.56 2.12-0.92 2.48-0.32 0.36-1.16 0.52-2.92 0.56h-0.6l-0.2 1.88h14.52c2.92 0 5.36-0.36 6.96-1.08 3.08-1.32 4.96-4.04 4.96-7.16 0-1.76-0.64-3.16-2.04-4.44-1-0.92-2.12-1.52-4.24-2.16 1.96-0.36 3.16-0.76 4.48-1.56 2.12-1.28 3.32-3.36 3.32-5.8 0-2.32-1.2-4.32-3.24-5.44-1.64-0.88-3.44-1.24-6.52-1.24h-12.04m5.84 13.12 2.32-8.52c0.68-2.48 0.92-2.68 3-2.72h1.16c3.28 0 4.72 1.28 4.72 4.2 0 2.24-0.96 4.4-2.52 5.6-1.28 1-3 1.44-5.36 1.44h-3.32m-0.48 1.88h2.52c1.92 0 3.76 0.24 4.64 0.6 1.84 0.76 2.88 2.32 2.88 4.28 0 2.08-0.96 4.2-2.48 5.52-1.2 1.04-3.16 1.6-5.56 1.6h-2c-2.2 0-2.8-0.24-2.8-1.08 0-0.32 0.08-0.8 0.24-1.4l2.56-9.52m34.435-4.32-1.08 3.6c-0.28-2.48-2.28-4.2-4.88-4.2-2.48 0-4.72 1.24-6.6 3.68-2.04 2.64-3.24 6-3.24 9.2 0 3.92 2.36 6.52 5.92 6.52 2.52 0 4.08-1 6.08-3.88-0.16 0.6-0.2 0.88-0.2 1.28 0 1.56 1 2.6 2.44 2.6 1.76 0 3.28-0.96 4.68-2.92 0.84-1.16 1.48-2.28 1.96-3.32l-1.24-0.68c-1.52 3.08-2.92 4.72-3.96 4.72-0.48 0-0.84-0.44-0.84-1 0-0.44 0.16-1.12 0.44-2.16l4-13.44h-3.48m-5.28 1.6c1.88 0 3.04 1.32 3.04 3.56 0 2.32-0.8 5.48-2.04 8-1.24 2.48-2.68 3.6-4.68 3.6s-3.2-1.48-3.2-3.92c0-3.52 1.56-7.64 3.68-9.84 0.88-0.92 2-1.4 3.2-1.4m22.106-2.2c-4.2 0-7.24 2.56-7.24 6.04 0 1.72 1 3.16 2.76 4.08 0.64 0.32 1.44 0.68 3.12 1.36 2.28 0.92 2.84 1.48 2.84 2.88 0 2.16-1.8 3.52-4.56 3.52-2.04 0-3.48-0.56-3.48-1.36 0-0.2 0.12-0.44 0.28-0.6 0.76-0.8 0.84-1 0.84-1.72 0-1.12-0.88-2-2.04-2-1.32 0-2.32 1.12-2.32 2.68 0 2.8 2.48 4.52 6.52 4.52 4.6 0 7.76-2.52 7.76-6.16 0-1.6-0.72-2.96-2-3.84-0.88-0.6-1.28-0.76-3.48-1.56-2.6-0.92-3.28-1.56-3.28-3.12 0-1.84 1.76-3.2 4.08-3.2 1.56 0 2.6 0.44 2.6 1.08 0 0.16-0.08 0.36-0.2 0.56-0.56 0.8-0.64 1-0.64 1.6 0 1.08 0.84 1.84 2.08 1.84 1.36 0 2.28-1 2.28-2.44 0-2.44-2.44-4.16-5.92-4.16m17.188 0c-4.2 0-7.24 2.56-7.24 6.04 0 1.72 1 3.16 2.76 4.08 0.64 0.32 1.44 0.68 3.12 1.36 2.28 0.92 2.84 1.48 2.84 2.88 0 2.16-1.8 3.52-4.56 3.52-2.04 0-3.48-0.56-3.48-1.36 0-0.2 0.12-0.44 0.28-0.6 0.76-0.8 0.84-1 0.84-1.72 0-1.12-0.88-2-2.04-2-1.32 0-2.32 1.12-2.32 2.68 0 2.8 2.48 4.52 6.52 4.52 4.6 0 7.76-2.52 7.76-6.16 0-1.6-0.72-2.96-2-3.84-0.88-0.6-1.28-0.76-3.48-1.56-2.6-0.92-3.28-1.56-3.28-3.12 0-1.84 1.76-3.2 4.08-3.2 1.56 0 2.6 0.44 2.6 1.08 0 0.16-0.08 0.36-0.2 0.56-0.56 0.8-0.64 1-0.64 1.6 0 1.08 0.84 1.84 2.08 1.84 1.36 0 2.28-1 2.28-2.44 0-2.44-2.44-4.16-5.92-4.16m18.91 0c-2.64 0-5.16 1.2-7.36 3.44-2.24 2.28-3.36 5.12-3.36 8.48 0 4.6 2.76 7.48 7.12 7.48 2.92 0 5.32-1.08 7.28-3.28 2.16-2.4 3.4-5.56 3.4-8.56 0-4.16-3.2-7.56-7.08-7.56m-0.2 1.52c2.2 0 3.48 1.84 3.48 4.92 0 2.08-0.8 5.28-1.88 7.48-1.36 2.76-2.84 3.96-4.96 3.96-2.32 0-3.56-1.48-3.56-4.2 0-3.36 1.36-7.8 3-10 1.12-1.44 2.4-2.16 3.92-2.16m20.2-1.52c-2.64 0-5.16 1.2-7.36 3.44-2.24 2.28-3.36 5.12-3.36 8.48 0 4.6 2.76 7.48 7.12 7.48 2.92 0 5.32-1.08 7.28-3.28 2.16-2.4 3.4-5.56 3.4-8.56 0-4.16-3.2-7.56-7.08-7.56m-0.2 1.52c2.2 0 3.48 1.84 3.48 4.92 0 2.08-0.8 5.28-1.88 7.48-1.36 2.76-2.84 3.96-4.96 3.96-2.32 0-3.56-1.48-3.56-4.2 0-3.36 1.36-7.8 3-10 1.12-1.44 2.4-2.16 3.92-2.16m18.44-1.52-7.24 0.6-0.16 1.44h0.96c1.64 0 2.28 0.36 2.28 1.24 0 0.4-0.08 0.84-0.36 1.76l-4.08 13.76h3.48l1.64-5.56c1.04-3.48 1.52-4.6 2.96-6.72 1.72-2.56 3.84-4.12 5.563-4.12 0.92 0 1.6 0.72 1.6 1.64 0 0.72-0.16 1.52-0.6 2.8l-2.123 6.24c-0.52 1.6-0.72 2.48-0.72 3.32 0 1.72 1.2 3 2.763 3 2.56 0 5.2-2.16 7.36-6l-1.16-0.84c-2.04 3.2-3.72 4.8-5 4.8-0.36 0-0.68-0.32-0.68-0.76s0.12-0.92 0.76-2.68l1.88-5.52c0.64-1.84 0.96-3.36 0.96-4.52 0-2.12-1.72-3.88-3.84-3.88-2.363 0-4.723 1.72-7.403 5.4l1.16-5.4" fill-rule="nonzero"/>
   </g>
   <g transform="translate(-569.83 -306.24)">
    <path d="m775.54 819.76-2.44 9.24c-0.56 2-0.6 2.12-0.92 2.48-0.4 0.4-1.24 0.56-3.36 0.56h-0.16l-0.2 1.88h12.68l0.24-1.88h-1.04c-2.6 0-3.16-0.2-3.16-1.08 0-0.32 0.16-1.16 0.36-1.96l5.12-19.04c0.56-2.12 0.56-2.12 0.92-2.48 0.4-0.4 1.2-0.52 3.32-0.56h0.2l0.2-1.88h-12.72l-0.2 1.88h1.04c2.6 0 3.16 0.2 3.16 1.08 0 0.32-0.12 0.96-0.4 1.96l-2.12 7.92h-12.88l2.16-7.92c0.52-2.08 0.56-2.12 0.92-2.48 0.36-0.4 1.2-0.52 3.32-0.56h0.16l0.2-1.88h-12.68l-0.24 1.88h1.04c2.6 0 3.16 0.2 3.16 1.08 0 0.32-0.16 1.12-0.36 1.96l-5.12 19.04c-0.52 2-0.56 2.12-0.92 2.48-0.4 0.4-1.24 0.52-3.32 0.56h-0.2l-0.2 1.88h12.72l0.2-1.88h-1.04c-2.6 0-3.16-0.2-3.16-1.08 0-0.32 0.16-1 0.4-1.96l2.48-9.24h12.84m21.312-4.64c-2.64 0-5.16 1.2-7.36 3.44-2.24 2.28-3.36 5.12-3.36 8.48 0 4.6 2.76 7.48 7.12 7.48 2.92 0 5.32-1.08 7.28-3.28 2.16-2.4 3.4-5.56 3.4-8.56 0-4.16-3.2-7.56-7.08-7.56m-0.2 1.52c2.2 0 3.48 1.84 3.48 4.92 0 2.08-0.8 5.28-1.88 7.48-1.36 2.76-2.84 3.96-4.96 3.96-2.32 0-3.56-1.48-3.56-4.2 0-3.36 1.36-7.8 3-10 1.12-1.44 2.4-2.16 3.92-2.16m18.24-1.52-7.24 0.6-0.16 1.44h0.96c1.6 0 2.32 0.36 2.32 1.12 0 0.28-0.16 1.12-0.4 1.88l-4.08 13.76h3.48l1.88-6.32c1.48-5 4.8-10.04 6.64-10.04 0.56 0 0.72 0.28 0.72 1.36s0.68 1.72 1.88 1.72c1.36 0 2.36-1.08 2.36-2.56 0-1.72-1.32-2.96-3.16-2.96-2.24 0-4 1.32-6.12 4.64l0.92-4.64m17.903 0-7.24 0.6-0.16 1.44h0.96c1.64 0 2.28 0.36 2.28 1.24 0 0.4-0.08 0.84-0.36 1.76l-4.08 13.76h3.48l1.64-5.56c1.04-3.48 1.52-4.6 2.96-6.72 1.72-2.56 3.84-4.12 5.56-4.12 0.92 0 1.6 0.72 1.6 1.64 0 0.72-0.16 1.52-0.6 2.8l-2.12 6.24c-0.52 1.6-0.72 2.48-0.72 3.32 0 1.72 1.2 3 2.76 3 2.56 0 5.2-2.16 7.36-6l-1.16-0.84c-2.04 3.2-3.72 4.8-5 4.8-0.36 0-0.68-0.32-0.68-0.76s0.12-0.92 0.76-2.68l1.88-5.52c0.64-1.84 0.96-3.36 0.96-4.52 0-2.12-1.72-3.88-3.84-3.88-2.36 0-4.72 1.72-7.4 5.4l1.16-5.4" fill-rule="nonzero"/>
   </g>
   <g transform="translate(-569.83 -526.22)">
    <path d="m775.54 819.76-2.44 9.24c-0.56 2-0.6 2.12-0.92 2.48-0.4 0.4-1.24 0.56-3.36 0.56h-0.16l-0.2 1.88h12.68l0.24-1.88h-1.04c-2.6 0-3.16-0.2-3.16-1.08 0-0.32 0.16-1.16 0.36-1.96l5.12-19.04c0.56-2.12 0.56-2.12 0.92-2.48 0.4-0.4 1.2-0.52 3.32-0.56h0.2l0.2-1.88h-12.72l-0.2 1.88h1.04c2.6 0 3.16 0.2 3.16 1.08 0 0.32-0.12 0.96-0.4 1.96l-2.12 7.92h-12.88l2.16-7.92c0.52-2.08 0.56-2.12 0.92-2.48 0.36-0.4 1.2-0.52 3.32-0.56h0.16l0.2-1.88h-12.68l-0.24 1.88h1.04c2.6 0 3.16 0.2 3.16 1.08 0 0.32-0.16 1.12-0.36 1.96l-5.12 19.04c-0.52 2-0.56 2.12-0.92 2.48-0.4 0.4-1.24 0.52-3.32 0.56h-0.2l-0.2 1.88h12.72l0.2-1.88h-1.04c-2.6 0-3.16-0.2-3.16-1.08 0-0.32 0.16-1 0.4-1.96l2.48-9.24h12.84m21.312-4.64c-2.64 0-5.16 1.2-7.36 3.44-2.24 2.28-3.36 5.12-3.36 8.48 0 4.6 2.76 7.48 7.12 7.48 2.92 0 5.32-1.08 7.28-3.28 2.16-2.4 3.4-5.56 3.4-8.56 0-4.16-3.2-7.56-7.08-7.56m-0.2 1.52c2.2 0 3.48 1.84 3.48 4.92 0 2.08-0.8 5.28-1.88 7.48-1.36 2.76-2.84 3.96-4.96 3.96-2.32 0-3.56-1.48-3.56-4.2 0-3.36 1.36-7.8 3-10 1.12-1.44 2.4-2.16 3.92-2.16m18.24-1.52-7.24 0.6-0.16 1.44h0.96c1.6 0 2.32 0.36 2.32 1.12 0 0.28-0.16 1.12-0.4 1.88l-4.08 13.76h3.48l1.88-6.32c1.48-5 4.8-10.04 6.64-10.04 0.56 0 0.72 0.28 0.72 1.36s0.68 1.72 1.88 1.72c1.36 0 2.36-1.08 2.36-2.56 0-1.72-1.32-2.96-3.16-2.96-2.24 0-4 1.32-6.12 4.64l0.92-4.64m17.903 0-7.24 0.6-0.16 1.44h0.96c1.64 0 2.28 0.36 2.28 1.24 0 0.4-0.08 0.84-0.36 1.76l-4.08 13.76h3.48l1.64-5.56c1.04-3.48 1.52-4.6 2.96-6.72 1.72-2.56 3.84-4.12 5.56-4.12 0.92 0 1.6 0.72 1.6 1.64 0 0.72-0.16 1.52-0.6 2.8l-2.12 6.24c-0.52 1.6-0.72 2.48-0.72 3.32 0 1.72 1.2 3 2.76 3 2.56 0 5.2-2.16 7.36-6l-1.16-0.84c-2.04 3.2-3.72 4.8-5 4.8-0.36 0-0.68-0.32-0.68-0.76s0.12-0.92 0.76-2.68l1.88-5.52c0.64-1.84 0.96-3.36 0.96-4.52 0-2.12-1.72-3.88-3.84-3.88-2.36 0-4.72 1.72-7.4 5.4l1.16-5.4" fill-rule="nonzero"/>
   </g>
   <g transform="translate(-462.7 -752.53)">
    <path d="m673.25 805.04h-23.12l-0.24 1.88h1.04c2.6 0 3.16 0.2 3.16 1.08 0 0.32-0.16 1.12-0.36 1.96l-5.12 19.04c-0.52 1.96-0.56 2.12-0.92 2.48-0.4 0.4-1.24 0.56-3.32 0.56h-0.2l-0.2 1.88h12.72l0.2-1.88h-1.04c-2.6 0-3.16-0.2-3.16-1.08 0-0.32 0.16-1 0.4-1.96l2.48-9.24h0.88c3 0.04 4.44 1.2 4.44 3.68 0 0.84-0.08 1.44-0.36 2.72l1.8 0.32 3.56-13.36-1.8-0.24c-1.24 3.64-3.12 4.92-7.12 5h-0.92l2.2-8.2c0.64-2.52 0.96-2.72 4-2.76h2.08c1.72 0 3.08 0.44 4.08 1.32 1.12 1 1.48 2.28 1.48 5.04v1.4h1.8l1.56-9.64m10.59-0.6-7.96 0.6-0.16 1.44h1.24c1.64 0 2.28 0.36 2.28 1.24 0 0.4-0.12 0.92-0.36 1.76l-5.08 17.16c-0.96 3.28-1.08 3.8-1.08 5.08 0 1.72 1 2.8 2.6 2.8 2.52 0 5.08-2.12 7.48-6.2l-1.24-0.68c-2.08 3.16-3.8 4.84-4.92 4.84-0.44 0-0.72-0.32-0.72-0.84 0-0.48 0-0.52 0.52-2.2l7.4-25m21.913 11.28h-3.48l-1.88 6.4c-1.64 5.56-5.32 10.12-8.16 10.12-0.96 0-1.72-0.76-1.72-1.72 0-0.52 0.12-1.16 0.44-2.28l3.92-13.12-7.72 0.6-0.12 1.44h0.96c1.64 0 2.24 0.36 2.24 1.28 0 0.4-0.12 0.96-0.32 1.72l-1.6 5.4c-1.24 4-1.24 4-1.24 5.24 0 2.2 1.52 3.68 3.8 3.68 2.8 0 5.08-1.64 7.44-5.32-0.4 1.4-0.48 1.96-0.48 2.72 0 1.56 1.08 2.64 2.56 2.64 2.44 0 4.4-1.64 7.24-6l-1.2-0.72c-1.96 2.92-3.52 4.52-4.4 4.52-0.36 0-0.72-0.44-0.72-0.96 0-0.44 0.16-1.2 0.48-2.36l3.96-13.28m14.837-6.64h-3.48l-1.96 6.64h-3.76l-0.56 1.88h3.76l-3 10.08c-0.6 2.04-0.76 2.88-0.76 3.8 0 1.72 1.24 3.04 2.88 3.04 1.88 0 4.12-1.24 5.52-3.12 0.56-0.76 0.96-1.4 2-3.08l-1.2-0.8c-2.52 3.8-3.64 4.88-4.96 4.88-0.56 0-0.92-0.44-0.92-1.12 0-0.32 0.04-0.6 0.12-0.92l3.8-12.76h4.36l0.56-1.88h-4.36l1.96-6.64m16.722 20.2c-2.36 2.44-4.08 3.36-6.2 3.36-2.4 0-3.88-1.6-3.88-4.16 0-0.28 0.04-0.84 0.08-1.36 4.72-1.12 5.44-1.36 7.28-2.16 3.12-1.36 4.8-3.4 4.8-5.72 0-2.44-1.92-4.12-4.76-4.12-5.84 0-11.12 5.92-11.12 12.48 0 4.32 2.6 6.92 6.92 6.92 3.08 0 5.68-1.36 7.84-4.16l-0.96-1.08m-9.8-3.72c0.92-5.4 3.36-8.84 6.32-8.84 1.32 0 2.2 0.92 2.2 2.28 0 1.92-1.24 3.64-3.44 4.84-1.44 0.84-2.44 1.16-5.08 1.72" fill-rule="nonzero"/>
   </g>
  </g>
 </g>
</svg>
