<?xml version="1.0" encoding="UTF-8" standalone="no"?>
<!DOCTYPE svg PUBLIC "-//W3C//DTD SVG 1.1//EN" "http://www.w3.org/Graphics/SVG/1.1/DTD/svg11.dtd">
<svg width="100%" height="100%" viewBox="0 0 1623 529" version="1.1" xmlns="http://www.w3.org/2000/svg" xmlns:xlink="http://www.w3.org/1999/xlink" xml:space="preserve" xmlns:serif="http://www.serif.com/" style="fill-rule:evenodd;clip-rule:evenodd;stroke-linejoin:bevel;">
    <g>
        <g transform="matrix(0.67672,0,0,1,-248.205,-516.437)">
            <path d="M366.777,634.252L2763.78,634.252" style="fill:none;fill-rule:nonzero;stroke:black;stroke-width:2.73px;"/>
        </g>
        <g transform="matrix(0.67672,0,0,1,-248.205,-516.437)">
            <path d="M366.777,659.055L2763.78,659.055" style="fill:none;fill-rule:nonzero;stroke:black;stroke-width:2.73px;"/>
        </g>
        <g transform="matrix(0.67672,0,0,1,-248.205,-516.437)">
            <path d="M366.777,683.858L2763.78,683.858" style="fill:none;fill-rule:nonzero;stroke:black;stroke-width:2.73px;"/>
        </g>
        <g transform="matrix(0.67672,0,0,1,-248.205,-516.437)">
            <path d="M366.777,708.661L2763.78,708.661" style="fill:none;fill-rule:nonzero;stroke:black;stroke-width:2.73px;"/>
        </g>
        <g transform="matrix(0.67672,0,0,1,-248.205,-516.437)">
            <path d="M366.777,733.465L2763.78,733.465" style="fill:none;fill-rule:nonzero;stroke:black;stroke-width:2.73px;"/>
        </g>
        <g transform="matrix(0.67672,0,0,1,-248.205,-686.19)">
            <path d="M366.777,1073.92L2763.78,1073.92" style="fill:none;fill-rule:nonzero;stroke:black;stroke-width:2.73px;"/>
        </g>
        <g transform="matrix(0.67672,0,0,1,-248.205,-686.19)">
            <path d="M366.777,1098.72L2763.78,1098.72" style="fill:none;fill-rule:nonzero;stroke:black;stroke-width:2.73px;"/>
        </g>
        <g transform="matrix(0.67672,0,0,1,-248.205,-686.19)">
            <path d="M366.777,1123.53L2763.78,1123.53" style="fill:none;fill-rule:nonzero;stroke:black;stroke-width:2.73px;"/>
        </g>
        <g transform="matrix(0.67672,0,0,1,-248.205,-686.19)">
            <path d="M366.777,1148.33L2763.78,1148.33" style="fill:none;fill-rule:nonzero;stroke:black;stroke-width:2.73px;"/>
        </g>
        <g transform="matrix(0.67672,0,0,1,-248.205,-686.19)">
            <path d="M366.777,1173.13L2763.78,1173.13" style="fill:none;fill-rule:nonzero;stroke:black;stroke-width:2.73px;"/>
        </g>
        <g transform="matrix(1,0,0,1,-422.605,-686.19)">
            <path d="M665.644,1142.13C704.807,1168.42 822.297,1168.42 861.46,1142.13C822.297,1175.37 704.807,1175.37 665.644,1142.13" style="stroke:black;stroke-width:1.74px;stroke-linecap:round;stroke-linejoin:round;"/>
        </g>
        <g transform="matrix(1,0,0,1,-422.605,-686.19)">
            <path d="M872.561,1142.13C948.952,1170.9 1178.13,1170.9 1254.52,1142.13C1178.13,1177.85 948.952,1177.85 872.561,1142.13" style="stroke:black;stroke-width:1.74px;stroke-linecap:round;stroke-linejoin:round;"/>
        </g>
        <g transform="matrix(1,0,0,1,-422.605,-686.19)">
            <path d="M1265.62,1142.13C1359.45,1170.9 1640.95,1170.9 1734.78,1142.13C1640.95,1177.85 1359.45,1177.85 1265.62,1142.13" style="stroke:black;stroke-width:1.74px;stroke-linecap:round;stroke-linejoin:round;"/>
        </g>
        <g transform="matrix(1,0,0,1,-422.605,-516.437)">
            <path d="M665.644,764.469C704.807,790.76 822.297,790.76 861.46,764.469C822.297,797.705 704.807,797.705 665.644,764.469" style="stroke:black;stroke-width:1.74px;stroke-linecap:round;stroke-linejoin:round;"/>
        </g>
        <g transform="matrix(1,0,0,1,-422.605,-516.437)">
            <path d="M872.561,764.469C948.952,793.24 1178.13,793.24 1254.52,764.469C1178.13,800.185 948.952,800.185 872.561,764.469" style="stroke:black;stroke-width:1.74px;stroke-linecap:round;stroke-linejoin:round;"/>
        </g>
        <g transform="matrix(1,0,0,1,-422.605,-516.437)">
            <path d="M1265.62,764.469C1359.45,793.24 1640.95,793.24 1734.78,764.469C1640.95,800.185 1359.45,800.185 1265.62,764.469" style="stroke:black;stroke-width:1.74px;stroke-linecap:round;stroke-linejoin:round;"/>
        </g>
        <g transform="matrix(1,0,0,1,-366.777,-686.19)">
            <path d="M369.009,1072.56L369.009,1174.5" style="fill:none;fill-rule:nonzero;stroke:black;stroke-width:4.46px;"/>
        </g>
        <g transform="matrix(1,0,0,1,-422.605,-686.19)">
            <path d="M792.857,1072.56L792.857,1174.5" style="fill:none;fill-rule:nonzero;stroke:black;stroke-width:4.46px;"/>
        </g>
        <g transform="matrix(1,0,0,1,-422.605,-686.19)">
            <path d="M1204.71,1072.56L1204.71,1174.5" style="fill:none;fill-rule:nonzero;stroke:black;stroke-width:4.46px;"/>
        </g>
        <g transform="matrix(1,0,0,1,-422.605,-686.19)">
            <path d="M1675.94,1072.56L1675.94,1174.5" style="fill:none;fill-rule:nonzero;stroke:black;stroke-width:4.46px;"/>
        </g>
        <g transform="matrix(1,0,0,1,-422.605,-686.19)">
            <path d="M2044.69,1072.56L2044.69,1174.5" style="fill:none;fill-rule:nonzero;stroke:black;stroke-width:4.46px;"/>
        </g>
        <g transform="matrix(1,0,0,1,-366.777,-516.437)">
            <path d="M369.009,632.888L369.009,1004.59" style="fill:none;fill-rule:nonzero;stroke:black;stroke-width:4.46px;"/>
        </g>
        <g transform="matrix(1,0,0,1,-422.605,-516.437)">
            <path d="M792.857,632.888L792.857,734.829" style="fill:none;fill-rule:nonzero;stroke:black;stroke-width:4.46px;"/>
        </g>
        <g transform="matrix(1,0,0,1,-422.605,-516.437)">
            <path d="M1204.71,632.888L1204.71,734.829" style="fill:none;fill-rule:nonzero;stroke:black;stroke-width:4.46px;"/>
        </g>
        <g transform="matrix(1,0,0,1,-422.605,-516.437)">
            <path d="M1675.94,632.888L1675.94,734.829" style="fill:none;fill-rule:nonzero;stroke:black;stroke-width:4.46px;"/>
        </g>
        <g transform="matrix(1,0,0,1,-422.605,-516.437)">
            <path d="M2044.69,632.888L2044.69,734.829" style="fill:none;fill-rule:nonzero;stroke:black;stroke-width:4.46px;"/>
        </g>
        <g transform="matrix(0.992126,0,0,0.992126,394.063,362.93)">
            <path d="M16.6,-18.3C16.4,-18.5 16.1,-18.6 15.8,-18.6C15.7,-18.6 15.5,-18.5 15.4,-18.5L2.8,-15L2.8,-32.5L0,-32.5L0,17C0,17.8 0.6,18.3 1.4,18.3L1.8,18.3L14.4,14.8L14.4,32.3L17.1,32.3L17.1,-17.2C17.1,-17.6 16.9,-18.1 16.6,-18.3M14.4,6.5L2.8,9.7L2.8,-6.7L14.4,-10L14.4,6.5" style="fill-rule:nonzero;"/>
        </g>
        <g transform="matrix(0.992126,0,0,0.992126,939.135,449.74)">
            <path d="M23.3,-10.6C23.9,-10.7 24.4,-11.4 24.4,-12L24.4,-17.9C24.4,-18.7 23.8,-19.3 23,-19.3L22.8,-19.3L19.5,-18.6L19.5,-33.5L16.7,-33.5L16.7,-18L7.8,-16.2L7.8,-30.3L5,-30.3L5,-15.6L1.1,-14.8C0.5,-14.7 0,-14 0,-13.4L0,-7.4L0,-7.6C0,-6.8 0.6,-6.2 1.4,-6.2L1.7,-6.2L5,-6.9L5,9.6L1.1,10.4C0.5,10.5 0,11.2 0,11.8L0,17.6C0,18.4 0.6,19 1.4,19L1.7,19L5,18.3L5,33.2L7.8,33.2L7.8,17.7L16.7,15.9L16.7,30L19.5,30L19.5,15.3L23.3,14.6C23.9,14.5 24.4,13.8 24.4,13.2L24.4,7.3C24.4,6.5 23.8,5.9 23,5.9L22.8,5.9L19.5,6.6L19.5,-9.9L23.3,-10.6M7.8,9.1L7.8,-7.5L16.7,-9.3L16.7,7.2L7.8,9.1" style="fill-rule:nonzero;"/>
        </g>
        <g transform="matrix(0.992126,0,0,0.992126,394.063,68.209)">
            <path d="M16.6,-18.3C16.4,-18.5 16.1,-18.6 15.8,-18.6C15.7,-18.6 15.5,-18.5 15.4,-18.5L2.8,-15L2.8,-32.5L0,-32.5L0,17C0,17.8 0.6,18.3 1.4,18.3L1.8,18.3L14.4,14.8L14.4,32.3L17.1,32.3L17.1,-17.2C17.1,-17.6 16.9,-18.1 16.6,-18.3M14.4,6.5L2.8,9.7L2.8,-6.7L14.4,-10L14.4,6.5" style="fill-rule:nonzero;"/>
        </g>
        <g transform="matrix(0.992126,0,0,0.992126,939.135,155.02)">
            <path d="M23.3,-10.6C23.9,-10.7 24.4,-11.4 24.4,-12L24.4,-17.9C24.4,-18.7 23.8,-19.3 23,-19.3L22.8,-19.3L19.5,-18.6L19.5,-33.5L16.7,-33.5L16.7,-18L7.8,-16.2L7.8,-30.3L5,-30.3L5,-15.6L1.1,-14.8C0.5,-14.7 0,-14 0,-13.4L0,-7.4L0,-7.6C0,-6.8 0.6,-6.2 1.4,-6.2L1.7,-6.2L5,-6.9L5,9.6L1.1,10.4C0.5,10.5 0,11.2 0,11.8L0,17.6C0,18.4 0.6,19 1.4,19L1.7,19L5,18.3L5,33.2L7.8,33.2L7.8,17.7L16.7,15.9L16.7,30L19.5,30L19.5,15.3L23.3,14.6C23.9,14.5 24.4,13.8 24.4,13.2L24.4,7.3C24.4,6.5 23.8,5.9 23,5.9L22.8,5.9L19.5,6.6L19.5,-9.9L23.3,-10.6M7.8,9.1L7.8,-7.5L16.7,-9.3L16.7,7.2L7.8,9.1" style="fill-rule:nonzero;"/>
        </g>
        <g transform="matrix(1,0,0,1,-422.605,-686.19)">
            <path d="M842.211,1049.12L891.81,1049.12" style="fill:none;fill-rule:nonzero;stroke:black;stroke-width:3.97px;"/>
        </g>
        <g transform="matrix(1,0,0,1,-422.605,-516.437)">
            <path d="M842.211,609.449L891.81,609.449" style="fill:none;fill-rule:nonzero;stroke:black;stroke-width:3.97px;"/>
        </g>
        <g transform="matrix(1,0,0,1,-422.605,-516.437)">
            <path d="M842.211,584.646L891.81,584.646" style="fill:none;fill-rule:nonzero;stroke:black;stroke-width:3.97px;"/>
        </g>
        <g transform="matrix(1,0,0,1,-422.605,-516.437)">
            <path d="M998.469,609.449L1048.07,609.449" style="fill:none;fill-rule:nonzero;stroke:black;stroke-width:3.97px;"/>
        </g>
        <g transform="matrix(1,0,0,1,-422.605,-516.437)">
            <path d="M1096.13,609.449L1145.73,609.449" style="fill:none;fill-rule:nonzero;stroke:black;stroke-width:3.97px;"/>
        </g>
        <g transform="matrix(1,0,0,1,-422.605,-516.437)">
            <path d="M1803.94,609.449L1853.54,609.449" style="fill:none;fill-rule:nonzero;stroke:black;stroke-width:3.97px;"/>
        </g>
        <g transform="matrix(1,0,0,1,-422.605,-516.437)">
            <path d="M1803.94,584.646L1853.54,584.646" style="fill:none;fill-rule:nonzero;stroke:black;stroke-width:3.97px;"/>
        </g>
        <g transform="matrix(1,0,0,1,-422.605,-516.437)">
            <path d="M1945.38,609.449L1994.98,609.449" style="fill:none;fill-rule:nonzero;stroke:black;stroke-width:3.97px;"/>
        </g>
        <g transform="matrix(1,0,0,1,-422.605,-516.437)">
            <path d="M1945.38,584.646L1994.98,584.646" style="fill:none;fill-rule:nonzero;stroke:black;stroke-width:3.97px;"/>
        </g>
        <g transform="matrix(1,0,0,1,-422.605,-686.19)">
            <path d="M881.765,1045.94L881.765,990.21" style="fill:none;fill-rule:nonzero;stroke:black;stroke-width:2.73px;"/>
        </g>
        <g transform="matrix(1,0,0,1,-422.605,-686.19)">
            <path d="M1038.02,1058.34L1038.02,999.511" style="fill:none;fill-rule:nonzero;stroke:black;stroke-width:2.73px;"/>
        </g>
        <g transform="matrix(1,0,0,1,-422.605,-686.19)">
            <path d="M1135.68,1070.75L1135.68,1008.81" style="fill:none;fill-rule:nonzero;stroke:black;stroke-width:2.73px;"/>
        </g>
        <g transform="matrix(1,0,0,1,-422.605,-686.19)">
            <path d="M1274.82,1083.15L1274.82,1018.11" style="fill:none;fill-rule:nonzero;stroke:black;stroke-width:2.73px;"/>
        </g>
        <g transform="matrix(1,0,0,1,-422.605,-686.19)">
            <path d="M1348.92,1107.95L1348.92,1042.92" style="fill:none;fill-rule:nonzero;stroke:black;stroke-width:2.73px;"/>
        </g>
        <g transform="matrix(1,0,0,1,-422.605,-686.19)">
            <path d="M1423.01,1132.75L1423.01,1055.32" style="fill:none;fill-rule:nonzero;stroke:black;stroke-width:2.73px;"/>
        </g>
        <g transform="matrix(1,0,0,1,-422.605,-686.19)">
            <path d="M1586.03,1120.35L1586.03,1046.02" style="fill:none;fill-rule:nonzero;stroke:black;stroke-width:2.73px;"/>
        </g>
        <g transform="matrix(1,0,0,1,-422.605,-516.437)">
            <path d="M881.765,581.471L881.765,528.839" style="fill:none;fill-rule:nonzero;stroke:black;stroke-width:2.73px;"/>
        </g>
        <g transform="matrix(1,0,0,1,-422.605,-516.437)">
            <path d="M1038.02,593.872L1038.02,541.24" style="fill:none;fill-rule:nonzero;stroke:black;stroke-width:2.73px;"/>
        </g>
        <g transform="matrix(1,0,0,1,-422.605,-516.437)">
            <path d="M1135.68,606.274L1135.68,550.541" style="fill:none;fill-rule:nonzero;stroke:black;stroke-width:2.73px;"/>
        </g>
        <g transform="matrix(1,0,0,1,-422.605,-516.437)">
            <path d="M1274.82,618.676L1274.82,553.642" style="fill:none;fill-rule:nonzero;stroke:black;stroke-width:2.73px;"/>
        </g>
        <g transform="matrix(1,0,0,1,-422.605,-516.437)">
            <path d="M1348.92,643.479L1348.92,578.445" style="fill:none;fill-rule:nonzero;stroke:black;stroke-width:2.73px;"/>
        </g>
        <g transform="matrix(1,0,0,1,-422.605,-516.437)">
            <path d="M1423.01,668.282L1423.01,597.047" style="fill:none;fill-rule:nonzero;stroke:black;stroke-width:2.73px;"/>
        </g>
        <g transform="matrix(1,0,0,1,-422.605,-516.437)">
            <path d="M1586.03,655.88L1586.03,587.746" style="fill:none;fill-rule:nonzero;stroke:black;stroke-width:2.73px;"/>
        </g>
        <g transform="matrix(1,0,0,1,-422.605,-516.437)">
            <path d="M1843.49,643.479L1843.49,528.839" style="fill:none;fill-rule:nonzero;stroke:black;stroke-width:2.73px;"/>
        </g>
        <g transform="matrix(1,0,0,1,-422.605,-516.437)">
            <path d="M1984.93,631.077L1984.93,516.437" style="fill:none;fill-rule:nonzero;stroke:black;stroke-width:2.73px;"/>
        </g>
        <g transform="matrix(0.992126,0,0,0.992126,218.987,437.34)">
            <path d="M18.7,-13.6C4.9,-13.6 0,-6.6 0,-0.1C0,6.4 4.9,13.4 18.7,13.4C32.5,13.4 37.3,6.4 37.3,-0.1C37.3,-6.6 32.5,-13.6 18.7,-13.6M10.4,-4.5C10.3,-4.9 10.3,-5.3 10.3,-5.7C10.3,-6.5 10.5,-7.3 10.9,-8C11.6,-9 12.8,-9.7 14.3,-10C15.6,-10.3 16.3,-10.5 18.9,-10.5L19,-10.5C23,-10.5 24.3,-6.8 25.4,-3L25.7,-2C26.5,0.6 26.9,2.8 26.9,4.5C26.9,5.7 26.7,6.8 26.3,7.6C25.7,8.7 24.7,9.4 23,9.8C22.1,10 20.6,10.1 20.6,10.1C20.1,10.1 19.7,10.2 19.3,10.2C16.1,10.2 14.1,9 12.7,4.7C11.5,1 11.3,-0.1 10.4,-4.5" style="fill-rule:nonzero;"/>
        </g>
        <g transform="matrix(0.992126,0,0,0.992126,425.904,437.34)">
            <path d="M18.7,-13.6C4.9,-13.6 0,-6.6 0,-0.1C0,6.4 4.9,13.4 18.7,13.4C32.5,13.4 37.3,6.4 37.3,-0.1C37.3,-6.6 32.5,-13.6 18.7,-13.6M10.4,-4.5C10.3,-4.9 10.3,-5.3 10.3,-5.7C10.3,-6.5 10.5,-7.3 10.9,-8C11.6,-9 12.8,-9.7 14.3,-10C15.6,-10.3 16.3,-10.5 18.9,-10.5L19,-10.5C23,-10.5 24.3,-6.8 25.4,-3L25.7,-2C26.5,0.6 26.9,2.8 26.9,4.5C26.9,5.7 26.7,6.8 26.3,7.6C25.7,8.7 24.7,9.4 23,9.8C22.1,10 20.6,10.1 20.6,10.1C20.1,10.1 19.7,10.2 19.3,10.2C16.1,10.2 14.1,9 12.7,4.7C11.5,1 11.3,-0.1 10.4,-4.5" style="fill-rule:nonzero;"/>
        </g>
        <g transform="matrix(0.992126,0,0,0.992126,818.965,437.34)">
            <path d="M18.7,-13.6C4.9,-13.6 0,-6.6 0,-0.1C0,6.4 4.9,13.4 18.7,13.4C32.5,13.4 37.3,6.4 37.3,-0.1C37.3,-6.6 32.5,-13.6 18.7,-13.6M10.4,-4.5C10.3,-4.9 10.3,-5.3 10.3,-5.7C10.3,-6.5 10.5,-7.3 10.9,-8C11.6,-9 12.8,-9.7 14.3,-10C15.6,-10.3 16.3,-10.5 18.9,-10.5L19,-10.5C23,-10.5 24.3,-6.8 25.4,-3L25.7,-2C26.5,0.6 26.9,2.8 26.9,4.5C26.9,5.7 26.7,6.8 26.3,7.6C25.7,8.7 24.7,9.4 23,9.8C22.1,10 20.6,10.1 20.6,10.1C20.1,10.1 19.7,10.2 19.3,10.2C16.1,10.2 14.1,9 12.7,4.7C11.5,1 11.3,-0.1 10.4,-4.5" style="fill-rule:nonzero;"/>
        </g>
        <g transform="matrix(0.992126,0,0,0.992126,1299.22,437.34)">
            <path d="M18.7,-13.6C4.9,-13.6 0,-6.6 0,-0.1C0,6.4 4.9,13.4 18.7,13.4C32.5,13.4 37.3,6.4 37.3,-0.1C37.3,-6.6 32.5,-13.6 18.7,-13.6M10.4,-4.5C10.3,-4.9 10.3,-5.3 10.3,-5.7C10.3,-6.5 10.5,-7.3 10.9,-8C11.6,-9 12.8,-9.7 14.3,-10C15.6,-10.3 16.3,-10.5 18.9,-10.5L19,-10.5C23,-10.5 24.3,-6.8 25.4,-3L25.7,-2C26.5,0.6 26.9,2.8 26.9,4.5C26.9,5.7 26.7,6.8 26.3,7.6C25.7,8.7 24.7,9.4 23,9.8C22.1,10 20.6,10.1 20.6,10.1C20.1,10.1 19.7,10.2 19.3,10.2C16.1,10.2 14.1,9 12.7,4.7C11.5,1 11.3,-0.1 10.4,-4.5" style="fill-rule:nonzero;"/>
        </g>
        <g transform="matrix(0.992126,0,0,0.992126,428.287,362.93)">
            <path d="M31.5,-8.1C29.7,-11.4 25.9,-13.2 21.3,-13.2C17.9,-13.2 14.2,-12.2 10.6,-10.3C4,-6.8 0,-0.9 0,4.2C0,5.6 0.3,7 1,8.3C2.8,11.6 6.6,13.3 11.2,13.3C14.6,13.3 18.3,12.4 21.9,10.5C28.5,7 32.5,1.1 32.5,-4C32.5,-5.4 32.2,-6.8 31.5,-8.1M27.2,-1.3C25.5,0.4 22.1,2.5 18.5,4.5C14.9,6.5 11.3,8 8.9,8.5C8.4,8.6 7.9,8.7 7.4,8.7C5.8,8.7 4.6,8.1 3.9,6.8C3.6,6.3 3.4,5.7 3.4,5.1C3.4,4 4.1,2.7 5.2,1.6C6.9,-0.1 10.2,-2.2 13.8,-4.2C17.4,-6.2 21,-7.7 23.4,-8.2C23.9,-8.3 24.4,-8.4 24.9,-8.4C26.5,-8.4 27.8,-7.8 28.5,-6.5C28.8,-6 28.9,-5.4 28.9,-4.8C28.9,-3.7 28.3,-2.5 27.2,-1.3" style="fill-rule:nonzero;"/>
        </g>
        <g transform="matrix(0.992126,0,0,0.992126,584.545,375.33)">
            <path d="M31.5,-8.1C29.7,-11.4 25.9,-13.2 21.3,-13.2C17.9,-13.2 14.2,-12.2 10.6,-10.3C4,-6.8 0,-0.9 0,4.2C0,5.6 0.3,7 1,8.3C2.8,11.6 6.6,13.3 11.2,13.3C14.6,13.3 18.3,12.4 21.9,10.5C28.5,7 32.5,1.1 32.5,-4C32.5,-5.4 32.2,-6.8 31.5,-8.1" style="fill-rule:nonzero;"/>
        </g>
        <g transform="matrix(0.992126,0,0,0.992126,682.205,387.73)">
            <path d="M31.5,-8.1C29.7,-11.4 25.9,-13.2 21.3,-13.2C17.9,-13.2 14.2,-12.2 10.6,-10.3C4,-6.8 0,-0.9 0,4.2C0,5.6 0.3,7 1,8.3C2.8,11.6 6.6,13.3 11.2,13.3C14.6,13.3 18.3,12.4 21.9,10.5C28.5,7 32.5,1.1 32.5,-4C32.5,-5.4 32.2,-6.8 31.5,-8.1" style="fill-rule:nonzero;"/>
        </g>
        <g transform="matrix(0.992126,0,0,0.992126,821.345,400.13)">
            <path d="M31.5,-8.1C29.7,-11.4 25.9,-13.2 21.3,-13.2C17.9,-13.2 14.2,-12.2 10.6,-10.3C4,-6.8 0,-0.9 0,4.2C0,5.6 0.3,7 1,8.3C2.8,11.6 6.6,13.3 11.2,13.3C14.6,13.3 18.3,12.4 21.9,10.5C28.5,7 32.5,1.1 32.5,-4C32.5,-5.4 32.2,-6.8 31.5,-8.1" style="fill-rule:nonzero;"/>
        </g>
        <g transform="matrix(0.992126,0,0,0.992126,895.445,424.94)">
            <path d="M31.5,-8.1C29.7,-11.4 25.9,-13.2 21.3,-13.2C17.9,-13.2 14.2,-12.2 10.6,-10.3C4,-6.8 0,-0.9 0,4.2C0,5.6 0.3,7 1,8.3C2.8,11.6 6.6,13.3 11.2,13.3C14.6,13.3 18.3,12.4 21.9,10.5C28.5,7 32.5,1.1 32.5,-4C32.5,-5.4 32.2,-6.8 31.5,-8.1" style="fill-rule:nonzero;"/>
        </g>
        <g transform="matrix(0.992126,0,0,0.992126,969.535,449.74)">
            <path d="M31.5,-8.1C29.7,-11.4 25.9,-13.2 21.3,-13.2C17.9,-13.2 14.2,-12.2 10.6,-10.3C4,-6.8 0,-0.9 0,4.2C0,5.6 0.3,7 1,8.3C2.8,11.6 6.6,13.3 11.2,13.3C14.6,13.3 18.3,12.4 21.9,10.5C28.5,7 32.5,1.1 32.5,-4C32.5,-5.4 32.2,-6.8 31.5,-8.1M27.2,-1.3C25.5,0.4 22.1,2.5 18.5,4.5C14.9,6.5 11.3,8 8.9,8.5C8.4,8.6 7.9,8.7 7.4,8.7C5.8,8.7 4.6,8.1 3.9,6.8C3.6,6.3 3.4,5.7 3.4,5.1C3.4,4 4.1,2.7 5.2,1.6C6.9,-0.1 10.2,-2.2 13.8,-4.2C17.4,-6.2 21,-7.7 23.4,-8.2C23.9,-8.3 24.4,-8.4 24.9,-8.4C26.5,-8.4 27.8,-7.8 28.5,-6.5C28.8,-6 28.9,-5.4 28.9,-4.8C28.9,-3.7 28.3,-2.5 27.2,-1.3" style="fill-rule:nonzero;"/>
        </g>
        <g transform="matrix(0.992126,0,0,0.992126,1132.55,437.34)">
            <path d="M31.5,-8.1C29.7,-11.4 25.9,-13.2 21.3,-13.2C17.9,-13.2 14.2,-12.2 10.6,-10.3C4,-6.8 0,-0.9 0,4.2C0,5.6 0.3,7 1,8.3C2.8,11.6 6.6,13.3 11.2,13.3C14.6,13.3 18.3,12.4 21.9,10.5C28.5,7 32.5,1.1 32.5,-4C32.5,-5.4 32.2,-6.8 31.5,-8.1" style="fill-rule:nonzero;"/>
        </g>
        <g transform="matrix(0.992126,0,0,0.992126,218.987,229.429)">
            <path d="M18.7,-13.6C4.9,-13.6 0,-6.6 0,-0.1C0,6.4 4.9,13.4 18.7,13.4C32.5,13.4 37.3,6.4 37.3,-0.1C37.3,-6.6 32.5,-13.6 18.7,-13.6M10.4,-4.5C10.3,-4.9 10.3,-5.3 10.3,-5.7C10.3,-6.5 10.5,-7.3 10.9,-8C11.6,-9 12.8,-9.7 14.3,-10C15.6,-10.3 16.3,-10.5 18.9,-10.5L19,-10.5C23,-10.5 24.3,-6.8 25.4,-3L25.7,-2C26.5,0.6 26.9,2.8 26.9,4.5C26.9,5.7 26.7,6.8 26.3,7.6C25.7,8.7 24.7,9.4 23,9.8C22.1,10 20.6,10.1 20.6,10.1C20.1,10.1 19.7,10.2 19.3,10.2C16.1,10.2 14.1,9 12.7,4.7C11.5,1 11.3,-0.1 10.4,-4.5" style="fill-rule:nonzero;"/>
        </g>
        <g transform="matrix(0.992126,0,0,0.992126,425.904,229.429)">
            <path d="M18.7,-13.6C4.9,-13.6 0,-6.6 0,-0.1C0,6.4 4.9,13.4 18.7,13.4C32.5,13.4 37.3,6.4 37.3,-0.1C37.3,-6.6 32.5,-13.6 18.7,-13.6M10.4,-4.5C10.3,-4.9 10.3,-5.3 10.3,-5.7C10.3,-6.5 10.5,-7.3 10.9,-8C11.6,-9 12.8,-9.7 14.3,-10C15.6,-10.3 16.3,-10.5 18.9,-10.5L19,-10.5C23,-10.5 24.3,-6.8 25.4,-3L25.7,-2C26.5,0.6 26.9,2.8 26.9,4.5C26.9,5.7 26.7,6.8 26.3,7.6C25.7,8.7 24.7,9.4 23,9.8C22.1,10 20.6,10.1 20.6,10.1C20.1,10.1 19.7,10.2 19.3,10.2C16.1,10.2 14.1,9 12.7,4.7C11.5,1 11.3,-0.1 10.4,-4.5" style="fill-rule:nonzero;"/>
        </g>
        <g transform="matrix(0.992126,0,0,0.992126,818.965,229.429)">
            <path d="M18.7,-13.6C4.9,-13.6 0,-6.6 0,-0.1C0,6.4 4.9,13.4 18.7,13.4C32.5,13.4 37.3,6.4 37.3,-0.1C37.3,-6.6 32.5,-13.6 18.7,-13.6M10.4,-4.5C10.3,-4.9 10.3,-5.3 10.3,-5.7C10.3,-6.5 10.5,-7.3 10.9,-8C11.6,-9 12.8,-9.7 14.3,-10C15.6,-10.3 16.3,-10.5 18.9,-10.5L19,-10.5C23,-10.5 24.3,-6.8 25.4,-3L25.7,-2C26.5,0.6 26.9,2.8 26.9,4.5C26.9,5.7 26.7,6.8 26.3,7.6C25.7,8.7 24.7,9.4 23,9.8C22.1,10 20.6,10.1 20.6,10.1C20.1,10.1 19.7,10.2 19.3,10.2C16.1,10.2 14.1,9 12.7,4.7C11.5,1 11.3,-0.1 10.4,-4.5" style="fill-rule:nonzero;"/>
        </g>
        <g transform="matrix(0.992126,0,0,0.992126,1299.22,229.429)">
            <path d="M18.7,-13.6C4.9,-13.6 0,-6.6 0,-0.1C0,6.4 4.9,13.4 18.7,13.4C32.5,13.4 37.3,6.4 37.3,-0.1C37.3,-6.6 32.5,-13.6 18.7,-13.6M10.4,-4.5C10.3,-4.9 10.3,-5.3 10.3,-5.7C10.3,-6.5 10.5,-7.3 10.9,-8C11.6,-9 12.8,-9.7 14.3,-10C15.6,-10.3 16.3,-10.5 18.9,-10.5L19,-10.5C23,-10.5 24.3,-6.8 25.4,-3L25.7,-2C26.5,0.6 26.9,2.8 26.9,4.5C26.9,5.7 26.7,6.8 26.3,7.6C25.7,8.7 24.7,9.4 23,9.8C22.1,10 20.6,10.1 20.6,10.1C20.1,10.1 19.7,10.2 19.3,10.2C16.1,10.2 14.1,9 12.7,4.7C11.5,1 11.3,-0.1 10.4,-4.5" style="fill-rule:nonzero;"/>
        </g>
        <g transform="matrix(0.992126,0,0,0.992126,428.287,68.209)">
            <path d="M31.5,-8.1C29.7,-11.4 25.9,-13.2 21.3,-13.2C17.9,-13.2 14.2,-12.2 10.6,-10.3C4,-6.8 0,-0.9 0,4.2C0,5.6 0.3,7 1,8.3C2.8,11.6 6.6,13.3 11.2,13.3C14.6,13.3 18.3,12.4 21.9,10.5C28.5,7 32.5,1.1 32.5,-4C32.5,-5.4 32.2,-6.8 31.5,-8.1M27.2,-1.3C25.5,0.4 22.1,2.5 18.5,4.5C14.9,6.5 11.3,8 8.9,8.5C8.4,8.6 7.9,8.7 7.4,8.7C5.8,8.7 4.6,8.1 3.9,6.8C3.6,6.3 3.4,5.7 3.4,5.1C3.4,4 4.1,2.7 5.2,1.6C6.9,-0.1 10.2,-2.2 13.8,-4.2C17.4,-6.2 21,-7.7 23.4,-8.2C23.9,-8.3 24.4,-8.4 24.9,-8.4C26.5,-8.4 27.8,-7.8 28.5,-6.5C28.8,-6 28.9,-5.4 28.9,-4.8C28.9,-3.7 28.3,-2.5 27.2,-1.3" style="fill-rule:nonzero;"/>
        </g>
        <g transform="matrix(0.992126,0,0,0.992126,584.545,80.61)">
            <path d="M31.5,-8.1C29.7,-11.4 25.9,-13.2 21.3,-13.2C17.9,-13.2 14.2,-12.2 10.6,-10.3C4,-6.8 0,-0.9 0,4.2C0,5.6 0.3,7 1,8.3C2.8,11.6 6.6,13.3 11.2,13.3C14.6,13.3 18.3,12.4 21.9,10.5C28.5,7 32.5,1.1 32.5,-4C32.5,-5.4 32.2,-6.8 31.5,-8.1" style="fill-rule:nonzero;"/>
        </g>
        <g transform="matrix(0.992126,0,0,0.992126,682.205,93.012)">
            <path d="M31.5,-8.1C29.7,-11.4 25.9,-13.2 21.3,-13.2C17.9,-13.2 14.2,-12.2 10.6,-10.3C4,-6.8 0,-0.9 0,4.2C0,5.6 0.3,7 1,8.3C2.8,11.6 6.6,13.3 11.2,13.3C14.6,13.3 18.3,12.4 21.9,10.5C28.5,7 32.5,1.1 32.5,-4C32.5,-5.4 32.2,-6.8 31.5,-8.1" style="fill-rule:nonzero;"/>
        </g>
        <g transform="matrix(0.992126,0,0,0.992126,821.345,105.413)">
            <path d="M31.5,-8.1C29.7,-11.4 25.9,-13.2 21.3,-13.2C17.9,-13.2 14.2,-12.2 10.6,-10.3C4,-6.8 0,-0.9 0,4.2C0,5.6 0.3,7 1,8.3C2.8,11.6 6.6,13.3 11.2,13.3C14.6,13.3 18.3,12.4 21.9,10.5C28.5,7 32.5,1.1 32.5,-4C32.5,-5.4 32.2,-6.8 31.5,-8.1" style="fill-rule:nonzero;"/>
        </g>
        <g transform="matrix(0.992126,0,0,0.992126,895.445,130.217)">
            <path d="M31.5,-8.1C29.7,-11.4 25.9,-13.2 21.3,-13.2C17.9,-13.2 14.2,-12.2 10.6,-10.3C4,-6.8 0,-0.9 0,4.2C0,5.6 0.3,7 1,8.3C2.8,11.6 6.6,13.3 11.2,13.3C14.6,13.3 18.3,12.4 21.9,10.5C28.5,7 32.5,1.1 32.5,-4C32.5,-5.4 32.2,-6.8 31.5,-8.1" style="fill-rule:nonzero;"/>
        </g>
        <g transform="matrix(0.992126,0,0,0.992126,969.535,155.02)">
            <path d="M31.5,-8.1C29.7,-11.4 25.9,-13.2 21.3,-13.2C17.9,-13.2 14.2,-12.2 10.6,-10.3C4,-6.8 0,-0.9 0,4.2C0,5.6 0.3,7 1,8.3C2.8,11.6 6.6,13.3 11.2,13.3C14.6,13.3 18.3,12.4 21.9,10.5C28.5,7 32.5,1.1 32.5,-4C32.5,-5.4 32.2,-6.8 31.5,-8.1M27.2,-1.3C25.5,0.4 22.1,2.5 18.5,4.5C14.9,6.5 11.3,8 8.9,8.5C8.4,8.6 7.9,8.7 7.4,8.7C5.8,8.7 4.6,8.1 3.9,6.8C3.6,6.3 3.4,5.7 3.4,5.1C3.4,4 4.1,2.7 5.2,1.6C6.9,-0.1 10.2,-2.2 13.8,-4.2C17.4,-6.2 21,-7.7 23.4,-8.2C23.9,-8.3 24.4,-8.4 24.9,-8.4C26.5,-8.4 27.8,-7.8 28.5,-6.5C28.8,-6 28.9,-5.4 28.9,-4.8C28.9,-3.7 28.3,-2.5 27.2,-1.3" style="fill-rule:nonzero;"/>
        </g>
        <g transform="matrix(0.992126,0,0,0.992126,1132.55,142.618)">
            <path d="M31.5,-8.1C29.7,-11.4 25.9,-13.2 21.3,-13.2C17.9,-13.2 14.2,-12.2 10.6,-10.3C4,-6.8 0,-0.9 0,4.2C0,5.6 0.3,7 1,8.3C2.8,11.6 6.6,13.3 11.2,13.3C14.6,13.3 18.3,12.4 21.9,10.5C28.5,7 32.5,1.1 32.5,-4C32.5,-5.4 32.2,-6.8 31.5,-8.1" style="fill-rule:nonzero;"/>
        </g>
        <g transform="matrix(0.992126,0,0,0.992126,1390.01,130.217)">
            <path d="M31.5,-8.1C29.7,-11.4 25.9,-13.2 21.3,-13.2C17.9,-13.2 14.2,-12.2 10.6,-10.3C4,-6.8 0,-0.9 0,4.2C0,5.6 0.3,7 1,8.3C2.8,11.6 6.6,13.3 11.2,13.3C14.6,13.3 18.3,12.4 21.9,10.5C28.5,7 32.5,1.1 32.5,-4C32.5,-5.4 32.2,-6.8 31.5,-8.1M27.2,-1.3C25.5,0.4 22.1,2.5 18.5,4.5C14.9,6.5 11.3,8 8.9,8.5C8.4,8.6 7.9,8.7 7.4,8.7C5.8,8.7 4.6,8.1 3.9,6.8C3.6,6.3 3.4,5.7 3.4,5.1C3.4,4 4.1,2.7 5.2,1.6C6.9,-0.1 10.2,-2.2 13.8,-4.2C17.4,-6.2 21,-7.7 23.4,-8.2C23.9,-8.3 24.4,-8.4 24.9,-8.4C26.5,-8.4 27.8,-7.8 28.5,-6.5C28.8,-6 28.9,-5.4 28.9,-4.8C28.9,-3.7 28.3,-2.5 27.2,-1.3" style="fill-rule:nonzero;"/>
        </g>
        <g transform="matrix(0.992126,0,0,0.992126,1390.01,68.209)">
            <path d="M31.5,-8.1C29.7,-11.4 25.9,-13.2 21.3,-13.2C17.9,-13.2 14.2,-12.2 10.6,-10.3C4,-6.8 0,-0.9 0,4.2C0,5.6 0.3,7 1,8.3C2.8,11.6 6.6,13.3 11.2,13.3C14.6,13.3 18.3,12.4 21.9,10.5C28.5,7 32.5,1.1 32.5,-4C32.5,-5.4 32.2,-6.8 31.5,-8.1M27.2,-1.3C25.5,0.4 22.1,2.5 18.5,4.5C14.9,6.5 11.3,8 8.9,8.5C8.4,8.6 7.9,8.7 7.4,8.7C5.8,8.7 4.6,8.1 3.9,6.8C3.6,6.3 3.4,5.7 3.4,5.1C3.4,4 4.1,2.7 5.2,1.6C6.9,-0.1 10.2,-2.2 13.8,-4.2C17.4,-6.2 21,-7.7 23.4,-8.2C23.9,-8.3 24.4,-8.4 24.9,-8.4C26.5,-8.4 27.8,-7.8 28.5,-6.5C28.8,-6 28.9,-5.4 28.9,-4.8C28.9,-3.7 28.3,-2.5 27.2,-1.3" style="fill-rule:nonzero;"/>
        </g>
        <g transform="matrix(0.992126,0,0,0.992126,1531.45,117.815)">
            <path d="M31.5,-8.1C29.7,-11.4 25.9,-13.2 21.3,-13.2C17.9,-13.2 14.2,-12.2 10.6,-10.3C4,-6.8 0,-0.9 0,4.2C0,5.6 0.3,7 1,8.3C2.8,11.6 6.6,13.3 11.2,13.3C14.6,13.3 18.3,12.4 21.9,10.5C28.5,7 32.5,1.1 32.5,-4C32.5,-5.4 32.2,-6.8 31.5,-8.1" style="fill-rule:nonzero;"/>
        </g>
        <g transform="matrix(0.992126,0,0,0.992126,1531.45,55.807)">
            <path d="M31.5,-8.1C29.7,-11.4 25.9,-13.2 21.3,-13.2C17.9,-13.2 14.2,-12.2 10.6,-10.3C4,-6.8 0,-0.9 0,4.2C0,5.6 0.3,7 1,8.3C2.8,11.6 6.6,13.3 11.2,13.3C14.6,13.3 18.3,12.4 21.9,10.5C28.5,7 32.5,1.1 32.5,-4C32.5,-5.4 32.2,-6.8 31.5,-8.1" style="fill-rule:nonzero;"/>
        </g>
        <g transform="matrix(0.992126,0,0,0.992126,24.307,412.53)">
            <path d="M0,15.4C0,39.1 19.1,58.2 42.8,58.2C66.4,58.2 86.4,39.1 86.4,15.4C86.4,6.7 86.3,-2.2 85.3,-4.6C84.9,-5.5 84.5,-5.8 84.2,-5.8C82.8,-5.8 81.8,0.1 81.7,0.9C81,5.4 81,10 80.2,14.5C77.3,30.4 62.6,42.4 46.6,42.4C28.6,42.4 14.1,27.8 14.1,9.9C14.1,-8.1 26.6,-21.5 44.6,-21.5C44.6,-21.5 68.7,-20.9 68.7,0.1C68.7,0.1 68.9,23.9 49.1,23.9C34.2,23.9 33.4,15.7 33.4,14L33.4,13.7C33.4,9.1 39.2,6.3 41.6,6.3C44,6.3 45.2,8.9 48.8,8.9C52.4,8.9 58,7.3 58,-0.5C58,-8.3 52.8,-10.6 45.1,-10.6C33.7,-10.6 24.4,-1.3 24.4,10.2C24.4,21.6 33.7,30.9 45.1,30.9C64.4,30.9 74.8,19 74.8,0.2C74.8,-18.5 60.8,-27.3 42.8,-27.3C19.6,-27.3 0,-8.2 0,15.4M93,12.3C93,15.3 95.5,17.9 98.5,17.9C101.6,17.9 104.1,15.3 104.1,12.3C104.1,9.2 101.6,6.7 98.5,6.7C95.5,6.7 93,9.2 93,12.3M98.5,-6.6C101.6,-6.6 104.1,-9.1 104.1,-12.2C104.1,-15.2 101.6,-17.7 98.5,-17.7C95.5,-17.7 93,-15.2 93,-12.2C93,-9.1 95.5,-6.6 98.5,-6.6" style="fill-rule:nonzero;"/>
        </g>
        <g transform="matrix(0.992126,0,0,0.992126,24.307,192.224)">
            <path d="M63.35,-5.87C62.12,-11.3 59.48,-15.12 58.7,-16.16C55.51,-20.43 51.5,-23.28 46.81,-24.63C43.7,-25.52 40.7,-25.63 38.28,-25.45C37.24,-31.46 36.24,-37.34 35.33,-42.79C40.78,-48.96 44.4,-54.76 46.68,-59.06C50.15,-65.64 51.3,-70.22 51.35,-70.42C53.07,-75.63 53.43,-83.33 52.33,-91.54C51.32,-99.09 49.23,-105.8 46.88,-109.05C45.85,-110.48 44.8,-111.21 43.76,-111.21C42.54,-111.21 40.03,-109.97 37.14,-107.2C34.84,-105 31.57,-101.11 29.01,-95.1C26.01,-88.04 25.8,-78.55 26.15,-71.83C26.53,-64.56 27.64,-58.87 27.65,-58.82C27.67,-58.73 27.93,-57.23 28.38,-54.66C28.15,-54.43 27.91,-54.21 27.66,-53.97C26.62,-52.97 25.43,-51.83 24.05,-50.45C23.19,-49.59 22.24,-48.68 21.24,-47.71C12.79,-39.57 0,-27.25 0,-8.1C0,-3.4 0.9,1.02 2.68,5.03C4.27,8.63 6.57,11.91 9.5,14.78C17.23,22.33 27.82,25.54 34.88,25.38C37.83,25.31 40.46,25.07 42.85,24.62C44.68,34.22 45.82,41.25 45.86,46.59C45.9,53.1 44.25,57.07 40.35,59.84C37.92,61.57 35.11,62.52 32.01,62.67C29.42,62.79 27.16,62.32 25.73,61.91L25.72,61.91C25.72,61.91 25.43,61.83 25.42,61.63C25.41,61.45 25.76,61.4 25.77,61.4L25.79,61.4C27.71,60.96 31.28,59.73 33.64,56.43C35.44,53.91 36.31,49.29 34.47,45.35C33.36,42.96 30.85,40.01 25.23,39.56C22.74,39.36 20.47,39.87 18.47,41.07C16.66,42.15 15.16,43.79 14.11,45.79C11.65,50.49 12.11,56.22 15.24,60.06C18.2,63.68 22.82,65.99 28.25,66.57C29.1,66.66 29.95,66.7 30.8,66.7C35.23,66.7 39.63,65.5 43.2,63.29C46.86,60.72 48.98,56.74 49.66,51.11C50.22,46.47 49.83,40.56 48.43,32.49C48.07,30.4 47.53,27.37 46.87,23.61C52.62,21.69 56.78,18.12 60.55,12.27C63.84,6.53 64.78,0.43 63.35,-5.87M29.14,20.32C24.5,19.1 20.07,16.6 16.31,13.1C15,11.87 13.13,9.7 11.66,6.31C10.29,3.15 9.63,-0.28 9.68,-3.87C9.75,-8.56 11.06,-13.38 13.57,-18.17C16.49,-23.75 21.05,-29.28 27.11,-34.61C28.56,-35.89 29.93,-37.17 31.22,-38.45C31.98,-34.19 32.81,-29.5 33.69,-24.62C29.84,-23.35 25.09,-20.2 21.98,-14.55C18.44,-7.98 18.58,-2.46 19.31,1.02C20.25,5.48 22.78,9.24 26.24,11.33C27.17,11.89 31.3,14.02 33.14,13.44C33.51,13.32 33.78,13.1 33.92,12.77C34.43,11.6 33.41,10.96 31.85,10C31.25,9.63 30.58,9.21 29.85,8.68C26.53,6.19 25.08,1.74 26.15,-2.64C26.73,-5.04 28.01,-7.2 29.85,-8.9C31.52,-10.45 33.56,-11.55 35.94,-12.19C37.98,-0.95 40.04,10.2 41.68,18.56C41.81,19.25 41.95,19.92 42.08,20.59C37.7,21.52 33.35,21.43 29.14,20.32M40.46,-12.86C50.81,-13.33 55.08,-5.89 55.97,-1.06C56.44,1.47 56.43,5.91 54.89,10.12C53.72,13.3 51.26,17.37 46.13,19.43C46.06,19.01 45.98,18.58 45.9,18.15C44.36,9.38 42.42,-1.61 40.46,-12.86M33.14,-83.8C34.92,-89.54 37.66,-92.79 39.65,-94.52C41.4,-96.04 43.05,-96.75 43.97,-96.75C44.11,-96.75 44.23,-96.73 44.33,-96.7C44.79,-96.56 45.32,-95.99 45.79,-95.12C48.1,-90.83 47.36,-84.12 46.02,-79.68C44.39,-74.28 41.47,-68.66 32.67,-59.05C32.5,-60.16 32.34,-61.21 32.19,-62.19C30.94,-70.48 31.26,-77.75 33.14,-83.8" style="fill-rule:nonzero;"/>
        </g>
        <g transform="matrix(0.992126,0,0,0.992126,161.045,449.74)">
            <path d="M23.3,-10.6C23.9,-10.7 24.4,-11.4 24.4,-12L24.4,-17.9C24.4,-18.7 23.8,-19.3 23,-19.3L22.8,-19.3L19.5,-18.6L19.5,-33.5L16.7,-33.5L16.7,-18L7.8,-16.2L7.8,-30.3L5,-30.3L5,-15.6L1.1,-14.8C0.5,-14.7 0,-14 0,-13.4L0,-7.4L0,-7.6C0,-6.8 0.6,-6.2 1.4,-6.2L1.7,-6.2L5,-6.9L5,9.6L1.1,10.4C0.5,10.5 0,11.2 0,11.8L0,17.6C0,18.4 0.6,19 1.4,19L1.7,19L5,18.3L5,33.2L7.8,33.2L7.8,17.7L16.7,15.9L16.7,30L19.5,30L19.5,15.3L23.3,14.6C23.9,14.5 24.4,13.8 24.4,13.2L24.4,7.3C24.4,6.5 23.8,5.9 23,5.9L22.8,5.9L19.5,6.6L19.5,-9.9L23.3,-10.6M7.8,9.1L7.8,-7.5L16.7,-9.3L16.7,7.2L7.8,9.1" style="fill-rule:nonzero;"/>
        </g>
        <g transform="matrix(0.992126,0,0,0.992126,136.242,412.53)">
            <path d="M23.3,-10.6C23.9,-10.7 24.4,-11.4 24.4,-12L24.4,-17.9C24.4,-18.7 23.8,-19.3 23,-19.3L22.8,-19.3L19.5,-18.6L19.5,-33.5L16.7,-33.5L16.7,-18L7.8,-16.2L7.8,-30.3L5,-30.3L5,-15.6L1.1,-14.8C0.5,-14.7 0,-14 0,-13.4L0,-7.4L0,-7.6C0,-6.8 0.6,-6.2 1.4,-6.2L1.7,-6.2L5,-6.9L5,9.6L1.1,10.4C0.5,10.5 0,11.2 0,11.8L0,17.6C0,18.4 0.6,19 1.4,19L1.7,19L5,18.3L5,33.2L7.8,33.2L7.8,17.7L16.7,15.9L16.7,30L19.5,30L19.5,15.3L23.3,14.6C23.9,14.5 24.4,13.8 24.4,13.2L24.4,7.3C24.4,6.5 23.8,5.9 23,5.9L22.8,5.9L19.5,6.6L19.5,-9.9L23.3,-10.6M7.8,9.1L7.8,-7.5L16.7,-9.3L16.7,7.2L7.8,9.1" style="fill-rule:nonzero;"/>
        </g>
        <g transform="matrix(0.992126,0,0,0.992126,161.045,155.02)">
            <path d="M23.3,-10.6C23.9,-10.7 24.4,-11.4 24.4,-12L24.4,-17.9C24.4,-18.7 23.8,-19.3 23,-19.3L22.8,-19.3L19.5,-18.6L19.5,-33.5L16.7,-33.5L16.7,-18L7.8,-16.2L7.8,-30.3L5,-30.3L5,-15.6L1.1,-14.8C0.5,-14.7 0,-14 0,-13.4L0,-7.4L0,-7.6C0,-6.8 0.6,-6.2 1.4,-6.2L1.7,-6.2L5,-6.9L5,9.6L1.1,10.4C0.5,10.5 0,11.2 0,11.8L0,17.6C0,18.4 0.6,19 1.4,19L1.7,19L5,18.3L5,33.2L7.8,33.2L7.8,17.7L16.7,15.9L16.7,30L19.5,30L19.5,15.3L23.3,14.6C23.9,14.5 24.4,13.8 24.4,13.2L24.4,7.3C24.4,6.5 23.8,5.9 23,5.9L22.8,5.9L19.5,6.6L19.5,-9.9L23.3,-10.6M7.8,9.1L7.8,-7.5L16.7,-9.3L16.7,7.2L7.8,9.1" style="fill-rule:nonzero;"/>
        </g>
        <g transform="matrix(0.992126,0,0,0.992126,136.242,117.815)">
            <path d="M23.3,-10.6C23.9,-10.7 24.4,-11.4 24.4,-12L24.4,-17.9C24.4,-18.7 23.8,-19.3 23,-19.3L22.8,-19.3L19.5,-18.6L19.5,-33.5L16.7,-33.5L16.7,-18L7.8,-16.2L7.8,-30.3L5,-30.3L5,-15.6L1.1,-14.8C0.5,-14.7 0,-14 0,-13.4L0,-7.4L0,-7.6C0,-6.8 0.6,-6.2 1.4,-6.2L1.7,-6.2L5,-6.9L5,9.6L1.1,10.4C0.5,10.5 0,11.2 0,11.8L0,17.6C0,18.4 0.6,19 1.4,19L1.7,19L5,18.3L5,33.2L7.8,33.2L7.8,17.7L16.7,15.9L16.7,30L19.5,30L19.5,15.3L23.3,14.6C23.9,14.5 24.4,13.8 24.4,13.2L24.4,7.3C24.4,6.5 23.8,5.9 23,5.9L22.8,5.9L19.5,6.6L19.5,-9.9L23.3,-10.6M7.8,9.1L7.8,-7.5L16.7,-9.3L16.7,7.2L7.8,9.1" style="fill-rule:nonzero;"/>
        </g>
        <g transform="matrix(0.992126,0,0,0.992126,1301.61,117.815)">
            <path d="M23.2,16.9L23,16.6C22.9,16.5 22.7,16.3 22.4,15.9L10.9,1.7C10.6,1.4 10.7,0.6 10.9,0.2L21.1,-15.2C21.2,-15.4 21.3,-15.7 21.3,-15.9L21.3,-16.8C21.3,-17.1 21.2,-17.4 21,-17.6L4.8,-39.5C4.8,-39.5 4,-40.7 3,-39.8C2,-39 2.8,-37.7 2.8,-37.7L10.4,-27.3C10.8,-26.7 10.8,-25.5 10.4,-24.9L0.3,-9.5C0.2,-9.3 0.1,-8.9 0.1,-8.7L0.1,-7.8C0.1,-7.5 0.2,-7.2 0.4,-7L11.6,6.9C11.2,6.8 10.3,6.6 9.1,6.6C7.4,6.6 5.2,7 3.4,8.6C1.2,10.6 0,13.4 0,15.9C0,17.3 0.3,18.7 1.1,19.8C3.2,23 10.7,32.5 10.7,32.5C10.7,32.5 11.6,33.6 12.5,32.9C13.4,32.2 13.2,31.3 12.9,30.8C12.6,30.3 9.4,24.5 9.4,24.5C9.4,24.5 8.7,23.1 8.7,21.3C8.7,20 9.1,18.4 10.4,17.1C11.6,15.9 13,15.5 14.3,15.5C15.6,15.5 16.7,15.9 17.5,16.4L21.4,18.9C21.4,18.9 22.6,19.5 23.2,18.6C23.7,17.8 23.5,17.4 23.2,16.9" style="fill-rule:nonzero;"/>
        </g>
        <g transform="matrix(1,0,0,1,-422.605,-686.19)">
            <path d="M1273.46,1010.66L1350.28,1036.38L1350.28,1049.46L1273.46,1023.74L1273.46,1010.66"/>
        </g>
        <g transform="matrix(1,0,0,1,-422.605,-516.437)">
            <path d="M1273.46,546.189L1350.28,571.906L1350.28,584.984L1273.46,559.267L1273.46,546.189"/>
        </g>
        <g transform="matrix(1,0,0,1,-676.668,-463.771)">
            <path d="M864.098,805.039L863.858,806.919L864.898,806.919C867.498,806.919 868.058,807.119 868.058,807.999C868.058,808.319 867.898,809.119 867.698,809.959L862.578,828.999C862.058,831.039 862.018,831.119 861.658,831.479C861.338,831.839 860.498,831.999 858.738,832.039L858.138,832.039L857.938,833.919L872.458,833.919C875.378,833.919 877.818,833.559 879.418,832.839C882.498,831.519 884.378,828.799 884.378,825.679C884.378,823.919 883.738,822.519 882.338,821.239C881.338,820.319 880.218,819.719 878.098,819.079C880.058,818.719 881.258,818.319 882.578,817.519C884.698,816.239 885.898,814.159 885.898,811.719C885.898,809.399 884.698,807.399 882.658,806.279C881.018,805.399 879.218,805.039 876.138,805.039L864.098,805.039M869.938,818.159L872.258,809.639C872.938,807.159 873.178,806.959 875.258,806.919L876.418,806.919C879.698,806.919 881.138,808.199 881.138,811.119C881.138,813.359 880.178,815.519 878.618,816.719C877.338,817.719 875.618,818.159 873.258,818.159L869.938,818.159M869.458,820.039L871.978,820.039C873.898,820.039 875.738,820.279 876.618,820.639C878.458,821.399 879.498,822.959 879.498,824.919C879.498,826.999 878.538,829.119 877.018,830.439C875.818,831.479 873.858,832.039 871.458,832.039L869.458,832.039C867.258,832.039 866.658,831.799 866.658,830.959C866.658,830.639 866.738,830.159 866.898,829.559L869.458,820.039M903.893,815.719L902.813,819.319C902.533,816.839 900.533,815.119 897.933,815.119C895.453,815.119 893.213,816.359 891.333,818.799C889.293,821.439 888.093,824.799 888.093,827.999C888.093,831.919 890.453,834.519 894.013,834.519C896.533,834.519 898.093,833.519 900.093,830.639C899.933,831.239 899.893,831.519 899.893,831.919C899.893,833.479 900.893,834.519 902.333,834.519C904.093,834.519 905.613,833.559 907.013,831.599C907.853,830.439 908.493,829.319 908.973,828.279L907.733,827.599C906.213,830.679 904.813,832.319 903.773,832.319C903.293,832.319 902.933,831.879 902.933,831.319C902.933,830.879 903.093,830.199 903.373,829.159L907.373,815.719L903.893,815.719M898.613,817.319C900.493,817.319 901.653,818.639 901.653,820.879C901.653,823.199 900.853,826.359 899.613,828.879C898.373,831.359 896.933,832.479 894.933,832.479C892.933,832.479 891.733,830.999 891.733,828.559C891.733,825.039 893.293,820.919 895.413,818.719C896.293,817.799 897.413,817.319 898.613,817.319M920.719,815.119C916.519,815.119 913.479,817.679 913.479,821.159C913.479,822.879 914.479,824.319 916.239,825.239C916.879,825.559 917.679,825.919 919.359,826.599C921.639,827.519 922.199,828.079 922.199,829.479C922.199,831.639 920.399,832.999 917.639,832.999C915.599,832.999 914.159,832.439 914.159,831.639C914.159,831.439 914.279,831.199 914.439,831.039C915.199,830.239 915.279,830.039 915.279,829.319C915.279,828.199 914.399,827.319 913.239,827.319C911.919,827.319 910.919,828.439 910.919,829.999C910.919,832.799 913.399,834.519 917.439,834.519C922.039,834.519 925.199,831.999 925.199,828.359C925.199,826.759 924.479,825.399 923.199,824.519C922.319,823.919 921.919,823.759 919.719,822.959C917.119,822.039 916.439,821.399 916.439,819.839C916.439,817.999 918.199,816.639 920.519,816.639C922.079,816.639 923.119,817.079 923.119,817.719C923.119,817.879 923.039,818.079 922.919,818.279C922.359,819.079 922.279,819.279 922.279,819.879C922.279,820.959 923.119,821.719 924.359,821.719C925.719,821.719 926.639,820.719 926.639,819.279C926.639,816.839 924.199,815.119 920.719,815.119M937.907,815.119C933.707,815.119 930.667,817.679 930.667,821.159C930.667,822.879 931.667,824.319 933.427,825.239C934.067,825.559 934.867,825.919 936.547,826.599C938.827,827.519 939.387,828.079 939.387,829.479C939.387,831.639 937.587,832.999 934.827,832.999C932.787,832.999 931.347,832.439 931.347,831.639C931.347,831.439 931.467,831.199 931.627,831.039C932.387,830.239 932.467,830.039 932.467,829.319C932.467,828.199 931.587,827.319 930.427,827.319C929.107,827.319 928.107,828.439 928.107,829.999C928.107,832.799 930.587,834.519 934.627,834.519C939.227,834.519 942.387,831.999 942.387,828.359C942.387,826.759 941.667,825.399 940.387,824.519C939.507,823.919 939.107,823.759 936.907,822.959C934.307,822.039 933.627,821.399 933.627,819.839C933.627,817.999 935.387,816.639 937.707,816.639C939.267,816.639 940.307,817.079 940.307,817.719C940.307,817.879 940.227,818.079 940.107,818.279C939.547,819.079 939.467,819.279 939.467,819.879C939.467,820.959 940.307,821.719 941.547,821.719C942.907,821.719 943.827,820.719 943.827,819.279C943.827,816.839 941.387,815.119 937.907,815.119M956.817,815.119C954.177,815.119 951.657,816.319 949.457,818.559C947.217,820.839 946.097,823.679 946.097,827.039C946.097,831.639 948.857,834.519 953.217,834.519C956.137,834.519 958.537,833.439 960.497,831.239C962.657,828.839 963.897,825.679 963.897,822.679C963.897,818.519 960.697,815.119 956.817,815.119M956.617,816.639C958.817,816.639 960.097,818.479 960.097,821.559C960.097,823.639 959.297,826.839 958.217,829.039C956.857,831.799 955.377,832.999 953.257,832.999C950.937,832.999 949.697,831.519 949.697,828.799C949.697,825.439 951.057,820.999 952.697,818.799C953.817,817.359 955.097,816.639 956.617,816.639M976.817,815.119C974.177,815.119 971.657,816.319 969.457,818.559C967.217,820.839 966.097,823.679 966.097,827.039C966.097,831.639 968.857,834.519 973.217,834.519C976.137,834.519 978.537,833.439 980.497,831.239C982.657,828.839 983.897,825.679 983.897,822.679C983.897,818.519 980.697,815.119 976.817,815.119M976.617,816.639C978.817,816.639 980.097,818.479 980.097,821.559C980.097,823.639 979.297,826.839 978.217,829.039C976.857,831.799 975.377,832.999 973.257,832.999C970.937,832.999 969.697,831.519 969.697,828.799C969.697,825.439 971.057,820.999 972.697,818.799C973.817,817.359 975.097,816.639 976.617,816.639M995.057,815.119L987.817,815.719L987.657,817.159L988.617,817.159C990.257,817.159 990.897,817.519 990.897,818.399C990.897,818.799 990.817,819.239 990.537,820.159L986.457,833.919L989.937,833.919L991.577,828.359C992.617,824.879 993.097,823.759 994.537,821.639C996.257,819.079 998.377,817.519 1000.1,817.519C1001.02,817.519 1001.7,818.239 1001.7,819.159C1001.7,819.879 1001.54,820.679 1001.1,821.959L998.977,828.199C998.457,829.799 998.257,830.679 998.257,831.519C998.257,833.239 999.457,834.519 1001.02,834.519C1003.58,834.519 1006.22,832.359 1008.38,828.519L1007.22,827.679C1005.18,830.879 1003.5,832.479 1002.22,832.479C1001.86,832.479 1001.54,832.159 1001.54,831.719C1001.54,831.279 1001.66,830.799 1002.3,829.039L1004.18,823.519C1004.82,821.679 1005.14,820.159 1005.14,818.999C1005.14,816.879 1003.42,815.119 1001.3,815.119C998.937,815.119 996.577,816.839 993.897,820.519L995.057,815.119" style="fill-rule:nonzero;"/>
        </g>
        <g transform="matrix(1,0,0,1,-569.826,-306.241)">
            <path d="M775.536,819.759L773.096,828.999C772.536,830.999 772.496,831.119 772.176,831.479C771.776,831.879 770.936,832.039 768.816,832.039L768.656,832.039L768.456,833.919L781.136,833.919L781.376,832.039L780.336,832.039C777.736,832.039 777.176,831.839 777.176,830.959C777.176,830.639 777.336,829.799 777.536,828.999L782.656,809.959C783.216,807.839 783.216,807.839 783.576,807.479C783.976,807.079 784.776,806.959 786.896,806.919L787.096,806.919L787.296,805.039L774.576,805.039L774.376,806.919L775.416,806.919C778.016,806.919 778.576,807.119 778.576,807.999C778.576,808.319 778.456,808.959 778.176,809.959L776.056,817.879L763.176,817.879L765.336,809.959C765.856,807.879 765.896,807.839 766.256,807.479C766.616,807.079 767.456,806.959 769.576,806.919L769.736,806.919L769.936,805.039L757.256,805.039L757.016,806.919L758.056,806.919C760.656,806.919 761.216,807.119 761.216,807.999C761.216,808.319 761.056,809.119 760.856,809.959L755.736,828.999C755.216,830.999 755.176,831.119 754.816,831.479C754.416,831.879 753.576,831.999 751.496,832.039L751.296,832.039L751.096,833.919L763.816,833.919L764.016,832.039L762.976,832.039C760.376,832.039 759.816,831.839 759.816,830.959C759.816,830.639 759.976,829.959 760.216,828.999L762.696,819.759L775.536,819.759M796.848,815.119C794.208,815.119 791.688,816.319 789.488,818.559C787.248,820.839 786.128,823.679 786.128,827.039C786.128,831.639 788.888,834.519 793.248,834.519C796.168,834.519 798.568,833.439 800.528,831.239C802.688,828.839 803.928,825.679 803.928,822.679C803.928,818.519 800.728,815.119 796.848,815.119M796.648,816.639C798.848,816.639 800.128,818.479 800.128,821.559C800.128,823.639 799.328,826.839 798.248,829.039C796.888,831.799 795.408,832.999 793.288,832.999C790.968,832.999 789.728,831.519 789.728,828.799C789.728,825.439 791.088,820.999 792.728,818.799C793.848,817.359 795.128,816.639 796.648,816.639M814.888,815.119L807.648,815.719L807.488,817.159L808.448,817.159C810.048,817.159 810.768,817.519 810.768,818.279C810.768,818.559 810.608,819.399 810.368,820.159L806.288,833.919L809.768,833.919L811.648,827.599C813.128,822.599 816.448,817.559 818.288,817.559C818.848,817.559 819.008,817.839 819.008,818.919C819.008,819.999 819.688,820.639 820.888,820.639C822.248,820.639 823.248,819.559 823.248,818.079C823.248,816.359 821.928,815.119 820.088,815.119C817.848,815.119 816.088,816.439 813.968,819.759L814.888,815.119M832.791,815.119L825.551,815.719L825.391,817.159L826.351,817.159C827.991,817.159 828.631,817.519 828.631,818.399C828.631,818.799 828.551,819.239 828.271,820.159L824.191,833.919L827.671,833.919L829.311,828.359C830.351,824.879 830.831,823.759 832.271,821.639C833.991,819.079 836.111,817.519 837.831,817.519C838.751,817.519 839.431,818.239 839.431,819.159C839.431,819.879 839.271,820.679 838.831,821.959L836.711,828.199C836.191,829.799 835.991,830.679 835.991,831.519C835.991,833.239 837.191,834.519 838.751,834.519C841.311,834.519 843.951,832.359 846.111,828.519L844.951,827.679C842.911,830.879 841.231,832.479 839.951,832.479C839.591,832.479 839.271,832.159 839.271,831.719C839.271,831.279 839.391,830.799 840.031,829.039L841.911,823.519C842.551,821.679 842.871,820.159 842.871,818.999C842.871,816.879 841.151,815.119 839.031,815.119C836.671,815.119 834.311,816.839 831.631,820.519L832.791,815.119" style="fill-rule:nonzero;"/>
        </g>
        <g transform="matrix(1,0,0,1,-569.826,-526.223)">
            <path d="M775.536,819.759L773.096,828.999C772.536,830.999 772.496,831.119 772.176,831.479C771.776,831.879 770.936,832.039 768.816,832.039L768.656,832.039L768.456,833.919L781.136,833.919L781.376,832.039L780.336,832.039C777.736,832.039 777.176,831.839 777.176,830.959C777.176,830.639 777.336,829.799 777.536,828.999L782.656,809.959C783.216,807.839 783.216,807.839 783.576,807.479C783.976,807.079 784.776,806.959 786.896,806.919L787.096,806.919L787.296,805.039L774.576,805.039L774.376,806.919L775.416,806.919C778.016,806.919 778.576,807.119 778.576,807.999C778.576,808.319 778.456,808.959 778.176,809.959L776.056,817.879L763.176,817.879L765.336,809.959C765.856,807.879 765.896,807.839 766.256,807.479C766.616,807.079 767.456,806.959 769.576,806.919L769.736,806.919L769.936,805.039L757.256,805.039L757.016,806.919L758.056,806.919C760.656,806.919 761.216,807.119 761.216,807.999C761.216,808.319 761.056,809.119 760.856,809.959L755.736,828.999C755.216,830.999 755.176,831.119 754.816,831.479C754.416,831.879 753.576,831.999 751.496,832.039L751.296,832.039L751.096,833.919L763.816,833.919L764.016,832.039L762.976,832.039C760.376,832.039 759.816,831.839 759.816,830.959C759.816,830.639 759.976,829.959 760.216,828.999L762.696,819.759L775.536,819.759M796.848,815.119C794.208,815.119 791.688,816.319 789.488,818.559C787.248,820.839 786.128,823.679 786.128,827.039C786.128,831.639 788.888,834.519 793.248,834.519C796.168,834.519 798.568,833.439 800.528,831.239C802.688,828.839 803.928,825.679 803.928,822.679C803.928,818.519 800.728,815.119 796.848,815.119M796.648,816.639C798.848,816.639 800.128,818.479 800.128,821.559C800.128,823.639 799.328,826.839 798.248,829.039C796.888,831.799 795.408,832.999 793.288,832.999C790.968,832.999 789.728,831.519 789.728,828.799C789.728,825.439 791.088,820.999 792.728,818.799C793.848,817.359 795.128,816.639 796.648,816.639M814.888,815.119L807.648,815.719L807.488,817.159L808.448,817.159C810.048,817.159 810.768,817.519 810.768,818.279C810.768,818.559 810.608,819.399 810.368,820.159L806.288,833.919L809.768,833.919L811.648,827.599C813.128,822.599 816.448,817.559 818.288,817.559C818.848,817.559 819.008,817.839 819.008,818.919C819.008,819.999 819.688,820.639 820.888,820.639C822.248,820.639 823.248,819.559 823.248,818.079C823.248,816.359 821.928,815.119 820.088,815.119C817.848,815.119 816.088,816.439 813.968,819.759L814.888,815.119M832.791,815.119L825.551,815.719L825.391,817.159L826.351,817.159C827.991,817.159 828.631,817.519 828.631,818.399C828.631,818.799 828.551,819.239 828.271,820.159L824.191,833.919L827.671,833.919L829.311,828.359C830.351,824.879 830.831,823.759 832.271,821.639C833.991,819.079 836.111,817.519 837.831,817.519C838.751,817.519 839.431,818.239 839.431,819.159C839.431,819.879 839.271,820.679 838.831,821.959L836.711,828.199C836.191,829.799 835.991,830.679 835.991,831.519C835.991,833.239 837.191,834.519 838.751,834.519C841.311,834.519 843.951,832.359 846.111,828.519L844.951,827.679C842.911,830.879 841.231,832.479 839.951,832.479C839.591,832.479 839.271,832.159 839.271,831.719C839.271,831.279 839.391,830.799 840.031,829.039L841.911,823.519C842.551,821.679 842.871,820.159 842.871,818.999C842.871,816.879 841.151,815.119 839.031,815.119C836.671,815.119 834.311,816.839 831.631,820.519L832.791,815.119" style="fill-rule:nonzero;"/>
        </g>
        <g transform="matrix(1,0,0,1,-462.704,-752.529)">
            <path d="M673.254,805.039L650.134,805.039L649.894,806.919L650.934,806.919C653.534,806.919 654.094,807.119 654.094,807.999C654.094,808.319 653.934,809.119 653.734,809.959L648.614,828.999C648.094,830.959 648.054,831.119 647.694,831.479C647.294,831.879 646.454,832.039 644.374,832.039L644.174,832.039L643.974,833.919L656.694,833.919L656.894,832.039L655.854,832.039C653.254,832.039 652.694,831.839 652.694,830.959C652.694,830.639 652.854,829.959 653.094,828.999L655.574,819.759L656.454,819.759C659.454,819.799 660.894,820.959 660.894,823.439C660.894,824.279 660.814,824.879 660.534,826.159L662.334,826.479L665.894,813.119L664.094,812.879C662.854,816.519 660.974,817.799 656.974,817.879L656.054,817.879L658.254,809.679C658.894,807.159 659.214,806.959 662.254,806.919L664.334,806.919C666.054,806.919 667.414,807.359 668.414,808.239C669.534,809.239 669.894,810.519 669.894,813.279L669.894,814.679L671.694,814.679L673.254,805.039M683.844,804.439L675.884,805.039L675.724,806.479L676.964,806.479C678.604,806.479 679.244,806.839 679.244,807.719C679.244,808.119 679.124,808.639 678.884,809.479L673.804,826.639C672.844,829.919 672.724,830.439 672.724,831.719C672.724,833.439 673.724,834.519 675.324,834.519C677.844,834.519 680.404,832.399 682.804,828.319L681.564,827.639C679.484,830.799 677.764,832.479 676.644,832.479C676.204,832.479 675.924,832.159 675.924,831.639C675.924,831.159 675.924,831.119 676.444,829.439L683.844,804.439M705.757,815.719L702.277,815.719L700.397,822.119C698.757,827.679 695.077,832.239 692.237,832.239C691.277,832.239 690.517,831.479 690.517,830.519C690.517,829.999 690.637,829.359 690.957,828.239L694.877,815.119L687.157,815.719L687.037,817.159L687.997,817.159C689.637,817.159 690.237,817.519 690.237,818.439C690.237,818.839 690.117,819.399 689.917,820.159L688.317,825.559C687.077,829.559 687.077,829.559 687.077,830.799C687.077,832.999 688.597,834.479 690.877,834.479C693.677,834.479 695.957,832.839 698.317,829.159C697.917,830.559 697.837,831.119 697.837,831.879C697.837,833.439 698.917,834.519 700.397,834.519C702.837,834.519 704.797,832.879 707.637,828.519L706.437,827.799C704.477,830.719 702.917,832.319 702.037,832.319C701.677,832.319 701.317,831.879 701.317,831.359C701.317,830.919 701.477,830.159 701.797,828.999L705.757,815.719M720.594,809.079L717.114,809.079L715.154,815.719L711.394,815.719L710.834,817.599L714.594,817.599L711.594,827.679C710.994,829.719 710.834,830.559 710.834,831.479C710.834,833.199 712.074,834.519 713.714,834.519C715.594,834.519 717.834,833.279 719.234,831.399C719.794,830.639 720.194,829.999 721.234,828.319L720.034,827.519C717.514,831.319 716.394,832.399 715.074,832.399C714.514,832.399 714.154,831.959 714.154,831.279C714.154,830.959 714.194,830.679 714.274,830.359L718.074,817.599L722.434,817.599L722.994,815.719L718.634,815.719L720.594,809.079M737.316,829.279C734.956,831.719 733.236,832.639 731.116,832.639C728.716,832.639 727.236,831.039 727.236,828.479C727.236,828.199 727.276,827.639 727.316,827.119C732.036,825.999 732.756,825.759 734.596,824.959C737.716,823.599 739.396,821.559 739.396,819.239C739.396,816.799 737.476,815.119 734.636,815.119C728.796,815.119 723.516,821.039 723.516,827.599C723.516,831.919 726.116,834.519 730.436,834.519C733.516,834.519 736.116,833.159 738.276,830.359L737.316,829.279M727.516,825.559C728.436,820.159 730.876,816.719 733.836,816.719C735.156,816.719 736.036,817.639 736.036,818.999C736.036,820.919 734.796,822.639 732.596,823.839C731.156,824.679 730.156,824.999 727.516,825.559" style="fill-rule:nonzero;"/>
        </g>
    </g>
</svg>
